<?xml version="1.0" encoding="utf-8"?>
<!-- Generator: Adobe Illustrator 19.2.1, SVG Export Plug-In . SVG Version: 6.00 Build 0)  -->
<svg version="1.1" id="Layer_1" xmlns="http://www.w3.org/2000/svg" xmlns:xlink="http://www.w3.org/1999/xlink" x="0px" y="0px"
	 viewBox="0 0 390 340" style="enable-background:new 0 0 390 340;" xml:space="preserve">
<style type="text/css">
	.st0{opacity:0.25;fill:#B0DDFF;}
	.st1{fill:#B0DDFF;}
	.st2{fill:none;}
	.st3{fill:#4C4F70;}
	.st4{fill:#F6E6CC;}
</style>
<ellipse transform="matrix(0.0078 -0.99997 0.99997 0.0078 37.03852 377.32858)" class="st0" cx="208.66109" cy="170" rx="158.44843" ry="158.44843"/>
<ellipse transform="matrix(0.0078 -0.99997 0.99997 0.0078 37.03852 377.32858)" class="st0" cx="208.66109" cy="170" rx="137.43694" ry="137.43694"/>
<ellipse transform="matrix(0.0078 -0.99997 0.99997 0.0078 37.03852 377.32858)" class="st0" cx="208.66109" cy="170" rx="118.40244" ry="118.40244"/>
<ellipse transform="matrix(0.0078 -0.99997 0.99997 0.0078 35.98705 378.35574)" class="st1" cx="208.65295" cy="171.04343" rx="105.41122" ry="105.41122"/>
<ellipse transform="matrix(0.0078 -0.99997 0.99997 0.0078 35.98705 378.35574)" class="st2" cx="208.65295" cy="171.04343" rx="105.41122" ry="105.41122"/>
<g>
	<path class="st3" d="M36.80999,197.67657l-3.60138,3.60138c-0.33162,0.33162-0.33162,0.86884,0,1.20045
		c0.16581,0.16582,0.38302,0.24872,0.60023,0.24872c0.21721,0,0.43442-0.0829,0.60023-0.24872l3.60138-3.60138
		c0.33162-0.3316,0.33162-0.86884,0-1.20045C37.67883,197.34496,37.14161,197.34496,36.80999,197.67657z"/>
	<path class="st3" d="M70.42616,166.46132c0.33162-0.33162,0.33162-0.86884,0-1.20045s-0.86884-0.33162-1.20046,0l-3.60138,3.60138
		c-0.33162,0.33162-0.33162,0.86884,0,1.20045c0.16581,0.16582,0.38303,0.24872,0.60023,0.24872s0.43442-0.0829,0.60023-0.24872
		L70.42616,166.46132z"/>
	<path class="st3" d="M59.78286,229.61974l-3.60138,3.60138c-0.33162,0.33162-0.33162,0.86884,0,1.20045
		c0.16581,0.16582,0.38302,0.24872,0.60023,0.24872s0.43442-0.0829,0.60023-0.24872l3.60138-3.60138
		c0.33162-0.33162,0.33162-0.86884,0-1.20045S60.11448,229.28812,59.78286,229.61974z"/>
	<path class="st3" d="M45.2132,191.67429l3.60138-3.60138c0.33162-0.33162,0.33162-0.86884,0-1.20045s-0.86884-0.33162-1.20046,0
		l-3.60138,3.60136c-0.33162,0.33162-0.33162,0.86885,0,1.20047c0.16581,0.1658,0.38302,0.2487,0.60023,0.2487
		S45.04739,191.84009,45.2132,191.67429z"/>
	<path class="st3" d="M48.98868,240.40398c-1.18388,1.1192-2.50703,2.07593-3.93465,2.84363
		c-0.41286,0.22218-0.56707,0.73785-0.34488,1.15071c0.1542,0.28519,0.44603,0.44603,0.7478,0.44603
		c0.13596,0,0.27525-0.03316,0.40292-0.10115c1.55695-0.83899,3.0028-1.88359,4.29612-3.10561
		c0.33991-0.32167,0.35483-0.85889,0.03316-1.20045C49.86747,240.09888,49.33025,240.08064,48.98868,240.40398z"/>
	<path class="st3" d="M59.62037,177.26712c0.33162-0.33162,0.33162-0.86885,0-1.20047s-0.86884-0.33162-1.20046,0l-3.60138,3.60138
		c-0.33162,0.33162-0.33162,0.86884,0,1.20045c0.16581,0.16582,0.38302,0.24872,0.60023,0.24872s0.43442-0.0829,0.60023-0.24872
		L59.62037,177.26712z"/>
	<path class="st3" d="M70.58865,218.81395l-3.60303,3.60303c-0.33162,0.33162-0.33162,0.86885,0,1.20047
		c0.16581,0.1658,0.38302,0.2487,0.60023,0.2487s0.43443-0.0829,0.60023-0.2487l3.60303-3.60304
		c0.33162-0.33162,0.33162-0.86884,0-1.20045S70.92027,218.48233,70.58865,218.81395z"/>
	<path class="st3" d="M93.39904,197.20403c-0.33162-0.33162-0.86884-0.33162-1.20046,0l-3.60138,3.60138
		c-0.33162,0.33162-0.33162,0.86884,0,1.20045c0.16581,0.1658,0.38302,0.24872,0.60023,0.24872
		c0.21721,0,0.43442-0.08292,0.60023-0.24872l3.60138-3.60138C93.73065,198.07286,93.73065,197.53564,93.39904,197.20403z"/>
	<path class="st3" d="M94.50498,266.68973c-0.07958-0.46262-0.52396-0.7677-0.97993-0.69476
		c-0.46261,0.07959-0.77267,0.51733-0.69474,0.97995c0.29845,1.75095,0.82738,3.4538,1.56855,5.06216
		c0.1426,0.31171,0.451,0.49411,0.77102,0.49411c0.11938,0,0.24042-0.02487,0.35483-0.07794
		c0.42613-0.19565,0.61184-0.70139,0.41618-1.12585C95.26108,269.85336,94.77857,268.29309,94.50498,266.68973z"/>
	<path class="st3" d="M96.27583,251.82159c-1.02967,1.44753-1.86369,3.02437-2.47719,4.68909
		c-0.16249,0.43939,0.06135,0.92688,0.5024,1.08939c0.09617,0.03647,0.19566,0.05304,0.29348,0.05304
		c0.34489,0,0.66987-0.21222,0.79588-0.55545c0.5621-1.52214,1.32648-2.96634,2.26827-4.29115
		c0.27193-0.38301,0.18239-0.91194-0.19897-1.18387C97.08166,251.35236,96.54942,251.44023,96.27583,251.82159z"/>
	<path class="st3" d="M92.03609,144.85139c0.33162-0.33162,0.33162-0.86884,0-1.20045s-0.86884-0.33162-1.20046,0l-3.60138,3.60138
		c-0.33162,0.33162-0.33162,0.86884,0,1.20045c0.16581,0.16582,0.38302,0.24872,0.60023,0.24872
		c0.21721,0,0.43442-0.0829,0.60023-0.24872L92.03609,144.85139z"/>
	<path class="st3" d="M81.39278,208.00981l-3.60137,3.60138c-0.33162,0.33162-0.33162,0.86884,0,1.20045
		c0.16581,0.16582,0.38302,0.24872,0.60023,0.24872s0.43442-0.0829,0.60023-0.24872l3.60138-3.60138
		c0.33162-0.33162,0.33162-0.86884,0-1.20045S81.7244,207.67819,81.39278,208.00981z"/>
	<path class="st3" d="M81.23195,155.65553c0.33162-0.33162,0.33162-0.86884,0-1.20045s-0.86884-0.33162-1.20045,0l-3.60303,3.60303
		c-0.33162,0.33162-0.33162,0.86885,0,1.20045c0.16581,0.16582,0.38302,0.24872,0.60023,0.24872s0.43442-0.0829,0.60023-0.24872
		L81.23195,155.65553z"/>
	<path class="st3" d="M266.89566,83.20143l3.35391-3.3539c0.3316-0.33162,0.3316-0.86884,0-1.20045
		c-0.33163-0.33162-0.86887-0.33162-1.20047,0l-3.60138,3.60137c-0.00165,0.00166-0.00208,0.00415-0.00394,0.00581
		C265.93042,82.56638,266.41461,82.88163,266.89566,83.20143z"/>
	<path class="st3" d="M102.84187,134.04561c0.33162-0.33162,0.33162-0.86884,0-1.20045s-0.86884-0.33162-1.20045,0l-3.60138,3.60138
		c-0.33162,0.3316-0.33162,0.86884,0,1.20045c0.16581,0.1658,0.38302,0.24872,0.60023,0.24872s0.43443-0.08292,0.60023-0.24872
		L102.84187,134.04561z"/>
	<path class="st3" d="M266.9317,42.54044c1.45749,0.70966,2.82043,1.61001,4.05072,2.67948
		c0.16086,0.13928,0.35983,0.20726,0.55713,0.20726c0.23712,0,0.47256-0.09948,0.64169-0.29182
		c0.30673-0.35483,0.26862-0.8904-0.08456-1.1988c-1.34305-1.16564-2.83038-2.14889-4.42215-2.92156
		c-0.41452-0.20726-0.92853-0.03151-1.13412,0.39131C266.33481,41.82746,266.51056,42.33649,266.9317,42.54044z"/>
	<path class="st3" d="M278.72739,57.38535c0.07959,0.40623,0.43442,0.68811,0.83237,0.68811
		c0.05472,0,0.10779-0.00497,0.16248-0.01492c0.46097-0.08953,0.76108-0.53556,0.67319-0.99485
		c-0.33658-1.74266-0.90366-3.43391-1.6813-5.029c-0.2056-0.42116-0.71298-0.59028-1.13577-0.38965
		c-0.42117,0.2056-0.59528,0.71464-0.38965,1.13579C277.90167,54.23994,278.41898,55.79026,278.72739,57.38535z"/>
	<path class="st3" d="M276.59012,72.66135c0.27191,0,0.53888-0.13099,0.70303-0.37307
		c0.99319-1.46576,1.79074-3.06084,2.36942-4.74049c0.15253-0.44437-0.08292-0.92688-0.52563-1.07942
		c-0.45432-0.15421-0.92688,0.08291-1.07941,0.52562c-0.52893,1.5387-1.26016,2.99949-2.17044,4.34254
		c-0.26199,0.38799-0.16086,0.91527,0.22714,1.1789C276.26013,72.61327,276.42596,72.66135,276.59012,72.66135z"/>
	<path class="st3" d="M312.61716,96.55447c0.21719,0,0.43442-0.08291,0.60022-0.24872l3.60303-3.60303
		c0.33163-0.33162,0.33163-0.86884,0-1.20046c-0.3316-0.33161-0.86884-0.33161-1.20044,0l-3.60306,3.60304
		c-0.3316,0.33162-0.3316,0.86884,0,1.20045C312.18274,96.47157,312.39993,96.55447,312.61716,96.55447z"/>
	<path class="st3" d="M301.81302,107.3586c0.21719,0,0.43442-0.08291,0.60022-0.24872l3.60138-3.60137
		c0.33163-0.33162,0.33163-0.86884,0-1.20046c-0.3316-0.33162-0.86884-0.33162-1.20047,0l-3.60135,3.60138
		c-0.33163,0.33162-0.33163,0.86884,0,1.20045C301.3786,107.2757,301.59579,107.3586,301.81302,107.3586z"/>
	<path class="st3" d="M35.68082,245.4512c-1.62659-0.04974-3.23991-0.31172-4.79686-0.77765
		c-0.44603-0.13762-0.9219,0.11938-1.0562,0.56873c-0.13596,0.44936,0.11938,0.92191,0.56873,1.05621
		c1.69789,0.5107,3.45878,0.79588,5.23128,0.8506c0.00995,0,0.01824,0,0.02653,0c0.45763,0,0.83402-0.36313,0.84894-0.82242
		C36.51651,245.85744,36.14841,245.46613,35.68082,245.4512z"/>
	<path class="st3" d="M252.43666,41.75119c0.09286,0,0.18571-0.01492,0.27856-0.04642
		c1.53043-0.53225,3.13214-0.86055,4.75874-0.97662c0.46756-0.03482,0.81909-0.44106,0.78592-0.90864
		c-0.03482-0.46924-0.44769-0.83899-0.90863-0.78593c-1.77415,0.12767-3.52179,0.48582-5.19315,1.06615
		c-0.44272,0.1542-0.6765,0.63836-0.52396,1.08107C251.75685,41.53066,252.08516,41.75119,252.43666,41.75119z"/>
	<path class="st3" d="M19.87091,235.65022c-0.22053-0.41452-0.73785-0.57039-1.14906-0.34654
		c-0.41287,0.22052-0.56873,0.73453-0.34654,1.14906c0.83236,1.55528,1.87199,3.00279,3.09068,4.30275
		c0.16747,0.17906,0.39297,0.2686,0.62013,0.2686c0.20892,0,0.41618-0.07626,0.58033-0.22881
		c0.34157-0.32167,0.35981-0.8589,0.03979-1.20047C21.5887,238.40265,20.63529,237.07617,19.87091,235.65022z"/>
	<path class="st3" d="M26.0042,208.48238l-3.60138,3.60136c-0.33162,0.33162-0.33162,0.86885,0,1.20047
		c0.16581,0.1658,0.38302,0.2487,0.60023,0.2487s0.43442-0.0829,0.60023-0.2487l3.60138-3.60138
		c0.33162-0.33162,0.33162-0.86885,0-1.20045C26.87304,208.15076,26.33582,208.15076,26.0042,208.48238z"/>
	<path class="st3" d="M17.92265,220.41898c-0.45597-0.13596-0.92356,0.11772-1.05952,0.56541
		c-0.51567,1.69623-0.80583,3.45546-0.86552,5.22963c-0.01492,0.46924,0.35151,0.86055,0.82076,0.87712
		c0.00995,0,0.0199,0,0.02819,0c0.45597,0,0.83402-0.36147,0.84894-0.82076c0.05306-1.62492,0.32001-3.23825,0.79257-4.79189
		C18.62403,221.02916,18.37034,220.55495,17.92265,220.41898z"/>
	<path class="st3" d="M229.66608,61.78592c0.21721,0,0.43442-0.0829,0.60023-0.24871l3.60138-3.60138
		c0.33162-0.33162,0.33162-0.86884,0-1.20046s-0.86885-0.33162-1.20047,0l-3.60136,3.60138
		c-0.33162,0.33162-0.33162,0.86884,0,1.20046C229.23166,61.70302,229.44887,61.78592,229.66608,61.78592z"/>
	<path class="st3" d="M109.4444,127.09157c0.21721,0,0.43442-0.08291,0.60023-0.24872l3.60303-3.60303
		c0.33162-0.33162,0.33162-0.86884,0-1.20045s-0.86884-0.33162-1.20046,0l-3.60303,3.60303
		c-0.33162,0.33162-0.33162,0.86884,0,1.20045C109.00998,127.00866,109.22719,127.09157,109.4444,127.09157z"/>
	<path class="st3" d="M240.47186,50.98013c0.21722,0,0.43443-0.0829,0.60023-0.24871l3.60138-3.60138
		c0.33162-0.33162,0.33162-0.86884,0-1.20046s-0.86884-0.33162-1.20045,0l-3.60138,3.60138
		c-0.33162,0.33162-0.33162,0.86884,0,1.20046C240.03745,50.89723,240.25465,50.98013,240.47186,50.98013z"/>
	<path class="st3" d="M327.62454,80.69813c-0.3316-0.33162-0.86884-0.33162-1.20047,0l-3.60138,3.60138
		c-0.3316,0.33162-0.3316,0.86884,0,1.20046c0.16583,0.16581,0.38303,0.24871,0.60025,0.24871
		c0.21719,0,0.43442-0.0829,0.60022-0.24871l3.60138-3.60138C327.95618,81.56697,327.95618,81.02975,327.62454,80.69813z"/>
	<path class="st3" d="M329.94421,134.91444l-3.60138,3.60138c-0.3316,0.33162-0.3316,0.86885,0,1.20045
		c0.1658,0.16582,0.38303,0.24872,0.60022,0.24872c0.21722,0,0.43445-0.0829,0.60025-0.24872l3.60138-3.60136
		c0.3316-0.33162,0.3316-0.86885,0-1.20047C330.81305,134.58282,330.27585,134.58282,329.94421,134.91444z"/>
	<path class="st3" d="M338.43033,69.89234c-0.3316-0.33162-0.86884-0.33162-1.20044,0l-3.60138,3.60137
		c-0.33163,0.33162-0.33163,0.86884,0,1.20046c0.1658,0.16581,0.383,0.24871,0.60022,0.24871s0.43442-0.0829,0.60022-0.24871
		l3.60138-3.60138C338.76196,70.76118,338.76196,70.22395,338.43033,69.89234z"/>
	<path class="st3" d="M254.61064,265.91125c-0.05991,0.27316,0.00102,0.56747,0.21368,0.78012
		c0.1658,0.1658,0.38301,0.24872,0.60022,0.24872s0.43443-0.08292,0.60023-0.24872l3.11679-3.11679
		C257.6524,264.3891,256.14209,265.16779,254.61064,265.91125z"/>
	<path class="st3" d="M340.75,124.10866l-3.60138,3.60138c-0.3316,0.33162-0.3316,0.86884,0,1.20045
		c0.16583,0.16582,0.38303,0.24872,0.60025,0.24872c0.21719,0,0.43442-0.0829,0.60022-0.24872l3.60138-3.60137
		c0.3316-0.33162,0.3316-0.86884,0-1.20046C341.61884,123.77704,341.08163,123.77704,340.75,124.10866z"/>
	<path class="st3" d="M319.13843,145.72025l-3.60138,3.60136c-0.3316,0.33162-0.3316,0.86885,0,1.20047
		c0.1658,0.1658,0.38303,0.2487,0.60022,0.2487c0.21722,0,0.43442-0.0829,0.60025-0.2487l3.60138-3.60138
		c0.3316-0.33162,0.3316-0.86884,0-1.20045C320.00726,145.38863,319.47003,145.38863,319.13843,145.72025z"/>
	<path class="st3" d="M372.39139,75.9593c-0.20062-0.42447-0.70801-0.60852-1.12915-0.40955
		c-0.42447,0.20063-0.60852,0.70469-0.40955,1.12916c0.68976,1.46907,1.18222,3.02602,1.46576,4.63106
		c0.07294,0.41121,0.43109,0.70137,0.83401,0.70137c0.04974,0,0.09949-0.00331,0.14923-0.01326
		c0.46259-0.08125,0.76935-0.5223,0.68811-0.98325C373.6814,79.26222,373.14252,77.56102,372.39139,75.9593z"/>
	<path class="st3" d="M351.99518,63.72755c-0.03647-0.46758-0.45596-0.81578-0.91193-0.78262
		c-1.7692,0.1343-3.51352,0.50074-5.18817,1.08936c-0.44272,0.15586-0.67487,0.64003-0.51898,1.08273
		c0.12268,0.34821,0.45099,0.56707,0.80084,0.56707c0.09286,0,0.18903-0.01492,0.28189-0.04808
		c1.53372-0.53888,3.13214-0.87382,4.75375-0.99651C351.68015,64.60302,352.03,64.19513,351.99518,63.72755z"/>
	<path class="st3" d="M247.62157,272.69366l-3.60304,3.60303c-0.33162,0.33163-0.33162,0.86887,0,1.20047
		c0.16582,0.1658,0.38303,0.24872,0.60023,0.24872s0.43442-0.08292,0.60023-0.24872l3.60303-3.60303
		c0.33162-0.33163,0.33162-0.86884,0-1.20047C248.4904,272.36206,247.95319,272.36206,247.62157,272.69366z"/>
	<path class="st3" d="M361.41315,64.88656c-0.42279-0.2056-0.92853-0.02654-1.13248,0.39628
		c-0.20392,0.42281-0.02652,0.93019,0.3963,1.13248c1.46078,0.70303,2.82706,1.5984,4.05902,2.6629
		c0.16083,0.13927,0.35812,0.20726,0.55545,0.20726c0.23709,0,0.47421-0.09949,0.64169-0.29348
		c0.30673-0.35484,0.26859-0.89206-0.08624-1.19714C364.50052,66.63087,363.00824,65.6526,361.41315,64.88656z"/>
	<path class="st3" d="M372.57877,90.39963c-0.43442-0.15752-0.92688,0.06633-1.08606,0.50904
		c-0.5538,1.5271-1.30823,2.97627-2.24173,4.30606c-0.27029,0.38302-0.17743,0.91361,0.20724,1.18222
		c0.14758,0.10446,0.31836,0.15421,0.48749,0.15421c0.26694,0,0.52893-0.12601,0.69473-0.36147
		c1.01974-1.45249,1.84381-3.03431,2.44736-4.70401C373.24863,91.04463,373.01981,90.55881,372.57877,90.39963z"/>
	<path class="st3" d="M351.55414,113.30453l-3.60138,3.60137c-0.3316,0.33162-0.3316,0.86884,0,1.20046
		c0.1658,0.16581,0.38303,0.24871,0.60022,0.24871c0.21722,0,0.43445-0.0829,0.60025-0.24871l3.60138-3.60138
		c0.3316-0.33162,0.3316-0.86884,0-1.20045C352.42297,112.97291,351.88577,112.97291,351.55414,113.30453z"/>
	<path class="st3" d="M362.35992,102.49873l-3.60138,3.60138c-0.3316,0.33162-0.3316,0.86884,0,1.20045
		c0.16583,0.16581,0.38303,0.24872,0.60025,0.24872c0.21719,0,0.43442-0.08291,0.60022-0.24872l3.60138-3.60137
		c0.3316-0.33162,0.3316-0.86884,0-1.20046C363.22876,102.16711,362.69156,102.16711,362.35992,102.49873z"/>
	<path class="st3" d="M131.92979,275.19241l-3.60138,3.60138c-0.33161,0.33163-0.33161,0.86884,0,1.20047
		c0.16582,0.1658,0.38303,0.24872,0.60023,0.24872s0.43442-0.08292,0.60023-0.24872l3.60138-3.60138
		c0.3316-0.33163,0.3316-0.86884,0-1.20047C132.79865,274.86081,132.26141,274.86081,131.92979,275.19241z"/>
	<path class="st3" d="M115.37374,234.72334l3.60138-3.60138c0.33162-0.33162,0.33162-0.86884,0-1.20045s-0.86884-0.33162-1.20046,0
		l-3.60138,3.60138c-0.33162,0.33162-0.33162,0.86884,0,1.20045c0.16581,0.16582,0.38303,0.24872,0.60023,0.24872
		S115.20793,234.88916,115.37374,234.72334z"/>
	<path class="st3" d="M120.03133,283.69843c-1.56193,0.43112-3.18022,0.65662-4.81179,0.67154
		c-0.46758,0.00497-0.84396,0.388-0.84065,0.85724c0.00332,0.46591,0.38302,0.84064,0.84895,0.84064c0.00166,0,0.00497,0,0.00829,0
		c1.77747-0.01492,3.54334-0.26196,5.2462-0.73453c0.45266-0.12436,0.71796-0.59195,0.59194-1.04294
		C120.95157,283.83771,120.47901,283.57242,120.03133,283.69843z"/>
	<path class="st3" d="M104.20483,187.59869c0.33162-0.33162,0.33162-0.86885,0-1.20047s-0.86884-0.33162-1.20045,0l-3.60303,3.60304
		c-0.33162,0.33162-0.33162,0.86884,0,1.20045c0.1658,0.16582,0.38302,0.24872,0.60023,0.24872s0.43442-0.0829,0.60023-0.24872
		L104.20483,187.59869z"/>
	<path class="st3" d="M106.96887,240.72729l-3.60138,3.60138c-0.33162,0.33162-0.33162,0.86885,0,1.20045
		c0.16581,0.16582,0.38302,0.24872,0.60023,0.24872s0.43442-0.0829,0.60023-0.24872l3.60138-3.60136
		c0.33162-0.33162,0.33162-0.86885,0-1.20047S107.30048,240.39568,106.96887,240.72729z"/>
	<path class="st3" d="M105.8994,281.96075c-1.40938-0.80087-2.71264-1.78741-3.87331-2.93317
		c-0.33493-0.32996-0.87215-0.32666-1.20045,0.00662c-0.32996,0.33493-0.32664,0.87216,0.00663,1.20047
		c1.26844,1.25186,2.69109,2.32797,4.22813,3.20178c0.13265,0.07626,0.2769,0.11108,0.4195,0.11108
		c0.29514,0,0.58199-0.15421,0.73785-0.42944C106.44988,282.71021,106.30729,282.19287,105.8994,281.96075z"/>
	<path class="st3" d="M142.7356,264.38663l-3.60304,3.60303c-0.33162,0.33163-0.33162,0.86884,0,1.20047
		c0.1658,0.1658,0.38303,0.24872,0.60023,0.24872s0.43442-0.08292,0.60022-0.24872l3.60304-3.60303
		c0.33162-0.33163,0.33162-0.86887,0-1.20047C143.60443,264.05499,143.0672,264.05499,142.7356,264.38663z"/>
	<path class="st3" d="M215.20586,305.10938l-0.70801,0.70801c-0.92688,0.92688-1.94826,1.75427-3.03596,2.46063
		c-0.39297,0.25366-0.50406,0.78094-0.24872,1.17392c0.16249,0.25037,0.43442,0.38632,0.71132,0.38632
		c0.15918,0,0.32001-0.04477,0.46262-0.1376c1.18719-0.76935,2.30142-1.67303,3.3112-2.6828l0.70801-0.70801
		c0.33162-0.3316,0.33162-0.86884,0-1.20047C216.07469,304.77777,215.53748,304.77777,215.20586,305.10938z"/>
	<path class="st3" d="M182.21478,287.81381c-0.44934-0.09616-0.90698,0.20728-0.99652,0.66821
		c-0.25534,1.29166-0.38467,2.61481-0.38467,3.93466c0,0.45099,0.01492,0.90201,0.04477,1.353
		c0.02985,0.44934,0.40291,0.79422,0.84729,0.79422c0.01823,0,0.03647,0,0.05472-0.00165
		c0.46758-0.02985,0.8224-0.43442,0.79256-0.90201c-0.02652-0.41452-0.04144-0.82904-0.04144-1.24356
		c0-1.20874,0.11772-2.42249,0.35152-3.60635C182.97418,288.35104,182.67574,287.90335,182.21478,287.81381z"/>
	<path class="st3" d="M236.81578,283.49945l-3.60138,3.60138c-0.33162,0.33163-0.33162,0.86884,0,1.20047
		c0.1658,0.1658,0.38301,0.24872,0.60022,0.24872c0.21722,0,0.43443-0.08292,0.60023-0.24872l3.60138-3.60138
		c0.33162-0.3316,0.33162-0.86884,0-1.20047C237.68462,283.16785,237.1474,283.16785,236.81578,283.49945z"/>
	<path class="st3" d="M226.00998,294.30527l-3.60138,3.60135c-0.3316,0.33163-0.3316,0.86887,0,1.20047
		c0.16582,0.1658,0.38303,0.24872,0.60023,0.24872s0.43442-0.08292,0.60023-0.24872l3.60138-3.60138
		c0.33162-0.3316,0.33162-0.86884,0-1.20044C226.87883,293.97363,226.3416,293.97363,226.00998,294.30527z"/>
	<path class="st3" d="M202.29759,311.23108c-1.63985,0.07956-3.26312-0.05307-4.84328-0.39297
		c-0.46593-0.09122-0.90865,0.194-1.00813,0.65329c-0.09782,0.45761,0.194,0.90863,0.65329,1.00812
		c1.39612,0.29846,2.83368,0.45099,4.26959,0.45267c0.33826,0,0.67485-0.0083,1.01476-0.02655
		c0.46758-0.02319,0.82904-0.42282,0.80417-0.89038C203.16312,311.56766,202.79337,311.15811,202.29759,311.23108z"/>
	<path class="st3" d="M188.2403,305.81738l-0.27028-0.27026c-0.85226-0.85059-1.62161-1.78412-2.28983-2.77731
		c-0.26364-0.3913-0.79091-0.49078-1.17891-0.23047c-0.38799,0.26199-0.49245,0.78925-0.23047,1.17889
		c0.72957,1.08441,1.57022,2.10248,2.49875,3.02936l0.27026,0.27026c0.2338,0.2338,0.4709,0.46094,0.71132,0.67816
		c0.16251,0.14755,0.36644,0.22052,0.57039,0.22052c0.23048,0,0.46095-0.09451,0.62842-0.27856
		c0.31503-0.34821,0.28851-0.88376-0.05803-1.19879C188.67139,306.23856,188.45418,306.03128,188.2403,305.81738z"/>
	<path class="st3" d="M189.47557,275.38309l-2.70601,2.70602c-0.31339,0.31339-0.61349,0.63504-0.90366,0.96335
		c-0.30841,0.3515-0.27359,0.88873,0.07793,1.19879c0.16083,0.14093,0.36147,0.21057,0.56044,0.21057
		c0.23544,0,0.46924-0.09781,0.63835-0.28848c0.26364-0.30179,0.54054-0.59692,0.82739-0.88379l2.70601-2.70599
		c0.33162-0.3316,0.33162-0.86884,0-1.20047C190.34441,275.05148,189.80719,275.05148,189.47557,275.38309z"/>
</g>
<path class="st4" d="M237.40118,177.90381l59.55951-13.35754c7.12225-1.63464,11.6123-8.79938,9.97784-15.92188
	c-1.6344-7.12238-8.79926-11.61249-15.92175-9.97797l-108.03583,24.48254c-7.12231,1.63458-11.6123,8.79938-9.97791,15.92188
	c1.63446,7.12238,8.79926,11.61249,15.92175,9.97797l9.59918-2.203c5.09106,0.91125,9.42169,4.7699,10.64655,10.10724
	c1.63464,7.12225-2.85516,14.28693-9.97748,15.92163l-49.08313,11.26428c-7.1225,1.63458-11.61249,8.79938-9.97791,15.92175
	c1.63464,7.1225,8.7995,11.61255,15.92175,9.97797l135.43964-31.84454c7.1225-1.63452,11.61249-8.79932,9.97784-15.92181
	c-1.63458-7.12238-8.79944-11.61249-15.92169-9.97797l-37.40381,9.34583c-7.12109,1.63269-14.28479-2.85687-15.91901-9.97839
	C231.00171,186.30432,233.2168,180.9436,237.40118,177.90381z"/>
<path class="st4" d="M157.24493,110.82477c1.63446,7.1217-2.8548,14.28558-9.97552,15.9212l-23.97864,4.57465
	c-7.1225,1.63464-11.61249,8.79938-9.97809,15.92188c1.63464,7.12238,8.7995,11.61249,15.92175,9.97797l122.01508-27.07349
	c7.69513-1.76599,12.31757-9.98767,9.46277-17.6366c-2.3584-6.31909-9.31854-9.66034-15.89252-8.15167l-48.14087,11.0481
	c-6.49133,1.48975-13.36432-1.75726-15.78748-7.96088c-0.16565-0.42407-0.30811-0.85004-0.42816-1.27679
	c-1.92603-6.8454,2.70667-13.84448,9.6377-15.43512l4.58051-1.05115c6.43951-1.47778,11.14996-7.33527,10.6814-13.92554
	c-0.29321-4.12384-2.37738-7.5647-5.35358-9.76831c-29.8363,2.42078-56.19983,17.27631-73.8429,39.4176l20.43176-4.68896
	C151.68927,101.62885,156.02008,105.48737,157.24493,110.82477z"/>
<g>
	<g>
		<path class="st3" d="M144.12726,92.06953c-2.09714,1.71458-3.75974,2.27525-4.34605,2.28633
			c0.12752-0.57245,1.00906-2.09436,3.1062-3.80339c2.09714-1.71458,3.76044-2.27594,4.34605-2.28634
			C147.10663,88.83788,146.2244,90.35495,144.12726,92.06953 M124.78593,130.78545c0.01663,0.01939,0.02357,0.04297,0.04159,0.06099
			c0.03396,0.03256,0.07761,0.04712,0.11435,0.07416c0.03465,0.02356,0.06653,0.04712,0.10326,0.06583
			c0.37285,0.20514,0.84342,0.16426,1.15807-0.15039l0.01109-0.01108l1.37637-1.42766
			c0.07139-0.07693,0.12683-0.16702,0.17049-0.26613c0.01385-0.02911,0.02495-0.05684,0.03534-0.08664
			c0.00832-0.02495,0.02218-0.04573,0.02911-0.07207l2.72572-10.9022l0.84274-1.15044l3.64954,6.08211
			c0.27859,0.46434,0.88086,0.61473,1.3445,0.33682l3.46519-2.07912c0.07069-0.04297,0.13376-0.09356,0.18919-0.14901
			c0.10118-0.10118,0.16702-0.22523,0.21484-0.35483c0.0797-0.12683,0.14069-0.26682,0.15454-0.42622l1.27728-14.81093
			l9.52582-13.60921l7.59431-8.97485c0.01802-0.02079,0.02287-0.04781,0.03812-0.06999
			c0.04851-0.06792,0.0901-0.13861,0.1192-0.21622c0.01595-0.04089,0.02773-0.07901,0.03743-0.12059
			c0.01802-0.07485,0.02425-0.14901,0.02495-0.22593c0-0.04159,0.00276-0.08178-0.00278-0.12337
			c-0.0097-0.079-0.03534-0.15455-0.06514-0.23009c-0.01456-0.03673-0.0208-0.07346-0.03951-0.10742
			c-0.00417-0.00832-0.00485-0.01733-0.00902-0.02564c-0.0298-0.05198-0.07623-0.08455-0.11296-0.12821
			c-0.03604-0.04435-0.0596-0.09563-0.10535-0.13445c-0.00623-0.00485-0.01454-0.00624-0.02148-0.01179
			c-0.05614-0.04504-0.12128-0.06999-0.18434-0.10118c-0.05267-0.02634-0.10118-0.06099-0.15593-0.07693
			c-0.04852-0.01386-0.09911-0.0104-0.1497-0.01663c-0.07553-0.0104-0.14969-0.02495-0.22523-0.01733
			c-0.03743,0.00416-0.07277,0.02287-0.11089,0.03188c-0.08733,0.01941-0.17395,0.03951-0.25365,0.08317
			c-0.00624,0.00346-0.01248,0.00277-0.01802,0.00693l-9.10583,5.20264c-0.5274-0.36662-1.42628-0.54889-2.9669,0.03674
			c-1.18994,0.45255-2.56009,1.28489-3.85538,2.34454c-1.29597,1.05758-2.38475,2.23367-3.06462,3.30996
			c-0.45532,0.72006-0.66878,1.30915-0.74086,1.79705l-3.6738,2.4485l-17.76396,1.36667
			c-0.04852,0.00417-0.08871,0.02773-0.13514,0.03812c-0.06654,0.01525-0.13168,0.02634-0.19475,0.05476
			c-0.06653,0.03049-0.12059,0.07484-0.17811,0.11851c-0.03535,0.02703-0.07762,0.0402-0.1102,0.07277l-2.07911,2.07912
			c-0.02218,0.02218-0.02981,0.05198-0.04921,0.07554c-0.0194,0.02218-0.04575,0.03465-0.06376,0.0596
			c-0.02079,0.03049-0.02495,0.06654-0.04159,0.09842c-0.03188,0.05959-0.05891,0.11712-0.07761,0.18018
			c-0.01871,0.0603-0.02911,0.11921-0.03535,0.18089c-0.00624,0.06306-0.00762,0.12267-0.00277,0.18573
			c0.00623,0.06307,0.01871,0.12128,0.03603,0.18158c0.01663,0.0596,0.03812,0.11574,0.06654,0.17188
			c0.03049,0.05821,0.06653,0.11089,0.1088,0.16286c0.02287,0.02841,0.03258,0.06306,0.05891,0.0894
			c0.02217,0.02218,0.05059,0.0298,0.07415,0.04921c0.02357,0.0194,0.03604,0.04574,0.06099,0.06376l6.67396,4.6198
			l-8.94505,0.52601c-0.00346,0.00069-0.00624,0.00208-0.00901,0.00208c-0.12059,0.00832-0.23563,0.04158-0.34375,0.09148
			c-0.00762,0.00346-0.01733,0.00346-0.02495,0.00693c-0.14831,0.07346-0.26613,0.19543-0.36246,0.33613
			c-0.04852,0.07207-0.0998,0.14137-0.12821,0.22385c-0.00069,0.00346-0.00346,0.00485-0.00416,0.00832l-0.69304,2.07912
			c-0.01525,0.04574-0.00901,0.09218-0.01733,0.13792c-0.01178,0.06584-0.02564,0.12821-0.02357,0.19267
			c0.00069,0.06445,0.01525,0.12336,0.02911,0.18573c0.01317,0.0603,0.02495,0.1192,0.0492,0.17673
			c0.02495,0.05821,0.06099,0.10812,0.09702,0.16078c0.03465,0.05128,0.06723,0.10188,0.11158,0.14623
			c0.04713,0.04575,0.10188,0.0797,0.15732,0.11574c0.03951,0.02564,0.06792,0.06238,0.11158,0.08247l2.73959,1.27866
			l-1.12203,2.24614c-0.02772,0.05405-0.0298,0.11297-0.04643,0.16979c-0.01524,0.05405-0.04504,0.10188-0.05059,0.1601
			c-0.00208,0.00762,0.00208,0.01455,0.00139,0.02218c-0.00624,0.07693,0.009,0.15038,0.0201,0.22662
			c0.00693,0.05128,0.00485,0.10464,0.0194,0.15385c0.0201,0.0603,0.05753,0.11157,0.08802,0.16702
			c0.0298,0.05475,0.05059,0.11296,0.09079,0.16148c0.03396,0.04089,0.08177,0.06792,0.12267,0.10326
			c0.05614,0.0492,0.10812,0.10118,0.17395,0.13653c0.00762,0.00346,0.01179,0.01039,0.01871,0.01455
			c0.10326,0.05059,0.21069,0.08039,0.31879,0.09287c0.00347,0.00069,0.00763,0.00346,0.01109,0.00416l5.03284,0.55859
			l-0.30979,0.92937c-0.01178,0.03534-0.00554,0.06931-0.01316,0.10464c-0.01386,0.06515-0.02287,0.12822-0.02357,0.19267
			c-0.00069,0.06445,0.00485,0.12405,0.01525,0.18574c0.01178,0.06168,0.02702,0.11851,0.0499,0.17603
			c0.02287,0.0603,0.05128,0.11366,0.08455,0.16772c0.03257,0.05197,0.06861,0.0991,0.11089,0.14415
			c0.04575,0.04851,0.09495,0.0894,0.15108,0.12891c0.02841,0.0201,0.04782,0.0492,0.079,0.06653l5.10077,2.83453l-0.46711,0.46711
			c-0.03119,0.03119-0.04366,0.07139-0.07,0.10604c-0.04019,0.05267-0.0797,0.10326-0.10811,0.16355
			c-0.02842,0.05753-0.04436,0.11643-0.06099,0.17742c-0.01594,0.0603-0.03049,0.11781-0.03465,0.18019
			c-0.00485,0.0686,0.00346,0.13375,0.01317,0.20167c0.00624,0.04089-0.00346,0.08109,0.00832,0.12198l2.07912,7.62343
			c0.01178,0.04366,0.04089,0.07555,0.05822,0.11642c0.01109,0.02773,0.02702,0.05199,0.04019,0.07901
			C124.68266,130.65169,124.72702,130.72375,124.78593,130.78545"/>
	</g>
</g>
<g>
	<path class="st3" d="M17.92265,220.41898c-0.45597-0.13596-0.92356,0.11772-1.05952,0.56541
		c-0.51567,1.69623-0.80583,3.45546-0.86552,5.22963c-0.01492,0.46924,0.35151,0.86055,0.82076,0.87712h0.02819
		c0.45597,0,0.83402-0.36147,0.84894-0.82076c0.05306-1.62492,0.32001-3.23825,0.79257-4.79189
		C18.62403,221.02916,18.37034,220.55495,17.92265,220.41898z"/>
	<path class="st3" d="M26.0042,208.48238l-3.60138,3.60136c-0.33162,0.33162-0.33162,0.86885,0,1.20047
		c0.16581,0.1658,0.38302,0.2487,0.60023,0.2487s0.43442-0.0829,0.60023-0.2487l3.60138-3.60138
		c0.33162-0.33162,0.33162-0.86885,0-1.20045C26.87304,208.15076,26.33582,208.15076,26.0042,208.48238z"/>
	<path class="st3" d="M35.68082,245.4512c-1.62659-0.04974-3.23991-0.31172-4.79686-0.77765
		c-0.44603-0.13762-0.9219,0.11938-1.0562,0.56873c-0.13596,0.44936,0.11938,0.92191,0.56873,1.05621
		c1.69789,0.5107,3.45878,0.79588,5.23128,0.8506h0.02653c0.45763,0,0.83402-0.36313,0.84894-0.82242
		C36.51651,245.85744,36.14841,245.46613,35.68082,245.4512z"/>
	<path class="st3" d="M19.87091,235.65022c-0.22053-0.41452-0.73785-0.57039-1.14906-0.34654
		c-0.41287,0.22052-0.56873,0.73453-0.34654,1.14906c0.83236,1.55528,1.87199,3.00279,3.09068,4.30275
		c0.16747,0.17906,0.39297,0.2686,0.62013,0.2686c0.20892,0,0.41618-0.07626,0.58033-0.22881
		c0.34157-0.32167,0.35981-0.8589,0.03979-1.20047C21.5887,238.40265,20.63529,237.07617,19.87091,235.65022z"/>
	<path class="st3" d="M36.80999,197.67657l-3.60138,3.60138c-0.33162,0.33162-0.33162,0.86884,0,1.20045
		c0.16581,0.16582,0.38302,0.24872,0.60023,0.24872c0.21721,0,0.43442-0.0829,0.60023-0.24872l3.60138-3.60138
		c0.33162-0.3316,0.33162-0.86884,0-1.20045C37.67883,197.34496,37.14161,197.34496,36.80999,197.67657z"/>
	<path class="st3" d="M104.20483,187.59869c0.33162-0.33162,0.33162-0.86885,0-1.20047s-0.86884-0.33162-1.20045,0l-3.60303,3.60304
		c-0.33162,0.33162-0.33162,0.86884,0,1.20045c0.1658,0.16582,0.38302,0.24872,0.60023,0.24872s0.43442-0.0829,0.60023-0.24872
		L104.20483,187.59869z"/>
	<path class="st3" d="M94.50498,266.68973c-0.07958-0.46262-0.52396-0.7677-0.97993-0.69476
		c-0.46261,0.07959-0.77267,0.51733-0.69474,0.97995c0.29845,1.75095,0.82738,3.4538,1.56855,5.06216
		c0.1426,0.31171,0.451,0.49411,0.77102,0.49411c0.11938,0,0.24042-0.02487,0.35483-0.07794
		c0.42613-0.19565,0.61184-0.70139,0.41618-1.12585C95.26108,269.85336,94.77857,268.29309,94.50498,266.68973z"/>
	<path class="st3" d="M45.2132,191.67429l3.60138-3.60138c0.33162-0.33162,0.33162-0.86884,0-1.20045s-0.86884-0.33162-1.20046,0
		l-3.60138,3.60136c-0.33162,0.33162-0.33162,0.86885,0,1.20047c0.16581,0.1658,0.38302,0.2487,0.60023,0.2487
		S45.04739,191.84009,45.2132,191.67429z"/>
	<path class="st3" d="M81.39278,208.00981l-3.60137,3.60138c-0.33162,0.33162-0.33162,0.86884,0,1.20045
		c0.16581,0.16582,0.38302,0.24872,0.60023,0.24872s0.43442-0.0829,0.60023-0.24872l3.60138-3.60138
		c0.33162-0.33162,0.33162-0.86884,0-1.20045S81.7244,207.67819,81.39278,208.00981z"/>
	<path class="st3" d="M92.03609,144.85139c0.33162-0.33162,0.33162-0.86884,0-1.20045s-0.86884-0.33162-1.20046,0l-3.60138,3.60138
		c-0.33162,0.33162-0.33162,0.86884,0,1.20045c0.16581,0.16582,0.38302,0.24872,0.60023,0.24872
		c0.21721,0,0.43442-0.0829,0.60023-0.24872L92.03609,144.85139z"/>
	<path class="st3" d="M96.27583,251.82159c-1.02967,1.44753-1.86369,3.02437-2.47719,4.68909
		c-0.16249,0.43939,0.06135,0.92688,0.5024,1.08939c0.09617,0.03647,0.19566,0.05304,0.29348,0.05304
		c0.34489,0,0.66987-0.21222,0.79588-0.55545c0.5621-1.52214,1.32648-2.96634,2.26827-4.29115
		c0.27193-0.38301,0.18239-0.91194-0.19897-1.18387C97.08166,251.35236,96.54942,251.44023,96.27583,251.82159z"/>
	<path class="st3" d="M102.84187,134.04561c0.33162-0.33162,0.33162-0.86884,0-1.20045s-0.86884-0.33162-1.20045,0l-3.60138,3.60138
		c-0.33162,0.3316-0.33162,0.86884,0,1.20045c0.16581,0.1658,0.38302,0.24872,0.60023,0.24872s0.43443-0.08292,0.60023-0.24872
		L102.84187,134.04561z"/>
	<path class="st3" d="M93.39904,197.20403c-0.33162-0.33162-0.86884-0.33162-1.20046,0l-3.60138,3.60138
		c-0.33162,0.33162-0.33162,0.86884,0,1.20045c0.16581,0.1658,0.38302,0.24872,0.60023,0.24872
		c0.21721,0,0.43442-0.08292,0.60023-0.24872l3.60138-3.60138C93.73065,198.07286,93.73065,197.53564,93.39904,197.20403z"/>
	<path class="st3" d="M59.62037,177.26712c0.33162-0.33162,0.33162-0.86885,0-1.20047s-0.86884-0.33162-1.20046,0l-3.60138,3.60138
		c-0.33162,0.33162-0.33162,0.86884,0,1.20045c0.16581,0.16582,0.38302,0.24872,0.60023,0.24872s0.43442-0.0829,0.60023-0.24872
		L59.62037,177.26712z"/>
	<path class="st3" d="M48.98868,240.40398c-1.18388,1.1192-2.50703,2.07593-3.93465,2.84363
		c-0.41286,0.22218-0.56707,0.73785-0.34488,1.15071c0.1542,0.28519,0.44603,0.44603,0.7478,0.44603
		c0.13596,0,0.27525-0.03316,0.40292-0.10115c1.55695-0.83899,3.0028-1.88359,4.29612-3.10561
		c0.33991-0.32167,0.35483-0.85889,0.03316-1.20045C49.86747,240.09888,49.33025,240.08064,48.98868,240.40398z"/>
	<path class="st3" d="M81.23195,155.65553c0.33162-0.33162,0.33162-0.86884,0-1.20045s-0.86884-0.33162-1.20045,0l-3.60303,3.60303
		c-0.33162,0.33162-0.33162,0.86885,0,1.20045c0.16581,0.16582,0.38302,0.24872,0.60023,0.24872s0.43442-0.0829,0.60023-0.24872
		L81.23195,155.65553z"/>
	<path class="st3" d="M59.78286,229.61974l-3.60138,3.60138c-0.33162,0.33162-0.33162,0.86884,0,1.20045
		c0.16581,0.16582,0.38302,0.24872,0.60023,0.24872s0.43442-0.0829,0.60023-0.24872l3.60138-3.60138
		c0.33162-0.33162,0.33162-0.86884,0-1.20045S60.11448,229.28812,59.78286,229.61974z"/>
	<path class="st3" d="M70.42616,166.46132c0.33162-0.33162,0.33162-0.86884,0-1.20045s-0.86884-0.33162-1.20046,0l-3.60138,3.60138
		c-0.33162,0.33162-0.33162,0.86884,0,1.20045c0.16581,0.16582,0.38303,0.24872,0.60023,0.24872s0.43442-0.0829,0.60023-0.24872
		L70.42616,166.46132z"/>
	<path class="st3" d="M70.58865,218.81395l-3.60303,3.60303c-0.33162,0.33162-0.33162,0.86885,0,1.20047
		c0.16581,0.1658,0.38302,0.2487,0.60023,0.2487s0.43443-0.0829,0.60023-0.2487l3.60303-3.60304
		c0.33162-0.33162,0.33162-0.86884,0-1.20045S70.92027,218.48233,70.58865,218.81395z"/>
	<path class="st3" d="M261.51141,204.54771c0.1658,0.1658,0.38303,0.24872,0.60022,0.24872
		c0.21722,0,0.43442-0.08292,0.60025-0.24872l3.60135-3.60138c0.33163-0.33162,0.33163-0.86884,0-1.20045
		c-0.3316-0.33162-0.86884-0.33162-1.20044,0l-3.60138,3.60138C261.17978,203.67888,261.17978,204.21609,261.51141,204.54771z"/>
	<path class="st3" d="M254.64194,93.05424c-0.33162,0.33162-0.33162,0.86884,0,1.20046
		c0.1658,0.1658,0.38301,0.24871,0.60022,0.24871s0.43442-0.08291,0.60023-0.24871l3.60136-3.60138
		c0.33163-0.33162,0.33163-0.86884,0-1.20046c-0.3316-0.33162-0.86884-0.33162-1.20044,0L254.64194,93.05424z"/>
	<path class="st3" d="M252.43666,41.75119c0.09286,0,0.18571-0.01492,0.27856-0.04642
		c1.53043-0.53225,3.13214-0.86055,4.75874-0.97662c0.46756-0.03482,0.81909-0.44106,0.78592-0.90864
		c-0.03482-0.46924-0.44769-0.83899-0.90863-0.78593c-1.77415,0.12767-3.52179,0.48582-5.19315,1.06615
		c-0.44272,0.1542-0.6765,0.63836-0.52396,1.08107C251.75685,41.53066,252.08516,41.75119,252.43666,41.75119z"/>
	<path class="st3" d="M266.9317,42.54044c1.45749,0.70966,2.82043,1.61001,4.05072,2.67948
		c0.16086,0.13928,0.35983,0.20726,0.55713,0.20726c0.23712,0,0.47256-0.09948,0.64169-0.29182
		c0.30673-0.35483,0.26862-0.8904-0.08456-1.1988c-1.34305-1.16564-2.83038-2.14889-4.42215-2.92156
		c-0.41452-0.20726-0.92853-0.03151-1.13412,0.39131C266.33481,41.82746,266.51056,42.33649,266.9317,42.54044z"/>
	<path class="st3" d="M273.51599,193.74358l3.60306-3.60303c0.3316-0.33162,0.3316-0.86885,0-1.20045
		c-0.33163-0.33162-0.86887-0.33162-1.20047,0l-3.60303,3.60303c-0.33163,0.33162-0.33163,0.86884,0,1.20045
		c0.1658,0.16582,0.383,0.24872,0.60022,0.24872S273.35019,193.90939,273.51599,193.74358z"/>
	<path class="st3" d="M283.12134,182.93779c0.1658,0.16582,0.38303,0.24872,0.60022,0.24872
		c0.21722,0,0.43442-0.0829,0.60025-0.24872l3.60135-3.60138c0.33163-0.33162,0.33163-0.86884,0-1.20045
		c-0.3316-0.33162-0.86884-0.33162-1.20044,0l-3.60138,3.60138C282.7897,182.06895,282.7897,182.60617,283.12134,182.93779z"/>
	<path class="st3" d="M276.59012,72.66135c0.27191,0,0.53888-0.13099,0.70303-0.37307
		c0.99319-1.46576,1.79074-3.06084,2.36942-4.74049c0.15253-0.44437-0.08292-0.92688-0.52563-1.07942
		c-0.45432-0.15421-0.92688,0.08291-1.07941,0.52562c-0.52893,1.5387-1.26016,2.99949-2.17044,4.34254
		c-0.26199,0.38799-0.16086,0.91527,0.22714,1.1789C276.26013,72.61327,276.42596,72.66135,276.59012,72.66135z"/>
	<path class="st3" d="M278.72739,57.38535c0.07959,0.40623,0.43442,0.68811,0.83237,0.68811
		c0.05472,0,0.10779-0.00497,0.16248-0.01492c0.46097-0.08953,0.76108-0.53556,0.67319-0.99485
		c-0.33658-1.74266-0.90366-3.43391-1.6813-5.029c-0.2056-0.42116-0.71298-0.59028-1.13577-0.38965
		c-0.42117,0.2056-0.59528,0.71464-0.38965,1.13579C277.90167,54.23994,278.41898,55.79026,278.72739,57.38535z"/>
	<path class="st3" d="M266.04794,83.69762c0.21722,0,0.43442-0.0829,0.60025-0.24871l3.60138-3.60138
		c0.3316-0.33162,0.3316-0.86884,0-1.20045c-0.33163-0.33162-0.86887-0.33162-1.20047,0l-3.60138,3.60137
		c-0.33163,0.33162-0.33163,0.86884,0,1.20046C265.61353,83.61472,265.83075,83.69762,266.04794,83.69762z"/>
	<path class="st3" d="M211.42043,137.4762c0.16582,0.16582,0.38303,0.24872,0.60023,0.24872s0.43442-0.0829,0.60022-0.24872
		l3.60138-3.60138c0.33162-0.3316,0.33162-0.86884,0-1.20045s-0.86884-0.33162-1.20045,0l-3.60138,3.60138
		C211.08881,136.60736,211.08881,137.14458,211.42043,137.4762z"/>
	<path class="st3" d="M200.61464,148.282c0.1658,0.1658,0.38301,0.2487,0.60022,0.2487s0.43443-0.0829,0.60023-0.2487
		l3.60304-3.60304c0.33162-0.33162,0.33162-0.86884,0-1.20045s-0.86885-0.33162-1.20047,0l-3.60303,3.60303
		C200.28302,147.41315,200.28302,147.95038,200.61464,148.282z"/>
	<path class="st3" d="M243.83614,105.06049c0.16582,0.16581,0.38303,0.24872,0.60023,0.24872s0.43442-0.08291,0.60023-0.24872
		l3.60303-3.60303c0.33162-0.33162,0.33162-0.86884,0-1.20046c-0.33162-0.33161-0.86884-0.33161-1.20045,0l-3.60304,3.60304
		C243.50452,104.19164,243.50452,104.72887,243.83614,105.06049z"/>
	<path class="st3" d="M222.22621,126.67041c0.16582,0.16581,0.38303,0.24872,0.60023,0.24872s0.43442-0.08291,0.60023-0.24872
		l3.60138-3.60138c0.3316-0.33162,0.3316-0.86884,0-1.20045c-0.33162-0.33162-0.86885-0.33162-1.20047,0l-3.60138,3.60137
		C221.89459,125.80157,221.89459,126.33879,222.22621,126.67041z"/>
	<path class="st3" d="M240.47186,50.98013c0.21722,0,0.43443-0.0829,0.60023-0.24871l3.60138-3.60138
		c0.33162-0.33162,0.33162-0.86884,0-1.20046s-0.86884-0.33162-1.20045,0l-3.60138,3.60138
		c-0.33162,0.33162-0.33162,0.86884,0,1.20046C240.03745,50.89723,240.25465,50.98013,240.47186,50.98013z"/>
	<path class="st3" d="M229.66608,61.78592c0.21721,0,0.43442-0.0829,0.60023-0.24871l3.60138-3.60138
		c0.33162-0.33162,0.33162-0.86884,0-1.20046s-0.86885-0.33162-1.20047,0l-3.60136,3.60138
		c-0.33162,0.33162-0.33162,0.86884,0,1.20046C229.23166,61.70302,229.44887,61.78592,229.66608,61.78592z"/>
	<path class="st3" d="M233.03201,115.86462c0.1658,0.16581,0.38301,0.24872,0.60022,0.24872s0.43442-0.08291,0.60023-0.24872
		l3.60138-3.60137c0.33162-0.33162,0.33162-0.86884,0-1.20046s-0.86885-0.33162-1.20045,0l-3.60138,3.60138
		C232.70039,114.99578,232.70039,115.533,233.03201,115.86462z"/>
	<path class="st3" d="M189.47557,275.38309l-2.70601,2.70602c-0.31339,0.31339-0.61349,0.63504-0.90366,0.96335
		c-0.30841,0.3515-0.27359,0.88873,0.07793,1.19879c0.16083,0.14093,0.36147,0.21057,0.56044,0.21057
		c0.23544,0,0.46924-0.09781,0.63835-0.28848c0.26364-0.30179,0.54054-0.59692,0.82739-0.88379l2.70601-2.70599
		c0.33162-0.3316,0.33162-0.86884,0-1.20047C190.34441,275.05148,189.80719,275.05148,189.47557,275.38309z"/>
	<path class="st3" d="M255.50746,210.55167c-0.33162-0.33162-0.86885-0.33162-1.20047,0l-3.60138,3.60138
		c-0.33162,0.33162-0.33162,0.86884,0,1.20045c0.16582,0.16582,0.38303,0.24872,0.60023,0.24872s0.43442-0.0829,0.60023-0.24872
		l3.60138-3.60138C255.83908,211.4205,255.83908,210.88329,255.50746,210.55167z"/>
	<path class="st3" d="M297.5285,167.33017l-3.60138,3.60136c-0.3316,0.33162-0.3316,0.86885,0,1.20047
		c0.1658,0.1658,0.38303,0.2487,0.60022,0.2487c0.21722,0,0.43442-0.0829,0.60025-0.2487l3.60138-3.60138
		c0.3316-0.33162,0.3316-0.86884,0-1.20045C298.39734,166.99855,297.86011,166.99855,297.5285,167.33017z"/>
	<path class="st3" d="M247.62157,272.69366l-3.60304,3.60303c-0.33162,0.33163-0.33162,0.86887,0,1.20047
		c0.16582,0.1658,0.38303,0.24872,0.60023,0.24872s0.43442-0.08292,0.60023-0.24872l3.60303-3.60303
		c0.33162-0.33163,0.33162-0.86884,0-1.20047C248.4904,272.36206,247.95319,272.36206,247.62157,272.69366z"/>
	<path class="st3" d="M306.01462,102.30805c-0.3316-0.33162-0.86884-0.33162-1.20047,0l-3.60135,3.60138
		c-0.33163,0.33162-0.33163,0.86884,0,1.20045c0.1658,0.16581,0.383,0.24872,0.60022,0.24872
		c0.21719,0,0.43442-0.08291,0.60022-0.24872l3.60138-3.60137C306.34625,103.1769,306.34625,102.63967,306.01462,102.30805z"/>
	<path class="st3" d="M308.33429,156.52437l-3.60303,3.60304c-0.33163,0.33162-0.33163,0.86884,0,1.20045
		c0.1658,0.16582,0.38303,0.24872,0.60022,0.24872c0.21722,0,0.43442-0.0829,0.60022-0.24872l3.60306-3.60303
		c0.3316-0.33162,0.3316-0.86885,0-1.20047C309.20313,156.19275,308.66592,156.19275,308.33429,156.52437z"/>
	<path class="st3" d="M223.09174,242.96738c-0.33162-0.33162-0.86884-0.33162-1.20045,0l-3.60138,3.60138
		c-0.33162,0.33162-0.33162,0.86885,0,1.20047c0.16582,0.1658,0.38303,0.2487,0.60023,0.2487s0.43442-0.0829,0.60022-0.2487
		l3.60138-3.60138C223.42336,243.83623,223.42336,243.299,223.09174,242.96738z"/>
	<path class="st3" d="M244.70332,221.3558c-0.33162-0.33162-0.86884-0.33162-1.20045,0l-3.60304,3.60303
		c-0.33162,0.33162-0.33162,0.86885,0,1.20047c0.16582,0.1658,0.38303,0.2487,0.60023,0.2487s0.43442-0.0829,0.60022-0.2487
		l3.60304-3.60304C245.03494,222.22464,245.03494,221.68742,244.70332,221.3558z"/>
	<path class="st3" d="M215.20586,305.10938l-0.70801,0.70801c-0.92688,0.92688-1.94826,1.75427-3.03596,2.46063
		c-0.39297,0.25366-0.50406,0.78094-0.24872,1.17392c0.16249,0.25037,0.43442,0.38632,0.71132,0.38632
		c0.15918,0,0.32001-0.04477,0.46262-0.1376c1.18719-0.76935,2.30142-1.67303,3.3112-2.6828l0.70801-0.70801
		c0.33162-0.3316,0.33162-0.86884,0-1.20047C216.07469,304.77777,215.53748,304.77777,215.20586,305.10938z"/>
	<path class="st3" d="M226.00998,294.30527l-3.60138,3.60135c-0.3316,0.33163-0.3316,0.86887,0,1.20047
		c0.16582,0.1658,0.38303,0.24872,0.60023,0.24872s0.43442-0.08292,0.60023-0.24872l3.60138-3.60138
		c0.33162-0.3316,0.33162-0.86884,0-1.20044C226.87883,293.97363,226.3416,293.97363,226.00998,294.30527z"/>
	<path class="st3" d="M233.89754,232.16159c-0.33162-0.33162-0.86885-0.33162-1.20047,0l-3.60138,3.60138
		c-0.3316,0.33162-0.3316,0.86884,0,1.20045c0.16582,0.16582,0.38303,0.24872,0.60023,0.24872s0.43442-0.0829,0.60023-0.24872
		l3.60138-3.60138C234.22916,233.03043,234.22916,232.49321,233.89754,232.16159z"/>
	<path class="st3" d="M236.81578,283.49945l-3.60138,3.60138c-0.33162,0.33163-0.33162,0.86884,0,1.20047
		c0.1658,0.1658,0.38301,0.24872,0.60022,0.24872c0.21722,0,0.43443-0.08292,0.60023-0.24872l3.60138-3.60138
		c0.33162-0.3316,0.33162-0.86884,0-1.20047C237.68462,283.16785,237.1474,283.16785,236.81578,283.49945z"/>
	<path class="st3" d="M212.28595,253.77318c-0.33162-0.33162-0.86884-0.33162-1.20045,0l-3.60138,3.60136
		c-0.33162,0.33163-0.33162,0.86884,0,1.20047c0.1658,0.1658,0.38301,0.24872,0.60023,0.24872
		c0.21721,0,0.43442-0.08292,0.60022-0.24872l3.60138-3.60138C212.61757,254.64201,212.61757,254.1048,212.28595,253.77318z"/>
	<path class="st3" d="M361.41315,64.88656c-0.42279-0.2056-0.92853-0.02654-1.13248,0.39628
		c-0.20392,0.42281-0.02652,0.93019,0.3963,1.13248c1.46078,0.70303,2.82706,1.5984,4.05902,2.6629
		c0.16083,0.13927,0.35812,0.20726,0.55545,0.20726c0.23709,0,0.47421-0.09949,0.64169-0.29348
		c0.30673-0.35484,0.26859-0.89206-0.08624-1.19714C364.50052,66.63087,363.00824,65.6526,361.41315,64.88656z"/>
	<path class="st3" d="M316.8204,91.50226c-0.3316-0.33161-0.86884-0.33161-1.20044,0l-3.60306,3.60304
		c-0.3316,0.33162-0.3316,0.86884,0,1.20045c0.16583,0.16581,0.38303,0.24872,0.60025,0.24872
		c0.21719,0,0.43442-0.08291,0.60022-0.24872l3.60303-3.60303C317.15204,92.3711,317.15204,91.83388,316.8204,91.50226z"/>
	<path class="st3" d="M351.55414,113.30453l-3.60138,3.60137c-0.3316,0.33162-0.3316,0.86884,0,1.20046
		c0.1658,0.16581,0.38303,0.24871,0.60022,0.24871c0.21722,0,0.43445-0.0829,0.60025-0.24871l3.60138-3.60138
		c0.3316-0.33162,0.3316-0.86884,0-1.20045C352.42297,112.97291,351.88577,112.97291,351.55414,113.30453z"/>
	<path class="st3" d="M351.99518,63.72755c-0.03647-0.46758-0.45596-0.81578-0.91193-0.78262
		c-1.7692,0.1343-3.51352,0.50074-5.18817,1.08936c-0.44272,0.15586-0.67487,0.64003-0.51898,1.08273
		c0.12268,0.34821,0.45099,0.56707,0.80084,0.56707c0.09286,0,0.18903-0.01492,0.28189-0.04808
		c1.53372-0.53888,3.13214-0.87382,4.75375-0.99651C351.68015,64.60302,352.03,64.19513,351.99518,63.72755z"/>
	<path class="st3" d="M372.57877,90.39963c-0.43442-0.15752-0.92688,0.06633-1.08606,0.50904
		c-0.5538,1.5271-1.30823,2.97627-2.24173,4.30606c-0.27029,0.38302-0.17743,0.91361,0.20724,1.18222
		c0.14758,0.10446,0.31836,0.15421,0.48749,0.15421c0.26694,0,0.52893-0.12601,0.69473-0.36147
		c1.01974-1.45249,1.84381-3.03431,2.44736-4.70401C373.24863,91.04463,373.01981,90.55881,372.57877,90.39963z"/>
	<path class="st3" d="M372.39139,75.9593c-0.20062-0.42447-0.70801-0.60852-1.12915-0.40955
		c-0.42447,0.20063-0.60852,0.70469-0.40955,1.12916c0.68976,1.46907,1.18222,3.02602,1.46576,4.63106
		c0.07294,0.41121,0.43109,0.70137,0.83401,0.70137c0.04974,0,0.09949-0.00331,0.14923-0.01326
		c0.46259-0.08125,0.76935-0.5223,0.68811-0.98325C373.6814,79.26222,373.14252,77.56102,372.39139,75.9593z"/>
	<path class="st3" d="M362.35992,102.49873l-3.60138,3.60138c-0.3316,0.33162-0.3316,0.86884,0,1.20045
		c0.16583,0.16581,0.38303,0.24872,0.60025,0.24872c0.21719,0,0.43442-0.08291,0.60022-0.24872l3.60138-3.60137
		c0.3316-0.33162,0.3316-0.86884,0-1.20046C363.22876,102.16711,362.69156,102.16711,362.35992,102.49873z"/>
	<path class="st3" d="M319.13843,145.72025l-3.60138,3.60136c-0.3316,0.33162-0.3316,0.86885,0,1.20047
		c0.1658,0.1658,0.38303,0.2487,0.60022,0.2487c0.21722,0,0.43442-0.0829,0.60025-0.2487l3.60138-3.60138
		c0.3316-0.33162,0.3316-0.86884,0-1.20045C320.00726,145.38863,319.47003,145.38863,319.13843,145.72025z"/>
	<path class="st3" d="M327.62454,80.69813c-0.3316-0.33162-0.86884-0.33162-1.20047,0l-3.60138,3.60138
		c-0.3316,0.33162-0.3316,0.86884,0,1.20046c0.16583,0.16581,0.38303,0.24871,0.60025,0.24871
		c0.21719,0,0.43442-0.0829,0.60022-0.24871l3.60138-3.60138C327.95618,81.56697,327.95618,81.02975,327.62454,80.69813z"/>
	<path class="st3" d="M338.43033,69.89234c-0.3316-0.33162-0.86884-0.33162-1.20044,0l-3.60138,3.60137
		c-0.33163,0.33162-0.33163,0.86884,0,1.20046c0.1658,0.16581,0.383,0.24871,0.60022,0.24871s0.43442-0.0829,0.60022-0.24871
		l3.60138-3.60138C338.76196,70.76118,338.76196,70.22395,338.43033,69.89234z"/>
	<path class="st3" d="M340.75,124.10866l-3.60138,3.60138c-0.3316,0.33162-0.3316,0.86884,0,1.20045
		c0.16583,0.16582,0.38303,0.24872,0.60025,0.24872c0.21719,0,0.43442-0.0829,0.60022-0.24872l3.60138-3.60137
		c0.3316-0.33162,0.3316-0.86884,0-1.20046C341.61884,123.77704,341.08163,123.77704,340.75,124.10866z"/>
	<path class="st3" d="M329.94421,134.91444l-3.60138,3.60138c-0.3316,0.33162-0.3316,0.86885,0,1.20045
		c0.1658,0.16582,0.38303,0.24872,0.60022,0.24872c0.21722,0,0.43445-0.0829,0.60025-0.24872l3.60138-3.60136
		c0.3316-0.33162,0.3316-0.86885,0-1.20047C330.81305,134.58282,330.27585,134.58282,329.94421,134.91444z"/>
	<path class="st3" d="M131.92979,275.19241l-3.60138,3.60138c-0.33161,0.33163-0.33161,0.86884,0,1.20047
		c0.16582,0.1658,0.38303,0.24872,0.60023,0.24872s0.43442-0.08292,0.60023-0.24872l3.60138-3.60138
		c0.3316-0.33163,0.3316-0.86884,0-1.20047C132.79865,274.86081,132.26141,274.86081,131.92979,275.19241z"/>
	<path class="st3" d="M140.5867,208.30992c-0.33162-0.33162-0.86884-0.33162-1.20045,0l-3.60304,3.60304
		c-0.33162,0.33162-0.33162,0.86884,0,1.20045c0.16582,0.16582,0.38303,0.24872,0.60023,0.24872s0.43442-0.0829,0.60022-0.24872
		l3.60304-3.60303C140.91832,209.17877,140.91832,208.64154,140.5867,208.30992z"/>
	<path class="st3" d="M129.78091,219.11572c-0.33162-0.33162-0.86885-0.33162-1.20047,0l-3.60137,3.60138
		c-0.33162,0.33162-0.33162,0.86884,0,1.20045c0.16581,0.1658,0.38302,0.24872,0.60023,0.24872s0.43443-0.08292,0.60023-0.24872
		l3.60138-3.60138C130.11253,219.98456,130.11253,219.44734,129.78091,219.11572z"/>
	<path class="st3" d="M142.7356,264.38663l-3.60304,3.60303c-0.33162,0.33163-0.33162,0.86884,0,1.20047
		c0.1658,0.1658,0.38303,0.24872,0.60023,0.24872s0.43442-0.08292,0.60022-0.24872l3.60304-3.60303
		c0.33162-0.33163,0.33162-0.86887,0-1.20047C143.60443,264.05499,143.0672,264.05499,142.7356,264.38663z"/>
	<path class="st3" d="M151.39084,197.5058c-0.33162-0.33162-0.86885-0.33162-1.20047,0l-3.60138,3.60138
		c-0.3316,0.33162-0.3316,0.86884,0,1.20045c0.16582,0.1658,0.38303,0.24872,0.60023,0.24872s0.43442-0.08292,0.60023-0.24872
		l3.60138-3.60138C151.72246,198.37463,151.72246,197.83742,151.39084,197.5058z"/>
	<path class="st3" d="M106.96887,240.72729l-3.60138,3.60138c-0.33162,0.33162-0.33162,0.86885,0,1.20045
		c0.16581,0.16582,0.38302,0.24872,0.60023,0.24872s0.43442-0.0829,0.60023-0.24872l3.60138-3.60136
		c0.33162-0.33162,0.33162-0.86885,0-1.20047S107.30048,240.39568,106.96887,240.72729z"/>
	<path class="st3" d="M113.64767,123.23981c0.33162-0.33162,0.33162-0.86884,0-1.20045s-0.86884-0.33162-1.20046,0l-3.60303,3.60303
		c-0.33162,0.33162-0.33162,0.86884,0,1.20045c0.16581,0.16581,0.38302,0.24872,0.60023,0.24872
		c0.21721,0,0.43442-0.08291,0.60023-0.24872L113.64767,123.23981z"/>
	<path class="st3" d="M105.8994,281.96075c-1.40938-0.80087-2.71264-1.78741-3.87331-2.93317
		c-0.33493-0.32996-0.87215-0.32666-1.20045,0.00662c-0.32996,0.33493-0.32664,0.87216,0.00663,1.20047
		c1.26844,1.25186,2.69109,2.32797,4.22813,3.20178c0.13265,0.07626,0.2769,0.11108,0.4195,0.11108
		c0.29514,0,0.58199-0.15421,0.73785-0.42944C106.44988,282.71021,106.30729,282.19287,105.8994,281.96075z"/>
	<path class="st3" d="M120.03133,283.69843c-1.56193,0.43112-3.18022,0.65662-4.81179,0.67154
		c-0.46758,0.00497-0.84396,0.388-0.84065,0.85724c0.00332,0.46591,0.38302,0.84064,0.84895,0.84064h0.00829
		c1.77747-0.01492,3.54334-0.26196,5.2462-0.73453c0.45266-0.12436,0.71796-0.59195,0.59194-1.04294
		C120.95157,283.83771,120.47901,283.57242,120.03133,283.69843z"/>
	<path class="st3" d="M115.37374,234.72334l3.60138-3.60138c0.33162-0.33162,0.33162-0.86884,0-1.20045s-0.86884-0.33162-1.20046,0
		l-3.60138,3.60138c-0.33162,0.33162-0.33162,0.86884,0,1.20045c0.16581,0.16582,0.38303,0.24872,0.60023,0.24872
		S115.20793,234.88916,115.37374,234.72334z"/>
	<path class="st3" d="M162.19662,186.7c-0.33162-0.33162-0.86884-0.33162-1.20045,0l-3.60138,3.60138
		c-0.33162,0.33162-0.33162,0.86885,0,1.20047c0.1658,0.1658,0.38301,0.2487,0.60022,0.2487
		c0.21722,0,0.43443-0.0829,0.60023-0.2487l3.60138-3.60138C162.52824,187.56885,162.52824,187.03162,162.19662,186.7z"/>
	<path class="st3" d="M188.2403,305.81738l-0.27028-0.27026c-0.85226-0.85059-1.62161-1.78412-2.28983-2.77731
		c-0.26364-0.3913-0.79091-0.49078-1.17891-0.23047c-0.38799,0.26199-0.49245,0.78925-0.23047,1.17889
		c0.72957,1.08441,1.57022,2.10248,2.49875,3.02936l0.27026,0.27026c0.2338,0.2338,0.4709,0.46094,0.71132,0.67816
		c0.16251,0.14755,0.36644,0.22052,0.57039,0.22052c0.23048,0,0.46095-0.09451,0.62842-0.27856
		c0.31503-0.34821,0.28851-0.88376-0.05803-1.19879C188.67139,306.23856,188.45418,306.03128,188.2403,305.81738z"/>
	<path class="st3" d="M202.29759,311.23108c-1.63985,0.07956-3.26312-0.05307-4.84328-0.39297
		c-0.46593-0.09122-0.90865,0.194-1.00813,0.65329c-0.09782,0.45761,0.194,0.90863,0.65329,1.00812
		c1.39612,0.29846,2.83368,0.45099,4.26959,0.45267c0.33826,0,0.67485-0.0083,1.01476-0.02655
		c0.46758-0.02319,0.82904-0.42282,0.80417-0.89038C203.16312,311.56766,202.79337,311.15811,202.29759,311.23108z"/>
	<path class="st3" d="M197.28021,269.62787c0.21721,0,0.43442-0.08292,0.60023-0.24872l3.60136-3.60138
		c0.33162-0.33163,0.33162-0.86884,0-1.20047c-0.33162-0.3316-0.86884-0.3316-1.20045,0l-3.60138,3.60138
		c-0.33162,0.33163-0.33162,0.86884,0,1.20047C196.84579,269.54495,197.063,269.62787,197.28021,269.62787z"/>
	<path class="st3" d="M194.61234,154.28429c-0.33162-0.33162-0.86884-0.33162-1.20045,0l-3.60138,3.60138
		c-0.33162,0.33162-0.33162,0.86884,0,1.20045c0.16582,0.16582,0.38303,0.24872,0.60023,0.24872s0.43442-0.0829,0.60022-0.24872
		l3.60138-3.60138C194.94395,155.15312,194.94395,154.61591,194.61234,154.28429z"/>
	<path class="st3" d="M173.00241,175.89421c-0.33162-0.33162-0.86884-0.33162-1.20045,0l-3.60304,3.60304
		c-0.33162,0.33162-0.33162,0.86884,0,1.20045c0.16582,0.1658,0.38303,0.24872,0.60023,0.24872s0.43442-0.08292,0.60023-0.24872
		l3.60303-3.60304C173.33403,176.76305,173.33403,176.22583,173.00241,175.89421z"/>
	<path class="st3" d="M183.80655,165.09007c-0.33162-0.3316-0.86884-0.3316-1.20045,0l-3.60138,3.60138
		c-0.33162,0.33162-0.33162,0.86885,0,1.20047c0.1658,0.1658,0.38301,0.2487,0.60022,0.2487s0.43443-0.0829,0.60023-0.2487
		l3.60138-3.60138C184.13817,165.95892,184.13817,165.42169,183.80655,165.09007z"/>
	<path class="st3" d="M182.21478,287.81381c-0.44934-0.09616-0.90698,0.20728-0.99652,0.66821
		c-0.25534,1.29166-0.38467,2.61481-0.38467,3.93466c0,0.45099,0.01492,0.90201,0.04477,1.353
		c0.02985,0.44934,0.40291,0.79422,0.84729,0.79422c0.01823,0,0.03647,0,0.05472-0.00165
		c0.46758-0.02985,0.8224-0.43442,0.79256-0.90201c-0.02652-0.41452-0.04144-0.82904-0.04144-1.24356
		c0-1.20874,0.11772-2.42249,0.35152-3.60635C182.97418,288.35104,182.67574,287.90335,182.21478,287.81381z"/>
</g>
</svg>
