<?xml version="1.0" encoding="utf-8"?>
<!-- Generator: Adobe Illustrator 19.2.1, SVG Export Plug-In . SVG Version: 6.00 Build 0)  -->
<svg version="1.1" xmlns="http://www.w3.org/2000/svg" xmlns:xlink="http://www.w3.org/1999/xlink" x="0px" y="0px"
	 viewBox="0 0 950 1075" style="enable-background:new 0 0 950 1075;" xml:space="preserve">
<style type="text/css">
	.st0{display:none;}
	.st1{fill:#F6954F;}
	.st2{fill:#B5B8BC;}
	.st3{fill:#F2F2F2;}
	.st4{fill:#2C3441;}
	.st5{fill:#FF5535;}
	.st6{fill:#CACCCF;}
	.st7{fill:#565D67;}
	.st8{fill:#F6E6CC;}
	.st9{fill:#7D7D7D;}
	.st10{fill:#F6BD8D;}
	.st11{fill:#FF775D;}
	.st12{clip-path:url(#SVGID_2_);}
	.st13{fill:#FFFFFF;}
	.st14{opacity:0.2;}
	.st15{fill:#FFCE00;}
	.st16{fill:#D5D6D9;}
	.st17{fill:#C0C2C6;}
	.st18{fill:#ABAEB3;}
</style>
<g id="Layer_1" class="st0">
	
		<image style="display:inline;overflow:visible;" width="2560" height="1408" xlink:href="8A4A9A8B.jpg"  transform="matrix(1 0 0 1 -668.99841 -240.61627)">
	</image>
</g>
<g id="Layer_2">
	<g>
		<g>
			<path class="st1" d="M705.38171,949.11871l-35.45398-10.23346c-8.48853-2.45026-13.401-11.34955-10.95081-19.83881
				c2.44952-8.48853,11.35028-13.40179,19.83881-10.95081l33.11993,9.56042c2.14294,0.61761,4.39752,0.36499,6.3501-0.7121
				c1.95178-1.07782,3.36768-2.85126,3.98602-4.99341l0.33655-1.16553c1.27649-4.4223-1.2832-9.05896-5.70551-10.33545
				l-32.2099-9.29803l2.12866-7.37396l32.20996,9.29803c4.112,1.18652,7.51563,3.90436,9.58362,7.65131
				c2.06873,3.74695,2.55444,8.07483,1.36713,12.18677l-0.33649,1.16553c-1.18652,4.112-3.90436,7.51563-7.65131,9.58435
				c-3.74847,2.06726-8.07629,2.55371-12.18756,1.36646l-33.11987-9.56036c-4.42303-1.27423-9.05896,1.28394-10.33618,5.70544
				c-1.27643,4.4223,1.28326,9.05969,5.70551,10.33618l35.45398,10.23346L705.38171,949.11871z"/>
		</g>
	</g>
	<g>
		<g>
			<path class="st1" d="M879.77911,1004.31909c-1.49231,0-2.99292-0.21063-4.46649-0.63635l-35.45398-10.23346l2.12872-7.37396
				l35.45392,10.23346c2.14148,0.61615,4.39606,0.36505,6.34937-0.71204c1.95178-1.07788,3.36768-2.85126,3.98608-4.99347
				c0.61835-2.14215,0.36572-4.39679-0.7121-6.34937c-1.07782-1.95178-2.85126-3.36768-4.99341-3.98602l-33.11993-9.56036
				c-4.11194-1.18652-7.51636-3.90436-9.58435-7.65131c-2.06873-3.74695-2.55365-8.07556-1.36639-12.1875l0.33502-1.16333
				c2.45178-8.49152,11.35028-13.40625,19.8396-10.953l32.20996,9.29803l-2.12872,7.37396l-32.20996-9.29803
				c-4.42004-1.27423-9.05896,1.2832-10.33612,5.70551l-0.33508,1.16327c-0.61908,2.1452-0.36652,4.39984,0.7113,6.35236
				c1.07709,1.95184,2.85052,3.36768,4.99347,3.98608l33.11987,9.56036c4.112,1.18652,7.51563,3.90436,9.58435,7.65131
				c2.06799,3.74695,2.55371,8.07477,1.36646,12.18677c-1.18652,4.11194-3.90436,7.51563-7.65131,9.58435
				C885.09558,1003.64301,882.45123,1004.31909,879.77911,1004.31909z"/>
		</g>
	</g>
	<g>
		<g>
			
				<rect x="217.99666" y="17.75798" transform="matrix(0.96463 0.2636 -0.2636 0.96463 19.33849 -57.42205)" class="st2" width="11.32329" height="51.19563"/>
		</g>
	</g>
	<g>
		<g>
			<path class="st3" d="M271.38809,68.06357l-128.49435-35.1124c-9.00722-2.46131-18.30438,2.84523-20.76565,11.85229
				L59.33307,274.60281c-2.46132,9.0072,2.84528,18.3042,11.8525,20.76553l128.49435,35.1124
				c9.00705,2.46127,18.30402-2.84515,20.76532-11.85239l62.79503-229.79935
				C285.70154,79.82195,280.39514,70.52483,271.38809,68.06357z M231.02759,76.15478l-57.49684-15.7116
				c-2.18356-0.59668-3.46999-2.85052-2.87331-5.0341v-0.00001c0.59668-2.18357,2.85052-3.47,5.0341-2.87331l57.49683,15.7116
				c2.18358,0.59669,3.47,2.85052,2.87332,5.0341v0.00001C235.46501,75.46503,233.21117,76.75146,231.02759,76.15478z"/>
		</g>
	</g>
	<g>
		<g>
			<g>
				<g>
					<path class="st4" d="M108.426,268.90439l7.26433,1.98505l-0.23354,0.85461l-6.26231-1.71124l-1.03884,3.8017l5.86449,1.60251
						l-0.23353,0.85461l-5.86449-1.60254l-1.13552,4.15546l6.33601,1.73138l-0.23353,0.85458l-7.33803-2.00519L108.426,268.90439z"
						/>
				</g>
			</g>
			<g>
				<g>
					<path class="st4" d="M116.19005,274.16144l0.85461,0.23355l-0.39465,1.44421l0.02948,0.00806
						c0.70917-0.91473,1.9433-1.25848,3.16624-0.92429c2.31357,0.6322,2.90727,2.80536,2.31937,4.95679
						c-0.5879,2.1514-2.20425,3.72064-4.51781,3.08844c-1.13451-0.31003-2.08266-1.18674-2.18259-2.38556l-0.02948-0.00806
						l-1.16367,4.25845l-0.92831-0.25366L116.19005,274.16144z M119.63239,275.7037
						c-2.04807-0.55966-3.08174,0.78897-3.55287,2.51309c-0.43085,1.57672-0.19325,3.43115,1.78113,3.97067
						c1.76833,0.48322,2.9453-0.98468,3.37616-2.5614C121.66765,278.04935,121.40073,276.18692,119.63239,275.7037z"/>
				</g>
			</g>
			<g>
				<g>
					<path class="st4" d="M125.46034,273.5592l0.92831,0.25366l-0.40668,1.48828l-0.92831-0.25366L125.46034,273.5592z
						 M124.66308,276.47681l0.92831,0.25366l-2.07769,7.60333l-0.92831-0.25366L124.66308,276.47681z"/>
				</g>
			</g>
			<g>
				<g>
					<path class="st4" d="M132.08577,281.07065c0.05952-1.20331-0.44366-2.08517-1.65204-2.41537
						c-1.78293-0.48718-3.10999,0.89233-3.55289,2.51309c-0.44289,1.62079-0.00179,3.48346,1.78113,3.97067
						c1.14941,0.31409,2.33812-0.32721,2.80235-1.56232l0.92831,0.25366c-0.74988,1.75867-2.24937,2.55246-3.94402,2.08939
						c-2.32813-0.6362-3.09204-2.82416-2.49609-5.00507s2.36639-3.67636,4.69453-3.04016
						c1.62094,0.44293,2.63586,1.65436,2.36702,3.44977L132.08577,281.07065z"/>
				</g>
			</g>
			<g>
				<g>
					<path class="st5" d="M135.9523,276.42624l7.39697,2.0213l-0.53149,1.94507l-5.08359-1.38916l-0.66438,2.43134l4.40585,1.20395
						l-0.49123,1.79764l-4.40585-1.20395l-1.18784,4.34692l-2.3134-0.63217L135.9523,276.42624z"/>
				</g>
			</g>
			<g>
				<g>
					<path class="st5" d="M148.741,291.22742l-1.98929-0.54358l0.28992-1.06097l-0.04422-0.01208
						c-0.76384,0.70969-1.79019,0.87277-2.67445,0.63116c-2.22496-0.608-2.44269-2.01346-1.92729-3.89954l1.28044-4.68579
						l2.09245,0.57181l-1.1757,4.30252c-0.34224,1.25241-0.14307,1.97217,0.82947,2.23792
						c1.13467,0.31006,1.79408-0.19073,2.21689-1.73798l1.09117-3.99313l2.09229,0.57175L148.741,291.22742z"/>
				</g>
			</g>
			<g>
				<g>
					<path class="st5" d="M152.62997,289.62991c-0.23491,0.9176,0.4306,1.4953,1.25574,1.72076
						c0.60419,0.1651,1.43497,0.13867,1.63626-0.59802c0.17316-0.63367-0.63597-1.09219-2.05022-1.82715
						c-1.13586-0.59552-2.22731-1.353-1.8609-2.69385c0.53151-1.94507,2.3481-1.98691,3.98378-1.53995
						c1.66499,0.45499,3.04451,1.43356,2.69525,3.3494l-1.98929-0.54361c0.16254-0.82666-0.39603-1.21674-1.14745-1.42206
						c-0.47153-0.12885-1.18832-0.22968-1.35741,0.3891c-0.20538,0.75159,0.94536,1.17673,2.06235,1.78278
						c1.14655,0.61444,2.21925,1.38245,1.83267,2.79718c-0.54753,2.00369-2.46346,2.17715-4.20232,1.702
						c-1.76817-0.48315-3.31091-1.6174-2.84776-3.66016L152.62997,289.62991z"/>
				</g>
			</g>
			<g>
				<g>
					<path class="st5" d="M162.80092,285.61575l-2.09247-0.57178l0.47115-1.72412l2.09245,0.57178L162.80092,285.61575z
						 M160.38631,286.22287l2.09247,0.57178l-2.08168,7.61792l-2.09245-0.57178L160.38631,286.22287z"/>
				</g>
			</g>
			<g>
				<g>
					<path class="st5" d="M167.88408,288.04993c2.40184,0.65634,3.51424,2.67041,2.84985,5.10175
						c-0.66031,2.41641-2.64247,3.58524-5.04431,2.92892c-2.38693-0.65225-3.49925-2.66669-2.83894-5.0831
						C163.51506,288.56616,165.49715,287.39767,167.88408,288.04993z M166.12047,294.50388
						c1.42932,0.39056,2.19096-0.71558,2.52116-1.92395c0.33418-1.22293,0.24091-2.56271-1.18842-2.95328
						c-1.41457-0.38654-2.17606,0.71964-2.51024,1.9426C164.61278,292.77762,164.7059,294.11734,166.12047,294.50388z"/>
				</g>
			</g>
			<g>
				<g>
					<path class="st5" d="M173.13271,289.70596l1.98927,0.54358l-0.28983,1.06064l0.04422,0.01208
						c0.76402-0.70966,1.79028-0.87241,2.67436-0.63083c2.22496,0.608,2.44269,2.01346,1.92729,3.89954l-1.28043,4.68576
						l-2.0923-0.57172l1.1757-4.30252c0.34233-1.25278,0.14291-1.97223-0.82962-2.23798
						c-1.13451-0.31003-1.79393,0.19077-2.21674,1.73801l-1.09116,3.99313l-2.09247-0.57178L173.13271,289.70596z"/>
				</g>
			</g>
		</g>
		<g>
			<g>
				<g>
					<g>
						<polygon class="st5" points="172.95732,257.22458 171.93974,256.9465 172.91377,253.38202 163.79684,244.1745 
							151.26457,247.46614 150.29053,251.03065 149.27295,250.75258 150.40756,246.60045 164.118,242.99925 174.09193,253.07245 
													"/>
					</g>
				</g>
			</g>
			<g>
				<g>
					<g>
						<polygon class="st5" points="156.64467,270.34799 146.6709,260.27484 147.94807,255.60098 148.96565,255.87906 
							147.84906,259.96527 156.96582,269.17273 169.49826,265.88113 170.61487,261.79492 171.63245,262.073 170.35527,266.74683 
													"/>
					</g>
				</g>
			</g>
			<g>
				<g>
					<g>
						<polygon class="st4" points="152.70219,260.20786 151.68462,259.92978 152.65404,256.38217 143.53711,247.17465 
							131.00482,250.46629 130.0354,254.01392 129.01782,253.73584 130.14783,249.6006 143.85826,245.9994 153.83218,256.0726 
													"/>
					</g>
				</g>
			</g>
			<g>
				<g>
					<g>
						<polygon class="st4" points="152.19662,259.05658 142.86539,249.6328 130.03862,253.00168 129.7706,251.98154 
							143.18654,248.45755 152.94618,258.31451 						"/>
					</g>
				</g>
			</g>
			<g>
				<g>
					<g>
						<polygon class="st4" points="136.38493,273.34814 126.411,263.27493 127.5409,259.14001 128.55847,259.41809 
							127.58915,262.96536 136.70609,272.17288 149.23853,268.88129 150.20786,265.33401 151.22543,265.61206 150.09554,269.74698 
													"/>
					</g>
				</g>
			</g>
			<g>
				<g>
					<g>
						<polygon class="st4" points="137.05655,270.89032 127.29691,261.03336 128.04648,260.29129 137.3777,269.71506 
							150.20464,266.34625 150.47266,267.36636 						"/>
					</g>
				</g>
			</g>
			<g>
				<g>
					<g>
						<polygon class="st5" points="172.46631,256.01999 163.13509,246.59621 150.30832,249.96509 150.0403,248.94495 
							163.45624,245.42096 173.21588,255.27791 						"/>
					</g>
				</g>
			</g>
			<g>
				<g>
					<g>
						<polygon class="st5" points="157.259,268.09985 147.49953,258.24295 148.24908,257.50085 157.58015,266.92459 
							170.40709,263.55576 170.67511,264.5759 						"/>
					</g>
				</g>
			</g>
		</g>
	</g>
	<g>
		<g>
			<path class="st4" d="M116.37267,192.21066l-3.79812-1.03787l-1.5496,2.57903l-1.12117-0.30637l6.79221-11.03685l0.56885,0.15544
				l0.2521,12.96178l-1.1127-0.30406L116.37267,192.21066z M113.14901,190.22322l3.22079,0.88011l-0.07013-5.96173l0.08772-0.45261
				l-0.15464,0.43431L113.14901,190.22322z"/>
		</g>
		<g>
			<path class="st4" d="M127.78217,196.39771c-0.25121,0.31522-0.54692,0.56975-0.88776,0.7643
				c-0.34085,0.19455-0.71223,0.32008-1.11371,0.37502c-0.40188,0.05482-0.80621,0.02666-1.21339-0.08461l-3.79811-1.03787
				l3.27831-11.99707l3.79812,1.03787c0.40719,0.11127,0.76943,0.29344,1.08759,0.54503
				c0.31775,0.25146,0.5739,0.54762,0.76843,0.88846c0.19455,0.34085,0.31929,0.71201,0.37462,1.1136
				c0.05493,0.40147,0.02666,0.8062-0.08461,1.21339l-0.03195,0.11691c-0.07777,0.28462-0.18953,0.54611-0.33586,0.78514
				c-0.14572,0.23833-0.31946,0.45081-0.51976,0.63522c-0.20052,0.18524-0.42032,0.34267-0.65936,0.47232
				c-0.23885,0.12883-0.49255,0.22327-0.76027,0.28183c0.20074,0.18655,0.37115,0.3969,0.51106,0.6301
				c0.14014,0.23239,0.24887,0.48134,0.32668,0.74522c0.07779,0.26389,0.11913,0.536,0.12315,0.81612
				c0.00467,0.27942-0.03209,0.5614-0.10986,0.84602l-0.21042,0.77002C128.21379,195.72192,128.03275,196.08318,127.78217,196.39771
				z M128.91281,188.92101c0.07315-0.26768,0.09105-0.53142,0.05391-0.79025c-0.03716-0.25885-0.11951-0.49971-0.24725-0.72353
				c-0.12775-0.2238-0.29366-0.41731-0.49753-0.58134c-0.20409-0.16321-0.43998-0.28139-0.70767-0.35454l-2.66888-0.72931
				l-1.1292,4.13234l2.66888,0.72929c0.26769,0.07315,0.53091,0.09135,0.78986,0.0538c0.25874-0.03676,0.5-0.119,0.72381-0.24673
				c0.22382-0.12775,0.41743-0.29407,0.58105-0.49805s0.28209-0.43936,0.35524-0.70705L128.91281,188.92101z M127.50466,194.07413
				c0.07315-0.2677,0.09084-0.53061,0.05369-0.78946c-0.03715-0.25883-0.11972-0.4989-0.24812-0.72029
				c-0.12862-0.22058-0.29498-0.41248-0.49886-0.57651c-0.20409-0.16321-0.43976-0.2822-0.70745-0.35535l-2.66888-0.72931
				l-1.30547,4.77737l2.66888,0.72931c0.26769,0.07315,0.53091,0.09135,0.78986,0.0538
				c0.25874-0.03676,0.49978-0.11819,0.72271-0.24271c0.22314-0.12534,0.41611-0.28923,0.57995-0.49402
				c0.16362-0.20398,0.2821-0.43935,0.35525-0.70705L127.50466,194.07413z"/>
		</g>
		<g>
			<path class="st4" d="M138.30489,199.27315c-0.25121,0.31522-0.54692,0.56975-0.88776,0.7643
				c-0.34085,0.19455-0.71223,0.32008-1.11371,0.37502c-0.40189,0.05482-0.80621,0.02666-1.21339-0.08461l-3.79811-1.03787
				l3.27832-11.99707l3.79811,1.03787c0.40718,0.11127,0.76942,0.29344,1.08759,0.54503
				c0.31775,0.25146,0.5739,0.54762,0.76845,0.88846c0.19453,0.34085,0.31927,0.71201,0.3746,1.1136
				c0.05493,0.40147,0.02666,0.8062-0.08461,1.21339l-0.03195,0.11691c-0.07777,0.28462-0.18951,0.54611-0.33586,0.78514
				c-0.14571,0.23833-0.31946,0.45081-0.51976,0.63522c-0.20052,0.18524-0.4203,0.34267-0.65936,0.47232
				c-0.23883,0.12883-0.49254,0.22327-0.76027,0.28183c0.20074,0.18655,0.37117,0.3969,0.51108,0.6301
				c0.14012,0.23239,0.24887,0.48134,0.32666,0.74522c0.0778,0.26389,0.11913,0.536,0.12317,0.81612
				c0.00465,0.27942-0.0321,0.5614-0.10988,0.84602l-0.21042,0.77002C138.73651,198.59737,138.55548,198.95862,138.30489,199.27315z
				 M139.43553,191.79645c0.07315-0.26768,0.09106-0.53142,0.05391-0.79025c-0.03716-0.25885-0.11951-0.49971-0.24725-0.72353
				c-0.12773-0.2238-0.29366-0.41731-0.49753-0.58134c-0.20409-0.16321-0.43997-0.28139-0.70767-0.35454l-2.66888-0.72931
				l-1.1292,4.13234l2.66888,0.72929c0.26768,0.07315,0.5309,0.09135,0.78986,0.0538c0.25873-0.03676,0.5-0.119,0.72382-0.24673
				c0.2238-0.12775,0.41742-0.29407,0.58104-0.49805s0.2821-0.43936,0.35526-0.70705L139.43553,191.79645z M138.02739,196.94957
				c0.07315-0.2677,0.09084-0.53061,0.0537-0.78946c-0.03716-0.25883-0.11974-0.4989-0.24814-0.72029
				c-0.12862-0.22058-0.29498-0.41248-0.49884-0.57651c-0.2041-0.16321-0.43977-0.2822-0.70746-0.35535l-2.66888-0.72931
				l-1.30547,4.77737l2.66888,0.72931c0.26768,0.07315,0.5309,0.09135,0.78986,0.0538
				c0.25873-0.03676,0.49979-0.11819,0.7227-0.24271c0.22314-0.12534,0.41611-0.28923,0.57996-0.49402
				c0.16362-0.20398,0.28209-0.43935,0.35524-0.70705L138.02739,196.94957z"/>
		</g>
		<g>
			<path class="st4" d="M146.53683,197.28793l-1.56833,5.7393l-1.07924-0.29491l1.56369-5.72237l-1.38885-7.12276l1.1627,0.31772
				l1.10558,5.66064l3.83023-4.31187l1.1631,0.31783L146.53683,197.28793z"/>
		</g>
		<g>
			<path class="st4" d="M163.03778,196.1785l-2.99695,10.96741l-1.07924-0.29491l2.99695-10.96741l-2.86119-0.78185l0.28137-1.02966
				l6.80161,1.85861l-0.28136,1.02966L163.03778,196.1785z"/>
		</g>
		<g>
			<path class="st4" d="M173.12141,208.96735c-0.25121,0.31523-0.54692,0.56976-0.88777,0.7643
				c-0.34085,0.19455-0.7108,0.31961-1.10945,0.37532c-0.39865,0.05569-0.80199,0.02867-1.20918-0.0826l-0.85307-0.23311
				c-0.40718-0.11127-0.76942-0.29344-1.08759-0.54503c-0.31775-0.25146-0.5739-0.54762-0.76845-0.88846
				c-0.19453-0.34085-0.32011-0.71051-0.37572-1.10956c-0.05598-0.39917-0.02815-0.80229,0.08311-1.20949l2.51927-9.21931
				l1.07925,0.29491l-2.51927,9.21933c-0.07315,0.2677-0.09106,0.53142-0.05391,0.79027
				c0.03714,0.25883,0.11949,0.49969,0.24724,0.72351c0.12775,0.2238,0.29366,0.41731,0.49753,0.58134
				c0.20409,0.16322,0.43976,0.28221,0.70746,0.35536l0.7531,0.20578c0.26768,0.07315,0.53113,0.09055,0.78986,0.0538
				c0.25896-0.03755,0.49861-0.12024,0.71959-0.24875c0.22099-0.12852,0.41318-0.29436,0.5768-0.49834
				s0.28232-0.44017,0.35547-0.70786l2.51927-9.21933l1.07925,0.29491l-2.51927,9.21933
				C173.55367,208.29086,173.37222,208.65202,173.12141,208.96735z"/>
		</g>
		<g>
			<path class="st4" d="M182.83476,213.37459l-1.85556-6.00943l-1.48077-0.40465l-1.39911,5.12006l-1.07925-0.29491
				l3.27832-11.99706l3.80658,1.04018c0.4072,0.11127,0.76823,0.29312,1.08316,0.54381
				c0.31493,0.2507,0.56987,0.54652,0.7644,0.88737c0.19455,0.34084,0.31929,0.71201,0.37462,1.11359
				c0.05493,0.40147,0.02705,0.80632-0.08421,1.2135l-0.26527,0.97079c-0.11127,0.4072-0.29294,0.76915-0.5444,1.0869
				c-0.25186,0.31764-0.54802,0.57379-0.88887,0.76833c-0.34084,0.19455-0.71101,0.32042-1.10966,0.37613
				c-0.39865,0.05569-0.80177,0.02786-1.20897-0.0834l1.85516,6.00931L182.83476,213.37459z M185.1637,204.29214
				c0.07315-0.2677,0.09105-0.53142,0.05391-0.79027c-0.03716-0.25883-0.1183-0.49937-0.24323-0.72241
				s-0.28922-0.41611-0.49309-0.58014c-0.20409-0.16321-0.43999-0.28139-0.70767-0.35454l-2.67735-0.73161l-1.3167,4.8185
				l2.67734,0.73161c0.2677,0.07315,0.53091,0.09135,0.78986,0.05379c0.25874-0.03674,0.49861-0.12024,0.71938-0.24794
				c0.22099-0.12851,0.41341-0.29517,0.57703-0.49915s0.28209-0.43936,0.35524-0.70705L185.1637,204.29214z"/>
		</g>
		<g>
			<path class="st4" d="M194.03479,216.4351l-2.6161-10.10098l0.04129-0.54588l-2.52832,9.25238l-1.07924-0.29491l3.27832-11.99707
				l0.56079,0.15324l2.61368,10.10985l-0.03062,0.54015l2.52853-9.25319l1.07884,0.2948l-3.27832,11.99706L194.03479,216.4351z"/>
		</g>
		<g>
			<path class="st4" d="M199.06091,217.80855l3.27832-11.99707l6.75122,1.84485l-0.28137,1.02965l-5.67198-1.54993l-1.21843,4.45889
				l4.59314,1.25511l-0.28114,1.02885l-4.59314-1.25511l-1.21623,4.45082l5.67198,1.54991l-0.28114,1.02885L199.06091,217.80855z"/>
		</g>
		<g>
			<path class="st4" d="M215.22255,222.22488l-1.85556-6.00943l-1.48077-0.40465l-1.39911,5.12006l-1.07925-0.29491
				l3.27832-11.99706l3.80658,1.04018c0.4072,0.11127,0.76823,0.29312,1.08316,0.54381
				c0.31493,0.2507,0.56987,0.54652,0.7644,0.88736c0.19455,0.34085,0.31929,0.71201,0.37462,1.1136
				c0.05493,0.40147,0.02705,0.80632-0.08421,1.2135l-0.26527,0.97079c-0.11127,0.4072-0.29294,0.76915-0.5444,1.0869
				c-0.25186,0.31764-0.54802,0.57378-0.88887,0.76833c-0.34084,0.19455-0.71101,0.32042-1.10966,0.37611
				c-0.39865,0.05571-0.80177,0.02788-1.20897-0.08339l1.85516,6.00931L215.22255,222.22488z M217.55148,213.14244
				c0.07315-0.2677,0.09105-0.53142,0.05391-0.79027c-0.03716-0.25883-0.1183-0.49937-0.24323-0.72241
				c-0.12491-0.22304-0.28922-0.41611-0.49309-0.58014c-0.20409-0.16321-0.43999-0.2814-0.70767-0.35454l-2.67735-0.73161
				l-1.3167,4.8185l2.67734,0.73161c0.2677,0.07315,0.53091,0.09134,0.78987,0.05379
				c0.25873-0.03674,0.4986-0.12024,0.71936-0.24794c0.22099-0.12851,0.41341-0.29517,0.57703-0.49915
				s0.28209-0.43936,0.35524-0.70705L217.55148,213.14244z"/>
		</g>
		<g>
			<path class="st4" d="M99.73769,204.66342l1.43368-0.99899c0.57867,0.82188,1.25514,1.427,2.20457,1.68645
				c0.74786,0.20435,1.27966,0.03079,1.41252-0.45541l0.00639-0.02338c0.12646-0.46283-0.09316-0.77846-1.38486-1.51357
				c-1.55632-0.88454-2.5099-1.64249-2.0591-3.29219l0.00661-0.02419c0.4118-1.507,1.89481-2.17276,3.59168-1.70908
				c1.21067,0.33083,2.13937,0.99274,2.7971,1.89948l-1.32553,1.11693c-0.59629-0.71146-1.23596-1.21812-1.93624-1.40948
				c-0.69987-0.19124-1.15565,0.02908-1.26582,0.43224l-0.00661,0.02419c-0.14917,0.54588,0.15813,0.82135,1.49369,1.58144
				c1.56532,0.89912,2.34928,1.7641,1.95356,3.21223l-0.00639,0.02338c-0.4508,1.64972-1.96158,2.23163-3.7536,1.74194
				C101.64111,206.61157,100.49144,205.82603,99.73769,204.66342z"/>
		</g>
		<g>
			<path class="st4" d="M113.71097,200.79057l1.68519,0.46049l1.27386,9.33994l-1.91055-0.52208l-0.25035-2.07092l-3.51309-0.95999
				l-1.26872,1.65582l-1.86338-0.50919L113.71097,200.79057z M114.29752,206.20541l-0.36771-2.99551l-1.83997,2.39224
				L114.29752,206.20541z"/>
		</g>
		<g>
			<path class="st4" d="M121.40297,202.95662l1.8275,0.49937l-1.81597,6.6456l4.14201,1.13184l-0.45411,1.6618l-5.96951-1.63123
				L121.40297,202.95662z"/>
		</g>
		<g>
			<path class="st4" d="M129.93129,205.28706l6.26624,1.71231l-0.4442,1.62552l-4.45041-1.21613l-0.46049,1.68518l3.91623,1.07016
				l-0.4444,1.62633l-3.91624-1.07016l-0.47681,1.74486l4.50969,1.23232l-0.44418,1.62552l-6.32549-1.72852L129.93129,205.28706z"/>
		</g>
		<g>
			<path class="st4" d="M136.55574,214.72433l1.43367-0.99899c0.57867,0.82188,1.25514,1.427,2.20457,1.68643
				c0.74785,0.20436,1.27966,0.03081,1.41252-0.4554l0.00639-0.02338c0.12646-0.46283-0.09317-0.77846-1.38446-1.51346
				c-1.55672-0.88464-2.5103-1.64259-2.05949-3.2923l0.00661-0.0242c0.4118-1.50699,1.89481-2.17276,3.59167-1.70906
				c1.21068,0.33083,2.13937,0.99274,2.7971,1.89948l-1.32553,1.11693c-0.59628-0.71146-1.23596-1.21812-1.93623-1.40948
				c-0.70029-0.19136-1.15565,0.02908-1.26582,0.43224l-0.00661,0.02419c-0.14917,0.54587,0.15813,0.82135,1.4937,1.58144
				c1.56532,0.89912,2.34927,1.7641,1.95355,3.21223l-0.00638,0.02338c-0.45081,1.6497-1.96159,2.23163-3.7536,1.74194
				C138.45915,216.67249,137.30908,215.88683,136.55574,214.72433z"/>
		</g>
		<g>
			<path class="st4" d="M152.58694,211.47795l1.9698,0.53827l1.22391,4.10986l3.14346-2.91643l1.97021,0.53838l-2.27008,8.30739
				l-1.8158-0.49619l1.48195-5.42322l-3.30736,2.90889l-0.04756-0.013l-1.35434-4.14462l-1.47226,5.38776l-1.79202-0.4897
				L152.58694,211.47795z"/>
		</g>
		<g>
			<path class="st4" d="M166.93336,215.33414l1.68518,0.46049l1.27386,9.33994l-1.91054-0.52208l-0.25037-2.07092l-3.51308-0.95999
				l-1.26874,1.65582l-1.86298-0.50908L166.93336,215.33414z M167.51991,220.74896l-0.36771-2.9955l-1.83997,2.39224
				L167.51991,220.74896z"/>
		</g>
		<g>
			<path class="st4" d="M174.62576,217.50029l1.6852,0.46049l2.49466,6.17886l1.39778-5.11522l1.80412,0.493l-2.27008,8.30739
				l-1.55457-0.42479l-2.58031-6.38078l-1.44318,5.28133l-1.80371-0.49289L174.62576,217.50029z"/>
		</g>
		<g>
			<path class="st4" d="M188.04695,221.10364l1.68518,0.46049l1.27386,9.33994l-1.91054-0.52208l-0.25037-2.07092l-3.51308-0.95999
				l-1.26874,1.65582l-1.86337-0.50919L188.04695,221.10364z M188.6335,226.51848l-0.36771-2.99551l-1.83997,2.39224
				L188.6335,226.51848z"/>
		</g>
		<g>
			<path class="st4" d="M193.69595,227.20084l0.00661-0.0242c0.64536-2.36166,3.01352-3.79332,5.52962-3.10577
				c1.49529,0.40862,2.28676,1.05901,2.95219,2.03111l-1.53041,1.07393c-0.49516-0.70894-0.98042-1.17342-1.94154-1.43605
				c-1.32921-0.36322-2.7065,0.52293-3.09251,1.93559l-0.00639,0.02338c-0.4151,1.51909,0.32413,2.92035,1.79564,3.32246
				c0.66481,0.18166,1.30363,0.17772,1.85724-0.028l0.32433-1.18689l-1.8396-0.50269l0.43141-1.57875l3.60783,0.98587
				l-0.98599,3.60823c-1.05214,0.49062-2.3895,0.76292-3.90858,0.34782C194.30875,231.95995,193.0246,229.65765,193.69595,227.20084
				z"/>
		</g>
		<g>
			<path class="st4" d="M205.69121,225.98924l6.26622,1.71231l-0.44418,1.6255l-4.45042-1.21611l-0.46048,1.68518l3.91623,1.07014
				l-0.44441,1.62633l-3.91623-1.07014l-0.47681,1.74484l4.50969,1.23232l-0.4442,1.62552l-6.32549-1.7285L205.69121,225.98924z"/>
		</g>
		<g>
			<path class="st4" d="M214.82426,228.48494l3.79771,1.03777c1.05626,0.28864,1.79399,0.8091,2.19069,1.50414
				c0.33635,0.58929,0.40726,1.30968,0.19308,2.09341l-0.00638,0.02338c-0.36664,1.34169-1.32054,1.98654-2.48367,2.08896
				l1.21826,3.52168l-2.13593-0.58365l-1.05389-3.1449l-1.43602-0.39241l-0.72644,2.6584l-1.8275-0.49939L214.82426,228.48494z
				 M217.4005,233.52496c0.89017,0.24326,1.53012-0.09138,1.72159-0.79207l0.00639-0.02339
				c0.21416-0.78372-0.22154-1.33604-1.11171-1.57928l-1.81581-0.49619l-0.65173,2.38506L217.4005,233.52496z"/>
		</g>
	</g>
	<g>
		<g>
			
				<rect x="199.47984" y="14.24517" transform="matrix(0.96463 0.2636 -0.2636 0.96463 17.95788 -54.15772)" class="st6" width="22.64657" height="51.19563"/>
		</g>
	</g>
	<g>
		<g>
			
				<ellipse transform="matrix(0.2636 -0.96463 0.96463 0.2636 5.15426 281.96283)" class="st5" cx="187.25201" cy="137.60556" rx="48.81859" ry="48.81859"/>
		</g>
	</g>
	<g>
		<g>
			<path class="st7" d="M234.3869,150.31714c1.15076-4.2113,1.70453-8.44342,1.72906-12.61121l-32.56146-6.47504
				c-16.55402-3.29187-32.90961,6.84644-37.09821,23.19659c-1.94458,7.59082-3.33142,16.27209-3.26813,25.48224
				c3.4632,1.96289,7.22235,3.53363,11.23834,4.63104C200.43469,191.64777,227.27991,176.32532,234.3869,150.31714z"/>
		</g>
	</g>
	<g>
		<path class="st4" d="M229.32367,77.96686c0,0-2.11145-15.51453-15.95398-16.34698
			c-26.62823-1.60132-27.13208,47.80078-50.40265,47.4209c0,0,14.02911,8.29877,30.22217,3.8418
			c-0.71747,1.15112-1.50409,2.0304-2.33557,2.36407c-0.87781,0.35193-1.30353,1.34863-0.95142,2.22601
			c0.2077,0.51776,0.63959,0.87799,1.13867,1.01434c0.34753,0.09497,0.72772,0.08148,1.08734-0.06293
			c2.55212-1.02399,4.42755-4.10486,5.7193-7.18011c2.8811-1.23468,5.79272-2.90302,8.67407-5.15063l36.63611-13.45355
			c7.04895,4.69098,12.5354,15.49097,12.5354,15.49097C253.77698,80.3653,229.32367,77.96686,229.32367,77.96686z"/>
	</g>
	<g>
		<g>
			<path class="st8" d="M200.8551,103.88493l0.04788-0.14484c0.09328-0.28172,0.19508-0.5582,0.29872-0.83353
				c4.71547-11.64956,22.13345-12.91868,22.13345-12.91868s2.22792,25.26656,24.92352,32.63631
				c-3.8658,13.4368-17.821,21.31419-31.35004,17.61723c-11.94527-3.26416-19.58907-14.4668-18.80356-26.36149l-2.39978-0.65576
				c-3.00383-0.82082-4.77359-3.92138-3.95274-6.92528C192.27478,104.38782,194.55183,101.21868,200.8551,103.88493z"/>
		</g>
	</g>
	<g>
		<g>
			<path class="st9" d="M212.39291,130.94057c-0.57449-0.15698-1.0508-0.60992-1.20888-1.22849
				c-0.23413-0.91576,0.31876-1.84826,1.23492-2.08228c0.24541-0.06249,6.08022-1.49784,12.33624,1.87063
				c0.83237,0.44841,1.14404,1.48631,0.69603,2.31879c-0.44864,0.83318-1.48914,1.14328-2.31879,0.69604
				c-5.09245-2.74159-9.8186-1.5804-9.86612-1.56825C212.96872,131.02296,212.66948,131.01614,212.39291,130.94057z"/>
		</g>
	</g>
	<g>
		<g>
			<path class="st9" d="M223.83513,125.05247l-4.5105-1.23254c-0.91193-0.2492-1.44926-1.19063-1.20007-2.10256
				s1.19063-1.44927,2.10255-1.20008l4.51048,1.23254l1.60097-5.99986c0.24921-0.91194,1.19063-1.44928,2.10257-1.20008
				c0.91193,0.24919,1.44926,1.19062,1.20007,2.10255l-1.64665,6.02595
				C227.50233,124.47968,225.63641,125.54469,223.83513,125.05247z"/>
		</g>
	</g>
	<g>
		<g>
			<path class="st4" d="M201.49693,103.1086l-5.87268-1.60477l1.61647-5.91548
				c3.72774-13.64171,20.71506-20.88431,34.35677-17.15657l4.07993,1.11488c13.64169,3.72774,21.67857,17.80845,17.95082,31.45016
				l-2.57442,9.42113l-0.76636,2.80452c-24.60339-6.47197-26.96075-33.23689-26.96075-33.23689
				S206.21025,91.24858,201.49693,103.1086z"/>
		</g>
	</g>
	<g>
		<g>
			
				<rect x="249.28419" y="113.06736" transform="matrix(0.2636 -0.96463 0.96463 0.2636 73.18971 327.33691)" class="st1" width="3.40769" height="5.32926"/>
		</g>
	</g>
	<g>
		<g>
			
				<rect x="223.35622" y="109.04861" transform="matrix(-0.96463 -0.2636 0.2636 -0.96463 416.5903 278.6651)" class="st1" width="7.26652" height="4.67375"/>
		</g>
	</g>
	<g>
		<g>
			
				<rect x="200.4319" y="99.17422" transform="matrix(0.2636 -0.96463 0.96463 0.2636 50.09194 270.38181)" class="st1" width="3.40769" height="6.41674"/>
		</g>
	</g>
	<g>
		<path class="st10" d="M218.05255,99.51178c-3.383-0.92438-6.83533,0.12927-9.14124,2.45264l0.00208-0.00757l-3.28717-0.89825
			l-2.01312,7.36719l2.59991,0.71045c0.23688,3.90369,2.90784,7.39978,6.89014,8.48798
			c5.00159,1.3667,10.16412-1.5799,11.53088-6.58154C226.00073,106.04108,223.05414,100.87854,218.05255,99.51178z"/>
	</g>
	<g>
		<path class="st10" d="M250.4231,113.2998l-2.82196-0.77112c-0.80621-3.16919-3.24133-5.82813-6.62109-6.75171
			c-5.00159-1.36676-10.16412,1.5799-11.53088,6.58148s1.5799,10.16418,6.58148,11.53088
			c3.9823,1.0882,8.06-0.56372,10.24915-3.80444l2.13013,0.58209L250.4231,113.2998z"/>
	</g>
	<g>
		<path class="st8" d="M251.7403,106.45947l12.66913,0.05603l-0.90625-15.47162c-0.16046-3.81262-3.38129-6.77332-7.19391-6.61285
			c-3.81262,0.16052-6.77332,3.38129-6.61279,7.19391l0.08496,2.01929l-1.38403-2.25153
			c-1.16937-1.07489-2.98871-0.99829-4.0636,0.17102c-1.07489,1.16937-0.99835,2.98871,0.17102,4.0636l4.86975,7.31061
			l1.57629,2.36273l0.12311,1.15588l0.64996,0.00287l0.01813,0.02722L251.7403,106.45947z"/>
	</g>
	<g>
		<g>
			
				<ellipse transform="matrix(0.2636 -0.96463 0.96463 0.2636 64.86441 314.63379)" class="st4" cx="238.50534" cy="114.83318" rx="6.63848" ry="6.63848"/>
		</g>
	</g>
	<g>
		<g>
			
				<ellipse transform="matrix(0.2636 -0.96463 0.96463 0.2636 54.02409 287.90344)" class="st4" cx="215.57782" cy="108.56801" rx="6.63848" ry="6.63848"/>
		</g>
	</g>
	<g>
		<g>
			<path class="st7" d="M223.35965,144.02541l6.70476-0.80939c14.42438-2.19246,24.34029-15.66306,22.14783-30.08743
				c-0.41069-2.70196-1.21712-5.24571-2.35141-7.58133c-0.21103-0.43452,15.02763,0.52134,15.0963,0.77514
				c0.41531,1.53468,0.74808,3.10877,0.99271,4.71811c2.72391,17.92076-6.57227,34.42418-21.29355,43.17915
				c-9.04494,5.37917-22.54443,10.77551-22.54443,10.77551"/>
		</g>
	</g>
	<g>
		<g>
			<path class="st8" d="M231.66054,146.429c13.48602,7.09967-7.35951,28.22925,0.16187,45.92039l-13.92842-2.58823
				c-5.4021-16.02927,12.76968-33.67365,1.2767-46.06491"/>
		</g>
	</g>
	<g>
		<g>
			<path class="st10" d="M236.05656,147.39313c-15.43329,10.2144-37.86772-0.68889-39.43013-13.39107
				c0,0,1.25522-4.96494,3.39433-8.62456c4.12288,12.41003,22.15961,20.60394,36.37743,12.04297
				C236.72488,137.22375,237.81812,141.98569,236.05656,147.39313z"/>
		</g>
	</g>
	<g>
		<g>
			<path class="st7" d="M232.10162,113.08331c-0.45062,1.64899-0.23145,3.31927,0.48224,4.73419l6.68335-9.57141
				C236.06256,107.87207,232.97809,109.87585,232.10162,113.08331z"/>
		</g>
		<g>
			<path class="st7" d="M240.25519,108.4295c-0.02197-0.00598-0.04401-0.00873-0.06598-0.01453l-7.13007,10.211
				c0.61328,0.88165,1.44055,1.61945,2.43408,2.12396l7.52704-10.77966C242.26025,109.26343,241.32581,108.72205,240.25519,108.4295
				z"/>
		</g>
	</g>
	<g>
		<g>
			<path class="st7" d="M217.71576,102.29169l-7.2948,10.44696c0.84515,1.04681,2.01001,1.85132,3.40698,2.23303
				c0.16736,0.04572,0.33496,0.07819,0.5025,0.11041l6.93353-9.92963C220.48041,103.8476,219.25006,102.81317,217.71576,102.29169z"
				/>
		</g>
		<g>
			<path class="st7" d="M221.98151,110.31787c0.40527-1.48322,0.26837-2.98401-0.28137-4.30084l-6.40955,9.17926
				C218.32037,115.32996,221.14844,113.36652,221.98151,110.31787z"/>
		</g>
	</g>
	<g>
		<g>
			
				<rect x="760.65656" y="963.97144" transform="matrix(-0.96077 -0.27733 0.27733 -0.96077 1244.22241 2118.42334)" class="st1" width="22.53959" height="14.49723"/>
		</g>
	</g>
	<g>
		<g>
			
				<rect x="708.63727" y="935.24347" transform="matrix(-0.96077 -0.27733 0.27733 -0.96077 1137.18213 2055.01978)" class="st10" width="10.57012" height="23.68963"/>
		</g>
	</g>
	<g>
		<g>
			
				<ellipse transform="matrix(0.27733 -0.96077 0.96077 0.27733 -391.88358 1402.95068)" class="st10" cx="736.65747" cy="961.97656" rx="29.12078" ry="29.12078"/>
		</g>
	</g>
	<g>
		<path class="st10" d="M844.52161,978.19452l-8.70416-2.51251c-2.35815-9.86847-9.80634-18.22278-20.25079-21.23761
			c-15.45209-4.46033-31.5943,4.45026-36.05463,19.90234s4.45026,31.5943,19.90234,36.05463
			c12.30585,3.55219,25.04272-1.38184,31.97498-11.34076l6.56232,1.89429L844.52161,978.19452z"/>
	</g>
	<g>
		<g>
			
				<ellipse transform="matrix(0.27733 -0.96077 0.96077 0.27733 -360.33914 1485.78113)" class="st4" cx="807.49048" cy="982.42285" rx="20.5915" ry="20.5915"/>
		</g>
	</g>
	<g>
		<g>
			
				<ellipse transform="matrix(0.27733 -0.96077 0.96077 0.27733 -391.88358 1402.95068)" class="st4" cx="736.65747" cy="961.97656" rx="20.5915" ry="20.5915"/>
		</g>
	</g>
	<g>
		<g>
			<path class="st7" d="M787.70673,976.71216c-1.47058,5.09448-0.86469,10.28461,1.28613,14.70453l21.15228-29.39014
				C800.22241,960.72467,790.56708,966.80304,787.70673,976.71216z"/>
		</g>
		<g>
			<path class="st7" d="M813.20117,962.6391c-0.06793-0.01959-0.13617-0.02905-0.2041-0.04791l-22.56592,31.35431
				c1.86304,2.76147,4.39606,5.08636,7.4552,6.69513l23.82257-33.10028C819.38306,965.31439,816.50867,963.59381,813.20117,962.6391
				z"/>
		</g>
	</g>
	<g>
		<g>
			<path class="st7" d="M743.5661,942.60504l-23.08728,32.07874c2.57483,3.28418,6.15216,5.83075,10.46796,7.07654
				c0.51697,0.14923,1.03534,0.25726,1.55359,0.36469l21.94397-30.48999C752.07184,947.55316,748.3017,944.29022,743.5661,942.60504
				z"/>
		</g>
		<g>
			<path class="st7" d="M756.44128,967.68726c1.32269-4.58228,0.96448-9.24286-0.68243-13.3515l-20.28564,28.18597
				C744.86432,983.0705,753.72253,977.10583,756.44128,967.68726z"/>
		</g>
	</g>
	<g>
		<g>
			<path class="st4" d="M771.40918,357.96957c-0.82813,0-1.5-0.67139-1.5-1.5v-2.87256c0-0.82861,0.67188-1.5,1.5-1.5
				s1.5,0.67139,1.5,1.5v2.87256C772.90918,357.29819,772.2373,357.96957,771.40918,357.96957z M771.28613,346.1019
				c-0.75293,0-1.40137-0.56494-1.48828-1.33057c-0.3125-2.74072-1.29492-5.39893-2.8418-7.68701
				c-0.46484-0.68604-0.28418-1.61865,0.40234-2.08301c0.68262-0.46338,1.61719-0.28467,2.08203,0.40234
				c1.81738,2.68701,2.97168,5.80908,3.33789,9.02881c0.09375,0.82275-0.49707,1.56592-1.32031,1.65967
				C771.40039,346.09897,771.34277,346.1019,771.28613,346.1019z M761.60156,331.74887c-0.24316,0-0.48926-0.05908-0.7168-0.18359
				c-2.41602-1.31689-5.15723-2.04004-7.92578-2.09131c-0.8291-0.01514-1.4873-0.69873-1.47266-1.52734
				c0.01563-0.81885,0.68359-1.47217,1.49902-1.47217c0.00977,0,0.01953,0,0.02832,0.00049
				c3.25,0.06006,6.46875,0.90918,9.30664,2.45654c0.72754,0.39648,0.99609,1.30713,0.59961,2.03467
				C762.64746,331.46567,762.13281,331.74887,761.60156,331.74887z M743.9873,329.47104h-9c-0.82813,0-1.5-0.67139-1.5-1.5
				s0.67188-1.5,1.5-1.5h9c0.82813,0,1.5,0.67139,1.5,1.5S744.81543,329.47104,743.9873,329.47104z M725.9873,329.47104h-9
				c-0.82813,0-1.5-0.67139-1.5-1.5s0.67188-1.5,1.5-1.5h9c0.82813,0,1.5,0.67139,1.5,1.5S726.81543,329.47104,725.9873,329.47104z
				 M707.9873,329.47104h-9c-0.82813,0-1.5-0.67139-1.5-1.5s0.67188-1.5,1.5-1.5h9c0.82813,0,1.5,0.67139,1.5,1.5
				S708.81543,329.47104,707.9873,329.47104z M689.9873,329.47104h-9.00098c-0.82813,0-1.5-0.67139-1.5-1.5s0.67188-1.5,1.5-1.5
				h9.00098c0.82813,0,1.5,0.67139,1.5,1.5S690.81543,329.47104,689.9873,329.47104z M671.98633,329.47104h-9
				c-0.82813,0-1.5-0.67139-1.5-1.5s0.67188-1.5,1.5-1.5h9c0.82813,0,1.5,0.67139,1.5,1.5S672.81445,329.47104,671.98633,329.47104z
				 M653.98633,329.47104h-9c-0.82813,0-1.5-0.67139-1.5-1.5s0.67188-1.5,1.5-1.5h9c0.82813,0,1.5,0.67139,1.5,1.5
				S654.81445,329.47104,653.98633,329.47104z M635.98633,329.47104h-9c-0.82813,0-1.5-0.67139-1.5-1.5s0.67188-1.5,1.5-1.5h9
				c0.82813,0,1.5,0.67139,1.5,1.5S636.81445,329.47104,635.98633,329.47104z M617.98633,329.47104h-9
				c-0.82813,0-1.5-0.67139-1.5-1.5s0.67188-1.5,1.5-1.5h9c0.82813,0,1.5,0.67139,1.5,1.5S618.81445,329.47104,617.98633,329.47104z
				 M599.98633,329.47104h-9c-0.82813,0-1.5-0.67139-1.5-1.5s0.67188-1.5,1.5-1.5h9c0.82813,0,1.5,0.67139,1.5,1.5
				S600.81445,329.47104,599.98633,329.47104z M581.98633,329.47104h-9c-0.82813,0-1.5-0.67139-1.5-1.5s0.67188-1.5,1.5-1.5h9
				c0.82813,0,1.5,0.67139,1.5,1.5S582.81445,329.47104,581.98633,329.47104z M563.98633,329.47104h-9
				c-0.82813,0-1.5-0.67139-1.5-1.5s0.67188-1.5,1.5-1.5h9c0.82813,0,1.5,0.67139,1.5,1.5S564.81445,329.47104,563.98633,329.47104z
				 M545.98633,329.47104h-9c-0.82813,0-1.5-0.67139-1.5-1.5s0.67188-1.5,1.5-1.5h9c0.82813,0,1.5,0.67139,1.5,1.5
				S546.81445,329.47104,545.98633,329.47104z M527.98633,329.47104h-9c-0.82813,0-1.5-0.67139-1.5-1.5s0.67188-1.5,1.5-1.5h9
				c0.82813,0,1.5,0.67139,1.5,1.5S528.81445,329.47104,527.98633,329.47104z M509.98633,329.47104h-9
				c-0.82813,0-1.5-0.67139-1.5-1.5s0.67188-1.5,1.5-1.5h9c0.82813,0,1.5,0.67139,1.5,1.5S510.81445,329.47104,509.98633,329.47104z
				 M491.98633,329.47104h-9c-0.82813,0-1.5-0.67139-1.5-1.5s0.67188-1.5,1.5-1.5h9c0.82813,0,1.5,0.67139,1.5,1.5
				S492.81445,329.47104,491.98633,329.47104z M473.98633,329.47104h-9c-0.82813,0-1.5-0.67139-1.5-1.5s0.67188-1.5,1.5-1.5h9
				c0.82813,0,1.5,0.67139,1.5,1.5S474.81445,329.47104,473.98633,329.47104z M455.98633,329.47104h-8.99951
				c-0.82861,0-1.5-0.67139-1.5-1.5s0.67139-1.5,1.5-1.5h8.99951c0.82813,0,1.5,0.67139,1.5,1.5
				S456.81445,329.47104,455.98633,329.47104z M437.98682,329.47104h-9c-0.82861,0-1.5-0.67139-1.5-1.5s0.67139-1.5,1.5-1.5h9
				c0.82861,0,1.5,0.67139,1.5,1.5S438.81543,329.47104,437.98682,329.47104z M419.98682,329.47104h-9
				c-0.82861,0-1.5-0.67139-1.5-1.5s0.67139-1.5,1.5-1.5h9c0.82861,0,1.5,0.67139,1.5,1.5S420.81543,329.47104,419.98682,329.47104z
				 M401.98682,329.47104h-9c-0.82861,0-1.5-0.67139-1.5-1.5s0.67139-1.5,1.5-1.5h9c0.82861,0,1.5,0.67139,1.5,1.5
				S402.81543,329.47104,401.98682,329.47104z M383.98682,329.47104h-9c-0.82861,0-1.5-0.67139-1.5-1.5s0.67139-1.5,1.5-1.5h9
				c0.82861,0,1.5,0.67139,1.5,1.5S384.81543,329.47104,383.98682,329.47104z M365.98682,329.47104h-3.28027
				c-2.07422,0-4.11963-0.31201-6.08008-0.92773c-0.79053-0.24805-1.22998-1.09033-0.98193-1.88037
				c0.24805-0.79053,1.09131-1.22852,1.88037-0.98193c1.66943,0.52441,3.4126,0.79004,5.18164,0.79004h3.28027
				c0.82861,0,1.5,0.67139,1.5,1.5S366.81543,329.47104,365.98682,329.47104z M349.45264,323.99496
				c-0.3833,0-0.76611-0.146-1.05859-0.4375c-2.30127-2.29346-4.03564-5.13379-5.01514-8.21484
				c-0.25098-0.78955,0.18555-1.6333,0.9751-1.88428c0.79004-0.25,1.63281,0.18604,1.88428,0.9751
				c0.83398,2.62402,2.31152,5.04443,4.27344,6.99902c0.58643,0.58496,0.58838,1.53467,0.00342,2.12109
				C350.22217,323.84799,349.8374,323.99496,349.45264,323.99496z M344.20313,307.49692c-0.08447,0-0.16992-0.00684-0.25586-0.02148
				c-0.81641-0.14014-1.36475-0.91602-1.22461-1.73242c0.54785-3.18994,1.87744-6.24121,3.84473-8.82422
				c0.50244-0.65967,1.44287-0.78613,2.10205-0.28467c0.65918,0.50195,0.78662,1.44336,0.28467,2.10205
				c-1.67578,2.2002-2.80811,4.79883-3.27441,7.51465C345.5542,306.98129,344.91992,307.49692,344.20313,307.49692z
				 M354.68506,293.71371c-0.56201,0-1.10059-0.31738-1.35693-0.85889c-0.35449-0.74902-0.03418-1.64307,0.71436-1.99756
				c2.71973-1.28662,5.63477-1.93896,8.66406-1.93896h0.71045c0.82861,0,1.5,0.67139,1.5,1.5s-0.67139,1.5-1.5,1.5h-0.71045
				c-2.58203,0-5.06543,0.55518-7.38086,1.65088C355.11816,293.66733,354.8999,293.71371,354.68506,293.71371z M611.63965,291.9183
				h-5.22266c-0.82813,0-1.5-0.67139-1.5-1.5s0.67188-1.5,1.5-1.5h5.22266c1.16309,0,2.32422-0.11572,3.45313-0.34473
				c0.80566-0.16553,1.60352,0.35938,1.76758,1.17236c0.16504,0.81201-0.36035,1.60352-1.17188,1.76807
				C614.36426,291.78207,613.00195,291.9183,611.63965,291.9183z M597.41699,291.9183h-9c-0.82813,0-1.5-0.67139-1.5-1.5
				s0.67188-1.5,1.5-1.5h9c0.82813,0,1.5,0.67139,1.5,1.5S598.24512,291.9183,597.41699,291.9183z M579.41699,291.9183h-9
				c-0.82813,0-1.5-0.67139-1.5-1.5s0.67188-1.5,1.5-1.5h9c0.82813,0,1.5,0.67139,1.5,1.5S580.24512,291.9183,579.41699,291.9183z
				 M561.41699,291.9183h-9c-0.82813,0-1.5-0.67139-1.5-1.5s0.67188-1.5,1.5-1.5h9c0.82813,0,1.5,0.67139,1.5,1.5
				S562.24512,291.9183,561.41699,291.9183z M543.41699,291.9183h-9c-0.82813,0-1.5-0.67139-1.5-1.5s0.67188-1.5,1.5-1.5h9
				c0.82813,0,1.5,0.67139,1.5,1.5S544.24512,291.9183,543.41699,291.9183z M525.41699,291.9183h-9c-0.82813,0-1.5-0.67139-1.5-1.5
				s0.67188-1.5,1.5-1.5h9c0.82813,0,1.5,0.67139,1.5,1.5S526.24512,291.9183,525.41699,291.9183z M507.41699,291.9183h-9
				c-0.82813,0-1.5-0.67139-1.5-1.5s0.67188-1.5,1.5-1.5h9c0.82813,0,1.5,0.67139,1.5,1.5S508.24512,291.9183,507.41699,291.9183z
				 M489.41699,291.9183h-9c-0.82813,0-1.5-0.67139-1.5-1.5s0.67188-1.5,1.5-1.5h9c0.82813,0,1.5,0.67139,1.5,1.5
				S490.24512,291.9183,489.41699,291.9183z M471.41699,291.9183h-9c-0.82813,0-1.5-0.67139-1.5-1.5s0.67188-1.5,1.5-1.5h9
				c0.82813,0,1.5,0.67139,1.5,1.5S472.24512,291.9183,471.41699,291.9183z M453.41699,291.9183h-9c-0.82861,0-1.5-0.67139-1.5-1.5
				s0.67139-1.5,1.5-1.5h9c0.82861,0,1.5,0.67139,1.5,1.5S454.24561,291.9183,453.41699,291.9183z M435.41699,291.9183h-9
				c-0.82861,0-1.5-0.67139-1.5-1.5s0.67139-1.5,1.5-1.5h9c0.82861,0,1.5,0.67139,1.5,1.5S436.24561,291.9183,435.41699,291.9183z
				 M417.41699,291.9183h-9c-0.82861,0-1.5-0.67139-1.5-1.5s0.67139-1.5,1.5-1.5h9c0.82861,0,1.5,0.67139,1.5,1.5
				S418.24561,291.9183,417.41699,291.9183z M399.41699,291.9183h-9c-0.82861,0-1.5-0.67139-1.5-1.5s0.67139-1.5,1.5-1.5h9
				c0.82861,0,1.5,0.67139,1.5,1.5S400.24561,291.9183,399.41699,291.9183z M381.41699,291.9183h-9c-0.82861,0-1.5-0.67139-1.5-1.5
				s0.67139-1.5,1.5-1.5h9c0.82861,0,1.5,0.67139,1.5,1.5S382.24561,291.9183,381.41699,291.9183z M623.4502,287.74008
				c-0.4375,0-0.87012-0.18994-1.16699-0.55615c-0.52148-0.64355-0.42188-1.58838,0.22168-2.10938
				c2.15137-1.7417,3.87109-3.99707,4.97559-6.52246c0.33105-0.75879,1.21582-1.10645,1.97461-0.77393
				c0.75879,0.33203,1.10547,1.21631,0.77344,1.9751c-1.29492,2.96387-3.3125,5.60986-5.83496,7.65283
				C624.11523,287.63071,623.78125,287.74008,623.4502,287.74008z M630.41602,271.86996c-0.82813,0-1.5-0.67139-1.5-1.5v-2.78955
				c0.00098-1.92188-0.3125-3.80908-0.93066-5.60986c-0.26855-0.78369,0.14844-1.63721,0.93164-1.90625
				c0.78418-0.27002,1.63672,0.14844,1.90625,0.93213c0.72656,2.11523,1.09375,4.33105,1.09277,6.58447v2.78906
				C631.91602,271.19858,631.24414,271.86996,630.41602,271.86996z M624.58984,255.48325
				c-0.37207,0-0.74414-0.13721-1.03418-0.41357c-2.00586-1.91064-4.46387-3.32422-7.10742-4.08838
				c-0.7959-0.22998-1.25488-1.06152-1.02539-1.85742c0.23145-0.79688,1.06738-1.25488,1.85742-1.02441
				c3.10547,0.89746,5.99023,2.55615,8.34375,4.79736c0.60059,0.57129,0.62305,1.521,0.05176,2.12109
				C625.38086,255.327,624.98535,255.48325,624.58984,255.48325z M607.93457,250.30405h-9c-0.82813,0-1.5-0.67139-1.5-1.5
				s0.67188-1.5,1.5-1.5h9c0.82813,0,1.5,0.67139,1.5,1.5S608.7627,250.30405,607.93457,250.30405z M589.93457,250.30405h-9
				c-0.82813,0-1.5-0.67139-1.5-1.5s0.67188-1.5,1.5-1.5h9c0.82813,0,1.5,0.67139,1.5,1.5S590.7627,250.30405,589.93457,250.30405z
				 M571.93457,250.30405h-9c-0.82813,0-1.5-0.67139-1.5-1.5s0.67188-1.5,1.5-1.5h9c0.82813,0,1.5,0.67139,1.5,1.5
				S572.7627,250.30405,571.93457,250.30405z M553.93457,250.30405h-9c-0.82813,0-1.5-0.67139-1.5-1.5s0.67188-1.5,1.5-1.5h9
				c0.82813,0,1.5,0.67139,1.5,1.5S554.7627,250.30405,553.93457,250.30405z M535.93457,250.30405h-9
				c-0.82813,0-1.5-0.67139-1.5-1.5s0.67188-1.5,1.5-1.5h9c0.82813,0,1.5,0.67139,1.5,1.5S536.7627,250.30405,535.93457,250.30405z
				 M517.93457,250.30405h-9c-0.82813,0-1.5-0.67139-1.5-1.5s0.67188-1.5,1.5-1.5h9c0.82813,0,1.5,0.67139,1.5,1.5
				S518.7627,250.30405,517.93457,250.30405z M499.93457,250.30405h-9c-0.82813,0-1.5-0.67139-1.5-1.5s0.67188-1.5,1.5-1.5h9
				c0.82813,0,1.5,0.67139,1.5,1.5S500.7627,250.30405,499.93457,250.30405z M481.93457,250.30405h-9
				c-0.82813,0-1.5-0.67139-1.5-1.5s0.67188-1.5,1.5-1.5h9c0.82813,0,1.5,0.67139,1.5,1.5S482.7627,250.30405,481.93457,250.30405z
				 M463.93457,250.30405h-9c-0.82861,0-1.5-0.67139-1.5-1.5s0.67139-1.5,1.5-1.5h9c0.82813,0,1.5,0.67139,1.5,1.5
				S464.7627,250.30405,463.93457,250.30405z M445.93457,250.30405h-9c-0.82861,0-1.5-0.67139-1.5-1.5s0.67139-1.5,1.5-1.5h9
				c0.82861,0,1.5,0.67139,1.5,1.5S446.76318,250.30405,445.93457,250.30405z M427.93457,250.30405h-9
				c-0.82861,0-1.5-0.67139-1.5-1.5s0.67139-1.5,1.5-1.5h9c0.82861,0,1.5,0.67139,1.5,1.5S428.76318,250.30405,427.93457,250.30405z
				 M409.93457,250.30405h-9c-0.82861,0-1.5-0.67139-1.5-1.5s0.67139-1.5,1.5-1.5h9c0.82861,0,1.5,0.67139,1.5,1.5
				S410.76318,250.30405,409.93457,250.30405z M391.93457,250.30405h-9c-0.82861,0-1.5-0.67139-1.5-1.5s0.67139-1.5,1.5-1.5h9
				c0.82861,0,1.5,0.67139,1.5,1.5S392.76318,250.30405,391.93457,250.30405z M373.93457,250.30405h-9
				c-0.82861,0-1.5-0.67139-1.5-1.5s0.67139-1.5,1.5-1.5h9c0.82861,0,1.5,0.67139,1.5,1.5S374.76318,250.30405,373.93457,250.30405z
				 M355.93457,250.30405h-9c-0.82861,0-1.5-0.67139-1.5-1.5s0.67139-1.5,1.5-1.5h9c0.82861,0,1.5,0.67139,1.5,1.5
				S356.76318,250.30405,355.93457,250.30405z M337.93457,250.30405h-9c-0.82861,0-1.5-0.67139-1.5-1.5s0.67139-1.5,1.5-1.5h9
				c0.82861,0,1.5,0.67139,1.5,1.5S338.76318,250.30405,337.93457,250.30405z M319.93457,250.30405h-9
				c-0.82861,0-1.5-0.67139-1.5-1.5s0.67139-1.5,1.5-1.5h9c0.82861,0,1.5,0.67139,1.5,1.5S320.76318,250.30405,319.93457,250.30405z
				 M301.93457,250.30405h-9c-0.82861,0-1.5-0.67139-1.5-1.5s0.67139-1.5,1.5-1.5h9c0.82861,0,1.5,0.67139,1.5,1.5
				S302.76318,250.30405,301.93457,250.30405z M283.93457,250.30405h-9c-0.82861,0-1.5-0.67139-1.5-1.5s0.67139-1.5,1.5-1.5h9
				c0.82861,0,1.5,0.67139,1.5,1.5S284.76318,250.30405,283.93457,250.30405z M265.93457,250.30405h-9
				c-0.82861,0-1.5-0.67139-1.5-1.5s0.67139-1.5,1.5-1.5h9c0.82861,0,1.5,0.67139,1.5,1.5S266.76318,250.30405,265.93457,250.30405z
				"/>
		</g>
	</g>
	<g>
		<g>
			<path class="st4" d="M366.10254,608.65222h-9c-0.82861,0-1.5-0.67188-1.5-1.5s0.67139-1.5,1.5-1.5h9
				c0.82861,0,1.5,0.67188,1.5,1.5S366.93115,608.65222,366.10254,608.65222z M348.10254,608.65222h-9
				c-0.82861,0-1.5-0.67188-1.5-1.5s0.67139-1.5,1.5-1.5h9c0.82861,0,1.5,0.67188,1.5,1.5S348.93115,608.65222,348.10254,608.65222z
				 M330.10254,608.65222h-9c-0.82861,0-1.5-0.67188-1.5-1.5s0.67139-1.5,1.5-1.5h9c0.82861,0,1.5,0.67188,1.5,1.5
				S330.93115,608.65222,330.10254,608.65222z M312.10254,608.65222h-9c-0.82861,0-1.5-0.67188-1.5-1.5s0.67139-1.5,1.5-1.5h9
				c0.82861,0,1.5,0.67188,1.5,1.5S312.93115,608.65222,312.10254,608.65222z M294.10254,608.65222h-9
				c-0.82861,0-1.5-0.67188-1.5-1.5s0.67139-1.5,1.5-1.5h9c0.82861,0,1.5,0.67188,1.5,1.5S294.93115,608.65222,294.10254,608.65222z
				 M276.10254,608.65222h-9c-0.82861,0-1.5-0.67188-1.5-1.5s0.67139-1.5,1.5-1.5h9c0.82861,0,1.5,0.67188,1.5,1.5
				S276.93115,608.65222,276.10254,608.65222z M744.41797,608.79071h-9c-0.82813,0-1.5-0.67188-1.5-1.5s0.67188-1.5,1.5-1.5h9
				c0.82813,0,1.5,0.67188,1.5,1.5S745.24609,608.79071,744.41797,608.79071z M726.41797,608.79071h-9
				c-0.82813,0-1.5-0.67188-1.5-1.5s0.67188-1.5,1.5-1.5h9c0.82813,0,1.5,0.67188,1.5,1.5S727.24609,608.79071,726.41797,608.79071z
				 M708.41797,608.79071h-9c-0.82813,0-1.5-0.67188-1.5-1.5s0.67188-1.5,1.5-1.5h9c0.82813,0,1.5,0.67188,1.5,1.5
				S709.24609,608.79071,708.41797,608.79071z M690.41797,608.79071h-9c-0.82813,0-1.5-0.67188-1.5-1.5s0.67188-1.5,1.5-1.5h9
				c0.82813,0,1.5,0.67188,1.5,1.5S691.24609,608.79071,690.41797,608.79071z M672.41797,608.79071h-9
				c-0.82813,0-1.5-0.67188-1.5-1.5s0.67188-1.5,1.5-1.5h9c0.82813,0,1.5,0.67188,1.5,1.5S673.24609,608.79071,672.41797,608.79071z
				 M654.41797,608.79071h-9c-0.82813,0-1.5-0.67188-1.5-1.5s0.67188-1.5,1.5-1.5h9c0.82813,0,1.5,0.67188,1.5,1.5
				S655.24609,608.79071,654.41797,608.79071z M636.41797,608.79071h-9c-0.82813,0-1.5-0.67188-1.5-1.5s0.67188-1.5,1.5-1.5h9
				c0.82813,0,1.5,0.67188,1.5,1.5S637.24609,608.79071,636.41797,608.79071z M618.41797,608.79071h-9
				c-0.82813,0-1.5-0.67188-1.5-1.5s0.67188-1.5,1.5-1.5h9c0.82813,0,1.5,0.67188,1.5,1.5S619.24609,608.79071,618.41797,608.79071z
				 M600.41797,608.79071h-9c-0.82813,0-1.5-0.67188-1.5-1.5s0.67188-1.5,1.5-1.5h9c0.82813,0,1.5,0.67188,1.5,1.5
				S601.24609,608.79071,600.41797,608.79071z M582.41797,608.79071h-9c-0.82813,0-1.5-0.67188-1.5-1.5s0.67188-1.5,1.5-1.5h9
				c0.82813,0,1.5,0.67188,1.5,1.5S583.24609,608.79071,582.41797,608.79071z M564.41797,608.79071h-9
				c-0.82813,0-1.5-0.67188-1.5-1.5s0.67188-1.5,1.5-1.5h9c0.82813,0,1.5,0.67188,1.5,1.5S565.24609,608.79071,564.41797,608.79071z
				 M546.41797,608.79071h-9c-0.82813,0-1.5-0.67188-1.5-1.5s0.67188-1.5,1.5-1.5h9c0.82813,0,1.5,0.67188,1.5,1.5
				S547.24609,608.79071,546.41797,608.79071z M528.41797,608.79071h-9c-0.82813,0-1.5-0.67188-1.5-1.5s0.67188-1.5,1.5-1.5h9
				c0.82813,0,1.5,0.67188,1.5,1.5S529.24609,608.79071,528.41797,608.79071z M510.41797,608.79071h-9
				c-0.82813,0-1.5-0.67188-1.5-1.5s0.67188-1.5,1.5-1.5h9c0.82813,0,1.5,0.67188,1.5,1.5S511.24609,608.79071,510.41797,608.79071z
				 M492.41797,608.79071h-9c-0.82813,0-1.5-0.67188-1.5-1.5s0.67188-1.5,1.5-1.5h9c0.82813,0,1.5,0.67188,1.5,1.5
				S493.24609,608.79071,492.41797,608.79071z M474.41797,608.79071h-9c-0.82813,0-1.5-0.67188-1.5-1.5s0.67188-1.5,1.5-1.5h9
				c0.82813,0,1.5,0.67188,1.5,1.5S475.24609,608.79071,474.41797,608.79071z M456.41797,608.79071h-8.99951
				c-0.82861,0-1.5-0.67188-1.5-1.5s0.67139-1.5,1.5-1.5h8.99951c0.82813,0,1.5,0.67188,1.5,1.5
				S457.24609,608.79071,456.41797,608.79071z M438.41846,608.79071h-9c-0.82861,0-1.5-0.67188-1.5-1.5s0.67139-1.5,1.5-1.5h9
				c0.82861,0,1.5,0.67188,1.5,1.5S439.24707,608.79071,438.41846,608.79071z M420.41846,608.79071h-9
				c-0.82861,0-1.5-0.67188-1.5-1.5s0.67139-1.5,1.5-1.5h9c0.82861,0,1.5,0.67188,1.5,1.5S421.24707,608.79071,420.41846,608.79071z
				 M402.41846,608.79071h-9c-0.82861,0-1.5-0.67188-1.5-1.5s0.67139-1.5,1.5-1.5h9c0.82861,0,1.5,0.67188,1.5,1.5
				S403.24707,608.79071,402.41846,608.79071z M384.41846,608.79071h-9c-0.82861,0-1.5-0.67188-1.5-1.5s0.67139-1.5,1.5-1.5h9
				c0.82861,0,1.5,0.67188,1.5,1.5S385.24707,608.79071,384.41846,608.79071z M753.41699,608.78778
				c-0.81543,0-1.4834-0.65332-1.49902-1.47266c-0.01465-0.82813,0.64355-1.51172,1.47266-1.52734
				c2.76758-0.05078,5.50879-0.77441,7.92578-2.09082c0.72949-0.39355,1.63867-0.12793,2.03516,0.59961
				s0.12793,1.63867-0.59961,2.03516c-2.83984,1.54688-6.05762,2.39551-9.30664,2.45605
				C753.43652,608.78778,753.42676,608.78778,753.41699,608.78778z M768.62793,600.51727
				c-0.28906,0-0.58105-0.08301-0.83887-0.25684c-0.68652-0.46387-0.86719-1.39648-0.40332-2.08301
				c1.54785-2.28906,2.5293-4.94824,2.84082-7.6875c0.09375-0.82324,0.83398-1.42188,1.65918-1.32129
				c0.82324,0.09277,1.41504,0.83594,1.32129,1.65918c-0.36523,3.21875-1.51855,6.34082-3.33496,9.0293
				C769.58203,600.28583,769.10938,600.51727,768.62793,600.51727z M771.83984,583.16376c-0.82813,0-1.5-0.67188-1.5-1.5v-2.87207
				c0-0.82813,0.67188-1.5,1.5-1.5s1.5,0.67188,1.5,1.5v2.87207C773.33984,582.49188,772.66797,583.16376,771.83984,583.16376z"/>
		</g>
	</g>
	<g>
		<g>
			<rect x="637.38428" y="927.80981" class="st5" width="91.21527" height="32.22327"/>
		</g>
	</g>
	<g>
		<g>
			<polygon class="st11" points="682.99194,1018.37817 637.38428,960.03308 728.59955,960.03308 			"/>
		</g>
	</g>
	<g>
		<defs>
			<polygon id="SVGID_1_" points="637.38428,927.80981 637.38428,960.03308 682.99194,1018.37817 728.59955,960.03308 
				728.59955,927.80981 			"/>
		</defs>
		<clipPath id="SVGID_2_">
			<use xlink:href="#SVGID_1_"  style="overflow:visible;"/>
		</clipPath>
		<g class="st12">
			<g>
				<polygon class="st7" points="688.36438,1044.04199 652.06946,961.1579 652.06946,927.81012 662.81482,927.81012 
					662.81482,958.90778 677.61896,992.71503 677.61896,927.81012 688.36438,927.81012 				"/>
			</g>
		</g>
		<g class="st12">
			<g>
				<polygon class="st7" points="677.61896,1044.04199 677.61896,927.81012 688.36438,927.81012 688.36438,992.71503 
					703.16852,958.90778 703.16852,927.81012 713.91394,927.81012 713.91394,961.1579 				"/>
			</g>
		</g>
	</g>
	<g>
		<g>
			<rect x="652.06946" y="927.81012" class="st4" width="10.7454" height="32.2227"/>
		</g>
	</g>
	<g>
		<g>
			<rect x="677.61896" y="927.81012" class="st4" width="10.7454" height="32.2227"/>
		</g>
	</g>
	<g>
		<g>
			<rect x="702.84924" y="927.81012" class="st4" width="10.7454" height="32.2227"/>
		</g>
	</g>
	<g>
		<g>
			<circle class="st10" cx="683.18378" cy="1029.69922" r="37.80077"/>
		</g>
	</g>
	<g>
		<path class="st1" d="M683.18378,999.95746c-16.4259,0-29.7417,13.31586-29.7417,29.74176s13.3158,29.7417,29.7417,29.7417
			s29.74176-13.3158,29.74176-29.7417S699.60968,999.95746,683.18378,999.95746z M696.27399,1048.62024l-13.28204-6.98279
			l-13.28204,6.98279l2.53662-14.78979l-10.74542-10.47418l14.84979-2.15778l6.64105-13.45618l6.64099,13.45618l14.84979,2.15778
			l-10.74542,10.47418L696.27399,1048.62024z"/>
	</g>
	<g>
		<g>
			<path class="st13" d="M732.90454,997.04126l-8.93054-2.7937l-9.87201,13.71667c1.89905,2.69635,3.46124,5.64648,4.60919,8.79803
				L732.90454,997.04126z"/>
		</g>
		<g class="st14">
			<path class="st13" d="M720.98456,1029.69922c0-2.26904-0.2113-4.48755-0.59448-6.64661l-31.69843,44.04346
				C706.95703,1064.42883,720.98456,1048.70459,720.98456,1029.69922z"/>
		</g>
		<g class="st14">
			<path class="st13" d="M645.383,1029.69922c0,3.40686,0.45813,6.70532,1.30316,9.84534l34.23871-47.57306
				C661.10059,993.14075,645.383,1009.58136,645.383,1029.69922z"/>
		</g>
		<g class="st14">
			<path class="st13" d="M714.10199,1007.96423l-41.71582,57.96216c3.12531,0.9303,6.41962,1.46289,9.82629,1.54907
				l36.49872-50.7132C717.56323,1013.61072,716.00104,1010.66058,714.10199,1007.96423z"/>
		</g>
	</g>
	<g>
		<polygon class="st15" points="637.18884,981.28754 635.99854,980.09723 633.1803,982.91553 630.362,980.09723 
			629.17175,981.28754 631.98999,984.10577 629.17175,986.92407 630.362,988.11432 633.1803,985.29608 635.99854,988.11432 
			637.18884,986.92407 634.37054,984.10577 		"/>
	</g>
	<g>
		<g>
			<g>
				<path d="M646.39868,993.14886"/>
			</g>
		</g>
		<g>
			<g>
				<g>
					<path class="st15" d="M646.39868,995.67352c3.24896,0,3.25433-5.04926,0-5.04926
						C643.14966,990.62427,643.14429,995.67352,646.39868,995.67352L646.39868,995.67352z"/>
				</g>
			</g>
		</g>
	</g>
	<g>
		<g>
			<path class="st15" d="M633.32294,996.08502c0,0-0.1427,8.76038-8.34222,8.76038c7.75525,0,8.34222,8.34222,8.34222,8.34222
				s-0.1427-8.05682,8.05682-8.05682C633.18024,1005.1308,633.32294,996.08502,633.32294,996.08502z"/>
		</g>
	</g>
	<g>
		<g>
			<circle class="st5" cx="171.45267" cy="693.72522" r="95.61575"/>
		</g>
	</g>
	<g>
		<g>
			<path class="st10" d="M107.02686,708.13464c-4.97412,0-9.02051,4.04688-9.02051,9.02051s4.04639,9.02051,9.02051,9.02051
				s9.021-4.04688,9.021-9.02051S112.00098,708.13464,107.02686,708.13464z M108.09717,723.16492h-2.74121v-2.70703h2.74121
				V723.16492z M108.23291,711.65808l-0.79541,7.47949h-1.42139l-0.79541-7.47949v-0.33887h3.01221V711.65808z"/>
		</g>
		<g>
			<path class="st10" d="M171.45264,611.41608c-45.45807,0-82.30908,36.85107-82.30908,82.30908
				c0,45.45807,36.85101,82.30914,82.30908,82.30914s82.30914-36.85107,82.30914-82.30914
				C253.76178,648.26715,216.91071,611.41608,171.45264,611.41608z M107.02686,728.17566
				c-6.07666,0-11.02051-4.94336-11.02051-11.02051s4.94385-11.02051,11.02051-11.02051c6.07715,0,11.021,4.94336,11.021,11.02051
				S113.104,728.17566,107.02686,728.17566z M218.49225,720.88348c-14.99915,25.97925-48.21863,34.88043-74.19788,19.88129
				s-34.88043-48.21863-19.88129-74.19788s48.21863-34.88043,74.19788-19.88129S233.49139,694.90424,218.49225,720.88348z
				 M219.88086,655.26746c-6.07666,0-11.02051-4.94336-11.02051-11.02051s4.94385-11.02148,11.02051-11.02148
				c6.07715,0,11.021,4.94434,11.021,11.02148S225.95801,655.26746,219.88086,655.26746z"/>
		</g>
		<g>
			<path class="st10" d="M219.88086,635.22546c-4.97412,0-9.02051,4.04688-9.02051,9.02148
				c0,4.97363,4.04639,9.02051,9.02051,9.02051s9.021-4.04688,9.021-9.02051
				C228.90186,639.27234,224.85498,635.22546,219.88086,635.22546z M220.95117,650.25574h-2.74121v-2.70801h2.74121V650.25574z
				 M221.08691,638.7489l-0.79541,7.47949h-1.42139l-0.79541-7.47949v-0.33887h3.01221V638.7489z"/>
		</g>
	</g>
	<g>
		<g>
			<path class="st8" d="M171.39601,762.10828c-1.69922,0-3.38525-0.0625-5.04053-0.18457l0.11084-1.49609
				c1.62598,0.12012,3.28223,0.18164,4.92334,0.18164l0.0542,1.08789l-0.0249,0.41113
				C171.41164,762.10828,171.40382,762.10828,171.39601,762.10828z M176.57277,761.91199l-0.11328-1.49609
				c1.65479-0.12598,3.32617-0.31543,4.96826-0.56348l0.22461,1.48242C179.97365,761.58875,178.26466,761.78308,176.57277,761.91199
				z M161.27541,761.35437c-1.67871-0.25195-3.36914-0.57129-5.02393-0.94922l0.33398-1.46289
				c1.61816,0.37012,3.271,0.68164,4.9126,0.92773L161.27541,761.35437z M186.67482,760.38269l-0.33496-1.46289
				c1.62305-0.37109,3.24805-0.80664,4.83057-1.29492l0.44238,1.43359C189.99513,759.5575,188.33351,760.00281,186.67482,760.38269z
				 M151.31398,759.08093c-1.62109-0.50195-3.24414-1.07129-4.82324-1.69238l0.5498-1.39648
				c1.54395,0.6084,3.13086,1.16504,4.7168,1.65527L151.31398,759.08093z M196.438,757.37097l-0.54688-1.39648
				c1.55078-0.60742,3.09375-1.2793,4.58447-1.99609l0.65039,1.35156C199.60109,756.06335,198.02394,756.74988,196.438,757.37097z
				 M141.80812,755.3407c-1.52344-0.73438-3.04395-1.53906-4.51953-2.39063l0.75-1.29883
				c1.44336,0.83301,2.93066,1.62012,4.4209,2.33789L141.80812,755.3407z M205.64894,752.94421l-0.74902-1.29883
				c1.43652-0.82813,2.86182-1.72168,4.23682-2.6582l0.84375,1.24023C208.57472,751.18445,207.1172,752.09851,205.64894,752.94421z
				 M132.95949,750.23523c-1.4043-0.9541-2.79004-1.97266-4.11816-3.0293l0.93359-1.17383
				c1.29932,1.0332,2.6543,2.0293,4.02734,2.96289L132.95949,750.23523z M214.09572,747.19324l-0.93457-1.17383
				c1.29248-1.02832,2.56787-2.12598,3.79053-3.26172l1.02051,1.09961C216.72218,745.01843,215.4175,746.1405,214.09572,747.19324z
				 M124.95949,743.87683c-1.24658-1.1543-2.46436-2.37012-3.62012-3.61328l1.09863-1.02148
				c1.13037,1.21582,2.32129,2.40527,3.54053,3.5332L124.95949,743.87683z M221.58693,740.23816l-1.10059-1.01953
				c1.13086-1.22168,2.22705-2.49902,3.25781-3.79492l1.17383,0.93359C223.86427,737.6825,222.74367,738.98816,221.58693,740.23816z
				 M118.00148,736.38855c-1.05859-1.32715-2.08008-2.71094-3.03613-4.11328l1.23926-0.8457
				c0.93506,1.37207,1.93408,2.72559,2.96973,4.02344L118.00148,736.38855z M227.94826,732.24109l-1.24023-0.84375
				c0.93359-1.37305,1.82813-2.79883,2.6582-4.23633l1.35205,0.65723l-0.02734,0.04785
				C229.81691,729.38074,228.90285,730.83777,227.94826,732.24109z M233.1006,723.30066l-1.35156-0.65039
				c0.7207-1.49805,1.39307-3.04004,1.99805-4.58203l1.39648,0.54688C234.52492,720.19324,233.83742,721.76941,233.1006,723.30066z
				 M236.83058,713.78992l-1.43359-0.44141c0.48877-1.58887,0.92285-3.21387,1.29004-4.83008l1.46289,0.33203
				C237.77443,710.50378,237.33058,712.16492,236.83058,713.78992z M239.09279,703.82898l-1.4834-0.22266
				c0.24463-1.63672,0.43018-3.30859,0.55078-4.96875l1.49609,0.10938C239.53273,700.44421,239.34328,702.15417,239.09279,703.82898
				z M103.26759,698.87195c-0.12939-1.69434-0.19629-3.41309-0.19873-5.10938l1.5-0.00195
				c0.00244,1.65918,0.06787,3.33984,0.19482,4.99609L103.26759,698.87195z M238.33644,693.6405
				c-0.00391-1.66113-0.07031-3.34277-0.19775-4.99707l1.49512-0.11523c0.13037,1.69141,0.19873,3.41016,0.20264,5.1084
				L238.33644,693.6405z M104.74953,688.76257l-1.49609-0.10938c0.125-1.69434,0.31543-3.40332,0.56689-5.08105l1.4834,0.22266
				C105.05812,685.43542,104.8716,687.10632,104.74953,688.76257z M237.56886,683.67566
				c-0.25049-1.63965-0.56592-3.29199-0.93799-4.91113l1.46191-0.33594c0.38037,1.65527,0.70313,3.34473,0.9585,5.02051
				L237.56886,683.67566z M106.23,678.88269l-1.46289-0.33398c0.37744-1.65527,0.82227-3.31738,1.32275-4.93848l1.43359,0.44336
				C107.03371,675.63855,106.59865,677.26257,106.23,678.88269z M235.33107,673.9364
				c-0.49219-1.58789-1.04932-3.17578-1.65576-4.71875l1.39648-0.54883c0.61963,1.57715,1.18896,3.2002,1.69189,4.82422
				L235.33107,673.9364z M109.17677,669.33582l-1.39648-0.54883c0.61914-1.5752,1.30762-3.15137,2.04639-4.68457l1.35156,0.65234
				C110.45558,666.25281,109.78224,667.7948,109.17677,669.33582z M231.67336,664.63464
				c-0.7207-1.49512-1.50732-2.98242-2.33789-4.4209l1.29883-0.75c0.84912,1.4707,1.65332,2.99121,2.39014,4.51855
				L231.67336,664.63464z M113.53957,660.28894l-1.32764-0.70117l0.04443-0.0752c0.82764-1.43457,1.73193-2.87695,2.67188-4.26074
				l1.24121,0.84375C115.24953,657.4491,114.36476,658.85925,113.53957,660.28894z M119.13039,652.06726l-1.1748-0.93359
				c1.05469-1.32715,2.17432-2.63379,3.32813-3.88184l1.10156,1.01758C121.25685,649.49109,120.16164,650.76843,119.13039,652.06726
				z M125.91701,644.72644l-1.02148-1.09766c1.23975-1.15332,2.54346-2.27734,3.87402-3.33887l0.93555,1.17188
				C128.40382,642.50085,127.12941,643.59851,125.91701,644.72644z M133.72755,638.49109l-0.84473-1.24023
				c1.4043-0.95703,2.86084-1.87207,4.32959-2.71973l0.75,1.29883C136.52589,636.65906,135.10109,637.55457,133.72755,638.49109z
				 M204.82423,635.77332c-1.43848-0.82813-2.92676-1.61328-4.42285-2.33398l0.65039-1.35156
				c1.52979,0.73633,3.05078,1.53906,4.52148,2.38672L204.82423,635.77332z M142.38429,633.49402l-0.65039-1.35156
				c1.53516-0.73926,3.11182-1.42676,4.68652-2.04395l0.54688,1.39648C145.42775,632.09851,143.88576,632.77136,142.38429,633.49402
				z M195.81886,631.43933c-1.54883-0.60742-3.13623-1.16309-4.71875-1.65137l0.44238-1.43359
				c1.61768,0.49902,3.24072,1.06738,4.82422,1.68848L195.81886,631.43933z M151.68752,629.8407l-0.44336-1.43359
				c1.61328-0.49805,3.27393-0.94531,4.93652-1.32715l0.33594,1.46094C154.89015,628.91589,153.26515,629.35242,151.68752,629.8407z
				 M186.27101,628.49695c-1.61816-0.36914-3.27148-0.67969-4.91309-0.9248l0.22168-1.48438
				c1.67871,0.25098,3.36963,0.56934,5.02441,0.94629L186.27101,628.49695z M161.42873,627.60632l-0.22656-1.48242
				c1.6748-0.25586,3.3833-0.45117,5.07959-0.58105l0.11426,1.49609C164.73732,627.16589,163.06593,627.3573,161.42873,627.60632z
				 M176.38869,627.02039c-1.60889-0.11816-3.24805-0.17871-4.87256-0.17871h-0.125v-1.5h0.125
				c1.66113,0,3.3374,0.06152,4.98291,0.18262L176.38869,627.02039z"/>
		</g>
	</g>
	<g>
		<path class="st8" d="M171.45264,655.3175c-21.21191,0-38.40765,17.19574-38.40765,38.40765
			c0,21.21198,17.19574,38.40771,38.40765,38.40771c21.21198,0,38.40771-17.19574,38.40771-38.40771
			C209.86035,672.51324,192.66461,655.3175,171.45264,655.3175z M171.45264,717.15521
			c-12.94006,0-23.43005-10.48999-23.43005-23.43005c0-12.94,10.48999-23.43005,23.43005-23.43005
			s23.43005,10.49005,23.43005,23.43005C194.88269,706.66522,184.3927,717.15521,171.45264,717.15521z"/>
	</g>
	<g>
		<path class="st4" d="M171.45264,582.56726c-61.29297,0-111.1582,49.86523-111.1582,111.1582s49.86523,111.1582,111.1582,111.1582
			s111.1582-49.86523,111.1582-111.1582S232.74561,582.56726,171.45264,582.56726z M173.45264,789.31561v-31.16437h-4v31.16437
			c-51.21765-1.05157-92.53864-42.37244-93.59039-93.59015h31.16461v-4H75.86224c1.05139-51.2179,42.3725-92.53912,93.59039-93.5907
			v31.16492h4v-31.16492c51.21796,1.05157,92.53906,42.3728,93.59045,93.5907h-31.16467v4h31.16467
			C265.99133,746.94318,224.67035,788.26404,173.45264,789.31561z"/>
	</g>
	<g>
		<g>
			<polygon class="st13" points="171.44756,682.23053 181.45256,682.23053 174.59981,693.47083 181.17845,693.47083 
				167.19884,710.05444 170.70554,698.211 164.5948,698.211 			"/>
		</g>
	</g>
	<g>
		<g>
			<path class="st16" d="M828.36224,421.21182l-0.89325-0.52216c-7.92542-4.63293-10.59454-14.81357-5.96161-22.73898
				l12.21674-20.89893l-22.67877-13.2572l-12.21674,20.89893c-4.63293,7.92542-14.81354,10.59454-22.73914,5.96152l0,0
				c-7.92542-4.6329-18.10608-1.96378-22.73895,5.96164L683.99152,515.2674c4.63287-7.92542,14.81354-10.59454,22.73895-5.96164
				l52.27277,30.55679c7.92542,4.63293,10.59454,14.8136,5.96161,22.73901l69.35901-118.65079
				C838.95679,436.02539,836.28766,425.84473,828.36224,421.21182z"/>
		</g>
	</g>
	<g>
		<g>
			<path class="st17" d="M759.00323,539.86255l-52.27277-30.55679c-7.92542-4.6329-18.10608-1.96378-22.73895,5.96164
				l-1.98315,3.39252c-4.633,7.92554-1.96381,18.10602,5.96161,22.73895l52.27277,30.55682
				c7.92542,4.63287,18.10596,1.96393,22.73895-5.96167l1.98315-3.39246
				C769.59778,554.67615,766.92865,544.49548,759.00323,539.86255z"/>
		</g>
	</g>
	<g>
		<g>
			<path class="st18" d="M832.67169,376.43668l-19.68097-11.50479c-2.14777-1.25549-2.87103-4.0144-1.61554-6.16214v-0.00003
				c1.25549-2.14774,4.0144-2.87106,6.16217-1.61557l19.68091,11.50479c2.14777,1.25552,2.87109,4.0144,1.6156,6.16217l0,0
				C837.57837,376.96887,834.81946,377.69217,832.67169,376.43668z"/>
		</g>
	</g>
	<g>
		<g>
			
				<rect x="823.23883" y="349.24426" transform="matrix(0.50466 -0.86332 0.86332 0.50466 104.84362 894.11646)" class="st10" width="16.71166" height="12.89714"/>
		</g>
	</g>
	<g>
		<g>
			<path class="st13" d="M782.40454,433.59811c-3.13031-1.82986-5.84625-3.79691-8.11292-5.77109l1.95526-3.8634
				c1.42413,2.06122,3.78906,4.07187,6.41138,5.60477c3.61841,2.1152,7.67438,3.52292,10.91821,3.55365l-2.73297,4.6752
				C788.0564,436.64246,785.20996,435.23807,782.40454,433.59811z M786.13293,417.23138
				c7.61292,4.45026,10.91492,9.95227,9.84381,11.78455c-0.76917,1.31577-5.79474,1.04611-11.61737-2.35757
				c-4.70605-2.75104-6.38593-5.84729-6.11151-6.64774l0.07794-0.15369c0.41138-0.81378,0.0954-1.82401-0.69794-2.24106
				c-0.79987-0.4361-1.80139-0.15698-2.26111,0.62952c-0.07062,0.12076-0.13361,0.24316-0.1897,0.36765l-3.43915,6.79562
				c-4.56616-4.72537-6.42352-9.17889-5.05463-11.52057C768.33417,411.064,777.00238,411.89401,786.13293,417.23138z
				 M749.62531,548.76294c-2.81042,4.80768-16.51495,3.98389-31.68652-4.88483
				c-11.96594-6.99487-17.88916-16.0014-15.72125-19.71002l15.15552-14.58899c18.1601-17.4812,31.41248-39.42374,38.43207-63.63336
				l7.73718-26.68442c1.98541,5.53976,8.21112,12.01495,17.16113,17.24686c11.12622,6.50397,22.6792,9.50644,29.94592,7.86237
				l-20.43048,21.14172c-17.69812,18.3143-30.22162,40.99539-36.29285,65.72955L749.62531,548.76294z"/>
		</g>
	</g>
	<g>
		<g>
			<path class="st4" d="M761.8775,505.38638c-2.60748,0.68362-7.44897,0.5947-15.41406-4.06143
				c-12.53546-7.32745-11.6485-13.58646-11.50562-14.27606c0.08545-0.41669,0.3703-0.76547,0.76129-0.93378
				c0.38904-0.16867,0.83923-0.13449,1.20142,0.08939c3.01947,1.8714,7.40094,3.1265,11.96948,3.96765
				c-4.08154-5.60806-6.99359-10.76007-7.61121-11.87442l-0.05603-0.04977c-0.53357-0.48288-0.57501-1.30664-0.09222-1.84064
				c0.48309-0.53278,1.30682-0.57596,1.84143-0.09247l0.19562,0.17722c0.01471,0.01282,0.02869,0.02582,0.04352,0.03903
				c7.70642,6.97473,16.62085,12.16043,26.49414,15.41281c0.60498,0.19971,0.97754,0.80771,0.88037,1.43753
				c-0.09827,0.62881-0.63293,1.09531-1.27454,1.10385c-0.50128,0.00513-6.89899,0.0527-14.33881-0.78302
				c2.86139,3.38953,6.00842,6.49362,9.13696,8.40308c0.34558,0.21072,0.573,0.56949,0.617,0.97153
				c0.04395,0.40204-0.10126,0.80151-0.39362,1.08167C764.14758,504.33597,763.38684,504.99066,761.8775,505.38638z
				 M737.93457,489.68408c0.82208,2.07513,3.17688,5.49307,9.84412,9.39087c6.77271,3.95871,10.82867,4.22992,12.93201,3.86487
				c-3.37531-2.52939-6.6488-6.09241-9.52252-9.73309C746.48376,492.49637,741.68872,491.39355,737.93457,489.68408z
				 M752.61169,490.7674c3.22266,0.44495,6.38202,0.71219,9.06787,0.87289c-5.0722-2.25375-9.85742-5.04199-14.31915-8.34305
				C748.81732,485.54892,750.61023,488.1651,752.61169,490.7674z"/>
		</g>
	</g>
	<g class="st14">
		<g>
			<path class="st13" d="M836.24548,432.258c-0.91022-4.47424-3.63123-8.56061-7.88324-11.0462l-0.05676-0.0332L687.96997,541.39886
				l12.40704,7.25269L836.24548,432.258z"/>
		</g>
		<g>
			<polygon class="st13" points="832.34943,447.32831 708.51776,553.41034 737.47906,570.34009 783.47449,530.9375 			"/>
		</g>
	</g>
	<g>
		<path class="st4" d="M742.22687,422.56946c-8.91846-12.70184-22.24866-21.17041-37.53619-23.84583
			c-11.58167-2.0274-23.23328-0.53839-33.72595,4.177c0.07251-0.31024,0.15521-0.61682,0.21057-0.93317
			c0.76794-4.38794-0.21912-8.81183-2.77844-12.45776c-5.28497-7.5249-15.7063-9.34814-23.23041-4.06512
			c-7.5257,5.28381-9.34943,15.7049-4.06598,23.23065c2.84247,4.04742,7.17053,6.44342,11.73486,6.97345
			c-18.91547,19.62067-21.94598,50.57642-5.71344,73.69592c14.33582,20.41748,39.51965,28.78821,62.34753,22.80328
			c6.48792-1.70099,12.78955-4.56403,18.59296-8.63849C754.28235,485.09937,760.63666,448.78998,742.22687,422.56946z
			 M643.94513,406.67816c-4.1828-5.9574-2.73877-14.2066,3.21796-18.38879c1.31854-0.92596,2.74976-1.57617,4.22375-1.96265
			c5.18628-1.35968,10.90912,0.54193,14.16547,5.18048c2.02667,2.88556,2.80798,6.38757,2.1994,9.86096
			c-0.2345,1.34021-0.66943,2.61169-1.27551,3.78748c-1.77222,0.98804-3.50623,2.06696-5.18982,3.24902
			c-1.68384,1.18231-3.28265,2.44086-4.80133,3.76337C651.76453,412.78693,646.8642,410.83594,643.94513,406.67816z"/>
	</g>
	<g>
		<g>
			
				<ellipse transform="matrix(0.81841 -0.57463 0.57463 0.81841 -135.86299 481.97458)" class="st8" cx="694.67456" cy="455.957" rx="46.96431" ry="46.96431"/>
		</g>
	</g>
	<g>
		<g>
			<g>
				<polyline class="st5" points="685.05603,452.09766 700.35883,420.86652 704.14594,455.43845 				"/>
			</g>
		</g>
		<g>
			<g>
				<polyline class="st5" points="703.56201,458.77512 688.25916,490.00626 684.47211,455.43433 				"/>
			</g>
		</g>
	</g>
	<g>
		<path class="st4" d="M705.93811,448.04895c-2.11243-3.00873-5.26978-5.01459-8.89105-5.64844
			c-3.62042-0.63403-7.2699,0.18024-10.2807,2.29321c-3.0083,2.1123-5.01453,5.26978-5.64838,8.89099
			c-0.63397,3.62091,0.18115,7.27191,2.29346,10.28021c2.11243,3.00873,5.26978,5.01453,8.89105,5.64838
			c1.98022,0.34656,3.96881,0.25989,5.8573-0.23529c1.56433-0.4101,3.05951-1.10077,4.4234-2.05786
			c3.0083-2.11237,5.01373-5.26959,5.64758-8.89081C708.86469,454.70844,708.05042,451.05725,705.93811,448.04895z"/>
	</g>
	<g>
		<g>
			
				<ellipse transform="matrix(0.81841 -0.57463 0.57463 0.81841 -135.86299 481.97458)" class="st7" cx="694.67456" cy="455.957" rx="6.29039" ry="6.29039"/>
		</g>
	</g>
	<g>
		<g>
			<path class="st7" d="M669.4151,403.67047l-15.34137,10.77155c-2.07422,1.45636-4.93628,0.95547-6.39264-1.11874l0,0
				c-1.45636-2.07422-0.95551-4.93631,1.11871-6.39267l15.34137-10.77155c2.07422-1.45633,4.93634-0.95547,6.3927,1.11874l0,0
				C671.99023,399.35202,671.48932,402.21411,669.4151,403.67047z"/>
		</g>
	</g>
	<g>
		<g>
			<path class="st10" d="M727.9892,433.91193l5.73187-4.02435c-0.20416-0.3056-0.39795-0.61523-0.61023-0.9176
				c-0.45752-0.65161-0.92926-1.28717-1.41321-1.90833l-5.70508,4.00549L727.9892,433.91193z"/>
		</g>
		<g>
			<path class="st10" d="M660.62866,476.96088l-5.70526,4.00592c0.41986,0.66608,0.85742,1.32562,1.31488,1.97717
				c0.21234,0.30243,0.43787,0.5899,0.65601,0.8858l5.73108-4.02411L660.62866,476.96088z"/>
		</g>
		<g>
			<path class="st10" d="M715.83337,489.11731l4.38037,6.23877c0.48499-0.31482,0.9707-0.62787,1.44781-0.96283
				c0.47693-0.3349,0.93622-0.6853,1.39685-1.03442l-4.38049-6.23895L715.83337,489.11731z"/>
		</g>
		<g>
			<path class="st10" d="M672.78448,421.75549l-3.64929-5.19751c-0.48492,0.31476-0.97058,0.62775-1.44763,0.96271
				c-0.47699,0.3349-0.93634,0.68542-1.39703,1.03461l3.64941,5.19769L672.78448,421.75549z"/>
		</g>
		<g>
			<path class="st10" d="M733.94373,460.60858l-0.59888,3.42352l7.33862,1.28424c0.23083-1.13568,0.43121-2.2774,0.578-3.42719
				L733.94373,460.60858z"/>
		</g>
		<g>
			<path class="st10" d="M655.27301,446.84076l-6.43121-1.12543c-0.25244,1.13129-0.4516,2.27313-0.62024,3.41974l6.45258,1.12921
				L655.27301,446.84076z"/>
		</g>
		<g>
			<path class="st10" d="M685.7135,494.47253l-1.28076,7.31714c1.13123,0.25244,2.27313,0.45172,3.4198,0.6203l1.28448-7.33862
				L685.7135,494.47253z"/>
		</g>
		<g>
			<path class="st10" d="M702.90436,416.40033l1.12939-6.45233c-1.13568-0.23077-2.27734-0.43121-3.42712-0.57794l-1.12579,6.4314
				L702.90436,416.40033z"/>
		</g>
	</g>
	<g>
		<path class="st4" d="M783.83496,900.70996c-0.72363,0-1.36035-0.52539-1.47949-1.2627
			c-0.46289-2.89063-1.48047-5.62012-3.02148-8.11426c-0.43652-0.70508-0.21777-1.62891,0.48633-2.06543
			c0.7041-0.43262,1.62988-0.21777,2.06445,0.4873c1.75195,2.83301,2.90625,5.93457,3.43359,9.21777
			c0.13086,0.81738-0.42578,1.58691-1.24414,1.71875C783.99414,900.7041,783.91406,900.70996,783.83496,900.70996z
			 M774.30957,885.27051c-0.30566,0-0.61328-0.09277-0.87891-0.28516c-2.37891-1.72168-5.02734-2.93652-7.87305-3.61035
			c-0.80566-0.19141-1.30469-0.99902-1.11426-1.80566c0.19141-0.80566,0.99805-1.30566,1.80566-1.11426
			c3.23242,0.76563,6.24023,2.14551,8.94141,4.10059c0.6709,0.48535,0.82129,1.42383,0.33496,2.09473
			C775.23242,885.05566,774.77441,885.27051,774.30957,885.27051z M756.64453,880.77734h-9.31055c-0.82813,0-1.5-0.67188-1.5-1.5
			s0.67188-1.5,1.5-1.5h9.31055c0.82813,0,1.5,0.67188,1.5,1.5S757.47266,880.77734,756.64453,880.77734z M738.02246,880.77734
			h-9.31055c-0.82813,0-1.5-0.67188-1.5-1.5s0.67188-1.5,1.5-1.5h9.31055c0.82813,0,1.5,0.67188,1.5,1.5
			S738.85059,880.77734,738.02246,880.77734z M719.40137,880.77734h-9.31055c-0.82813,0-1.5-0.67188-1.5-1.5s0.67188-1.5,1.5-1.5
			h9.31055c0.82813,0,1.5,0.67188,1.5,1.5S720.22949,880.77734,719.40137,880.77734z M700.78027,880.77734h-9.31055
			c-0.82813,0-1.5-0.67188-1.5-1.5s0.67188-1.5,1.5-1.5h9.31055c0.82813,0,1.5,0.67188,1.5,1.5
			S701.6084,880.77734,700.78027,880.77734z M682.1582,880.77734h-9.31055c-0.82813,0-1.5-0.67188-1.5-1.5s0.67188-1.5,1.5-1.5
			h9.31055c0.82813,0,1.5,0.67188,1.5,1.5S682.98633,880.77734,682.1582,880.77734z M663.53711,880.77734h-9.31055
			c-0.82813,0-1.5-0.67188-1.5-1.5s0.67188-1.5,1.5-1.5h9.31055c0.82813,0,1.5,0.67188,1.5,1.5
			S664.36523,880.77734,663.53711,880.77734z M644.91602,880.77734h-9.31055c-0.82813,0-1.5-0.67188-1.5-1.5s0.67188-1.5,1.5-1.5
			h9.31055c0.82813,0,1.5,0.67188,1.5,1.5S645.74414,880.77734,644.91602,880.77734z M626.29395,880.77734h-9.31055
			c-0.82813,0-1.5-0.67188-1.5-1.5s0.67188-1.5,1.5-1.5h9.31055c0.82813,0,1.5,0.67188,1.5,1.5
			S627.12207,880.77734,626.29395,880.77734z M607.67285,880.77734h-9.31055c-0.82813,0-1.5-0.67188-1.5-1.5s0.67188-1.5,1.5-1.5
			h9.31055c0.82813,0,1.5,0.67188,1.5,1.5S608.50098,880.77734,607.67285,880.77734z M589.05176,880.77734h-9.31152
			c-0.82813,0-1.5-0.67188-1.5-1.5s0.67188-1.5,1.5-1.5h9.31152c0.82813,0,1.5,0.67188,1.5,1.5
			S589.87988,880.77734,589.05176,880.77734z M570.42969,880.77734h-9.31055c-0.82813,0-1.5-0.67188-1.5-1.5s0.67188-1.5,1.5-1.5
			h9.31055c0.82813,0,1.5,0.67188,1.5,1.5S571.25781,880.77734,570.42969,880.77734z M551.80859,880.77734h-9.31055
			c-0.82813,0-1.5-0.67188-1.5-1.5s0.67188-1.5,1.5-1.5h9.31055c0.82813,0,1.5,0.67188,1.5,1.5
			S552.63672,880.77734,551.80859,880.77734z M533.1875,880.77734h-9.31152c-0.82813,0-1.5-0.67188-1.5-1.5s0.67188-1.5,1.5-1.5
			h9.31152c0.82813,0,1.5,0.67188,1.5,1.5S534.01563,880.77734,533.1875,880.77734z M514.56543,880.77734h-9.31055
			c-0.82813,0-1.5-0.67188-1.5-1.5s0.67188-1.5,1.5-1.5h9.31055c0.82813,0,1.5,0.67188,1.5,1.5
			S515.39355,880.77734,514.56543,880.77734z M495.94434,880.77734h-9.31055c-0.82813,0-1.5-0.67188-1.5-1.5s0.67188-1.5,1.5-1.5
			h9.31055c0.82813,0,1.5,0.67188,1.5,1.5S496.77246,880.77734,495.94434,880.77734z M477.32324,880.77734h-9.31104
			c-0.82861,0-1.5-0.67188-1.5-1.5s0.67139-1.5,1.5-1.5h9.31104c0.82813,0,1.5,0.67188,1.5,1.5
			S478.15137,880.77734,477.32324,880.77734z M458.70117,880.77734h-9.31055c-0.82861,0-1.5-0.67188-1.5-1.5s0.67139-1.5,1.5-1.5
			h9.31055c0.82861,0,1.5,0.67188,1.5,1.5S459.52979,880.77734,458.70117,880.77734z M440.08008,880.77734h-9.31104
			c-0.82861,0-1.5-0.67188-1.5-1.5s0.67139-1.5,1.5-1.5h9.31104c0.82861,0,1.5,0.67188,1.5,1.5
			S440.90869,880.77734,440.08008,880.77734z M421.4585,880.77734h-9.31055c-0.82861,0-1.5-0.67188-1.5-1.5s0.67139-1.5,1.5-1.5
			h9.31055c0.82861,0,1.5,0.67188,1.5,1.5S422.28711,880.77734,421.4585,880.77734z M402.83691,880.77734h-9.31055
			c-0.82861,0-1.5-0.67188-1.5-1.5s0.67139-1.5,1.5-1.5h9.31055c0.82861,0,1.5,0.67188,1.5,1.5
			S403.66553,880.77734,402.83691,880.77734z M384.21533,880.77734h-9.25146c-0.82861,0-1.52979-0.67188-1.52979-1.5
			s0.64209-1.5,1.4707-1.5h9.31055c0.82861,0,1.5,0.67188,1.5,1.5S385.04395,880.77734,384.21533,880.77734z M365.9541,878.56738
			c-0.23438,0-0.47266-0.05469-0.69482-0.17188c-2.95801-1.5498-5.53564-3.81934-7.45361-6.5625
			c-0.4751-0.67871-0.30957-1.61426,0.36914-2.08887c0.67871-0.47363,1.61426-0.30859,2.08887,0.37012
			c1.64453,2.35156,3.85352,4.2959,6.38818,5.625c0.73389,0.38379,1.01709,1.29102,0.63232,2.02441
			C367.01611,878.27539,366.49414,878.56738,365.9541,878.56738z M355.69971,863.87793c-0.74219,0-1.38721-0.55078-1.48535-1.30664
			c-0.11621-0.89355-0.17529-1.80762-0.17529-2.71777v-1.2002c-0.00049-2.01465,0.28564-4.00879,0.85059-5.9248
			c0.23438-0.79492,1.06494-1.25195,1.86328-1.01465c0.79443,0.23438,1.24854,1.06836,1.01465,1.8623
			c-0.48389,1.6416-0.729,3.34961-0.72852,5.07715v1.2002c0,0.78125,0.05029,1.56543,0.1499,2.33105
			c0.10693,0.82129-0.47217,1.57422-1.29395,1.68066C355.82959,863.87402,355.76416,863.87793,355.69971,863.87793z
			 M360.96777,846.68457c-0.37451,0-0.74902-0.13867-1.04004-0.41895c-0.59717-0.57422-0.61523-1.52441-0.04102-2.12109
			c2.32471-2.41602,5.22461-4.25684,8.38623-5.32227c0.78564-0.26758,1.63623,0.15625,1.90088,0.94141
			s-0.15723,1.63574-0.94189,1.90039c-2.70752,0.91309-5.19141,2.49023-7.18311,4.56055
			C361.75439,846.53027,361.36133,846.68457,360.96777,846.68457z M623.48438,840.72949h-3.45313c-0.82813,0-1.5-0.67188-1.5-1.5
			s0.67188-1.5,1.5-1.5h3.45313c1.81738,0,3.6084-0.27051,5.32324-0.80371c0.79102-0.24414,1.63184,0.19629,1.87793,0.9873
			s-0.19629,1.63184-0.9873,1.87793C627.69434,840.41406,625.60352,840.72949,623.48438,840.72949z M610.7207,840.72949h-9.31055
			c-0.82813,0-1.5-0.67188-1.5-1.5s0.67188-1.5,1.5-1.5h9.31055c0.82813,0,1.5,0.67188,1.5,1.5
			S611.54883,840.72949,610.7207,840.72949z M592.09961,840.72949h-9.31152c-0.82813,0-1.5-0.67188-1.5-1.5s0.67188-1.5,1.5-1.5
			h9.31152c0.82813,0,1.5,0.67188,1.5,1.5S592.92773,840.72949,592.09961,840.72949z M573.47754,840.72949h-9.31055
			c-0.82813,0-1.5-0.67188-1.5-1.5s0.67188-1.5,1.5-1.5h9.31055c0.82813,0,1.5,0.67188,1.5,1.5
			S574.30566,840.72949,573.47754,840.72949z M554.85645,840.72949h-9.31055c-0.82813,0-1.5-0.67188-1.5-1.5s0.67188-1.5,1.5-1.5
			h9.31055c0.82813,0,1.5,0.67188,1.5,1.5S555.68457,840.72949,554.85645,840.72949z M536.23438,840.72949h-9.31055
			c-0.82813,0-1.5-0.67188-1.5-1.5s0.67188-1.5,1.5-1.5h9.31055c0.82813,0,1.5,0.67188,1.5,1.5
			S537.0625,840.72949,536.23438,840.72949z M517.61328,840.72949h-9.31055c-0.82813,0-1.5-0.67188-1.5-1.5s0.67188-1.5,1.5-1.5
			h9.31055c0.82813,0,1.5,0.67188,1.5,1.5S518.44141,840.72949,517.61328,840.72949z M498.99219,840.72949h-9.31055
			c-0.82813,0-1.5-0.67188-1.5-1.5s0.67188-1.5,1.5-1.5h9.31055c0.82813,0,1.5,0.67188,1.5,1.5
			S499.82031,840.72949,498.99219,840.72949z M480.37012,840.72949h-9.31055c-0.82861,0-1.5-0.67188-1.5-1.5s0.67139-1.5,1.5-1.5
			h9.31055c0.82813,0,1.5,0.67188,1.5,1.5S481.19824,840.72949,480.37012,840.72949z M461.74902,840.72949h-9.31055
			c-0.82861,0-1.5-0.67188-1.5-1.5s0.67139-1.5,1.5-1.5h9.31055c0.82861,0,1.5,0.67188,1.5,1.5
			S462.57764,840.72949,461.74902,840.72949z M443.12744,840.72949h-9.31055c-0.82861,0-1.5-0.67188-1.5-1.5s0.67139-1.5,1.5-1.5
			h9.31055c0.82861,0,1.5,0.67188,1.5,1.5S443.95605,840.72949,443.12744,840.72949z M424.50586,840.72949h-9.31055
			c-0.82861,0-1.5-0.67188-1.5-1.5s0.67139-1.5,1.5-1.5h9.31055c0.82861,0,1.5,0.67188,1.5,1.5
			S425.33447,840.72949,424.50586,840.72949z M405.88477,840.72949h-9.31104c-0.82861,0-1.5-0.67188-1.5-1.5s0.67139-1.5,1.5-1.5
			h9.31104c0.82861,0,1.5,0.67188,1.5,1.5S406.71338,840.72949,405.88477,840.72949z M387.26318,840.72949h-9.31055
			c-0.82861,0-1.5-0.67188-1.5-1.5s0.67139-1.5,1.5-1.5h9.31055c0.82861,0,1.5,0.67188,1.5,1.5
			S388.0918,840.72949,387.26318,840.72949z M637.15234,835.10645c-0.38672,0-0.77246-0.14844-1.06543-0.44434
			c-0.58301-0.58887-0.5791-1.53809,0.00977-2.12109c2.04102-2.02246,3.58203-4.52832,4.45605-7.24805
			c0.25293-0.78711,1.0957-1.22559,1.88672-0.96875c0.78906,0.25293,1.22266,1.09766,0.96875,1.88672
			c-1.02051,3.17578-2.81836,6.10156-5.2002,8.46094C637.91602,834.96191,637.53418,835.10645,637.15234,835.10645z
			 M642.63477,818.05469c-0.71875,0-1.35449-0.51855-1.47754-1.25098c-0.47363-2.81836-1.63965-5.51758-3.37305-7.80664
			c-0.5-0.66016-0.36914-1.60156,0.29102-2.10156c0.65918-0.5,1.60156-0.37012,2.10156,0.29102
			c2.02344,2.67285,3.38574,5.82617,3.93945,9.11914c0.13672,0.81738-0.41406,1.59082-1.23047,1.72852
			C642.80176,818.04785,642.71777,818.05469,642.63477,818.05469z M631.83496,803.76172c-0.2168,0-0.43652-0.04688-0.64453-0.14648
			c-2.41602-1.15137-5.00781-1.73535-7.70605-1.73535h-0.67676c-0.82813,0-1.5-0.67188-1.5-1.5s0.67188-1.5,1.5-1.5h0.67676
			c3.14844,0,6.1748,0.68262,8.99707,2.02832c0.74805,0.35645,1.06543,1.25098,0.70801,1.99902
			C632.93262,803.44629,632.39551,803.76172,631.83496,803.76172z M613.49707,801.87988h-9.31055c-0.82813,0-1.5-0.67188-1.5-1.5
			s0.67188-1.5,1.5-1.5h9.31055c0.82813,0,1.5,0.67188,1.5,1.5S614.3252,801.87988,613.49707,801.87988z M594.875,801.87988
			h-9.31055c-0.82813,0-1.5-0.67188-1.5-1.5s0.67188-1.5,1.5-1.5h9.31055c0.82813,0,1.5,0.67188,1.5,1.5
			S595.70313,801.87988,594.875,801.87988z M576.25391,801.87988h-9.31055c-0.82813,0-1.5-0.67188-1.5-1.5s0.67188-1.5,1.5-1.5
			h9.31055c0.82813,0,1.5,0.67188,1.5,1.5S577.08203,801.87988,576.25391,801.87988z M557.63281,801.87988h-9.31152
			c-0.82813,0-1.5-0.67188-1.5-1.5s0.67188-1.5,1.5-1.5h9.31152c0.82813,0,1.5,0.67188,1.5,1.5
			S558.46094,801.87988,557.63281,801.87988z M539.01074,801.87988h-9.31055c-0.82813,0-1.5-0.67188-1.5-1.5s0.67188-1.5,1.5-1.5
			h9.31055c0.82813,0,1.5,0.67188,1.5,1.5S539.83887,801.87988,539.01074,801.87988z M520.38965,801.87988h-9.31055
			c-0.82813,0-1.5-0.67188-1.5-1.5s0.67188-1.5,1.5-1.5h9.31055c0.82813,0,1.5,0.67188,1.5,1.5
			S521.21777,801.87988,520.38965,801.87988z M501.76855,801.87988h-9.31152c-0.82813,0-1.5-0.67188-1.5-1.5s0.67188-1.5,1.5-1.5
			h9.31152c0.82813,0,1.5,0.67188,1.5,1.5S502.59668,801.87988,501.76855,801.87988z M483.14648,801.87988h-9.31055
			c-0.82861,0-1.5-0.67188-1.5-1.5s0.67139-1.5,1.5-1.5h9.31055c0.82813,0,1.5,0.67188,1.5,1.5
			S483.97461,801.87988,483.14648,801.87988z M464.52539,801.87988h-9.31104c-0.82861,0-1.5-0.67188-1.5-1.5s0.67139-1.5,1.5-1.5
			h9.31104c0.82861,0,1.5,0.67188,1.5,1.5S465.354,801.87988,464.52539,801.87988z M445.90381,801.87988h-9.31104
			c-0.82861,0-1.5-0.67188-1.5-1.5s0.67139-1.5,1.5-1.5h9.31104c0.82861,0,1.5,0.67188,1.5,1.5
			S446.73242,801.87988,445.90381,801.87988z M427.28223,801.87988h-9.31055c-0.82861,0-1.5-0.67188-1.5-1.5s0.67139-1.5,1.5-1.5
			h9.31055c0.82861,0,1.5,0.67188,1.5,1.5S428.11084,801.87988,427.28223,801.87988z M408.66064,801.87988h-9.31055
			c-0.82861,0-1.5-0.67188-1.5-1.5s0.67139-1.5,1.5-1.5h9.31055c0.82861,0,1.5,0.67188,1.5,1.5
			S409.48926,801.87988,408.66064,801.87988z M390.03955,801.87988h-9.31104c-0.82861,0-1.5-0.67188-1.5-1.5s0.67139-1.5,1.5-1.5
			h9.31104c0.82861,0,1.5,0.67188,1.5,1.5S390.86816,801.87988,390.03955,801.87988z M371.41797,801.87988h-9.31055
			c-0.82861,0-1.5-0.67188-1.5-1.5s0.67139-1.5,1.5-1.5h9.31055c0.82861,0,1.5,0.67188,1.5,1.5
			S372.24658,801.87988,371.41797,801.87988z M352.79639,801.87988h-9.31055c-0.82861,0-1.5-0.67188-1.5-1.5s0.67139-1.5,1.5-1.5
			h9.31055c0.82861,0,1.5,0.67188,1.5,1.5S353.625,801.87988,352.79639,801.87988z M334.17529,801.87988h-9.31104
			c-0.82861,0-1.5-0.67188-1.5-1.5s0.67139-1.5,1.5-1.5h9.31104c0.82861,0,1.5,0.67188,1.5,1.5
			S335.00391,801.87988,334.17529,801.87988z M315.55371,801.87988h-9.31104c-0.82861,0-1.5-0.67188-1.5-1.5s0.67139-1.5,1.5-1.5
			h9.31104c0.82861,0,1.5,0.67188,1.5,1.5S316.38232,801.87988,315.55371,801.87988z M296.93213,801.87988h-9.31055
			c-0.82861,0-1.5-0.67188-1.5-1.5s0.67139-1.5,1.5-1.5h9.31055c0.82861,0,1.5,0.67188,1.5,1.5
			S297.76074,801.87988,296.93213,801.87988z M278.31055,801.87988H269c-0.82861,0-1.5-0.67188-1.5-1.5s0.67139-1.5,1.5-1.5h9.31055
			c0.82861,0,1.5,0.67188,1.5,1.5S279.13916,801.87988,278.31055,801.87988z"/>
	</g>
	<g class="st14">
		<g>
			<path class="st13" d="M171.45264,582.56726c-30.64636,0-58.43585,12.46625-78.56378,32.59406l157.12793,157.12793
				c20.12781-20.12793,32.59406-47.91742,32.59406-78.56378C282.61084,632.4325,232.74561,582.56726,171.45264,582.56726z"/>
		</g>
	</g>
	<g class="st14">
		<g>
			<path class="st13" d="M709.46942,512.14789c6.48792-1.70099,12.78955-4.56403,18.59296-8.63849
				c26.21997-18.41003,32.57428-54.71942,14.16449-80.93994c-8.81445-12.55371-21.94189-20.96204-37.00562-23.73962
				l-20.02356,114.41846C693.19977,514.57245,701.47839,514.24298,709.46942,512.14789z"/>
		</g>
	</g>
</g>
</svg>
