<?xml version="1.0" encoding="utf-8"?>
<!-- Generator: Adobe Illustrator 19.2.1, SVG Export Plug-In . SVG Version: 6.00 Build 0)  -->
<svg version="1.1" id="Layer_1" xmlns="http://www.w3.org/2000/svg" xmlns:xlink="http://www.w3.org/1999/xlink" x="0px" y="0px"
	 viewBox="0 0 425 300" style="enable-background:new 0 0 425 300;" xml:space="preserve">
<style type="text/css">
	.st0{fill:#DBEDFF;}
	.st1{fill:#2C3441;}
	.st2{fill:#FF5535;}
	.st3{fill:#F6E6CC;}
	.st4{fill:#F6BD8D;}
	.st5{fill:#414854;}
	.st6{fill:#FF775D;}
	.st7{fill:#1E2633;}
	.st8{opacity:0.2;}
	.st9{fill:#FFFFFF;}
	.st10{fill:#0A121F;}
</style>
<path class="st0" d="M411.10281,96.22388h-47.95447c-9.70905,0-17.57944-7.8705-17.57944-17.57932
	s7.87039-17.57932,17.57944-17.57932h29.31885c7.04257-2.29281,12.13644-8.9028,12.13644-16.71022V44.3549
	c0-9.70882-7.87039-17.57932-17.57922-17.57932h-36.68237h-43.05585h-52.4269c-3.38593,0-6.13084,2.74492-6.13084,6.13106
	c0,2.79675,1.88594,5.12524,4.44606,5.86102h54.08055c6.1572,0,11.14856,4.99147,11.14856,11.14879
	s-4.99136,11.14879-11.14856,11.14879h-5.41187h-6.65302c-9.70859,0-17.57919,7.8705-17.57919,17.57932
	c0,8.69391,6.3172,15.89488,14.60788,17.30939h33.96716c6.15723,0,11.1488,4.99147,11.1488,11.14879
	c0,6.15731-4.99158,11.14879-11.1488,11.14879h-35.65619h-22.86426H192.4799c-3.38591,0-6.13083,2.74492-6.13083,6.13094
	c0,3.38615,2.74492,6.13106,6.13083,6.13106h114.80629h40.63644h57.7374c9.7088,0,17.57919-7.8705,17.57919-17.57932
	C423.23923,105.12668,418.14536,98.51669,411.10281,96.22388z"/>
<path class="st1" d="M188.63991,25.89358c-65.90741,0-119.33594,53.42859-119.33594,119.33594
	s53.42853,119.33594,119.33594,119.33594s119.33595-53.42859,119.33595-119.33594S254.54732,25.89358,188.63991,25.89358z
	 M188.63991,246.47269c-55.9151,0-101.24316-45.32813-101.24316-101.24316c0-55.91516,45.32806-101.24329,101.24316-101.24329
	c55.91504,0,101.24318,45.32813,101.24318,101.24329C289.88309,201.14456,244.55495,246.47269,188.63991,246.47269z"/>
<path class="st2" d="M188.63991,246.47269c-55.9151,0-101.24316-45.32813-101.24316-101.24316
	c0-55.91516,45.32806-101.24329,101.24316-101.24329c55.91504,0,101.24318,45.32813,101.24318,101.24329
	C289.88309,201.14456,244.55495,246.47269,188.63991,246.47269z"/>
<g>
	<path d="M127.2796,210.89359v-8.40234h0.75586v7.68164h3.2168v0.7207H127.2796z"/>
	<path d="M133.65363,210.89359v-8.40234h4.72852v0.7207h-3.97266v3.12305h3.2168v0.7207h-3.2168v3.11719h3.97266v0.7207H133.65363z"
		/>
	<path d="M144.1756,208.93655h-2.66016l-0.55078,1.95703h-0.78516l2.46094-8.40234h0.39844l2.47266,8.40234h-0.7793
		L144.1756,208.93655z M141.72052,208.21585h2.25586l-1.10742-3.87305l-0.02344-0.31055l-0.02344,0.31055L141.72052,208.21585z"/>
	<path d="M152.35724,209.63382c-0.10742,0.25-0.25488,0.46875-0.44238,0.65625s-0.40723,0.33496-0.65918,0.44238
		s-0.52051,0.16113-0.80566,0.16113h-2.66016v-8.40234h2.66016c0.28516,0,0.55371,0.05371,0.80566,0.16113
		s0.47168,0.25488,0.65918,0.44238s0.33496,0.40723,0.44238,0.65918s0.16113,0.52051,0.16113,0.80566v4.27148
		C152.51837,209.11624,152.46466,209.38382,152.35724,209.63382z M151.76251,204.5596c0-0.1875-0.03516-0.3623-0.10547-0.52441
		s-0.16699-0.30469-0.29004-0.42773s-0.26563-0.21973-0.42773-0.29004s-0.33691-0.10547-0.52441-0.10547h-1.86914v6.96094h1.86914
		c0.1875,0,0.3623-0.03516,0.52441-0.10547s0.30469-0.16602,0.42773-0.28711s0.21973-0.2627,0.29004-0.4248
		s0.10547-0.33691,0.10547-0.52441V204.5596z"/>
	<path d="M160.12238,208.94827c0,0.28516-0.05762,0.55273-0.17285,0.80273s-0.26953,0.46875-0.46289,0.65625
		c-0.19337,0.1875-0.41797,0.33496-0.67383,0.44238s-0.52637,0.16113-0.81152,0.16113h-0.60352
		c-0.28516,0-0.55566-0.05371-0.81152-0.16113s-0.48047-0.25488-0.67383-0.44238s-0.34766-0.40625-0.46289-0.65625
		s-0.17285-0.51758-0.17285-0.80273v-0.33398l0.75586-0.12305v0.45703c0,0.1875,0.03809,0.3623,0.11426,0.52441
		s0.17871,0.30469,0.30762,0.42773s0.27832,0.21973,0.44824,0.29004s0.34863,0.10547,0.53613,0.10547h0.52734
		c0.1875,0,0.36523-0.03516,0.5332-0.10547s0.31641-0.16699,0.44531-0.29004s0.23145-0.26563,0.30762-0.42773
		s0.11426-0.33691,0.11426-0.52441v-0.25195c0-0.28906-0.05664-0.5293-0.16992-0.7207s-0.26367-0.35449-0.45117-0.48926
		s-0.39941-0.24902-0.63574-0.34277s-0.47949-0.1875-0.72949-0.28125s-0.49316-0.19727-0.72949-0.31055
		s-0.44824-0.25488-0.63574-0.4248s-0.33789-0.37793-0.45117-0.62402s-0.16992-0.54883-0.16992-0.9082v-0.1582
		c0-0.28516,0.05371-0.55273,0.16113-0.80273s0.25488-0.46875,0.44238-0.65625s0.40723-0.33496,0.65918-0.44238
		s0.52051-0.16113,0.80566-0.16113h0.53906c0.28516,0,0.55273,0.05371,0.80273,0.16113s0.46875,0.25488,0.65625,0.44238
		s0.33496,0.40625,0.44238,0.65625s0.16113,0.51758,0.16113,0.80273v0.2168l-0.75586,0.12305v-0.33984
		c0-0.1875-0.03516-0.3623-0.10547-0.52441s-0.16602-0.30371-0.28711-0.4248s-0.2627-0.2168-0.4248-0.28711
		s-0.33691-0.10547-0.52441-0.10547h-0.46875c-0.1875,0-0.3623,0.03516-0.52441,0.10547s-0.3047,0.16602-0.42773,0.28711
		c-0.12305,0.12109-0.21973,0.2627-0.29004,0.4248s-0.10547,0.33691-0.10547,0.52441v0.1582
		c0,0.26953,0.05664,0.49609,0.16992,0.67969s0.26367,0.34082,0.45117,0.47168s0.39941,0.24414,0.63574,0.33984
		s0.47949,0.19336,0.72949,0.29297s0.49316,0.20898,0.72949,0.32813s0.44824,0.26563,0.63574,0.43945
		s0.33789,0.38574,0.45117,0.63574s0.16992,0.55469,0.16992,0.91406V208.94827z"/>
	<path d="M171.51105,208.94827c0,0.28516-0.05762,0.55273-0.17285,0.80273s-0.26953,0.46875-0.46289,0.65625
		s-0.41797,0.33496-0.67383,0.44238s-0.52637,0.16113-0.81152,0.16113h-0.60352c-0.28516,0-0.55566-0.05371-0.81152-0.16113
		s-0.48047-0.25488-0.67383-0.44238s-0.34766-0.40625-0.46289-0.65625s-0.17285-0.51758-0.17285-0.80273v-0.33398l0.75586-0.12305
		v0.45703c0,0.1875,0.03809,0.3623,0.11426,0.52441s0.17871,0.30469,0.30762,0.42773s0.27832,0.21973,0.44824,0.29004
		s0.34863,0.10547,0.53613,0.10547h0.52734c0.1875,0,0.36523-0.03516,0.5332-0.10547s0.31641-0.16699,0.44531-0.29004
		s0.23145-0.26563,0.30762-0.42773s0.11426-0.33691,0.11426-0.52441v-0.25195c0-0.28906-0.05664-0.5293-0.16992-0.7207
		s-0.26367-0.35449-0.45117-0.48926s-0.39941-0.24902-0.63574-0.34277s-0.47949-0.1875-0.72949-0.28125
		s-0.49316-0.19727-0.72949-0.31055s-0.44824-0.25488-0.63574-0.4248s-0.33789-0.37793-0.45117-0.62402
		s-0.16992-0.54883-0.16992-0.9082v-0.1582c0-0.28516,0.05371-0.55273,0.16113-0.80273s0.25488-0.46875,0.44238-0.65625
		s0.40721-0.33496,0.65918-0.44238c0.25195-0.10742,0.52051-0.16113,0.80566-0.16113h0.53906
		c0.28516,0,0.55273,0.05371,0.80273,0.16113s0.46875,0.25488,0.65625,0.44238s0.33496,0.40625,0.44238,0.65625
		s0.16113,0.51758,0.16113,0.80273v0.2168l-0.75586,0.12305v-0.33984c0-0.1875-0.03516-0.3623-0.10547-0.52441
		s-0.16602-0.30371-0.28711-0.4248s-0.2627-0.2168-0.4248-0.28711s-0.33691-0.10547-0.52441-0.10547h-0.46875
		c-0.1875,0-0.3623,0.03516-0.52441,0.10547s-0.30469,0.16602-0.42773,0.28711s-0.21973,0.2627-0.29004,0.4248
		s-0.10547,0.33691-0.10547,0.52441v0.1582c0,0.26953,0.05664,0.49609,0.16992,0.67969s0.26367,0.34082,0.45117,0.47168
		s0.39941,0.24414,0.63574,0.33984s0.47949,0.19336,0.72949,0.29297s0.49316,0.20898,0.72949,0.32813
		s0.44824,0.26563,0.63574,0.43945s0.33789,0.38574,0.45117,0.63574s0.16992,0.55469,0.16992,0.91406V208.94827z"/>
	<path d="M178.77814,209.75101c-0.10742,0.25-0.25488,0.46875-0.44238,0.65625s-0.40625,0.33496-0.65625,0.44238
		s-0.51758,0.16113-0.80273,0.16113h-0.59766c-0.28516,0-0.55371-0.05371-0.80566-0.16113s-0.47168-0.25488-0.65918-0.44238
		s-0.33496-0.40625-0.44238-0.65625s-0.16113-0.51758-0.16113-0.80273v-6.45703h0.75586v6.45703
		c0,0.1875,0.03516,0.3623,0.10547,0.52441s0.16699,0.30469,0.29004,0.42773s0.26563,0.21973,0.42773,0.29004
		s0.33691,0.10547,0.52441,0.10547h0.52734c0.1875,0,0.3623-0.03516,0.52441-0.10547s0.30371-0.16699,0.4248-0.29004
		s0.2168-0.26563,0.28711-0.42773s0.10547-0.33691,0.10547-0.52441v-6.45703h0.75586v6.45703
		C178.93927,209.23343,178.88556,209.50101,178.77814,209.75101z"/>
	<path d="M186.38849,209.75101c-0.10742,0.25-0.25488,0.46875-0.44238,0.65625s-0.40625,0.33496-0.65625,0.44238
		s-0.51758,0.16113-0.80273,0.16113h-0.59766c-0.28516,0-0.55371-0.05371-0.80566-0.16113s-0.47168-0.25488-0.65918-0.44238
		s-0.33496-0.40625-0.44238-0.65625s-0.16113-0.51758-0.16113-0.80273v-4.51172c0-0.28516,0.05371-0.55273,0.16113-0.80273
		s0.25488-0.46875,0.44238-0.65625s0.40723-0.33496,0.65918-0.44238s0.52051-0.16113,0.80566-0.16113h0.59766
		c0.28516,0,0.55273,0.05371,0.80273,0.16113s0.46875,0.25488,0.65625,0.44238s0.33496,0.40625,0.44238,0.65625
		s0.16113,0.51758,0.16113,0.80273v0.33984l-0.75586,0.11719v-0.45703c0-0.1875-0.03516-0.3623-0.10547-0.52441
		s-0.16602-0.30371-0.28711-0.4248s-0.2627-0.2168-0.4248-0.28711s-0.33691-0.10547-0.52441-0.10547h-0.52734
		c-0.1875,0-0.3623,0.03516-0.52441,0.10547s-0.30469,0.16602-0.42773,0.28711s-0.21973,0.2627-0.29004,0.4248
		s-0.10547,0.33691-0.10547,0.52441v4.51172c0,0.1875,0.03516,0.3623,0.10547,0.52441s0.16699,0.30469,0.29004,0.42773
		s0.26563,0.21973,0.42773,0.29004s0.33691,0.10547,0.52441,0.10547h0.52734c0.1875,0,0.3623-0.03516,0.52441-0.10547
		s0.30371-0.16699,0.4248-0.29004s0.2168-0.26563,0.28711-0.42773s0.10547-0.33691,0.10547-0.52441v-0.45703l0.75586,0.12305
		v0.33398C186.54962,209.23343,186.49591,209.50101,186.38849,209.75101z"/>
	<path d="M193.87531,209.75101c-0.10742,0.25-0.25488,0.46875-0.44238,0.65625s-0.40625,0.33496-0.65625,0.44238
		s-0.51758,0.16113-0.80273,0.16113h-0.59766c-0.28516,0-0.55371-0.05371-0.80566-0.16113s-0.47168-0.25488-0.65918-0.44238
		s-0.33496-0.40625-0.44238-0.65625s-0.16113-0.51758-0.16113-0.80273v-4.51172c0-0.28516,0.05371-0.55273,0.16113-0.80273
		s0.25488-0.46875,0.44238-0.65625s0.40723-0.33496,0.65918-0.44238s0.52051-0.16113,0.80566-0.16113h0.59766
		c0.28516,0,0.55273,0.05371,0.80273,0.16113s0.46875,0.25488,0.65625,0.44238s0.33496,0.40625,0.44238,0.65625
		s0.16113,0.51758,0.16113,0.80273v0.33984l-0.75586,0.11719v-0.45703c0-0.1875-0.03516-0.3623-0.10547-0.52441
		s-0.16602-0.30371-0.28711-0.4248s-0.2627-0.2168-0.4248-0.28711s-0.33691-0.10547-0.52441-0.10547h-0.52734
		c-0.1875,0-0.3623,0.03516-0.52441,0.10547s-0.30469,0.16602-0.42773,0.28711s-0.21973,0.2627-0.29004,0.4248
		s-0.10547,0.33691-0.10547,0.52441v4.51172c0,0.1875,0.03516,0.3623,0.10547,0.52441s0.16699,0.30469,0.29004,0.42773
		s0.26563,0.21973,0.42773,0.29004s0.33691,0.10547,0.52441,0.10547h0.52734c0.1875,0,0.3623-0.03516,0.52441-0.10547
		s0.30371-0.16699,0.4248-0.29004s0.2168-0.26563,0.28711-0.42773s0.10547-0.33691,0.10547-0.52441v-0.45703l0.75586,0.12305
		v0.33398C194.03644,209.23343,193.98273,209.50101,193.87531,209.75101z"/>
	<path d="M196.91826,210.89359v-8.40234h4.72853v0.7207h-3.97266v3.12305h3.2168v0.7207h-3.2168v3.11719h3.97266v0.7207H196.91826z"
		/>
	<path d="M208.89386,208.94827c0,0.28516-0.05762,0.55273-0.17285,0.80273s-0.26953,0.46875-0.46289,0.65625
		s-0.41797,0.33496-0.67383,0.44238s-0.52637,0.16113-0.81152,0.16113h-0.60352c-0.28516,0-0.55566-0.05371-0.81152-0.16113
		s-0.48047-0.25488-0.67383-0.44238s-0.34766-0.40625-0.46289-0.65625s-0.17285-0.51758-0.17285-0.80273v-0.33398l0.75586-0.12305
		v0.45703c0,0.1875,0.03809,0.3623,0.11424,0.52441c0.07619,0.16211,0.17873,0.30469,0.30763,0.42773
		s0.27832,0.21973,0.44824,0.29004s0.34863,0.10547,0.53613,0.10547h0.52734c0.1875,0,0.36523-0.03516,0.5332-0.10547
		s0.31641-0.16699,0.44531-0.29004s0.23145-0.26563,0.30762-0.42773s0.11426-0.33691,0.11426-0.52441v-0.25195
		c0-0.28906-0.05664-0.5293-0.16992-0.7207s-0.26367-0.35449-0.45117-0.48926s-0.39941-0.24902-0.63574-0.34277
		s-0.47949-0.1875-0.72949-0.28125s-0.49316-0.19727-0.72949-0.31055s-0.44824-0.25488-0.63574-0.4248
		s-0.33789-0.37793-0.45117-0.62402s-0.16992-0.54883-0.16992-0.9082v-0.1582c0-0.28516,0.05371-0.55273,0.16113-0.80273
		s0.25488-0.46875,0.44238-0.65625s0.40723-0.33496,0.65918-0.44238s0.52051-0.16113,0.80566-0.16113h0.53906
		c0.28516,0,0.55273,0.05371,0.80273,0.16113s0.46875,0.25488,0.65625,0.44238s0.33496,0.40625,0.44238,0.65625
		s0.16113,0.51758,0.16113,0.80273v0.2168l-0.75586,0.12305v-0.33984c0-0.1875-0.03516-0.3623-0.10547-0.52441
		s-0.16602-0.30371-0.28711-0.4248s-0.2627-0.2168-0.4248-0.28711s-0.33691-0.10547-0.52441-0.10547h-0.46875
		c-0.1875,0-0.3623,0.03516-0.52441,0.10547s-0.30469,0.16602-0.42773,0.28711s-0.21973,0.2627-0.29004,0.4248
		s-0.10547,0.33691-0.10547,0.52441v0.1582c0,0.26953,0.05664,0.49609,0.16992,0.67969s0.26367,0.34082,0.45117,0.47168
		s0.39941,0.24414,0.63574,0.33984s0.47949,0.19336,0.72949,0.29297s0.49316,0.20898,0.72949,0.32813
		s0.44824,0.26563,0.63574,0.43945s0.33789,0.38574,0.45117,0.63574s0.16992,0.55469,0.16992,0.91406V208.94827z"/>
	<path d="M216.32159,208.94827c0,0.28516-0.05762,0.55273-0.17285,0.80273s-0.26953,0.46875-0.46289,0.65625
		s-0.41797,0.33496-0.67383,0.44238s-0.52637,0.16113-0.81152,0.16113h-0.60352c-0.28516,0-0.55566-0.05371-0.81152-0.16113
		s-0.48047-0.25488-0.67383-0.44238c-0.19337-0.1875-0.34766-0.40625-0.46289-0.65625s-0.17285-0.51758-0.17285-0.80273v-0.33398
		l0.75586-0.12305v0.45703c0,0.1875,0.03809,0.3623,0.11426,0.52441s0.17871,0.30469,0.30762,0.42773
		s0.27832,0.21973,0.44824,0.29004s0.34863,0.10547,0.53613,0.10547h0.52734c0.1875,0,0.36523-0.03516,0.5332-0.10547
		s0.31641-0.16699,0.44531-0.29004s0.23145-0.26563,0.30762-0.42773s0.11426-0.33691,0.11426-0.52441v-0.25195
		c0-0.28906-0.05664-0.5293-0.16992-0.7207s-0.26367-0.35449-0.45117-0.48926s-0.39941-0.24902-0.63574-0.34277
		s-0.47949-0.1875-0.72949-0.28125s-0.49316-0.19727-0.72949-0.31055s-0.44824-0.25488-0.63574-0.4248
		s-0.33789-0.37793-0.45117-0.62402s-0.16992-0.54883-0.16992-0.9082v-0.1582c0-0.28516,0.05371-0.55273,0.16113-0.80273
		s0.25488-0.46875,0.44238-0.65625s0.40723-0.33496,0.65918-0.44238s0.52051-0.16113,0.80566-0.16113h0.53906
		c0.28516,0,0.55273,0.05371,0.80273,0.16113s0.46875,0.25488,0.65625,0.44238s0.33496,0.40625,0.44238,0.65625
		s0.16113,0.51758,0.16113,0.80273v0.2168l-0.75586,0.12305v-0.33984c0-0.1875-0.03516-0.3623-0.10547-0.52441
		s-0.16602-0.30371-0.28711-0.4248s-0.2627-0.2168-0.4248-0.28711s-0.33691-0.10547-0.52441-0.10547h-0.46875
		c-0.1875,0-0.3623,0.03516-0.52441,0.10547s-0.30469,0.16602-0.42773,0.28711s-0.21973,0.2627-0.29004,0.4248
		s-0.10547,0.33691-0.10547,0.52441v0.1582c0,0.26953,0.05664,0.49609,0.16992,0.67969s0.26367,0.34082,0.45117,0.47168
		s0.39941,0.24414,0.63574,0.33984s0.47949,0.19336,0.72949,0.29297s0.49316,0.20898,0.72949,0.32813
		s0.44824,0.26563,0.63574,0.43945s0.33789,0.38574,0.45117,0.63574s0.16992,0.55469,0.16992,0.91406V208.94827z"/>
	<path d="M219.9007,203.21194v3.12305h3.2168v0.7207h-3.2168v3.83789h-0.75586v-8.40234h4.72852v0.7207H219.9007z"/>
	<path d="M230.71906,209.75101c-0.10742,0.25-0.25488,0.46875-0.44238,0.65625s-0.40625,0.33496-0.65625,0.44238
		s-0.51758,0.16113-0.80273,0.16113h-0.59766c-0.28516,0-0.55371-0.05371-0.80566-0.16113s-0.47168-0.25488-0.65918-0.44238
		s-0.33496-0.40625-0.44238-0.65625s-0.16113-0.51758-0.16113-0.80273v-6.45703h0.75586v6.45703
		c0,0.1875,0.03516,0.3623,0.10547,0.52441s0.16699,0.30469,0.29004,0.42773s0.26563,0.21973,0.42773,0.29004
		s0.33691,0.10547,0.52441,0.10547h0.52734c0.1875,0,0.3623-0.03516,0.52441-0.10547s0.30371-0.16699,0.4248-0.29004
		s0.2168-0.26563,0.28711-0.42773s0.10547-0.33691,0.10547-0.52441v-6.45703h0.75586v6.45703
		C230.88019,209.23343,230.82648,209.50101,230.71906,209.75101z"/>
	<path d="M233.76202,210.89359v-8.40234h0.75586v7.68164h3.2168v0.7207H233.76202z"/>
	<path d="M240.013,210.89359v-8.40234h0.75586v7.68164h3.2168v0.7207H240.013z"/>
	<path d="M247.93292,206.87405v4.01953h-0.75586v-4.00781l-2.17383-4.39453h0.81445l1.72852,3.49219l1.72852-3.49219h0.81445
		L247.93292,206.87405z"/>
	<path d="M161.97687,225.75101c-0.10742,0.25-0.25488,0.46875-0.44238,0.65625s-0.40625,0.33496-0.65625,0.44238
		s-0.51758,0.16113-0.80273,0.16113h-0.59766c-0.28516,0-0.55371-0.05371-0.80566-0.16113s-0.47168-0.25488-0.65918-0.44238
		s-0.33496-0.40625-0.44238-0.65625s-0.16113-0.51758-0.16113-0.80273v-4.51172c0-0.28516,0.05371-0.55273,0.16113-0.80273
		s0.25488-0.46875,0.44238-0.65625s0.40723-0.33496,0.65918-0.44238s0.52051-0.16113,0.80566-0.16113h0.59766
		c0.28516,0,0.55273,0.05371,0.80273,0.16113s0.46875,0.25488,0.65625,0.44238s0.33496,0.40625,0.44238,0.65625
		s0.16113,0.51758,0.16113,0.80273v0.33984l-0.75586,0.11719v-0.45703c0-0.1875-0.03516-0.3623-0.10547-0.52441
		s-0.16602-0.30371-0.28711-0.4248s-0.2627-0.2168-0.4248-0.28711s-0.33691-0.10547-0.52441-0.10547H159.513
		c-0.1875,0-0.3623,0.03516-0.52441,0.10547s-0.30469,0.16602-0.42773,0.28711s-0.21973,0.2627-0.29004,0.4248
		s-0.10547,0.33691-0.10547,0.52441v4.51172c0,0.1875,0.03516,0.3623,0.10547,0.52441s0.16699,0.30469,0.29004,0.42773
		s0.26563,0.21973,0.42773,0.29004s0.33691,0.10547,0.52441,0.10547h0.52734c0.1875,0,0.3623-0.03516,0.52441-0.10547
		s0.30371-0.16699,0.4248-0.29004s0.2168-0.26563,0.28711-0.42773s0.10547-0.33691,0.10547-0.52441v-0.45703l0.75586,0.12305
		v0.33398C162.138,225.23343,162.08429,225.50101,161.97687,225.75101z"/>
	<path d="M169.46417,225.75101c-0.10742,0.25-0.25488,0.46875-0.44238,0.65625s-0.40625,0.33496-0.65625,0.44238
		s-0.51758,0.16113-0.80273,0.16113h-0.59766c-0.28516,0-0.55371-0.05371-0.80566-0.16113s-0.47168-0.25488-0.65918-0.44238
		s-0.33496-0.40625-0.44238-0.65625s-0.16113-0.51758-0.16113-0.80273v-4.51172c0-0.28516,0.05371-0.55273,0.16113-0.80273
		s0.25488-0.46875,0.44238-0.65625s0.40723-0.33496,0.65918-0.44238s0.52051-0.16113,0.80566-0.16113h0.59766
		c0.28516,0,0.55273,0.05371,0.80273,0.16113s0.46875,0.25488,0.65625,0.44238s0.33496,0.40625,0.44238,0.65625
		s0.16113,0.51758,0.16113,0.80273v4.51172C169.62531,225.23343,169.57159,225.50101,169.46417,225.75101z M168.86945,220.43655
		c0-0.1875-0.03516-0.3623-0.10547-0.52441s-0.16602-0.30371-0.28711-0.4248s-0.2627-0.2168-0.4248-0.28711
		s-0.33691-0.10547-0.52441-0.10547h-0.52734c-0.1875,0-0.3623,0.03516-0.52441,0.10547s-0.30469,0.16602-0.42773,0.28711
		s-0.21973,0.2627-0.29004,0.4248s-0.10547,0.33691-0.10547,0.52441v4.51172c0,0.1875,0.03516,0.3623,0.10547,0.52441
		s0.16699,0.30469,0.29004,0.42773s0.26563,0.21973,0.42773,0.29004s0.33691,0.10547,0.52441,0.10547h0.52734
		c0.1875,0,0.3623-0.03516,0.52441-0.10547s0.30371-0.16699,0.4248-0.29004s0.2168-0.26563,0.28711-0.42773
		s0.10547-0.33691,0.10547-0.52441V220.43655z"/>
	<path d="M176.95978,226.89359l-3.50391-6.11719l-0.07031-0.36328v6.48047h-0.75586v-8.40234h0.39258l3.50391,6.12305
		l0.07617,0.35742v-6.48047h0.75586v8.40234H176.95978z"/>
	<path d="M182.51935,219.21194v7.68164h-0.75586v-7.68164h-2.00391v-0.7207h4.76367v0.7207H182.51935z"/>
	<path d="M189.71906,224.93655h-2.66016l-0.55078,1.95703h-0.78516l2.46094-8.40234h0.39844l2.47266,8.40234h-0.7793
		L189.71906,224.93655z M187.26398,224.21585h2.25586l-1.10742-3.87305l-0.02344-0.31055l-0.02344,0.31055L187.26398,224.21585z"/>
	<path d="M197.77765,225.75101c-0.10742,0.25-0.25488,0.46875-0.44238,0.65625s-0.40625,0.33496-0.65625,0.44238
		s-0.51758,0.16113-0.80273,0.16113h-0.59766c-0.28516,0-0.55371-0.05371-0.80566-0.16113s-0.47168-0.25488-0.65918-0.44238
		s-0.33496-0.40625-0.44238-0.65625s-0.16113-0.51758-0.16113-0.80273v-4.51172c0-0.28516,0.05371-0.55273,0.16113-0.80273
		s0.25488-0.46875,0.44238-0.65625s0.40723-0.33496,0.65918-0.44238s0.52051-0.16113,0.80566-0.16113h0.59766
		c0.28516,0,0.55273,0.05371,0.80273,0.16113s0.46875,0.25488,0.65625,0.44238s0.33496,0.40625,0.44238,0.65625
		s0.16113,0.51758,0.16113,0.80273v0.33984l-0.75586,0.11719v-0.45703c0-0.1875-0.03516-0.3623-0.10547-0.52441
		s-0.16602-0.30371-0.28711-0.4248s-0.2627-0.2168-0.4248-0.28711s-0.33691-0.10547-0.52441-0.10547h-0.52734
		c-0.1875,0-0.3623,0.03516-0.52441,0.10547s-0.30469,0.16602-0.42773,0.28711s-0.21973,0.2627-0.29004,0.4248
		s-0.10547,0.33691-0.10547,0.52441v4.51172c0,0.1875,0.03516,0.3623,0.10547,0.52441s0.16699,0.30469,0.29004,0.42773
		s0.26563,0.21973,0.42773,0.29004s0.33691,0.10547,0.52441,0.10547h0.52734c0.1875,0,0.3623-0.03516,0.52441-0.10547
		s0.30371-0.16699,0.4248-0.29004s0.2168-0.26563,0.28711-0.42773s0.10547-0.33691,0.10547-0.52441v-0.45703l0.75586,0.12305
		v0.33398C197.93878,225.23343,197.88507,225.50101,197.77765,225.75101z"/>
	<path d="M202.85968,219.21194v7.68164h-0.75586v-7.68164h-2.00391v-0.7207h4.76367v0.7207H202.85968z"/>
	<path d="M207.26398,226.89359v-8.40234h4.72852v0.7207h-3.97266v3.12305h3.2168v0.7207h-3.2168v3.11719h3.97266v0.7207H207.26398z"
		/>
	<path d="M219.20148,225.63382c-0.10742,0.25-0.25488,0.46875-0.44238,0.65625s-0.40723,0.33496-0.65918,0.44238
		s-0.52051,0.16113-0.80566,0.16113h-2.66016v-8.40234h2.66016c0.28516,0,0.55371,0.05371,0.80566,0.16113
		s0.47168,0.25488,0.65918,0.44238s0.33496,0.40723,0.44238,0.65918s0.16113,0.52051,0.16113,0.80566v4.27148
		C219.36261,225.11624,219.3089,225.38382,219.20148,225.63382z M218.60675,220.5596c0-0.1875-0.03516-0.3623-0.10547-0.52441
		s-0.16699-0.30469-0.29004-0.42773s-0.26563-0.21973-0.42773-0.29004s-0.33691-0.10547-0.52441-0.10547h-1.86914v6.96094h1.86914
		c0.1875,0,0.3623-0.03516,0.52441-0.10547s0.30469-0.16602,0.42773-0.28711s0.21973-0.2627,0.29004-0.4248
		s0.10547-0.33691,0.10547-0.52441V220.5596z"/>
</g>
<rect x="141.24298" y="162.88773" class="st1" width="17.19531" height="28.625"/>
<rect x="159.7171" y="162.88773" class="st1" width="17.19531" height="28.625"/>
<rect x="178.08868" y="162.88773" class="st1" width="17.1958" height="28.625"/>
<rect x="196.26984" y="162.88773" class="st1" width="17.19531" height="28.625"/>
<rect x="214.55499" y="162.88773" class="st1" width="17.19531" height="28.625"/>
<g>
	<path class="st3" d="M148.96478,185.93007v-14.5405l-2.44102,1.78381v-2.60532l2.44102-1.77208h2.46449v17.13408H148.96478z"/>
	<path class="st3" d="M163.03812,185.89487v-2.3002l6.68933-8.36754c0.25819-0.3286,0.42639-0.62981,0.50464-0.90364
		c0.07823-0.27383,0.11736-0.53984,0.11736-0.79802c0-0.59462-0.21124-1.14815-0.63373-1.6606
		c-0.42249-0.51247-0.99753-0.76869-1.72514-0.76869c-0.66502,0-1.23421,0.22102-1.70753,0.66307
		c-0.47334,0.44203-0.7374,1.04643-0.79216,1.81316h-2.45276c0.00783-1.38481,0.48116-2.55251,1.42001-3.5031
		s2.05374-1.42589,3.34467-1.42589c1.42393,0,2.61119,0.4792,3.56178,1.43762s1.42589,2.11438,1.42589,3.4679
		c0,1.15791-0.34033,2.15936-1.02101,3.00433l-5.50403,6.90057h6.52504v2.44102H163.03812z"/>
	<path class="st3" d="M181.78488,185.89487v-2.3002l6.68933-8.36754c0.25819-0.3286,0.42639-0.62981,0.50464-0.90364
		c0.07823-0.27383,0.11736-0.53984,0.11736-0.79802c0-0.59462-0.21124-1.14815-0.63373-1.6606
		c-0.42249-0.51247-0.99753-0.76869-1.72514-0.76869c-0.66502,0-1.23421,0.22102-1.70753,0.66307
		c-0.47334,0.44203-0.7374,1.04643-0.79216,1.81316h-2.45276c0.00783-1.38481,0.48116-2.55251,1.42001-3.5031
		s2.05374-1.42589,3.34467-1.42589c1.42393,0,2.61119,0.4792,3.56178,1.43762s1.42589,2.11438,1.42589,3.4679
		c0,1.15791-0.34033,2.15936-1.02101,3.00433l-5.50403,6.90057h6.52504v2.44102H181.78488z"/>
	<path class="st3" d="M203.7821,185.93007v-14.5405l-2.44102,1.78381v-2.60532l2.44102-1.77208h2.46449v17.13408H203.7821z"/>
	<path class="st3" d="M217.99658,181.11844v-7.54604c0-1.57259,0.4929-2.78722,1.4787-3.64392s2.11243-1.28506,3.37987-1.28506
		c1.25963,0,2.38431,0.42836,3.37401,1.28506c0.98972,0.8567,1.48457,2.07133,1.48457,3.64392v7.54604
		c0,1.57259-0.49486,2.78528-1.48457,3.63806c-0.9897,0.8528-2.11438,1.27919-3.37401,1.27919
		c-1.26744,0-2.39407-0.42639-3.37987-1.27919C218.48949,183.90372,217.99658,182.69102,217.99658,181.11844z M225.26097,180.97762
		v-7.26439c0-0.82149-0.22102-1.46304-0.66307-1.92465c-0.44205-0.46159-1.02296-0.6924-1.74275-0.6924
		c-0.7276,0-1.31047,0.2308-1.74861,0.6924c-0.43813,0.46161-0.6572,1.10316-0.6572,1.92465v7.26439
		c0,0.82932,0.21907,1.47282,0.6572,1.93051c0.43814,0.4577,1.02101,0.68654,1.74861,0.68654
		c0.71979,0,1.3007-0.22884,1.74275-0.68654C225.03995,182.45044,225.26097,181.80693,225.26097,180.97762z"/>
</g>
<path class="st4" d="M256.80304,180.56546c2.85156,1.5293,6.21875,1.73438,9.23633,0.5625
	c2.97949-1.15723,5.29102-3.54004,6.34277-6.53809c3.30176-9.41699,4.97656-19.2959,4.97656-29.36035
	c0-23.93066-9.38477-46.36475-26.42578-63.17041c-17.03711-16.80225-39.59082-25.87207-63.55469-25.53907
	c-23.70898,0.3291-45.90674,9.99317-62.50439,27.21241c-16.61865,17.24121-25.47168,39.81592-24.92871,63.56641
	c0.2334,10.19629,2.18506,20.15918,5.80127,29.61328c1.15967,3.03223,3.57959,5.3916,6.63867,6.4707
	c3.0498,1.07617,6.40625,0.76172,9.20361-0.86621c4.69482-2.73145,6.67285-8.43359,4.71533-13.56445
	c-3.29053-8.62109-4.72998-17.71387-4.27832-27.02539c1.64844-33.98926,29.56494-61.8042,63.55566-63.32324
	c18.40527-0.8291,35.86621,5.71777,49.14648,18.41797c13.28809,12.70703,20.60645,29.82764,20.60645,48.20801
	c0,7.5791-1.26563,15.01953-3.76074,22.11523C249.81573,172.33987,252.06476,178.02347,256.80304,180.56546z"/>
<path class="st5" d="M188.63991,153.58734c-4.61594,0-8.35788-3.74194-8.35788-8.35788s3.74194-8.35788,8.35788-8.35788
	s8.35788,3.74194,8.35788,8.35788S193.25584,153.58734,188.63991,153.58734z"/>
<path class="st6" d="M116.05157,186.01273c-1.45898,0-2.92236-0.24609-4.33203-0.74414
	c-3.61377-1.27539-6.47168-4.06055-7.84131-7.6416c-3.69824-9.66797-5.69385-19.85742-5.93213-30.2832
	c-0.55615-24.28711,8.49609-47.37109,25.48779-64.99951c16.9707-17.60596,39.66992-27.48731,63.91699-27.82422l0,0
	c24.47266-0.31299,47.56543,8.93457,64.98633,26.11524c17.4248,17.18408,27.02148,40.12402,27.02148,64.59424
	c0,10.29102-1.71191,20.3916-5.08984,30.02246c-1.24512,3.5498-3.98047,6.37109-7.50488,7.74023
	c-3.56641,1.38379-7.54199,1.1416-10.90625-0.66504c-5.59961-3.00293-8.25195-9.72949-6.1709-15.64648
	c2.41992-6.88086,3.64746-14.09863,3.64746-21.45117c0-17.8291-7.09863-34.43604-19.98828-46.7627
	c-12.88184-12.31934-29.80664-18.66748-47.67578-17.86523c-32.96973,1.47363-60.04785,28.45313-61.64648,61.42188
	c-0.43848,9.03418,0.95752,17.85449,4.14844,26.21582c2.30908,6.05078-0.03174,12.7793-5.56592,16
	C120.58624,185.41409,118.32501,186.01175,116.05157,186.01273z M187.37823,56.52005
	c-23.70898,0.3291-45.90674,9.99317-62.50439,27.21241c-16.61865,17.24121-25.47168,39.81592-24.92871,63.56641
	c0.2334,10.19629,2.18506,20.15918,5.80127,29.61328c1.15967,3.03223,3.57959,5.3916,6.63867,6.4707
	c3.0498,1.07617,6.40625,0.76172,9.20361-0.86621c4.69482-2.73145,6.67285-8.43359,4.71533-13.56445
	c-3.29053-8.62109-4.72998-17.71387-4.27832-27.02539c1.64844-33.98926,29.56494-61.8042,63.55566-63.32324
	c18.40527-0.8291,35.86621,5.71777,49.14648,18.41797c13.28809,12.70703,20.60645,29.82764,20.60645,48.20801
	c0,7.5791-1.26563,15.01953-3.76074,22.11523c-1.75781,4.99512,0.49121,10.67871,5.22949,13.2207
	c2.85156,1.5293,6.21875,1.73438,9.23633,0.5625c2.97949-1.15723,5.29102-3.54004,6.34277-6.53809
	c3.30176-9.41699,4.97656-19.2959,4.97656-29.36035c0-23.93066-9.38477-46.36475-26.42578-63.17041
	C233.89581,65.25687,211.3421,56.18704,187.37823,56.52005L187.37823,56.52005z"/>
<g>
	<g>
		<g>
			<g>
				<path class="st2" d="M109.013,174.99515l-0.71974-1.86523l14.78419-5.69824l0.71973,1.86523L109.013,174.99515z
					 M122.013,122.8848l-15.04785-4.98389l0.62891-1.89844l15.04785,4.98389L122.013,122.8848z M150.09894,85.87503
					l-8.47021-13.3916l1.69043-1.06934l4.23535,6.69238l-0.82715,0.52344l0.82715-0.52295l4.23486,6.69971L150.09894,85.87503z
					 M189.89972,75.23636l-2-0.02344l0.18359-15.73487l2,0.02344L189.89972,75.23636z"/>
			</g>
		</g>
		<g>
			
				<rect x="110.3812" y="157.64731" transform="matrix(0.97834 -0.20699 0.20699 0.97834 -30.38176 26.92254)" class="st2" width="6.16694" height="2.00035"/>
		</g>
		<g>
			
				<rect x="108.78005" y="144.55602" transform="matrix(0.99935 -0.03614 0.03614 0.99935 -5.1867 4.1373)" class="st2" width="6.16512" height="1.99984"/>
		</g>
		<g>
			
				<rect x="111.49609" y="129.29988" transform="matrix(0.13277 -0.99115 0.99115 0.13277 -33.65157 226.30716)" class="st2" width="2.00014" height="6.16739"/>
		</g>
		<g>
			
				<rect x="119.42437" y="104.24993" transform="matrix(0.46168 -0.88705 0.88705 0.46168 -30.37867 164.59901)" class="st2" width="2.0005" height="6.15742"/>
		</g>
		<g>
			
				<rect x="126.49583" y="93.10686" transform="matrix(0.60663 -0.79498 0.79498 0.60663 -26.3161 139.19453)" class="st2" width="1.99968" height="6.16476"/>
		</g>
		<g>
			
				<rect x="135.35466" y="83.33648" transform="matrix(0.73308 -0.68015 0.68015 0.73308 -22.38357 115.8095)" class="st2" width="1.9998" height="6.17183"/>
		</g>
		<g>
			
				<rect x="154.93153" y="71.054" transform="matrix(0.89921 -0.43751 0.43751 0.89921 -16.71795 75.69373)" class="st2" width="2.00035" height="6.15719"/>
		</g>
		<g>
			
				<rect x="167.246" y="66.31421" transform="matrix(0.96078 -0.2773 0.2773 0.96078 -12.64569 49.37692)" class="st2" width="2.00032" height="6.16461"/>
		</g>
		<g>
			
				<rect x="180.17955" y="63.74165" transform="matrix(0.99396 -0.10973 0.10973 0.99396 -6.23885 20.28405)" class="st2" width="2.00039" height="6.17203"/>
		</g>
	</g>
	<g>
		<g>
			<g>
				<path class="st2" d="M268.26691,174.99515l-14.7832-5.69824l0.71875-1.86523l14.7832,5.69824L268.26691,174.99515z
					 M255.26691,122.8848l-0.62891-1.89844l15.04785-4.98389l0.62891,1.89844L255.26691,122.8848z M227.18097,85.87503
					l-1.69141-1.06836l4.23535-6.69971l0.8457,0.53418l-0.84473-0.53467l4.23535-6.69238l1.68945,1.06934L227.18097,85.87503z"/>
			</g>
		</g>
		<g>
			
				<rect x="262.81506" y="155.5645" transform="matrix(0.20716 -0.97831 0.97831 0.20716 53.95738 383.87445)" class="st2" width="2.00035" height="6.16598"/>
		</g>
		<g>
			
				<rect x="264.4169" y="142.47337" transform="matrix(0.03596 -0.99935 0.99935 0.03596 110.41138 405.56735)" class="st2" width="1.99984" height="6.16512"/>
		</g>
		<g>
			
				<rect x="261.69958" y="131.3835" transform="matrix(0.99114 -0.1328 0.1328 0.99114 -15.23563 36.33673)" class="st2" width="6.16788" height="2.00014"/>
		</g>
		<g>
			
				<rect x="253.77658" y="106.32839" transform="matrix(0.88698 -0.4618 0.4618 0.88698 -20.53567 130.74512)" class="st2" width="6.15742" height="2.0005"/>
		</g>
		<g>
			
				<rect x="246.70142" y="95.1894" transform="matrix(0.79505 -0.60654 0.60654 0.79505 -7.14981 171.21877)" class="st2" width="6.16515" height="1.99968"/>
		</g>
		<g>
			
				<rect x="237.83936" y="85.42213" transform="matrix(0.68 -0.73321 0.73321 0.68 13.72983 204.30388)" class="st2" width="6.1715" height="2.00051"/>
		</g>
		<g>
			
				<rect x="218.26947" y="73.13242" transform="matrix(0.43742 -0.89926 0.89926 0.43742 57.86109 240.75374)" class="st2" width="6.15698" height="2.00035"/>
		</g>
		<g>
			
				<rect x="205.95126" y="68.39635" transform="matrix(0.2773 -0.96078 0.96078 0.2773 84.39363 250.98888)" class="st2" width="6.16448" height="2.00032"/>
		</g>
		<g>
			
				<rect x="193.01442" y="65.82747" transform="matrix(0.10984 -0.99395 0.99395 0.10984 108.13703 254.40099)" class="st2" width="6.17198" height="2.00039"/>
		</g>
	</g>
</g>
<g>
	<path class="st5" d="M177.4256,159.12796c-0.63965,0-1.27979-0.24414-1.76758-0.73242c-0.97656-0.97656-0.97656-2.55957,0-3.53516
		l9.79639-9.7959c0.97559-0.97656,2.55957-0.97656,3.53516,0c0.97656,0.97607,0.97656,2.55957,0,3.53516l-9.79639,9.7959
		C178.70538,158.88382,178.06525,159.12796,177.4256,159.12796z"/>
</g>
<g>
	<path class="st1" d="M190.41534,146.13821c-0.63965,0-1.27979-0.24414-1.76758-0.73242c-0.97656-0.97607-0.97656-2.55908,0-3.53516
		l48.78906-48.78906c0.97656-0.97656,2.55859-0.97656,3.53516,0c0.97656,0.97607,0.97656,2.55908,0,3.53516l-48.78906,48.78906
		C191.69513,145.89407,191.05499,146.13821,190.41534,146.13821z"/>
</g>
<path class="st7" d="M188.63991,149.99988c-2.63463,0-4.77042-2.13579-4.77042-4.77042s2.13579-4.77042,4.77042-4.77042
	s4.77042,2.13579,4.77042,4.77042S191.27454,149.99988,188.63991,149.99988z"/>
<g>
	<path class="st7" d="M190.41534,146.13821c-0.63965,0-1.27979-0.24414-1.76758-0.73242c-0.97656-0.97607-0.97656-2.55908,0-3.53516
		l48.78906-48.78906c0.97656-0.97656,2.55859-0.97656,3.53516,0c0.97656,0.97607,0.97656,2.55908,0,3.53516l-48.78906,48.78906
		C191.69513,145.89407,191.05499,146.13821,190.41534,146.13821z"/>
</g>
<g class="st8">
	<path class="st9" d="M188.43172,25.89358c32.87274,0,62.63934,13.29333,84.22215,34.79541l-168.76268,168.7627
		c-21.50208-21.58289-34.79541-51.34949-34.79541-84.22217C69.09578,79.32217,122.52431,25.89358,188.43172,25.89358z"/>
</g>
<path class="st10" d="M199.27985,25.89358c-1.78339,0-3.55566,0.04663-5.31995,0.12408
	c63.43787,2.784,114.01593,55.08789,114.01593,119.21185S257.39777,261.65738,193.9599,264.44138
	c1.76428,0.07745,3.53656,0.12408,5.31995,0.12408c65.90741,0,119.33594-53.42859,119.33594-119.33594
	S265.18726,25.89358,199.27985,25.89358z"/>
<path class="st10" d="M199.27985,25.89358c-1.78339,0-3.55566,0.04663-5.31995,0.12408
	c63.43787,2.784,114.01593,55.08789,114.01593,119.21185S257.39777,261.65738,193.9599,264.44138
	c1.76428,0.07745,3.53656,0.12408,5.31995,0.12408c65.90741,0,119.33594-53.42859,119.33594-119.33594
	S265.18726,25.89358,199.27985,25.89358z"/>
<path class="st0" d="M27.78193,245.52223v-0.00008c0-14.10269-9.37265-26.01079-22.2267-29.85069h54.92844
	c8.46262,0,15.323,6.86038,15.323,15.32307v0.00008c0,6.26396-3.7634,11.64169-9.14829,14.01759h66.61974
	c8.46278,0,15.32317,6.86046,15.32317,15.32315c0,8.46277-6.86038,15.32315-15.32317,15.32315H4.5495
	C17.91835,272.15277,27.78193,259.99078,27.78193,245.52223z"/>
</svg>
