<?xml version="1.0" encoding="utf-8"?>
<!-- Generator: Adobe Illustrator 19.2.1, SVG Export Plug-In . SVG Version: 6.00 Build 0)  -->
<svg version="1.1" id="Layer_1" xmlns="http://www.w3.org/2000/svg" xmlns:xlink="http://www.w3.org/1999/xlink" x="0px" y="0px"
	 viewBox="0 0 170 150" style="enable-background:new 0 0 170 150;" xml:space="preserve">
<style type="text/css">
	.st0{fill:#FF775D;}
	.st1{fill:#FF5535;}
	.st2{fill:#F6BD8D;}
	.st3{fill:#F6936A;}
	.st4{opacity:0.2;}
	.st5{fill:#FFFFFF;}
</style>
<path class="st0" d="M101.81398,92.65728c0-2.11098,1.71055-3.82153,3.82149-3.82153c1.9357,0,3.5178,1.44344,3.76998,3.30987
	V61.19728h17.93049L80.55981,10.1862L33.78393,61.19728h17.93049v70.38568c0,2.0126,1.63126,3.64349,3.64349,3.64349
	s3.6435-1.63089,3.6435-3.64349l0.00037-50.38547c0-2.0126,1.63126-3.64349,3.64349-3.64349s3.64349,1.63089,3.64349,3.64349
	v45.52722c0,0.00384-0.00112,0.0073-0.00112,0.01113v4.84711c0,2.0126,1.63126,3.64349,3.64349,3.64349
	s3.6435-1.63089,3.6435-3.64349v-26.9801c0-1.92896,1.56348-3.49212,3.49212-3.49212c1.92863,0,3.49212,1.56316,3.49212,3.49212
	l0.00103,39.39407c0,1.84518,1.49556,3.34042,3.34042,3.34042c1.84518,0,3.34042-1.49524,3.34042-3.34042v-12.41397V86.05573
	c0-2.0126,1.63089-3.64349,3.64349-3.64349s3.64349,1.63089,3.64349,3.64349v40.67642
	c0.00412,2.00915,1.63267,3.63605,3.64275,3.63605c2.0126,0,3.6435-1.63089,3.6435-3.64349V92.65728z"/>
<path class="st1" d="M109.46514,118.74484c0,1.91203,1.54935,3.46143,3.46138,3.46143c1.91203,0,3.46143-1.54941,3.46143-3.46143
	l0.00043-57.54756h-6.98293L109.46514,118.74484z"/>
<polygon class="st1" points="87.54275,10.1862 80.55981,10.1862 127.33594,61.19728 134.31886,61.19728 "/>
<g>
	<circle class="st2" cx="116.18734" cy="22.65273" r="19.90132"/>
</g>
<path class="st3" d="M116.18732,5.95268c-9.22316,0-16.70003,7.47687-16.70003,16.70002
	c0,9.22321,7.47687,16.70007,16.70003,16.70007c9.22321,0,16.70007-7.47686,16.70007-16.70007
	C132.88739,13.42955,125.41053,5.95268,116.18732,5.95268z M123.96909,25.83627h-4.59853v4.59815h-6.36639v-4.59815h-4.59853
	v-6.36713h4.59853v-4.59816h6.36639v4.59816h4.59853V25.83627z"/>
<g class="st4">
	<path class="st5" d="M96.15858,22.65271c0,1.80514,0.24278,3.55284,0.6905,5.21652l18.14137-25.20658
		C104.48658,3.28218,96.15858,11.9933,96.15858,22.65271z"/>
	<path class="st5" d="M132.56935,11.13646L110.4662,41.84767c1.65597,0.49286,3.40147,0.77512,5.20651,0.82078l19.33881-26.87036
		C134.40331,14.12823,133.57552,12.56512,132.56935,11.13646z"/>
	<path class="st5" d="M136.21606,22.65271c0-1.2023-0.11194-2.37776-0.31496-3.52173l-16.79545,23.33646
		C128.7836,41.05421,136.21606,32.7227,136.21606,22.65271z"/>
</g>
</svg>
