<?xml version="1.0" encoding="utf-8"?>
<!-- Generator: Adobe Illustrator 19.2.1, SVG Export Plug-In . SVG Version: 6.00 Build 0)  -->
<svg version="1.1" id="Layer_1" xmlns="http://www.w3.org/2000/svg" xmlns:xlink="http://www.w3.org/1999/xlink" x="0px" y="0px"
	 viewBox="0 0 190 125" style="enable-background:new 0 0 190 125;" xml:space="preserve">
<style type="text/css">
	.st0{fill:#FF5535;}
	.st1{fill:#F6BD8D;}
	.st2{fill:#2C3441;}
	.st3{fill:#FFFFFF;}
	.st4{opacity:0.5;}
	.st5{opacity:0.2;}
</style>
<rect x="8.30207" y="6.08003" class="st0" width="173.39586" height="112.83994"/>
<rect x="14.21215" y="12.27659" class="st1" width="161.5757" height="100.44683"/>
<rect x="96.71793" y="15.99983" class="st2" width="75.71817" height="93.14559"/>
<polygon class="st2" points="93.28206,109.00018 17.56389,109.14542 17.56389,15.99983 93.28206,15.99983 "/>
<rect x="16.14709" y="54.40487" class="st1" width="3.76138" height="16.19028"/>
<rect x="170.5554" y="54.40487" class="st1" width="3.76138" height="16.19028"/>
<g>
	<path class="st3" d="M57.48551,82.61504H41.53958v-7.54128l11.54669-40.06174h8.48418l-12.0191,40.06174h7.93415V59.1288h8.01273
		v15.94497h3.84922v7.54128h-3.84922v8.32703h-8.01273V82.61504z"/>
</g>
<g>
	<path class="st3" d="M137.1337,42.55331h-8.79848v6.44123h-7.06983V35.01203h23.88009v8.01273l-13.58965,47.91732h-8.48322
		L137.1337,42.55331z"/>
</g>
<g class="st4">
	<g>
		<rect x="19.90846" y="60.8172" class="st2" width="73.3737" height="3.92492"/>
	</g>
</g>
<g class="st4">
	<g>
		<rect x="96.71838" y="60.8172" class="st2" width="73.37273" height="3.92492"/>
	</g>
</g>
<g class="st5">
	<polygon class="st3" points="181.69794,6.08003 40.29795,6.08003 153.13797,118.91992 181.69794,118.91992 	"/>
</g>
</svg>
