<?xml version="1.0" encoding="utf-8"?>
<!-- Generator: Adobe Illustrator 19.2.1, SVG Export Plug-In . SVG Version: 6.00 Build 0)  -->
<svg version="1.1" id="Layer_1" xmlns="http://www.w3.org/2000/svg" xmlns:xlink="http://www.w3.org/1999/xlink" x="0px" y="0px"
	 viewBox="0 0 190 125" style="enable-background:new 0 0 190 125;" xml:space="preserve">
<style type="text/css">
	.st0{fill:#F6E6CC;}
	.st1{fill:#2C3441;}
	.st2{opacity:0.2;fill:#FFFFFF;}
	.st3{opacity:0.5;}
	.st4{fill:#FF9986;}
	.st5{fill:#FF5535;}
	.st6{fill:#F6BD8D;}
</style>
<path class="st0" d="M95.00085,18.80902c-26.48901,0-48.03821,21.55005-48.03821,48.03729s21.54919,48.03638,48.03821,48.03638
	c26.48724,0,48.03644-21.54913,48.03644-48.03638S121.4881,18.80902,95.00085,18.80902z"/>
<path class="st1" d="M100.1723,9.45172V4.52991h3.93433V1.24109H85.758v3.28882h3.93445v5.03876
	C60.91748,12.56195,38.4071,36.95386,38.4071,66.50757c0,31.56836,25.68298,57.25134,57.25134,57.25134
	s57.25128-25.68298,57.25128-57.25134C152.90973,36.4599,129.63654,11.76306,100.1723,9.45172z M130.23206,99.45447
	l-5.91443-5.91443l-2.62305,2.62299l5.91449,5.91449c-8.14813,7.547-18.90637,12.30536-30.75323,12.75812v-8.38525h-3.7099v8.38525
	c-11.84778-0.4527-22.60657-5.21112-30.75494-12.75824l5.91437-5.91437l-2.62305-2.62299l-5.91437,5.91437
	c-7.93988-8.57208-12.8053-20.03033-12.8053-32.60809c0-12.57813,4.86566-24.03687,12.80597-32.60925l5.9137,5.9137l2.62305-2.62299
	l-5.9137-5.9137c8.14832-7.547,18.90686-12.3053,30.75427-12.758v8.38348h3.7099v-8.38348
	c11.84656,0.45276,22.60449,5.211,30.75256,12.75787l-5.91382,5.91382l2.62305,2.62299l5.91376-5.91376
	c7.94012,8.57239,12.80591,20.03119,12.80591,32.60931C143.03729,79.42413,138.17181,90.88239,130.23206,99.45447z"/>
<path class="st2" d="M169.69215,60.02328c-1.85901-0.72139-3.82602-1.08221-5.82004-1.08221h-11.25417
	c-3.5239-26.65762-25.37686-47.60169-52.44563-49.71666V4.52994h3.93429V1.24109H85.758v3.28884h3.93442v4.81491
	C76.2244,10.74046,64.12209,16.80367,55.0383,25.88732l81.2408,81.24079c8.31599-8.31573,14.09076-19.16469,16.08047-31.27145
	h11.36775c2.08455,0,4.1431-0.39404,6.07297-1.18237c4.26747-1.74325,11.55336-5.03564,11.85384-7.27536
	c0.00633-0.04729,0.02827-0.09699,0.02827-0.14339C181.6824,64.99629,174.03239,61.70745,169.69215,60.02328z"/>
<g>
	<path class="st0" d="M160.69905,66.50759h-2.78241c0-23.54721-13.04436-44.81742-34.04284-55.51231l1.2644-2.47989
		C147.07321,19.6885,160.69905,41.90973,160.69905,66.50759z"/>
</g>
<g>
	<path class="st0" d="M168.53906,66.50759h-2.78241c0-12.66756-3.41461-25.07972-9.87428-35.89415l2.3875-1.42743
		C164.98859,40.43157,168.53906,53.33825,168.53906,66.50759z"/>
</g>
<g>
	<path class="st0" d="M95.65866,18.74171v41.61077l19.49415-36.97342C113.42965,21.6559,102.81036,18.74171,95.65866,18.74171z"/>
</g>
<g class="st3">
	<path class="st0" d="M95.00088,94.36066c-15.17282,0-27.51614-12.34331-27.51614-27.51432h2.78241
		c0,13.6367,11.09521,24.73192,24.73373,24.73192V94.36066z"/>
</g>
<path class="st4" d="M181.6824,67.25558c0-2.2592-7.65004-5.54805-11.99023-7.2323c-1.85896-0.72138-3.826-1.08214-5.82005-1.08214
	h-34.69608c-2.18123,0-4.33978,0.44098-6.34601,1.29661l-6.91634,2.94965c-2.00623,0.85563-4.16478,1.29661-6.34587,1.29661
	h-7.39819v2.91493h79.48449C181.66042,67.35162,181.6824,67.30192,181.6824,67.25558z"/>
<path class="st5" d="M102.16962,67.39893v2.91479h7.39819c2.18109,0,4.33964,0.44112,6.34587,1.29675l6.91634,2.9495
	c2.00623,0.85564,4.16478,1.29675,6.34601,1.29675h34.55132c2.08449,0,4.14308-0.39408,6.07288-1.18238
	c4.26755-1.74332,11.55347-5.03568,11.85388-7.27541H102.16962z"/>
<g class="st3">
	<path class="st0" d="M95.00088,103.5158c-20.22137,0-36.67127-16.44991-36.67127-36.66946h2.78241
		c0,18.68525,15.20181,33.88705,33.88886,33.88705V103.5158z"/>
</g>
<path class="st4" d="M8.3176,67.54228c0,2.2592,7.65004,5.54805,11.99023,7.2323c1.85896,0.72138,3.826,1.08215,5.82006,1.08215
	h34.69607c2.18122,0,4.33977-0.44098,6.346-1.29661l6.91634-2.94965c2.00623-0.85564,4.16478-1.29662,6.34587-1.29662h7.39819
	v-2.91492H8.34588C8.33958,67.44625,8.3176,67.49594,8.3176,67.54228z"/>
<path class="st5" d="M87.83038,67.39893v-2.91479h-7.39819c-2.18109,0-4.33964-0.44112-6.34587-1.29675l-6.91634-2.9495
	c-2.00623-0.85564-4.16478-1.29675-6.346-1.29675H26.27264c-2.08449,0-4.14308,0.39408-6.07288,1.18238
	c-4.26754,1.74333-11.55346,5.03568-11.85388,7.27542H87.83038z"/>
<circle class="st5" cx="95.00041" cy="66.84586" r="4.63826"/>
<path class="st6" d="M95.00088,75.19356c-4.60293,0-8.34904-3.74429-8.34904-8.34722s3.74611-8.34904,8.34904-8.34904
	s8.34723,3.74611,8.34723,8.34904S99.60381,75.19356,95.00088,75.19356z M95.00088,62.20718
	c-2.55779,0-4.63916,2.08138-4.63916,4.63916s2.08138,4.63734,4.63916,4.63734s4.63734-2.07956,4.63734-4.63734
	S97.55866,62.20718,95.00088,62.20718z"/>
</svg>
