<?xml version="1.0" encoding="utf-8"?>
<!-- Generator: Adobe Illustrator 19.2.1, SVG Export Plug-In . SVG Version: 6.00 Build 0)  -->
<svg version="1.1" id="Layer_1" xmlns="http://www.w3.org/2000/svg" xmlns:xlink="http://www.w3.org/1999/xlink" x="0px" y="0px"
	 viewBox="0 0 190 125" style="enable-background:new 0 0 190 125;" xml:space="preserve">
<style type="text/css">
	.st0{fill:#FF5535;}
	.st1{fill:#F6BD8D;}
	.st2{fill:#F6E6CC;}
	.st3{fill:#2C3441;}
	.st4{opacity:0.2;}
	.st5{fill:#FFFFFF;}
</style>
<circle class="st0" cx="95.00018" cy="62.50065" r="51.73739"/>
<path class="st1" d="M95.00018,17.96344c-24.59723,0-44.53723,19.93994-44.53723,44.53717s19.94,44.53723,44.53723,44.53723
	s44.53717-19.94,44.53717-44.53723S119.59741,17.96344,95.00018,17.96344z M113.0849,72.94183
	c-5.76654,9.98798-18.53802,13.4101-28.52594,7.64355s-13.41003-18.53809-7.64355-28.526
	c5.76654-9.98792,18.53809-13.41003,28.526-7.64349S118.85144,62.95392,113.0849,72.94183z"/>
<path class="st2" d="M95.00018,47.7345c-8.15509,0-14.76611,6.61102-14.76611,14.76611
	c0,8.15515,6.61102,14.76617,14.76611,14.76617s14.76611-6.61102,14.76611-14.76617
	C109.7663,54.34552,103.15527,47.7345,95.00018,47.7345z M95.00018,71.50848c-4.97491,0-9.00787-4.03296-9.00787-9.00787
	s4.03296-9.00787,9.00787-9.00787s9.00787,4.03296,9.00787,9.00787S99.9751,71.50848,95.00018,71.50848z"/>
<path class="st3" d="M95,1.03973c-33.89069,0-61.46118,27.57141-61.46118,61.46027c0,33.89069,27.5705,61.46112,61.46118,61.46112
	S156.46118,96.39069,156.46118,62.5C156.46118,28.61115,128.89069,1.03973,95,1.03973z M96.85492,114.19116V97.36163h-3.70984
	v16.82947c-27.09631-0.95679-48.87915-22.73975-49.83545-49.83618H60.1402v-3.7099H43.30969
	c0.95703-27.09583,22.7395-48.87805,49.83539-49.83484V27.6402h3.70984V10.81012
	c27.09601,0.95654,48.87866,22.73895,49.83569,49.8349H129.8598v3.7099h16.83087
	C145.73438,91.45148,123.95135,113.23462,96.85492,114.19116z"/>
<g>
	<path class="st2" d="M98.28419,93.61008l-0.29346-2.76791c2.97442-0.31519,5.87095-1.09232,8.60989-2.30962l1.13035,2.5433
		C104.72575,92.41089,101.54844,93.26409,98.28419,93.61008z M88.51134,93.10831c-3.19904-0.67749-6.27129-1.85675-9.13159-3.507
		l1.38758-2.40925c2.60851,1.5017,5.40903,2.57771,8.32005,3.19542L88.51134,93.10831z M115.94233,85.75195l-1.86581-2.06506
		c2.21542-1.99986,4.10116-4.33302,5.60467-6.9361l2.42918,1.35497C120.44201,80.99686,118.37331,83.55827,115.94233,85.75195z
		 M71.76435,83.45501c-2.1973-2.4346-3.99246-5.19527-5.33295-8.20592l2.5433-1.13036
		c1.22092,2.74075,2.85306,5.25506,4.85472,7.4741L71.76435,83.45501z M125.6246,68.92345l-2.72444-0.57243
		c0.40215-1.90747,0.60503-3.86566,0.60503-5.82204c0-1.02891-0.05616-2.06326-0.16666-3.07768l2.76791-0.3007
		c0.11956,1.11405,0.18115,2.24984,0.18115,3.37838C126.28761,64.67738,126.06479,66.82758,125.6246,68.92345z M63.88811,65.80411
		c-0.11775-1.11767-0.17752-2.23897-0.17571-3.33309c0-2.15745,0.22643-4.32396,0.67386-6.43794l2.72082,0.57605
		c-0.40577,1.92377-0.61227,3.89646-0.61227,5.86371c-0.00181,0.99812,0.05254,2.01978,0.16122,3.03782L63.88811,65.80411z
		 M121.01081,50.84866c-1.22636-2.74074-2.86393-5.25324-4.86741-7.46866l2.06145-1.86581
		c2.20274,2.43098,3.99971,5.18985,5.34563,8.19688L121.01081,50.84866z M70.31881,48.25103L67.8842,46.9033l0.02174-0.03804
		c1.64662-2.85125,3.70625-5.40179,6.12093-7.5846l1.86581,2.06507C73.69175,43.3329,71.81689,45.65701,70.31881,48.25103z
		 M109.19644,37.79163c-2.6067-1.49989-5.40903-2.57137-8.32368-3.18546l0.57243-2.72263
		c3.20267,0.67477,6.27672,1.85041,9.13883,3.49522L109.19644,37.79163z M83.36134,36.48376l-1.13397-2.54148
		c2.99978-1.33867,6.17709-2.19549,9.44497-2.54782l0.29708,2.76611C88.99137,34.48209,86.09484,35.26374,83.36134,36.48376z"/>
</g>
<g class="st4">
	<path class="st5" d="M156.46115,62.5c0-33.89068-27.57138-61.46115-61.46115-61.46115
		c-16.94511,0-32.31051,6.89285-43.43958,18.02203l86.87871,86.87871C149.56819,94.81062,156.46115,79.44534,156.46115,62.5z"/>
</g>
</svg>
