<?xml version="1.0" encoding="utf-8"?>
<!-- Generator: Adobe Illustrator 19.2.1, SVG Export Plug-In . SVG Version: 6.00 Build 0)  -->
<svg version="1.1" id="Layer_1" xmlns="http://www.w3.org/2000/svg" xmlns:xlink="http://www.w3.org/1999/xlink" x="0px" y="0px"
	 viewBox="0 0 430 430" style="enable-background:new 0 0 430 430;" xml:space="preserve">
<style type="text/css">
	.st0{fill:#2C3441;}
	.st1{fill:#0A121F;}
	.st2{fill:#1E2633;}
	.st3{opacity:0.2;fill:#FFFFFF;enable-background:new    ;}
	.st4{clip-path:url(#SVGID_2_);}
	.st5{fill:none;}
	.st6{fill:#FFFFFF;}
	.st7{fill:#DADADA;}
	.st8{fill:#F2F2F2;}
	.st9{fill:#428DC0;}
	.st10{fill:#969696;}
	.st11{fill:#B0DDFF;}
</style>
<path class="st0" d="M386.272,430H43.72799V58.65421c0-9.58959,7.7739-17.36348,17.36348-17.36348h307.81708
	c9.58957,0,17.36346,7.7739,17.36346,17.36348V430z"/>
<g>
	<rect x="176.75195" y="68.44775" class="st1" width="76.49609" height="6"/>
</g>
<circle class="st1" cx="215" cy="54.61424" r="4.5"/>
<circle class="st1" cx="164.80223" cy="71.44758" r="6.40922"/>
<circle class="st2" cx="164.80223" cy="71.44758" r="4.532"/>
<path class="st1" d="M166.88548,71.75239c-1.10645,0-2.00342-0.89703-2.00342-2.00348c0-0.40417,0.12195-0.77887,0.32776-1.09363
	c-0.13416-0.01953-0.26794-0.04108-0.40759-0.04108c-1.56482,0-2.83325,1.26855-2.83325,2.83337s1.26843,2.83331,2.83325,2.83331
	c1.50952,0,2.73157-1.18359,2.81702-2.67163C167.39159,71.69917,167.14525,71.75239,166.88548,71.75239z"/>
<path class="st3" d="M160.27023,66.91557c2.50296-2.50295,6.56105-2.50295,9.06401,0c2.50294,2.50296,2.50294,6.56105,0,9.06401"/>
<circle class="st2" cx="215" cy="54.61424" r="2.97687"/>
<path class="st1" d="M216.36839,54.81446c-0.72678,0-1.31595-0.58922-1.31595-1.31599c0-0.26548,0.08009-0.5116,0.21529-0.71835
	c-0.08812-0.01283-0.17599-0.02698-0.26773-0.02698c-1.02786,0-1.86104,0.83326-1.86104,1.86111
	c0,1.02786,0.83318,1.86108,1.86104,1.86108c0.99153,0,1.79424-0.77745,1.85037-1.75487
	C216.70084,54.7795,216.53902,54.81446,216.36839,54.81446z"/>
<path class="st3" d="M211.81802,51.43226c1.75735-1.75736,4.6066-1.75736,6.36395,0c1.75737,1.75736,1.75737,4.6066,0,6.36396"/>
<g>
	<polygon class="st3" points="294.073,41.29072 253.24803,41.29072 386.27197,174.31464 386.27197,133.48969 	"/>
</g>
<g>
	<polygon class="st3" points="237.21338,41.29072 171.21146,41.29072 386.27197,256.35123 386.27197,190.3493 	"/>
</g>
<g>
	<g>
		<defs>
			<rect id="SVGID_1_" x="82.74034" y="84.93441" width="265.36731" height="345.03995"/>
		</defs>
		<clipPath id="SVGID_2_">
			<use xlink:href="#SVGID_1_"  style="overflow:visible;"/>
		</clipPath>
		<g class="st4">
			
				<image style="overflow:visible;enable-background:new    ;" width="753" height="1334" xlink:href="8905EAC.jpg"  transform="matrix(0.35348 0 0 0.35348 82.33766 85.16125)">
			</image>
		</g>
	</g>
</g>
<path class="st5" d="M347.27396,430H82.72604V102.9081c0-9.58958,7.7739-17.36348,17.36349-17.36348h229.82092
	c9.5896,0,17.36349,7.7739,17.36349,17.36348V430z"/>
<rect x="82.70825" y="86.93441" class="st6" width="264.5657" height="15.97369"/>
<rect x="85.03045" y="134.29175" class="st6" width="262.2435" height="295.68262"/>
<rect x="123.10387" y="148.66852" class="st0" width="82.30383" height="11.8004"/>
<rect x="123.10387" y="110.41192" class="st0" width="52.91759" height="13.802"/>
<rect x="211.73347" y="148.66852" class="st7" width="33.49489" height="11.8004"/>
<rect x="189.38879" y="211.98299" class="st8" width="21.95993" height="11.8004"/>
<rect x="123.10387" y="165.93729" class="st7" width="195.32552" height="11.8004"/>
<rect x="123.10387" y="183.20605" class="st7" width="195.32552" height="11.8004"/>
<rect x="123.10387" y="296.44736" class="st0" width="82.30383" height="11.80038"/>
<rect x="211.73347" y="296.44736" class="st7" width="33.49489" height="11.80038"/>
<rect x="123.10387" y="313.71613" class="st7" width="195.32552" height="11.80042"/>
<path class="st7" d="M113.06402,174.2254H95.34145c-2.4161,0-4.37473-1.95863-4.37473-4.37474v-17.72255
	c0-2.41611,1.95863-4.37474,4.37473-4.37474h17.72256c2.4161,0,4.37473,1.95863,4.37473,4.37474v17.72255
	C117.43875,172.26677,115.48012,174.2254,113.06402,174.2254z"/>
<path class="st7" d="M113.06402,322.67377H95.34145c-2.4161,0-4.37473-1.95865-4.37473-4.37476v-17.72256
	c0-2.41608,1.95863-4.37473,4.37473-4.37473h17.72256c2.4161,0,4.37473,1.95865,4.37473,4.37473v17.72256
	C117.43875,320.71512,115.48012,322.67377,113.06402,322.67377z"/>
<g>
	<path d="M125.16943,213.80371h1.88379v6.98047h4.17285v1.58301h-6.05664V213.80371z"/>
	<path d="M133.50928,219.68066c0.04785,1.0791,0.57617,1.57129,1.52344,1.57129c0.68359,0,1.23535-0.41992,1.34277-0.80371h1.49902
		c-0.47949,1.46289-1.49902,2.08691-2.90234,2.08691c-1.9541,0-3.16602-1.34375-3.16602-3.2627
		c0-1.8584,1.2832-3.27344,3.16602-3.27344c2.11133,0,3.13086,1.77441,3.01074,3.68164H133.50928z M136.27979,218.60156
		c-0.15625-0.86426-0.52734-1.31934-1.35547-1.31934c-1.0791,0-1.39063,0.83887-1.41504,1.31934H136.27979z"/>
	<path d="M138.92236,218.07324c0.0957-1.59473,1.52246-2.07422,2.91406-2.07422c1.23535,0,2.72266,0.27539,2.72266,1.7627v3.22656
		c0,0.56348,0.05957,1.12695,0.21582,1.37891h-1.72754c-0.05957-0.19141-0.10742-0.39551-0.12012-0.59961
		c-0.53906,0.56348-1.33105,0.76758-2.08691,0.76758c-1.1748,0-2.11035-0.58789-2.11035-1.85938
		c0-1.40332,1.05566-1.73828,2.11035-1.88281c1.04395-0.15527,2.01563-0.12012,2.01563-0.81543
		c0-0.73145-0.50391-0.83984-1.10352-0.83984c-0.64746,0-1.06738,0.26465-1.12793,0.93555H138.92236z M142.85596,219.33301
		c-0.28809,0.25195-0.8877,0.26367-1.41504,0.35938c-0.52832,0.1084-1.00781,0.28809-1.00781,0.91211
		c0,0.63574,0.49121,0.79102,1.04297,0.79102c1.33203,0,1.37988-1.05566,1.37988-1.42676V219.33301z"/>
	<path d="M150.30713,221.5752h-0.02441c-0.39551,0.67188-1.09082,0.95996-1.88281,0.95996
		c-1.87109,0-2.78223-1.60742-2.78223-3.32227c0-1.66699,0.92383-3.21387,2.74609-3.21387
		c0.73242,0,1.45117,0.31152,1.83496,0.92285h0.02441v-3.11816h1.70313v8.56348h-1.61914V221.5752z M148.81982,217.28223
		c-1.11523,0-1.49902,0.95898-1.49902,1.97852c0,0.97168,0.44336,1.99121,1.49902,1.99121c1.12793,0,1.46289-0.9834,1.46289-2.00293
		C150.28271,218.24121,149.92334,217.28223,148.81982,217.28223z"/>
	<path d="M158.01221,219.52441c0,1.13965,0.8877,1.58301,1.89551,1.58301c0.65918,0,1.66699-0.19141,1.66699-1.06738
		c0-0.92285-1.2832-1.0791-2.54297-1.41504c-1.27051-0.33594-2.55469-0.82715-2.55469-2.43457
		c0-1.75098,1.65527-2.59082,3.20313-2.59082c1.78711,0,3.42969,0.78027,3.42969,2.75879h-1.82324
		c-0.05957-1.03125-0.79102-1.29492-1.69043-1.29492c-0.59961,0-1.2959,0.25195-1.2959,0.97168
		c0,0.65918,0.4082,0.74316,2.55469,1.29492c0.62402,0.15625,2.54297,0.55176,2.54297,2.49414
		c0,1.57129-1.23535,2.74707-3.5625,2.74707c-1.89453,0-3.66992-0.93555-3.64551-3.04688H158.01221z"/>
	<path d="M171.42529,222.36719h-1.75098l-1.10352-4.16211h-0.02344l-1.05566,4.16211h-1.7627l-1.9668-6.2002h1.79883
		l1.13965,4.20898h0.02344l1.03125-4.20898h1.65527l1.05566,4.19727h0.02344l1.13965-4.19727h1.75098L171.42529,222.36719z"/>
	<path d="M175.85596,215.20703h-1.70313v-1.40332h1.70313V215.20703z M174.15283,216.16699h1.70313v6.2002h-1.70313V216.16699z"/>
	<path d="M177.57275,217.30566h-1.01953v-1.13867h1.01953v-0.48047c0-1.09082,0.68359-1.88281,2.0752-1.88281
		c0.2998,0,0.61133,0.03613,0.89941,0.04785v1.27148c-0.2041-0.02344-0.4082-0.03613-0.62402-0.03613
		c-0.45605,0-0.64746,0.19238-0.64746,0.70801v0.37207h1.1748v1.13867h-1.1748v5.06152h-1.70313V217.30566z"/>
	<path d="M183.35596,216.16699h1.24707v1.13867h-1.24707v3.07031c0,0.57617,0.14355,0.71973,0.71973,0.71973
		c0.17969,0,0.34766-0.01172,0.52734-0.04785v1.33105c-0.28809,0.04785-0.65918,0.06055-0.99512,0.06055
		c-1.04395,0-1.95508-0.24023-1.95508-1.47559v-3.6582h-1.03125v-1.13867h1.03125v-1.85938h1.70313V216.16699z"/>
</g>
<g>
	<path d="M125.27783,229.46191h1.13965v7.60449h4.5332v0.95898h-5.67285V229.46191z"/>
	<path d="M137.0708,236.05859c-0.27539,1.36719-1.25977,2.11035-2.65039,2.11035c-1.97949,0-2.91406-1.36719-2.97461-3.26172
		c0-1.85938,1.22363-3.22656,2.91406-3.22656c2.19531,0,2.86719,2.05078,2.80664,3.5498h-4.6416
		c-0.03516,1.08008,0.57617,2.03906,1.93164,2.03906c0.83887,0,1.42676-0.40723,1.60645-1.21094H137.0708z M136.0874,234.33105
		c-0.04785-0.9707-0.7793-1.75098-1.78711-1.75098c-1.06738,0-1.70313,0.80371-1.77539,1.75098H136.0874z"/>
	<path d="M143.71924,238.00098c-0.17969,0.1084-0.4082,0.16797-0.73145,0.16797c-0.52832,0-0.86426-0.28711-0.86426-0.95898
		c-0.56348,0.65918-1.31934,0.95898-2.18262,0.95898c-1.12695,0-2.05078-0.50293-2.05078-1.73828
		c0-1.40332,1.04395-1.70313,2.09863-1.90723c1.12793-0.21582,2.08691-0.14453,2.08691-0.91211
		c0-0.88672-0.73145-1.03125-1.37891-1.03125c-0.86328,0-1.49902,0.26367-1.54688,1.17578h-1.01953
		c0.05957-1.53516,1.24707-2.0752,2.62598-2.0752c1.11523,0,2.32715,0.25195,2.32715,1.70313v3.19043
		c0,0.47949,0,0.69531,0.32324,0.69531c0.08398,0,0.18066-0.01172,0.3125-0.05957V238.00098z M142.06396,234.82324
		c-0.39551,0.28809-1.16309,0.2998-1.84668,0.41992c-0.67188,0.12012-1.24805,0.35938-1.24805,1.11523
		c0,0.67188,0.57617,0.91113,1.2002,0.91113c1.34277,0,1.89453-0.83887,1.89453-1.40332V234.82324z"/>
	<path d="M150.21045,238.02539h-1.01953v-0.83984h-0.02441c-0.33496,0.68359-1.12695,0.9834-1.97852,0.9834
		c-1.90723,0-2.85449-1.51074-2.85449-3.26172s0.93555-3.22656,2.83105-3.22656c0.63477,0,1.54688,0.24023,2.00195,0.97168h0.02441
		v-3.19043h1.01953V238.02539z M147.33154,237.26953c1.36816,0,1.89551-1.1748,1.89551-2.33887
		c0-1.22266-0.55176-2.35059-1.95508-2.35059c-1.3916,0-1.85938,1.1875-1.85938,2.39941
		C145.4126,236.14258,146.01221,237.26953,147.33154,237.26953z"/>
	<path d="M155.27783,229.46191h1.21094l4.50977,6.94434h0.02344v-6.94434h1.08008v8.56348H160.854l-4.47266-6.87207h-0.02441
		v6.87207h-1.0791V229.46191z"/>
	<path d="M169.27881,238.00098c-0.17969,0.1084-0.4082,0.16797-0.73145,0.16797c-0.52832,0-0.86426-0.28711-0.86426-0.95898
		c-0.56348,0.65918-1.31934,0.95898-2.18262,0.95898c-1.12695,0-2.05078-0.50293-2.05078-1.73828
		c0-1.40332,1.04395-1.70313,2.09863-1.90723c1.12793-0.21582,2.08691-0.14453,2.08691-0.91211
		c0-0.88672-0.73145-1.03125-1.37891-1.03125c-0.86328,0-1.49902,0.26367-1.54688,1.17578h-1.01953
		c0.05957-1.53516,1.24707-2.0752,2.62598-2.0752c1.11621,0,2.32715,0.25195,2.32715,1.70313v3.19043
		c0,0.47949,0,0.69531,0.32422,0.69531c0.08301,0,0.17969-0.01172,0.31152-0.05957V238.00098z M167.62354,234.82324
		c-0.39551,0.28809-1.16309,0.2998-1.84668,0.41992c-0.67188,0.12012-1.24805,0.35938-1.24805,1.11523
		c0,0.67188,0.57617,0.91113,1.2002,0.91113c1.34277,0,1.89453-0.83887,1.89453-1.40332V234.82324z"/>
	<path d="M170.229,231.8252h0.95898v0.91113h0.02441c0.45605-0.69531,1.15137-1.05566,2.00293-1.05566
		c0.75586,0,1.45117,0.2998,1.70313,1.05566c0.41992-0.66016,1.15137-1.05566,1.94336-1.05566
		c1.23438,0,2.0625,0.51563,2.0625,1.79883v4.5459h-1.01953v-4.06543c0-0.76758-0.2041-1.37988-1.19922-1.37988
		c-0.9834,0-1.61914,0.62402-1.61914,1.58301v3.8623h-1.01953v-4.06543c0-0.80371-0.25195-1.37988-1.16309-1.37988
		c-1.21191,0-1.65527,1.11523-1.65527,1.58301v3.8623H170.229V231.8252z"/>
	<path d="M185.75439,236.05859c-0.27539,1.36719-1.25977,2.11035-2.65039,2.11035c-1.97949,0-2.91406-1.36719-2.97461-3.26172
		c0-1.85938,1.22363-3.22656,2.91406-3.22656c2.19531,0,2.86719,2.05078,2.80664,3.5498h-4.6416
		c-0.03516,1.08008,0.57617,2.03906,1.93164,2.03906c0.83887,0,1.42676-0.40723,1.60645-1.21094H185.75439z M184.771,234.33105
		c-0.04785-0.9707-0.7793-1.75098-1.78711-1.75098c-1.06738,0-1.70313,0.80371-1.77539,1.75098H184.771z"/>
	<path d="M188.46826,233.15625h-1.33203v-1.33105h1.33203V233.15625z M187.13623,236.69434h1.33203v1.33105h-1.33203V236.69434z"/>
	<path d="M193.74854,229.46191h1.13965v7.60449h4.5332v0.95898h-5.67285V229.46191z"/>
	<path d="M205.74561,238.00098c-0.17969,0.1084-0.4082,0.16797-0.73145,0.16797c-0.52832,0-0.86426-0.28711-0.86426-0.95898
		c-0.56348,0.65918-1.31934,0.95898-2.18262,0.95898c-1.12695,0-2.05078-0.50293-2.05078-1.73828
		c0-1.40332,1.04395-1.70313,2.09863-1.90723c1.12793-0.21582,2.08691-0.14453,2.08691-0.91211
		c0-0.88672-0.73145-1.03125-1.37891-1.03125c-0.86328,0-1.49902,0.26367-1.54688,1.17578h-1.01953
		c0.05957-1.53516,1.24707-2.0752,2.62598-2.0752c1.11621,0,2.32715,0.25195,2.32715,1.70313v3.19043
		c0,0.47949,0,0.69531,0.32422,0.69531c0.08301,0,0.17969-0.01172,0.31152-0.05957V238.00098z M204.09033,234.82324
		c-0.39551,0.28809-1.16309,0.2998-1.84668,0.41992c-0.67188,0.12012-1.24805,0.35938-1.24805,1.11523
		c0,0.67188,0.57617,0.91113,1.2002,0.91113c1.34277,0,1.89453-0.83887,1.89453-1.40332V234.82324z"/>
	<path d="M207.77588,230.70898h-1.01953v-1.24707h1.01953V230.70898z M206.75635,231.8252h1.01953v6.2002h-1.01953V231.8252z"/>
	<path d="M209.78076,232.72461h-1.04395v-0.89941h1.04395v-0.92383c0-1.00781,0.59961-1.53516,1.71484-1.53516
		c0.19238,0,0.46777,0.03613,0.66016,0.0957v0.8877c-0.18066-0.05957-0.39648-0.08398-0.57617-0.08398
		c-0.49121,0-0.7793,0.15625-0.7793,0.69531v0.86426h1.19922v0.89941h-1.19922v5.30078h-1.01953V232.72461z"/>
	<path d="M216.41602,229.46191h1.14063v3.68262h4.50781v-3.68262h1.14063v8.56348h-1.14063v-3.92188h-4.50781v3.92188h-1.14063
		V229.46191z"/>
	<path d="M230.40625,238.00098c-0.17969,0.1084-0.4082,0.16797-0.73242,0.16797c-0.52734,0-0.86328-0.28711-0.86328-0.95898
		c-0.56445,0.65918-1.32031,0.95898-2.18359,0.95898c-1.12695,0-2.05078-0.50293-2.05078-1.73828
		c0-1.40332,1.04492-1.70313,2.09961-1.90723c1.12695-0.21582,2.08594-0.14453,2.08594-0.91211
		c0-0.88672-0.73047-1.03125-1.37891-1.03125c-0.86328,0-1.49805,0.26367-1.54688,1.17578h-1.01953
		c0.06055-1.53516,1.24805-2.0752,2.62695-2.0752c1.11523,0,2.32617,0.25195,2.32617,1.70313v3.19043
		c0,0.47949,0,0.69531,0.32422,0.69531c0.08398,0,0.17969-0.01172,0.3125-0.05957V238.00098z M228.75,234.82324
		c-0.39453,0.28809-1.16211,0.2998-1.8457,0.41992c-0.67188,0.12012-1.24805,0.35938-1.24805,1.11523
		c0,0.67188,0.57617,0.91113,1.19922,0.91113c1.34375,0,1.89453-0.83887,1.89453-1.40332V234.82324z"/>
	<path d="M231.32031,231.8252h0.95898v1.30664h0.02344c0.49219-0.99512,1.17578-1.4873,2.2793-1.45117v1.08008
		c-1.64258,0-2.24219,0.93457-2.24219,2.50586v2.75879h-1.01953V231.8252z"/>
	<path d="M241.49219,238.02539h-1.07813l-1.25977-4.92969h-0.02344l-1.24805,4.92969h-1.10352l-1.99023-6.2002h1.12695
		l1.40234,5.07324h0.02539l1.24609-5.07324h1.11523L241,236.89844h0.02539l1.39063-5.07324h1.05469L241.49219,238.02539z"/>
	<path d="M247.12305,231.68066c1.9668,0,3.00977,1.42773,3.00977,3.25c0,1.81152-1.04297,3.23828-3.00977,3.23828
		s-3.01172-1.42676-3.01172-3.23828C244.11133,233.1084,245.15625,231.68066,247.12305,231.68066z M247.12305,237.26953
		c1.06641,0,1.92969-0.83887,1.92969-2.33887c0-1.51074-0.86328-2.35059-1.92969-2.35059
		c-1.06836,0-1.93164,0.83984-1.93164,2.35059C245.19141,236.43066,246.05469,237.26953,247.12305,237.26953z"/>
	<path d="M254.00977,231.68066c1.9668,0,3.00977,1.42773,3.00977,3.25c0,1.81152-1.04297,3.23828-3.00977,3.23828
		S251,236.74219,251,234.93066C251,233.1084,252.04297,231.68066,254.00977,231.68066z M254.00977,237.26953
		c1.06836,0,1.93164-0.83887,1.93164-2.33887c0-1.51074-0.86328-2.35059-1.93164-2.35059
		c-1.06641,0-1.93164,0.83984-1.93164,2.35059C252.07813,236.43066,252.94336,237.26953,254.00977,237.26953z"/>
	<path d="M263.76563,238.02539h-1.01953v-0.83984h-0.02539c-0.33398,0.68359-1.12695,0.9834-1.97852,0.9834
		c-1.90625,0-2.85352-1.51074-2.85352-3.26172s0.93555-3.22656,2.83008-3.22656c0.63477,0,1.54688,0.24023,2.00195,0.97168h0.02539
		v-3.19043h1.01953V238.02539z M260.88672,237.26953c1.36719,0,1.89453-1.1748,1.89453-2.33887
		c0-1.22266-0.55078-2.35059-1.95508-2.35059c-1.39063,0-1.85938,1.1875-1.85938,2.39941
		C258.9668,236.14258,259.56641,237.26953,260.88672,237.26953z"/>
	<path d="M125.27783,243.8623h1.13965v7.60449h4.5332v0.95898h-5.67285V243.8623z"/>
	<path d="M137.0708,250.45898c-0.27539,1.36719-1.25977,2.11035-2.65039,2.11035c-1.97949,0-2.91406-1.36719-2.97461-3.26172
		c0-1.85938,1.22363-3.22656,2.91406-3.22656c2.19531,0,2.86719,2.05078,2.80664,3.5498h-4.6416
		c-0.03516,1.08008,0.57617,2.03906,1.93164,2.03906c0.83887,0,1.42676-0.40723,1.60645-1.21094H137.0708z M136.0874,248.73145
		c-0.04785-0.9707-0.7793-1.75098-1.78711-1.75098c-1.06738,0-1.70313,0.80371-1.77539,1.75098H136.0874z"/>
	<path d="M143.71924,252.40137c-0.17969,0.1084-0.4082,0.16797-0.73145,0.16797c-0.52832,0-0.86426-0.28711-0.86426-0.95898
		c-0.56348,0.65918-1.31934,0.95898-2.18262,0.95898c-1.12695,0-2.05078-0.50293-2.05078-1.73828
		c0-1.40332,1.04395-1.70313,2.09863-1.90723c1.12793-0.21582,2.08691-0.14453,2.08691-0.91211
		c0-0.88672-0.73145-1.03125-1.37891-1.03125c-0.86328,0-1.49902,0.26367-1.54688,1.17578h-1.01953
		c0.05957-1.53516,1.24707-2.0752,2.62598-2.0752c1.11523,0,2.32715,0.25195,2.32715,1.70313v3.19043
		c0,0.47949,0,0.69531,0.32324,0.69531c0.08398,0,0.18066-0.01172,0.3125-0.05957V252.40137z M142.06396,249.22363
		c-0.39551,0.28809-1.16309,0.2998-1.84668,0.41992c-0.67188,0.12012-1.24805,0.35938-1.24805,1.11523
		c0,0.67188,0.57617,0.91113,1.2002,0.91113c1.34277,0,1.89453-0.83887,1.89453-1.40332V249.22363z"/>
	<path d="M150.21045,252.42578h-1.01953v-0.83984h-0.02441c-0.33496,0.68359-1.12695,0.9834-1.97852,0.9834
		c-1.90723,0-2.85449-1.51074-2.85449-3.26172s0.93555-3.22656,2.83105-3.22656c0.63477,0,1.54688,0.24023,2.00195,0.97168h0.02441
		v-3.19043h1.01953V252.42578z M147.33154,251.66992c1.36816,0,1.89551-1.1748,1.89551-2.33887
		c0-1.22266-0.55176-2.35059-1.95508-2.35059c-1.3916,0-1.85938,1.1875-1.85938,2.39941
		C145.4126,250.54297,146.01221,251.66992,147.33154,251.66992z"/>
	<path d="M160.24268,246.36914c-0.13184-1.22363-0.94727-1.75098-2.12305-1.75098c-0.95898,0-1.91895,0.34766-1.91895,1.46289
		c0,1.05566,1.36719,1.21191,2.74707,1.52344c1.36719,0.31152,2.73438,0.79199,2.73438,2.4707
		c0,1.82324-1.78711,2.55469-3.34668,2.55469c-1.91895,0-3.53809-0.93555-3.53809-3.02246h1.08008
		c0,1.43945,1.19922,2.0625,2.49414,2.0625c1.03125,0,2.1709-0.32324,2.1709-1.55859c0-1.17578-1.36719-1.37988-2.73438-1.67969
		s-2.74609-0.69531-2.74609-2.2666c0-1.73926,1.54688-2.50684,3.10547-2.50684c1.75098,0,3.08301,0.82813,3.1543,2.71094H160.24268z
		"/>
	<path d="M165.57178,246.08105c1.9668,0,3.00977,1.42773,3.00977,3.25c0,1.81152-1.04297,3.23828-3.00977,3.23828
		s-3.01074-1.42676-3.01074-3.23828C162.56104,247.50879,163.60498,246.08105,165.57178,246.08105z M165.57178,251.66992
		c1.06738,0,1.93066-0.83887,1.93066-2.33887c0-1.51074-0.86328-2.35059-1.93066-2.35059s-1.93164,0.83984-1.93164,2.35059
		C163.64014,250.83105,164.50439,251.66992,165.57178,251.66992z"/>
	<path d="M174.91846,252.42578h-0.95898v-0.9834h-0.02441c-0.43164,0.76758-1.12695,1.12695-2.01465,1.12695
		c-1.63086,0-2.13477-0.93555-2.13477-2.2666v-4.07715h1.01953v4.19727c0,0.75586,0.47949,1.24707,1.25879,1.24707
		c1.23535,0,1.83496-0.82715,1.83496-1.94238v-3.50195h1.01953V252.42578z"/>
	<path d="M176.42139,246.22559h0.95996v1.30664h0.02344c0.49219-0.99512,1.17578-1.4873,2.2793-1.45117v1.08008
		c-1.64355,0-2.24316,0.93457-2.24316,2.50586v2.75879h-1.01953V246.22559z"/>
	<path d="M184.44678,248.21582c-0.15625-0.7793-0.69629-1.23535-1.53516-1.23535c-1.47559,0-1.93164,1.16406-1.93164,2.42285
		c0,1.13965,0.5166,2.2666,1.81152,2.2666c0.9834,0,1.57129-0.5752,1.70313-1.51074h1.04297
		c-0.22754,1.51074-1.1748,2.41016-2.73438,2.41016c-1.89453,0-2.90234-1.31934-2.90234-3.16602
		c0-1.8584,0.95996-3.32227,2.92676-3.32227c1.40332,0,2.53027,0.66016,2.67383,2.13477H184.44678z"/>
	<path d="M191.97021,250.45898c-0.27539,1.36719-1.25879,2.11035-2.65039,2.11035c-1.97949,0-2.91406-1.36719-2.97461-3.26172
		c0-1.85938,1.22363-3.22656,2.91406-3.22656c2.19531,0,2.86719,2.05078,2.80664,3.5498h-4.6416
		c-0.03516,1.08008,0.57617,2.03906,1.93164,2.03906c0.83887,0,1.42676-0.40723,1.60645-1.21094H191.97021z M190.98682,248.73145
		c-0.04785-0.9707-0.7793-1.75098-1.78711-1.75098c-1.06738,0-1.70313,0.80371-1.77539,1.75098H190.98682z"/>
	<path d="M194.68408,247.55664h-1.33203v-1.33105h1.33203V247.55664z M193.35205,251.09473h1.33203v1.33105h-1.33203V251.09473z"/>
	<path d="M200.21729,247.125h-1.04395v-0.89941h1.04395v-0.92383c0-1.00781,0.59961-1.53516,1.71484-1.53516
		c0.19238,0,0.46777,0.03613,0.66016,0.0957v0.8877c-0.18066-0.05957-0.39648-0.08398-0.57617-0.08398
		c-0.49219,0-0.7793,0.15625-0.7793,0.69531v0.86426h1.19922v0.89941h-1.19922v5.30078h-1.01953V247.125z"/>
	<path d="M208.84229,252.40137c-0.17969,0.1084-0.4082,0.16797-0.73145,0.16797c-0.52832,0-0.86426-0.28711-0.86426-0.95898
		c-0.56348,0.65918-1.31934,0.95898-2.18262,0.95898c-1.12695,0-2.05078-0.50293-2.05078-1.73828
		c0-1.40332,1.04395-1.70313,2.09863-1.90723c1.12793-0.21582,2.08691-0.14453,2.08691-0.91211
		c0-0.88672-0.73145-1.03125-1.37891-1.03125c-0.86328,0-1.49902,0.26367-1.54688,1.17578h-1.01953
		c0.05957-1.53516,1.24707-2.0752,2.62598-2.0752c1.11523,0,2.32715,0.25195,2.32715,1.70313v3.19043
		c0,0.47949,0,0.69531,0.32324,0.69531c0.08398,0,0.18066-0.01172,0.3125-0.05957V252.40137z M207.18701,249.22363
		c-0.39551,0.28809-1.16309,0.2998-1.84668,0.41992c-0.67188,0.12012-1.24805,0.35938-1.24805,1.11523
		c0,0.67188,0.57617,0.91113,1.2002,0.91113c1.34277,0,1.89453-0.83887,1.89453-1.40332V249.22363z"/>
	<path d="M214.00244,248.21582c-0.15625-0.7793-0.69629-1.23535-1.53516-1.23535c-1.47559,0-1.93164,1.16406-1.93164,2.42285
		c0,1.13965,0.5166,2.2666,1.81152,2.2666c0.9834,0,1.57129-0.5752,1.70313-1.51074h1.04297
		c-0.22754,1.51074-1.1748,2.41016-2.73438,2.41016c-1.89453,0-2.90234-1.31934-2.90234-3.16602
		c0-1.8584,0.95996-3.32227,2.92676-3.32227c1.40332,0,2.53027,0.66016,2.67383,2.13477H214.00244z"/>
	<path d="M221.52539,250.45898c-0.27539,1.36719-1.25977,2.11035-2.65039,2.11035c-1.97852,0-2.91357-1.36719-2.97412-3.26172
		c0-1.85938,1.22412-3.22656,2.91357-3.22656c2.19531,0,2.86719,2.05078,2.80664,3.5498h-4.64063
		c-0.03516,1.08008,0.57617,2.03906,1.93164,2.03906c0.83789,0,1.42578-0.40723,1.60547-1.21094H221.52539z M220.54297,248.73145
		c-0.04883-0.9707-0.7793-1.75098-1.78711-1.75098c-1.06836,0-1.70313,0.80371-1.77539,1.75098H220.54297z"/>
	<path d="M222.7168,243.8623h1.01953v3.20215h0.02344c0.33594-0.68359,1.12695-0.9834,1.97852-0.9834
		c1.90625,0,2.85547,1.51172,2.85547,3.2627s-0.93555,3.22559-2.83203,3.22559c-0.63477,0-1.54688-0.23926-2.00195-0.9707h-0.02344
		v0.82715h-1.01953V243.8623z M225.59375,246.98047c-1.36719,0-1.89453,1.17578-1.89453,2.33887
		c0,1.22363,0.55273,2.35059,1.95508,2.35059c1.39063,0,1.85938-1.1875,1.85938-2.39844
		C227.51367,248.1084,226.91406,246.98047,225.59375,246.98047z"/>
	<path d="M232.4707,246.08105c1.9668,0,3.00977,1.42773,3.00977,3.25c0,1.81152-1.04297,3.23828-3.00977,3.23828
		s-3.00977-1.42676-3.00977-3.23828C229.46094,247.50879,230.50391,246.08105,232.4707,246.08105z M232.4707,251.66992
		c1.06836,0,1.93164-0.83887,1.93164-2.33887c0-1.51074-0.86328-2.35059-1.93164-2.35059
		c-1.06641,0-1.93164,0.83984-1.93164,2.35059C230.53906,250.83105,231.4043,251.66992,232.4707,251.66992z"/>
	<path d="M239.35938,246.08105c1.9668,0,3.00977,1.42773,3.00977,3.25c0,1.81152-1.04297,3.23828-3.00977,3.23828
		s-3.01172-1.42676-3.01172-3.23828C236.34766,247.50879,237.39258,246.08105,239.35938,246.08105z M239.35938,251.66992
		c1.06641,0,1.92969-0.83887,1.92969-2.33887c0-1.51074-0.86328-2.35059-1.92969-2.35059
		c-1.06836,0-1.93164,0.83984-1.93164,2.35059C237.42773,250.83105,238.29102,251.66992,239.35938,251.66992z"/>
	<path d="M243.63086,243.8623h1.01953v5.07324l2.83203-2.70996h1.36719l-2.45898,2.25391l2.63867,3.94629h-1.29492l-2.12305-3.23828
		l-0.96094,0.8877v2.35059h-1.01953V243.8623z"/>
	<path d="M125.27783,258.26172h1.13965v7.60352h4.5332v0.95996h-5.67285V258.26172z"/>
	<path d="M137.0708,264.8584c-0.27539,1.36719-1.25977,2.11035-2.65039,2.11035c-1.97949,0-2.91406-1.36719-2.97461-3.26172
		c0-1.85938,1.22363-3.22656,2.91406-3.22656c2.19531,0,2.86719,2.05078,2.80664,3.5498h-4.6416
		c-0.03516,1.08008,0.57617,2.03906,1.93164,2.03906c0.83887,0,1.42676-0.40723,1.60645-1.21094H137.0708z M136.0874,263.13086
		c-0.04785-0.9707-0.7793-1.75098-1.78711-1.75098c-1.06738,0-1.70313,0.80371-1.77539,1.75098H136.0874z"/>
	<path d="M143.71924,266.80078c-0.17969,0.1084-0.4082,0.16797-0.73145,0.16797c-0.52832,0-0.86426-0.28711-0.86426-0.95898
		c-0.56348,0.65918-1.31934,0.95898-2.18262,0.95898c-1.12695,0-2.05078-0.50293-2.05078-1.73828
		c0-1.40332,1.04395-1.70313,2.09863-1.90723c1.12793-0.21582,2.08691-0.14355,2.08691-0.91113
		c0-0.8877-0.73145-1.03223-1.37891-1.03223c-0.86328,0-1.49902,0.26465-1.54688,1.17578h-1.01953
		c0.05957-1.53516,1.24707-2.0752,2.62598-2.0752c1.11523,0,2.32715,0.25195,2.32715,1.70313v3.19043
		c0,0.47949,0,0.69531,0.32324,0.69531c0.08398,0,0.18066-0.01172,0.3125-0.05957V266.80078z M142.06396,263.62305
		c-0.39551,0.28809-1.16309,0.2998-1.84668,0.41992c-0.67188,0.12012-1.24805,0.35938-1.24805,1.11523
		c0,0.67188,0.57617,0.91113,1.2002,0.91113c1.34277,0,1.89453-0.83887,1.89453-1.40332V263.62305z"/>
	<path d="M150.21045,266.8252h-1.01953v-0.83984h-0.02441c-0.33496,0.68359-1.12695,0.9834-1.97852,0.9834
		c-1.90723,0-2.85449-1.51074-2.85449-3.26172s0.93555-3.22656,2.83105-3.22656c0.63477,0,1.54688,0.24023,2.00195,0.97168h0.02441
		v-3.19043h1.01953V266.8252z M147.33154,266.06934c1.36816,0,1.89551-1.1748,1.89551-2.33887
		c0-1.22266-0.55176-2.35059-1.95508-2.35059c-1.3916,0-1.85938,1.1875-1.85938,2.39941
		C145.4126,264.94238,146.01221,266.06934,147.33154,266.06934z"/>
	<path d="M155.28955,258.26172h3.75391c1.70313,0,2.62695,0.94727,2.62695,2.53125c0,1.58301-0.92383,2.54199-2.62695,2.53027
		h-2.61426v3.50195h-1.13965V258.26172z M156.4292,262.36328h2.23047c1.2832,0.0127,1.87109-0.55176,1.87109-1.57031
		c0-1.01953-0.58789-1.57129-1.87109-1.57129h-2.23047V262.36328z"/>
	<path d="M162.89697,258.26172h1.01953v3.27441h0.02344c0.33594-0.74316,1.21191-1.05566,1.95508-1.05566
		c1.63184,0,2.13477,0.93555,2.13477,2.2666v4.07813h-1.01953v-4.19727c0-0.75586-0.47949-1.24805-1.25879-1.24805
		c-1.23535,0-1.83496,0.82813-1.83496,1.94336v3.50195h-1.01953V258.26172z"/>
	<path d="M172.24365,260.48047c1.9668,0,3.00977,1.42773,3.00977,3.25c0,1.81152-1.04297,3.23828-3.00977,3.23828
		s-3.01074-1.42676-3.01074-3.23828C169.23291,261.9082,170.27686,260.48047,172.24365,260.48047z M172.24365,266.06934
		c1.06738,0,1.93066-0.83887,1.93066-2.33887c0-1.51074-0.86328-2.35059-1.93066-2.35059s-1.93164,0.83984-1.93164,2.35059
		C170.31201,265.23047,171.17627,266.06934,172.24365,266.06934z"/>
	<path d="M176.45752,260.625h0.95898v0.9834h0.02441c0.43164-0.76758,1.12793-1.12793,2.01465-1.12793
		c1.63184,0,2.13477,0.93555,2.13477,2.2666v4.07813h-1.01953v-4.19727c0-0.75586-0.47949-1.24805-1.25879-1.24805
		c-1.23535,0-1.83496,0.82813-1.83496,1.94336v3.50195h-1.01953V260.625z"/>
	<path d="M188.41846,264.8584c-0.27539,1.36719-1.25977,2.11035-2.65039,2.11035c-1.97949,0-2.91406-1.36719-2.97461-3.26172
		c0-1.85938,1.22363-3.22656,2.91406-3.22656c2.19531,0,2.86719,2.05078,2.80664,3.5498h-4.6416
		c-0.03516,1.08008,0.57617,2.03906,1.93164,2.03906c0.83887,0,1.42676-0.40723,1.60645-1.21094H188.41846z M187.43506,263.13086
		c-0.04785-0.9707-0.7793-1.75098-1.78711-1.75098c-1.06738,0-1.70313,0.80371-1.77539,1.75098H187.43506z"/>
	<path d="M191.13232,261.95605h-1.33203V260.625h1.33203V261.95605z M189.80029,265.49414h1.33203v1.33105h-1.33203V265.49414z"/>
	<path d="M198.75146,258.32227c1.8584,0,2.57813,1.09082,2.57813,2.16992c0,0.75586-0.47949,1.45215-1.1748,1.76367
		c1.01953,0.32324,1.51074,1.06738,1.51074,2.12305c0,1.64258-1.24707,2.58984-2.81836,2.58984
		c-1.63086,0-2.89063-0.85156-2.89063-2.58984c0-1.00781,0.54004-1.78711,1.4873-2.12305
		c-0.70703-0.28809-1.1875-0.99609-1.1875-1.76367C196.25635,259.08984,197.44385,258.32227,198.75146,258.32227z
		 M198.84717,266.06934c1.01953,0,1.73926-0.70703,1.73926-1.65527c0-0.92285-0.79199-1.61914-1.75098-1.61914
		c-1.00781,0-1.79883,0.64844-1.79883,1.63184C197.03662,265.44629,197.7915,266.06934,198.84717,266.06934z M198.84717,261.89551
		c0.80371,0,1.40332-0.50293,1.40332-1.36719c0-0.85156-0.59961-1.30664-1.42773-1.30664
		c-0.81543,0-1.48633,0.45508-1.48633,1.30664C197.33643,261.46387,198.00732,261.89551,198.84717,261.89551z"/>
	<path d="M205.48389,258.32227c2.66309,0,2.83105,2.44629,2.83105,4.3291c0,1.87109-0.16797,4.31738-2.83105,4.31738
		c-2.66211,0-2.83008-2.44629-2.83008-4.31738C202.65381,260.76855,202.82178,258.32227,205.48389,258.32227z M205.48389,266.06934
		c1.73926,0,1.75098-2.1582,1.75098-3.42969c0-1.25977-0.01172-3.41797-1.75098-3.41797s-1.75098,2.1582-1.75098,3.41797
		C203.73291,263.91113,203.74463,266.06934,205.48389,266.06934z"/>
	<path d="M213.09131,266.8252h-1.01953v-6.09277h-2.20703v-0.81543c1.16406,0,2.21973-0.31152,2.44727-1.59473h0.7793V266.8252z"/>
	<path d="M218.76758,258.32227c1.85938,0,2.57813,1.09082,2.57813,2.16992c0,0.75586-0.47852,1.45215-1.17383,1.76367
		c1.01953,0.32324,1.50977,1.06738,1.50977,2.12305c0,1.64258-1.24609,2.58984-2.81836,2.58984
		c-1.63086,0-2.89014-0.85156-2.89014-2.58984c0-1.00781,0.54053-1.78711,1.48779-2.12305
		c-0.70703-0.28809-1.1875-0.99609-1.1875-1.76367C216.27344,259.08984,217.46094,258.32227,218.76758,258.32227z
		 M218.86328,266.06934c1.01953,0,1.74023-0.70703,1.74023-1.65527c0-0.92285-0.79297-1.61914-1.75195-1.61914
		c-1.00781,0-1.79883,0.64844-1.79883,1.63184C217.05273,265.44629,217.80859,266.06934,218.86328,266.06934z M218.86328,261.89551
		c0.80469,0,1.4043-0.50293,1.4043-1.36719c0-0.85156-0.59961-1.30664-1.42773-1.30664c-0.81641,0-1.48633,0.45508-1.48633,1.30664
		C217.35352,261.46387,218.02344,261.89551,218.86328,261.89551z"/>
	<path d="M227.13086,260.49219c-0.0957-0.76758-0.62305-1.27051-1.42773-1.27051c-1.73828,0-2.01367,1.91895-2.0625,3.22559
		l0.02344,0.02441c0.48047-0.7793,1.19922-1.11523,2.12305-1.11523c1.63086,0,2.60352,1.1875,2.60352,2.75781
		c0,1.23535-0.69531,2.85449-2.84375,2.85449c-2.51758,0-2.92578-2.30273-2.92578-4.08984
		c0-2.33789,0.70703-4.55664,3.13086-4.55664c1.40234,0,2.2793,0.79102,2.39844,2.16992H227.13086z M223.83203,264.1748
		c0,1.05566,0.64844,1.89453,1.76367,1.89453c1.10352,0,1.71484-0.875,1.71484-1.88281c0-1.05566-0.55078-1.93066-1.71484-1.93066
		C224.45703,262.25586,223.83203,263.10742,223.83203,264.1748z"/>
	<path d="M232.17188,258.32227c2.66211,0,2.83008,2.44629,2.83008,4.3291c0,1.87109-0.16797,4.31738-2.83008,4.31738
		s-2.83008-2.44629-2.83008-4.31738C229.3418,260.76855,229.50977,258.32227,232.17188,258.32227z M232.17188,266.06934
		c1.73828,0,1.75-2.1582,1.75-3.42969c0-1.25977-0.01172-3.41797-1.75-3.41797c-1.74023,0-1.75195,2.1582-1.75195,3.41797
		C230.41992,263.91113,230.43164,266.06934,232.17188,266.06934z"/>
	<path d="M238.12305,261.96777c0.15625,0.01172,0.30078,0.01172,0.44531,0.01172c0.86328,0,1.61914-0.46777,1.61914-1.39063
		c0-0.8877-0.64844-1.36719-1.51172-1.36719c-1.11523,0-1.5957,0.85156-1.60742,1.84668h-1.01953
		c0.06055-1.61914,0.92383-2.74609,2.62695-2.74609c1.47461,0,2.58984,0.70703,2.58984,2.27832
		c0,0.74316-0.52734,1.3916-1.17578,1.69141v0.02344c1.0332,0.22852,1.53516,1.04395,1.53516,2.06348
		c0,1.70313-1.33008,2.58984-2.92578,2.58984c-1.72656,0-2.86523-1.01953-2.83008-2.77051h1.01953
		c0.03516,1.10352,0.64844,1.87109,1.81055,1.87109c0.99609,0,1.84766-0.61133,1.84766-1.64258
		c0-1.06738-0.80469-1.63184-1.81055-1.63184c-0.20508,0-0.41992,0.0127-0.61328,0.03613V261.96777z"/>
	<path d="M242.70898,261.33203c-0.08398-1.72656,0.93555-3.00977,2.73438-3.00977c1.48633,0,2.66211,0.86328,2.66211,2.44629
		c0,1.49902-1.00781,2.25488-2.0625,2.91406c-1.06641,0.64746-2.18359,1.1875-2.38672,2.24316h4.36523v0.89941h-5.55273
		c0.16797-2.01465,1.1875-2.73438,2.38672-3.47852c1.43945-0.88672,2.17188-1.41504,2.17188-2.58984
		c0-0.92383-0.74414-1.53516-1.64453-1.53516c-1.1875,0-1.69141,1.09082-1.6543,2.11035H242.70898z"/>
	<path d="M252.1875,258.32227c2.66211,0,2.83008,2.44629,2.83008,4.3291c0,1.87109-0.16797,4.31738-2.83008,4.31738
		s-2.83008-2.44629-2.83008-4.31738C249.35742,260.76855,249.52539,258.32227,252.1875,258.32227z M252.1875,266.06934
		c1.73828,0,1.75-2.1582,1.75-3.42969c0-1.25977-0.01172-3.41797-1.75-3.41797c-1.74023,0-1.75195,2.1582-1.75195,3.41797
		C250.43555,263.91113,250.44727,266.06934,252.1875,266.06934z"/>
	<path d="M260.55078,263.93457h1.15234v0.89941h-1.15234v1.99121h-0.95898v-1.99121h-3.73047v-0.9834l3.875-5.52832h0.81445
		V263.93457z M259.5918,263.93457v-4.16113h-0.02344l-2.83203,4.16113H259.5918z"/>
	<path d="M125.27783,272.66211h1.13965v7.60352h4.5332v0.95996h-5.67285V272.66211z"/>
	<path d="M137.0708,279.25879c-0.27539,1.36719-1.25977,2.11035-2.65039,2.11035c-1.97949,0-2.91406-1.36719-2.97461-3.26172
		c0-1.85938,1.22363-3.22656,2.91406-3.22656c2.19531,0,2.86719,2.05078,2.80664,3.5498h-4.6416
		c-0.03516,1.08008,0.57617,2.03906,1.93164,2.03906c0.83887,0,1.42676-0.40723,1.60645-1.21094H137.0708z M136.0874,277.53125
		c-0.04785-0.9707-0.7793-1.75098-1.78711-1.75098c-1.06738,0-1.70313,0.80371-1.77539,1.75098H136.0874z"/>
	<path d="M143.71924,281.20117c-0.17969,0.1084-0.4082,0.16797-0.73145,0.16797c-0.52832,0-0.86426-0.28711-0.86426-0.95898
		c-0.56348,0.65918-1.31934,0.95898-2.18262,0.95898c-1.12695,0-2.05078-0.50293-2.05078-1.73828
		c0-1.40332,1.04395-1.70313,2.09863-1.90723c1.12793-0.21582,2.08691-0.14355,2.08691-0.91113
		c0-0.8877-0.73145-1.03223-1.37891-1.03223c-0.86328,0-1.49902,0.26465-1.54688,1.17578h-1.01953
		c0.05957-1.53516,1.24707-2.0752,2.62598-2.0752c1.11523,0,2.32715,0.25195,2.32715,1.70313v3.19043
		c0,0.47949,0,0.69531,0.32324,0.69531c0.08398,0,0.18066-0.01172,0.3125-0.05957V281.20117z M142.06396,278.02344
		c-0.39551,0.28809-1.16309,0.2998-1.84668,0.41992c-0.67188,0.12012-1.24805,0.35938-1.24805,1.11523
		c0,0.67188,0.57617,0.91113,1.2002,0.91113c1.34277,0,1.89453-0.83887,1.89453-1.40332V278.02344z"/>
	<path d="M150.21045,281.22559h-1.01953v-0.83984h-0.02441c-0.33496,0.68359-1.12695,0.9834-1.97852,0.9834
		c-1.90723,0-2.85449-1.51074-2.85449-3.26172s0.93555-3.22656,2.83105-3.22656c0.63477,0,1.54688,0.24023,2.00195,0.97168h0.02441
		v-3.19043h1.01953V281.22559z M147.33154,280.46973c1.36816,0,1.89551-1.1748,1.89551-2.33887
		c0-1.22266-0.55176-2.35059-1.95508-2.35059c-1.3916,0-1.85938,1.1875-1.85938,2.39941
		C145.4126,279.34277,146.01221,280.46973,147.33154,280.46973z"/>
	<path d="M155.28955,272.66211h5.91309v0.95996h-4.77344v2.72266h4.44922v0.95898h-4.44922v2.96191h4.80859v0.95996h-5.94824
		V272.66211z"/>
	<path d="M162.45361,275.02539h0.95898v0.91113h0.02441c0.45605-0.69531,1.15137-1.05566,2.00293-1.05566
		c0.75586,0,1.45117,0.2998,1.70313,1.05566c0.41992-0.65918,1.15137-1.05566,1.94336-1.05566
		c1.23438,0,2.0625,0.51563,2.0625,1.79883v4.5459h-1.01953v-4.06543c0-0.76758-0.2041-1.37988-1.19922-1.37988
		c-0.9834,0-1.61914,0.62402-1.61914,1.58301v3.8623h-1.01953v-4.06543c0-0.80371-0.25195-1.37988-1.16309-1.37988
		c-1.21191,0-1.65527,1.11523-1.65527,1.58301v3.8623h-1.01953V275.02539z"/>
	<path d="M178.18213,281.20117c-0.17969,0.1084-0.4082,0.16797-0.73145,0.16797c-0.52832,0-0.86426-0.28711-0.86426-0.95898
		c-0.56348,0.65918-1.31934,0.95898-2.18262,0.95898c-1.12695,0-2.05078-0.50293-2.05078-1.73828
		c0-1.40332,1.04395-1.70313,2.09863-1.90723c1.12793-0.21582,2.08691-0.14355,2.08691-0.91113
		c0-0.8877-0.73145-1.03223-1.37891-1.03223c-0.86328,0-1.49902,0.26465-1.54688,1.17578h-1.01953
		c0.05957-1.53516,1.24707-2.0752,2.62598-2.0752c1.11523,0,2.32715,0.25195,2.32715,1.70313v3.19043
		c0,0.47949,0,0.69531,0.32324,0.69531c0.08398,0,0.18066-0.01172,0.3125-0.05957V281.20117z M176.52686,278.02344
		c-0.39551,0.28809-1.16309,0.2998-1.84668,0.41992c-0.67188,0.12012-1.24805,0.35938-1.24805,1.11523
		c0,0.67188,0.57617,0.91113,1.2002,0.91113c1.34277,0,1.89453-0.83887,1.89453-1.40332V278.02344z"/>
	<path d="M180.2124,273.90918h-1.01953v-1.24707h1.01953V273.90918z M179.19287,275.02539h1.01953v6.2002h-1.01953V275.02539z"/>
	<path d="M181.85693,272.66211h1.01953v8.56348h-1.01953V272.66211z"/>
	<path d="M186.02002,276.35645h-1.33203v-1.33105h1.33203V276.35645z M184.68799,279.89453h1.33203v1.33105h-1.33203V279.89453z"/>
	<path class="st9" d="M191.19189,272.66211h1.01953v8.56348h-1.01953V272.66211z"/>
	<path class="st9" d="M199.28955,281.20117c-0.17969,0.1084-0.4082,0.16797-0.73145,0.16797
		c-0.52832,0-0.86426-0.28711-0.86426-0.95898c-0.56348,0.65918-1.31934,0.95898-2.18262,0.95898
		c-1.12695,0-2.05078-0.50293-2.05078-1.73828c0-1.40332,1.04395-1.70313,2.09863-1.90723
		c1.12793-0.21582,2.08691-0.14355,2.08691-0.91113c0-0.8877-0.73145-1.03223-1.37891-1.03223
		c-0.86328,0-1.49902,0.26465-1.54688,1.17578h-1.01953c0.05957-1.53516,1.24707-2.0752,2.62598-2.0752
		c1.11523,0,2.32715,0.25195,2.32715,1.70313v3.19043c0,0.47949,0,0.69531,0.32324,0.69531
		c0.08398,0,0.18066-0.01172,0.3125-0.05957V281.20117z M197.63428,278.02344c-0.39551,0.28809-1.16309,0.2998-1.84668,0.41992
		c-0.67188,0.12012-1.24805,0.35938-1.24805,1.11523c0,0.67188,0.57617,0.91113,1.2002,0.91113
		c1.34277,0,1.89453-0.83887,1.89453-1.40332V278.02344z"/>
	<path class="st9" d="M201.31982,273.90918h-1.01953v-1.24707h1.01953V273.90918z M200.30029,275.02539h1.01953v6.2002h-1.01953
		V275.02539z"/>
	<path class="st9" d="M203.32373,275.9248h-1.04395v-0.89941h1.04395v-0.92383c0-1.00781,0.59961-1.53516,1.71484-1.53516
		c0.19238,0,0.46777,0.03613,0.66016,0.0957v0.8877c-0.18066-0.05957-0.39648-0.08398-0.57617-0.08398
		c-0.49121,0-0.7793,0.15625-0.7793,0.69531v0.86426h1.19922v0.89941h-1.19922v5.30078h-1.01953V275.9248z"/>
	<path class="st9" d="M206.45654,272.66211h1.01953v3.27441h0.02344c0.33594-0.74316,1.21191-1.05566,1.95508-1.05566
		c1.63184,0,2.13477,0.93555,2.13477,2.2666v4.07813h-1.01953v-4.19727c0-0.75586-0.47949-1.24805-1.25879-1.24805
		c-1.23535,0-1.83496,0.82813-1.83496,1.94336v3.50195h-1.01953V272.66211z"/>
	<path class="st9" d="M218.62109,281.20117c-0.17969,0.1084-0.4082,0.16797-0.73047,0.16797
		c-0.5293,0-0.86523-0.28711-0.86523-0.95898c-0.5625,0.65918-1.31885,0.95898-2.18213,0.95898
		c-1.12695,0-2.05078-0.50293-2.05078-1.73828c0-1.40332,1.04395-1.70313,2.09863-1.90723
		c1.12842-0.21582,2.0874-0.14355,2.0874-0.91113c0-0.8877-0.73242-1.03223-1.37939-1.03223
		c-0.86328,0-1.49902,0.26465-1.54688,1.17578h-1.01953c0.05957-1.53516,1.24707-2.0752,2.62598-2.0752
		c1.11475,0,2.32764,0.25195,2.32764,1.70313v3.19043c0,0.47949,0,0.69531,0.32227,0.69531
		c0.08398,0,0.18164-0.01172,0.3125-0.05957V281.20117z M216.9668,278.02344c-0.39648,0.28809-1.16357,0.2998-1.84717,0.41992
		c-0.67188,0.12012-1.24805,0.35938-1.24805,1.11523c0,0.67188,0.57617,0.91113,1.2002,0.91113
		c1.34229,0,1.89502-0.83887,1.89502-1.40332V278.02344z"/>
	<path class="st9" d="M219.53516,275.02539h0.96094v1.30664h0.02344c0.49219-0.99512,1.17578-1.4873,2.2793-1.45117v1.08008
		c-1.64453,0-2.24414,0.93457-2.24414,2.50586v2.75879h-1.01953V275.02539z"/>
	<path class="st9" d="M229.70898,281.22559h-1.08008l-1.25977-4.92969h-0.02344l-1.24805,4.92969h-1.10352l-1.99023-6.2002h1.12695
		l1.4043,5.07324h0.02344l1.24805-5.07324h1.11523l1.29492,5.07324h0.02344l1.39258-5.07324h1.05469L229.70898,281.22559z"/>
	<path class="st9" d="M235.33789,274.88086c1.9668,0,3.00977,1.42773,3.00977,3.25c0,1.81152-1.04297,3.23828-3.00977,3.23828
		s-3.00977-1.42676-3.00977-3.23828C232.32813,276.30859,233.37109,274.88086,235.33789,274.88086z M235.33789,280.46973
		c1.06836,0,1.93164-0.83887,1.93164-2.33887c0-1.51074-0.86328-2.35059-1.93164-2.35059
		c-1.06641,0-1.93164,0.83984-1.93164,2.35059C233.40625,279.63086,234.27148,280.46973,235.33789,280.46973z"/>
	<path class="st9" d="M242.22656,274.88086c1.9668,0,3.00977,1.42773,3.00977,3.25c0,1.81152-1.04297,3.23828-3.00977,3.23828
		s-3.01172-1.42676-3.01172-3.23828C239.21484,276.30859,240.25977,274.88086,242.22656,274.88086z M242.22656,280.46973
		c1.06641,0,1.92969-0.83887,1.92969-2.33887c0-1.51074-0.86328-2.35059-1.92969-2.35059
		c-1.06836,0-1.93164,0.83984-1.93164,2.35059C240.29492,279.63086,241.1582,280.46973,242.22656,280.46973z"/>
	<path class="st9" d="M251.98047,281.22559h-1.01953v-0.83984h-0.02344c-0.33594,0.68359-1.12695,0.9834-1.97852,0.9834
		c-1.9082,0-2.85547-1.51074-2.85547-3.26172s0.93555-3.22656,2.83008-3.22656c0.63672,0,1.54883,0.24023,2.00391,0.97168h0.02344
		v-3.19043h1.01953V281.22559z M249.10156,280.46973c1.36719,0,1.89648-1.1748,1.89648-2.33887
		c0-1.22266-0.55273-2.35059-1.95508-2.35059c-1.39258,0-1.85938,1.1875-1.85938,2.39941
		C247.18359,279.34277,247.7832,280.46973,249.10156,280.46973z"/>
	<path class="st9" d="M259.19141,277.9873c-0.05859,0.2041-0.13086,0.43164-0.13086,0.61133
		c0,0.21582,0.08398,0.37207,0.28711,0.37207c0.73242,0,1.65625-1.47461,1.65625-2.75879c0-1.89453-1.57227-3.09375-3.25195-3.09375
		c-2.05078,0-3.64453,1.75098-3.64453,3.84961c0,2.13477,1.69141,3.80176,3.70508,3.80176c1.14063,0,2.30273-0.5752,2.97461-1.45117
		h0.75586c-0.76758,1.31934-2.21875,2.11133-3.75391,2.11133c-2.53125,0-4.49805-1.99121-4.49805-4.52148
		c0-2.4707,2.01563-4.4502,4.44922-4.4502c2.21875,0,4.07813,1.53516,4.07813,3.69434c0,2.08691-1.67969,3.47852-2.80664,3.47852
		c-0.4082,0-0.74219-0.25195-0.76758-0.78027h-0.03516c-0.35938,0.41992-0.90039,0.80371-1.48828,0.80371
		c-1.01953,0-1.71484-0.83984-1.71484-1.89453c0-1.66699,1.12695-3.40625,2.81836-3.40625c0.55273,0,1.06836,0.26367,1.34375,0.9834
		l0.27539-0.75586h0.75586L259.19141,277.9873z M255.90625,277.67578c0,0.67188,0.43164,1.16309,1.03125,1.16309
		c1.04297,0,1.85938-1.57129,1.85938-2.55469c0-0.5752-0.46875-1.11523-0.97266-1.11523
		C256.69727,275.16895,255.90625,276.63184,255.90625,277.67578z"/>
	<path class="st9" d="M268.50391,280.69824c0,2.01465-0.92383,3.0459-2.87891,3.0459c-1.16211,0-2.50586-0.46777-2.56641-1.82324
		h1.01953c0.04883,0.74414,0.93555,1.00781,1.60742,1.00781c1.33203,0,1.85938-0.95996,1.85938-2.35059v-0.4082h-0.02539
		c-0.33594,0.75586-1.15039,1.12793-1.92969,1.12793c-1.84766,0-2.77148-1.45117-2.77148-3.14258
		c0-1.46289,0.7207-3.27441,2.86719-3.27441c0.7793,0,1.47461,0.34766,1.84766,1.03125h0.01172v-0.88672h0.95898V280.69824z
		 M267.49609,277.99902c0-1.09082-0.47852-2.21875-1.76367-2.21875c-1.30664,0-1.83398,1.06738-1.83398,2.25488
		c0,1.11523,0.4082,2.36328,1.75,2.36328C266.99219,280.39844,267.49609,279.16309,267.49609,277.99902z"/>
	<path class="st9" d="M270.04297,275.02539h0.95898v0.91113h0.02539c0.45508-0.69531,1.15039-1.05566,2.00195-1.05566
		c0.75586,0,1.45117,0.2998,1.70313,1.05566c0.41992-0.65918,1.15234-1.05566,1.94336-1.05566
		c1.23438,0,2.0625,0.51563,2.0625,1.79883v4.5459h-1.01953v-4.06543c0-0.76758-0.20313-1.37988-1.19922-1.37988
		c-0.98242,0-1.61914,0.62402-1.61914,1.58301v3.8623h-1.01953v-4.06543c0-0.80371-0.25195-1.37988-1.16211-1.37988
		c-1.21289,0-1.65625,1.11523-1.65625,1.58301v3.8623h-1.01953V275.02539z"/>
	<path class="st9" d="M285.77148,281.20117c-0.17969,0.1084-0.4082,0.16797-0.73047,0.16797
		c-0.5293,0-0.86523-0.28711-0.86523-0.95898c-0.5625,0.65918-1.31836,0.95898-2.18164,0.95898
		c-1.12695,0-2.05078-0.50293-2.05078-1.73828c0-1.40332,1.04297-1.70313,2.09766-1.90723
		c1.12891-0.21582,2.08789-0.14355,2.08789-0.91113c0-0.8877-0.73242-1.03223-1.37891-1.03223
		c-0.86328,0-1.5,0.26465-1.54688,1.17578h-1.01953c0.05859-1.53516,1.24609-2.0752,2.625-2.0752
		c1.11523,0,2.32813,0.25195,2.32813,1.70313v3.19043c0,0.47949,0,0.69531,0.32227,0.69531
		c0.08398,0,0.18164-0.01172,0.3125-0.05957V281.20117z M284.11719,278.02344c-0.39648,0.28809-1.16406,0.2998-1.84766,0.41992
		c-0.67188,0.12012-1.24805,0.35938-1.24805,1.11523c0,0.67188,0.57617,0.91113,1.20117,0.91113
		c1.3418,0,1.89453-0.83887,1.89453-1.40332V278.02344z"/>
	<path class="st9" d="M287.80273,273.90918h-1.01953v-1.24707h1.01953V273.90918z M286.7832,275.02539h1.01953v6.2002h-1.01953
		V275.02539z"/>
	<path class="st9" d="M289.44727,272.66211h1.01953v8.56348h-1.01953V272.66211z"/>
	<path class="st9" d="M292.27734,279.89453h1.33203v1.33105h-1.33203V279.89453z"/>
	<path class="st9" d="M299.5957,277.01563c-0.15625-0.7793-0.69531-1.23535-1.53516-1.23535
		c-1.47461,0-1.93164,1.16406-1.93164,2.42285c0,1.13965,0.51758,2.2666,1.8125,2.2666c0.98242,0,1.57031-0.5752,1.70313-1.51074
		h1.04297c-0.22852,1.51074-1.17578,2.41016-2.73438,2.41016c-1.89453,0-2.90234-1.31934-2.90234-3.16602
		c0-1.8584,0.95898-3.32227,2.92578-3.32227c1.4043,0,2.53125,0.66016,2.67383,2.13477H299.5957z"/>
	<path class="st9" d="M304.50586,274.88086c1.9668,0,3.00977,1.42773,3.00977,3.25c0,1.81152-1.04297,3.23828-3.00977,3.23828
		s-3.01172-1.42676-3.01172-3.23828C301.49414,276.30859,302.53906,274.88086,304.50586,274.88086z M304.50586,280.46973
		c1.06641,0,1.92969-0.83887,1.92969-2.33887c0-1.51074-0.86328-2.35059-1.92969-2.35059
		c-1.06836,0-1.93164,0.83984-1.93164,2.35059C302.57422,279.63086,303.4375,280.46973,304.50586,280.46973z"/>
	<path class="st9" d="M308.71875,275.02539h0.95898v0.91113h0.02344c0.45703-0.69531,1.15234-1.05566,2.00391-1.05566
		c0.75586,0,1.45117,0.2998,1.70313,1.05566c0.41992-0.65918,1.15039-1.05566,1.94336-1.05566
		c1.23438,0,2.0625,0.51563,2.0625,1.79883v4.5459h-1.01953v-4.06543c0-0.76758-0.20508-1.37988-1.19922-1.37988
		c-0.98438,0-1.61914,0.62402-1.61914,1.58301v3.8623h-1.01953v-4.06543c0-0.80371-0.25195-1.37988-1.16406-1.37988
		c-1.21094,0-1.6543,1.11523-1.6543,1.58301v3.8623h-1.01953V275.02539z"/>
</g>
<g>
	<path class="st10" d="M192.58203,215.65723h2.07031c0.50391,0,1.16797,0,1.51172,0.20801
		c0.375,0.22363,0.6709,0.63184,0.6709,1.19141c0,0.60742-0.31934,1.06348-0.84766,1.2793v0.01563
		c0.7041,0.14453,1.08789,0.67188,1.08789,1.37598c0,0.83887-0.59961,1.63867-1.73535,1.63867h-2.75781V215.65723z
		 M193.34082,218.1123h1.51953c0.86328,0,1.21582-0.3125,1.21582-0.91211c0-0.79102-0.56055-0.90332-1.21582-0.90332h-1.51953
		V218.1123z M193.34082,220.72656h1.90332c0.65527,0,1.07129-0.39941,1.07129-1.02344c0-0.74316-0.59961-0.95117-1.23926-0.95117
		h-1.73535V220.72656z"/>
	<path class="st10" d="M200.47656,215.52148c1.81543,0,2.73438,1.43945,2.73438,2.99023s-0.91895,2.99023-2.73438,2.99023
		c-1.81445,0-2.73438-1.43945-2.73438-2.99023S198.66211,215.52148,200.47656,215.52148z M200.47656,220.8623
		c1.3916,0,1.97559-1.19922,1.97559-2.35059s-0.58398-2.35059-1.97559-2.35059c-1.39063,0-1.97461,1.19922-1.97461,2.35059
		S199.08594,220.8623,200.47656,220.8623z"/>
	<path class="st10" d="M205.43652,216.29688h-1.90332v-0.63965h4.56543v0.63965h-1.90234v5.06934h-0.75977V216.29688z"/>
</g>
<g>
	<path class="st10" d="M217.13574,221.36621h-0.67969v-4.06152h-1.47168v-0.54395c0.77539,0,1.47949-0.20801,1.63184-1.06348
		h0.51953V221.36621z"/>
	<path class="st10" d="M221.58398,221.36621h-0.67969v-4.06152h-1.47168v-0.54395c0.77637,0,1.47949-0.20801,1.63184-1.06348
		h0.51953V221.36621z"/>
	<path class="st10" d="M224.73633,218.12012h-0.88672v-0.8877h0.88672V218.12012z M223.84961,220.47852h0.88672v0.8877h-0.88672
		V220.47852z"/>
	<path class="st10" d="M228.25586,221.36621h-0.67969v-4.06152h-1.47168v-0.54395c0.77637,0,1.47949-0.20801,1.63184-1.06348
		h0.51953V221.36621z"/>
	<path class="st10" d="M232.7041,221.36621h-0.67969v-4.06152h-1.47168v-0.54395c0.77539,0,1.47949-0.20801,1.63184-1.06348h0.51953
		V221.36621z"/>
	<path class="st10" d="M238.7041,215.65723h0.83984l2.23047,5.70898h-0.83984l-0.62305-1.71875h-2.41504l-0.63965,1.71875h-0.7832
		L238.7041,215.65723z M238.13672,219.00781h1.93457l-0.95117-2.66309h-0.0166L238.13672,219.00781z"/>
	<path class="st10" d="M242.35254,215.65723h1.03906l1.7998,4.79785l1.80664-4.79785h1.03906v5.70898h-0.71973v-4.74902h-0.01563
		l-1.7832,4.74902h-0.64746l-1.7832-4.74902h-0.01563v4.74902h-0.71973V215.65723z"/>
</g>
<rect x="189.38879" y="340.92688" class="st8" width="21.95993" height="11.80042"/>
<g>
	<path class="st11" d="M113.45895,367.56265H95.73638c-2.4161,0-4.37473-1.95865-4.37473-4.37473v-17.72256
		c0-2.41611,1.95863-4.37476,4.37473-4.37476h17.72256c2.4161,0,4.37473,1.95865,4.37473,4.37476v17.72256
		C117.83368,365.604,115.87505,367.56265,113.45895,367.56265z"/>
</g>
<g>
	<path d="M125.16943,342.74707h1.88379v6.98047h4.17285v1.58301h-6.05664V342.74707z"/>
	<path d="M133.50928,348.62402c0.04785,1.0791,0.57617,1.57129,1.52344,1.57129c0.68359,0,1.23535-0.41992,1.34277-0.80371h1.49902
		c-0.47949,1.46289-1.49902,2.08691-2.90234,2.08691c-1.9541,0-3.16602-1.34375-3.16602-3.2627
		c0-1.8584,1.2832-3.27344,3.16602-3.27344c2.11133,0,3.13086,1.77441,3.01074,3.68164H133.50928z M136.27979,347.54492
		c-0.15625-0.86426-0.52734-1.31934-1.35547-1.31934c-1.0791,0-1.39063,0.83887-1.41504,1.31934H136.27979z"/>
	<path d="M138.92236,347.0166c0.0957-1.59473,1.52246-2.07422,2.91406-2.07422c1.23535,0,2.72266,0.27539,2.72266,1.7627v3.22656
		c0,0.56348,0.05957,1.12695,0.21582,1.37891h-1.72754c-0.05957-0.19141-0.10742-0.39551-0.12012-0.59961
		c-0.53906,0.56348-1.33105,0.76758-2.08691,0.76758c-1.1748,0-2.11035-0.58789-2.11035-1.85938
		c0-1.40332,1.05566-1.73828,2.11035-1.88281c1.04395-0.15527,2.01563-0.12012,2.01563-0.81543
		c0-0.73145-0.50391-0.83984-1.10352-0.83984c-0.64746,0-1.06738,0.26465-1.12793,0.93555H138.92236z M142.85596,348.27637
		c-0.28809,0.25195-0.8877,0.26367-1.41504,0.35938c-0.52832,0.1084-1.00781,0.28809-1.00781,0.91211
		c0,0.63574,0.49121,0.79102,1.04297,0.79102c1.33203,0,1.37988-1.05566,1.37988-1.42676V348.27637z"/>
	<path d="M150.30713,350.51855h-0.02441c-0.39551,0.67188-1.09082,0.95996-1.88281,0.95996
		c-1.87109,0-2.78223-1.60742-2.78223-3.32227c0-1.66699,0.92383-3.21387,2.74609-3.21387
		c0.73242,0,1.45117,0.31152,1.83496,0.92285h0.02441v-3.11816h1.70313v8.56348h-1.61914V350.51855z M148.81982,346.22559
		c-1.11523,0-1.49902,0.95898-1.49902,1.97852c0,0.97168,0.44336,1.99121,1.49902,1.99121c1.12793,0,1.46289-0.9834,1.46289-2.00293
		C150.28271,347.18457,149.92334,346.22559,148.81982,346.22559z"/>
	<path d="M158.01221,348.46777c0,1.13965,0.8877,1.58301,1.89551,1.58301c0.65918,0,1.66699-0.19141,1.66699-1.06738
		c0-0.92285-1.2832-1.0791-2.54297-1.41504c-1.27051-0.33594-2.55469-0.82715-2.55469-2.43457
		c0-1.75098,1.65527-2.59082,3.20313-2.59082c1.78711,0,3.42969,0.78027,3.42969,2.75879h-1.82324
		c-0.05957-1.03125-0.79102-1.29492-1.69043-1.29492c-0.59961,0-1.2959,0.25195-1.2959,0.97168
		c0,0.65918,0.4082,0.74316,2.55469,1.29492c0.62402,0.15625,2.54297,0.55176,2.54297,2.49414
		c0,1.57129-1.23535,2.74707-3.5625,2.74707c-1.89453,0-3.66992-0.93555-3.64551-3.04688H158.01221z"/>
	<path d="M171.42529,351.31055h-1.75098l-1.10352-4.16211h-0.02344l-1.05566,4.16211h-1.7627l-1.9668-6.2002h1.79883
		l1.13965,4.20898h0.02344l1.03125-4.20898h1.65527l1.05566,4.19727h0.02344l1.13965-4.19727h1.75098L171.42529,351.31055z"/>
	<path d="M175.85596,344.15039h-1.70313v-1.40332h1.70313V344.15039z M174.15283,345.11035h1.70313v6.2002h-1.70313V345.11035z"/>
	<path d="M177.57275,346.24902h-1.01953v-1.13867h1.01953v-0.48047c0-1.09082,0.68359-1.88281,2.0752-1.88281
		c0.2998,0,0.61133,0.03613,0.89941,0.04785v1.27148c-0.2041-0.02344-0.4082-0.03613-0.62402-0.03613
		c-0.45605,0-0.64746,0.19238-0.64746,0.70801v0.37207h1.1748v1.13867h-1.1748v5.06152h-1.70313V346.24902z"/>
	<path d="M183.35596,345.11035h1.24707v1.13867h-1.24707v3.07031c0,0.57617,0.14355,0.71973,0.71973,0.71973
		c0.17969,0,0.34766-0.01172,0.52734-0.04785v1.33105c-0.28809,0.04785-0.65918,0.06055-0.99512,0.06055
		c-1.04395,0-1.95508-0.24023-1.95508-1.47559v-3.6582h-1.03125v-1.13867h1.03125v-1.85938h1.70313V345.11035z"/>
</g>
<g>
	<path d="M125.27783,358.40527h1.13965v7.60449h4.5332v0.95898h-5.67285V358.40527z"/>
	<path d="M137.0708,365.00195c-0.27539,1.36719-1.25977,2.11035-2.65039,2.11035c-1.97949,0-2.91406-1.36719-2.97461-3.26172
		c0-1.85938,1.22363-3.22656,2.91406-3.22656c2.19531,0,2.86719,2.05078,2.80664,3.5498h-4.6416
		c-0.03516,1.08008,0.57617,2.03906,1.93164,2.03906c0.83887,0,1.42676-0.40723,1.60645-1.21094H137.0708z M136.0874,363.27441
		c-0.04785-0.9707-0.7793-1.75098-1.78711-1.75098c-1.06738,0-1.70313,0.80371-1.77539,1.75098H136.0874z"/>
	<path d="M143.71924,366.94434c-0.17969,0.1084-0.4082,0.16797-0.73145,0.16797c-0.52832,0-0.86426-0.28711-0.86426-0.95898
		c-0.56348,0.65918-1.31934,0.95898-2.18262,0.95898c-1.12695,0-2.05078-0.50293-2.05078-1.73828
		c0-1.40332,1.04395-1.70313,2.09863-1.90723c1.12793-0.21582,2.08691-0.14453,2.08691-0.91211
		c0-0.88672-0.73145-1.03125-1.37891-1.03125c-0.86328,0-1.49902,0.26367-1.54688,1.17578h-1.01953
		c0.05957-1.53516,1.24707-2.0752,2.62598-2.0752c1.11523,0,2.32715,0.25195,2.32715,1.70313v3.19043
		c0,0.47949,0,0.69531,0.32324,0.69531c0.08398,0,0.18066-0.01172,0.3125-0.05957V366.94434z M142.06396,363.7666
		c-0.39551,0.28809-1.16309,0.2998-1.84668,0.41992c-0.67188,0.12012-1.24805,0.35938-1.24805,1.11523
		c0,0.67188,0.57617,0.91113,1.2002,0.91113c1.34277,0,1.89453-0.83887,1.89453-1.40332V363.7666z"/>
	<path d="M150.21045,366.96875h-1.01953v-0.83984h-0.02441c-0.33496,0.68359-1.12695,0.9834-1.97852,0.9834
		c-1.90723,0-2.85449-1.51074-2.85449-3.26172s0.93555-3.22656,2.83105-3.22656c0.63477,0,1.54688,0.24023,2.00195,0.97168h0.02441
		v-3.19043h1.01953V366.96875z M147.33154,366.21289c1.36816,0,1.89551-1.1748,1.89551-2.33887
		c0-1.22266-0.55176-2.35059-1.95508-2.35059c-1.3916,0-1.85938,1.1875-1.85938,2.39941
		C145.4126,365.08594,146.01221,366.21289,147.33154,366.21289z"/>
	<path d="M155.27783,358.40527h1.21094l4.50977,6.94434h0.02344v-6.94434h1.08008v8.56348H160.854l-4.47266-6.87207h-0.02441
		v6.87207h-1.0791V358.40527z"/>
	<path d="M169.27881,366.94434c-0.17969,0.1084-0.4082,0.16797-0.73145,0.16797c-0.52832,0-0.86426-0.28711-0.86426-0.95898
		c-0.56348,0.65918-1.31934,0.95898-2.18262,0.95898c-1.12695,0-2.05078-0.50293-2.05078-1.73828
		c0-1.40332,1.04395-1.70313,2.09863-1.90723c1.12793-0.21582,2.08691-0.14453,2.08691-0.91211
		c0-0.88672-0.73145-1.03125-1.37891-1.03125c-0.86328,0-1.49902,0.26367-1.54688,1.17578h-1.01953
		c0.05957-1.53516,1.24707-2.0752,2.62598-2.0752c1.11621,0,2.32715,0.25195,2.32715,1.70313v3.19043
		c0,0.47949,0,0.69531,0.32422,0.69531c0.08301,0,0.17969-0.01172,0.31152-0.05957V366.94434z M167.62354,363.7666
		c-0.39551,0.28809-1.16309,0.2998-1.84668,0.41992c-0.67188,0.12012-1.24805,0.35938-1.24805,1.11523
		c0,0.67188,0.57617,0.91113,1.2002,0.91113c1.34277,0,1.89453-0.83887,1.89453-1.40332V363.7666z"/>
	<path d="M170.229,360.76855h0.95898v0.91113h0.02441c0.45605-0.69531,1.15137-1.05566,2.00293-1.05566
		c0.75586,0,1.45117,0.2998,1.70313,1.05566c0.41992-0.66016,1.15137-1.05566,1.94336-1.05566
		c1.23438,0,2.0625,0.51563,2.0625,1.79883v4.5459h-1.01953v-4.06543c0-0.76758-0.2041-1.37988-1.19922-1.37988
		c-0.9834,0-1.61914,0.62402-1.61914,1.58301v3.8623h-1.01953v-4.06543c0-0.80371-0.25195-1.37988-1.16309-1.37988
		c-1.21191,0-1.65527,1.11523-1.65527,1.58301v3.8623H170.229V360.76855z"/>
	<path d="M185.75439,365.00195c-0.27539,1.36719-1.25977,2.11035-2.65039,2.11035c-1.97949,0-2.91406-1.36719-2.97461-3.26172
		c0-1.85938,1.22363-3.22656,2.91406-3.22656c2.19531,0,2.86719,2.05078,2.80664,3.5498h-4.6416
		c-0.03516,1.08008,0.57617,2.03906,1.93164,2.03906c0.83887,0,1.42676-0.40723,1.60645-1.21094H185.75439z M184.771,363.27441
		c-0.04785-0.9707-0.7793-1.75098-1.78711-1.75098c-1.06738,0-1.70313,0.80371-1.77539,1.75098H184.771z"/>
	<path d="M188.46826,362.09961h-1.33203v-1.33105h1.33203V362.09961z M187.13623,365.6377h1.33203v1.33105h-1.33203V365.6377z"/>
	<path d="M193.74854,358.40527h3.10645c0.75488,0,1.75098,0,2.2666,0.31152c0.56348,0.33594,1.00781,0.94824,1.00781,1.78711
		c0,0.91211-0.48047,1.5957-1.27148,1.91895v0.02441c1.05469,0.21582,1.63086,1.00781,1.63086,2.0625
		c0,1.25977-0.89941,2.45898-2.60254,2.45898h-4.1377V358.40527z M194.88818,362.08789h2.27832
		c1.29492,0,1.82324-0.46777,1.82324-1.36816c0-1.18652-0.83984-1.35449-1.82324-1.35449h-2.27832V362.08789z M194.88818,366.00977
		h2.85449c0.9834,0,1.60645-0.60059,1.60645-1.53516c0-1.11621-0.89941-1.42773-1.8584-1.42773h-2.60254V366.00977z"/>
	<path d="M201.86084,358.40527h1.01953v8.56348h-1.01953V358.40527z"/>
	<path d="M209.95752,366.94434c-0.17969,0.1084-0.4082,0.16797-0.73145,0.16797c-0.52832,0-0.86426-0.28711-0.86426-0.95898
		c-0.56348,0.65918-1.31934,0.95898-2.18262,0.95898c-1.12695,0-2.05078-0.50293-2.05078-1.73828
		c0-1.40332,1.04395-1.70313,2.09863-1.90723c1.12793-0.21582,2.08691-0.14453,2.08691-0.91211
		c0-0.88672-0.73145-1.03125-1.37891-1.03125c-0.86328,0-1.49902,0.26367-1.54688,1.17578h-1.01953
		c0.05957-1.53516,1.24707-2.0752,2.62598-2.0752c1.11523,0,2.32715,0.25195,2.32715,1.70313v3.19043
		c0,0.47949,0,0.69531,0.32324,0.69531c0.08398,0,0.18066-0.01172,0.3125-0.05957V366.94434z M208.30225,363.7666
		c-0.39551,0.28809-1.16309,0.2998-1.84668,0.41992c-0.67188,0.12012-1.24805,0.35938-1.24805,1.11523
		c0,0.67188,0.57617,0.91113,1.2002,0.91113c1.34277,0,1.89453-0.83887,1.89453-1.40332V363.7666z"/>
	<path d="M211.98779,359.65234h-1.01953v-1.24707h1.01953V359.65234z M210.96826,360.76855h1.01953v6.2002h-1.01953V360.76855z"/>
	<path d="M213.53662,360.76855h0.95996v1.30664h0.02344c0.49219-0.99512,1.17578-1.4873,2.27881-1.45117v1.08008
		c-1.64307,0-2.24268,0.93457-2.24268,2.50586v2.75879h-1.01953V360.76855z"/>
	<path d="M222.64063,365.00195c-0.27539,1.36719-1.25977,2.11035-2.65039,2.11035c-1.97852,0-2.91406-1.36719-2.97461-3.26172
		c0-1.85938,1.22461-3.22656,2.91406-3.22656c2.19531,0,2.86719,2.05078,2.80664,3.5498h-4.64063
		c-0.03516,1.08008,0.57617,2.03906,1.93164,2.03906c0.83789,0,1.42578-0.40723,1.60547-1.21094H222.64063z M221.6582,363.27441
		c-0.04883-0.9707-0.7793-1.75098-1.78711-1.75098c-1.06836,0-1.70313,0.80371-1.77539,1.75098H221.6582z"/>
	<path d="M233.32031,360.98438c-0.24023-1.21191-1.21094-1.82324-2.39844-1.82324c-2.03906,0-2.90234,1.67871-2.90234,3.46582
		c0,1.95508,0.86328,3.58594,2.91406,3.58594c1.5,0,2.36328-1.05469,2.4707-2.4707h1.14063
		c-0.2168,2.13477-1.54688,3.43066-3.70703,3.43066c-2.66211,0-3.95703-1.9668-3.95703-4.46191
		c0-2.48242,1.41406-4.50977,4.05273-4.50977c1.78711,0,3.26367,0.95996,3.52734,2.7832H233.32031z"/>
	<path d="M241.28906,366.94434c-0.17969,0.1084-0.4082,0.16797-0.73047,0.16797c-0.5293,0-0.86523-0.28711-0.86523-0.95898
		c-0.5625,0.65918-1.31836,0.95898-2.18164,0.95898c-1.12695,0-2.05078-0.50293-2.05078-1.73828
		c0-1.40332,1.04297-1.70313,2.09766-1.90723c1.12891-0.21582,2.08789-0.14453,2.08789-0.91211
		c0-0.88672-0.73242-1.03125-1.37891-1.03125c-0.86328,0-1.5,0.26367-1.54688,1.17578h-1.01953
		c0.05859-1.53516,1.24609-2.0752,2.625-2.0752c1.11523,0,2.32813,0.25195,2.32813,1.70313v3.19043
		c0,0.47949,0,0.69531,0.32227,0.69531c0.08398,0,0.18164-0.01172,0.3125-0.05957V366.94434z M239.63477,363.7666
		c-0.39648,0.28809-1.16406,0.2998-1.84766,0.41992c-0.67188,0.12012-1.24805,0.35938-1.24805,1.11523
		c0,0.67188,0.57617,0.91113,1.20117,0.91113c1.3418,0,1.89453-0.83887,1.89453-1.40332V363.7666z"/>
	<path d="M242.24023,360.76855h0.95898v0.91113h0.02344c0.45703-0.69531,1.15234-1.05566,2.00391-1.05566
		c0.75586,0,1.45117,0.2998,1.70313,1.05566c0.41992-0.66016,1.15039-1.05566,1.94336-1.05566
		c1.23438,0,2.0625,0.51563,2.0625,1.79883v4.5459h-1.01953v-4.06543c0-0.76758-0.20508-1.37988-1.19922-1.37988
		c-0.98438,0-1.61914,0.62402-1.61914,1.58301v3.8623h-1.01953v-4.06543c0-0.80371-0.25195-1.37988-1.16406-1.37988
		c-1.21094,0-1.6543,1.11523-1.6543,1.58301v3.8623h-1.01953V360.76855z"/>
	<path d="M252.51172,360.76855h1.01953v0.83887h0.02344c0.33594-0.68359,1.12891-0.9834,1.98047-0.9834
		c1.90625,0,2.85352,1.51172,2.85352,3.2627s-0.93555,3.22559-2.83008,3.22559c-0.63672,0-1.54688-0.23926-2.00391-0.9707h-0.02344
		v3.20215h-1.01953V360.76855z M255.39063,361.52344c-1.36719,0-1.89453,1.17578-1.89453,2.33887
		c0,1.22363,0.55078,2.35059,1.95508,2.35059c1.39063,0,1.85742-1.1875,1.85742-2.39844
		C257.30859,362.65137,256.70898,361.52344,255.39063,361.52344z"/>
	<path d="M259.62695,358.40527h1.01953v3.20215h0.02344c0.33594-0.68359,1.12891-0.9834,1.98047-0.9834
		c1.90625,0,2.85352,1.51172,2.85352,3.2627s-0.93555,3.22559-2.83008,3.22559c-0.63672,0-1.54688-0.23926-2.00391-0.9707h-0.02344
		v0.82715h-1.01953V358.40527z M262.50586,361.52344c-1.36719,0-1.89453,1.17578-1.89453,2.33887
		c0,1.22363,0.55078,2.35059,1.95508,2.35059c1.39063,0,1.85742-1.1875,1.85742-2.39844
		C264.42383,362.65137,263.82422,361.52344,262.50586,361.52344z"/>
	<path d="M271.99609,365.00195c-0.27539,1.36719-1.25977,2.11035-2.65039,2.11035c-1.97852,0-2.91406-1.36719-2.97461-3.26172
		c0-1.85938,1.22461-3.22656,2.91406-3.22656c2.19531,0,2.86719,2.05078,2.80664,3.5498h-4.64063
		c-0.03516,1.08008,0.57617,2.03906,1.93164,2.03906c0.83789,0,1.42578-0.40723,1.60547-1.21094H271.99609z M271.01367,363.27441
		c-0.04883-0.9707-0.7793-1.75098-1.78711-1.75098c-1.06836,0-1.70313,0.80371-1.77539,1.75098H271.01367z"/>
	<path d="M273.21094,358.40527h1.01953v8.56348h-1.01953V358.40527z"/>
	<path d="M275.875,358.40527h1.01953v8.56348H275.875V358.40527z"/>
	<path d="M125.27783,372.80566h1.13965v7.60449h4.5332v0.95898h-5.67285V372.80566z"/>
	<path d="M137.0708,379.40234c-0.27539,1.36719-1.25977,2.11035-2.65039,2.11035c-1.97949,0-2.91406-1.36719-2.97461-3.26172
		c0-1.85938,1.22363-3.22656,2.91406-3.22656c2.19531,0,2.86719,2.05078,2.80664,3.5498h-4.6416
		c-0.03516,1.08008,0.57617,2.03906,1.93164,2.03906c0.83887,0,1.42676-0.40723,1.60645-1.21094H137.0708z M136.0874,377.6748
		c-0.04785-0.9707-0.7793-1.75098-1.78711-1.75098c-1.06738,0-1.70313,0.80371-1.77539,1.75098H136.0874z"/>
	<path d="M143.71924,381.34473c-0.17969,0.1084-0.4082,0.16797-0.73145,0.16797c-0.52832,0-0.86426-0.28711-0.86426-0.95898
		c-0.56348,0.65918-1.31934,0.95898-2.18262,0.95898c-1.12695,0-2.05078-0.50293-2.05078-1.73828
		c0-1.40332,1.04395-1.70313,2.09863-1.90723c1.12793-0.21582,2.08691-0.14453,2.08691-0.91211
		c0-0.88672-0.73145-1.03125-1.37891-1.03125c-0.86328,0-1.49902,0.26367-1.54688,1.17578h-1.01953
		c0.05957-1.53516,1.24707-2.0752,2.62598-2.0752c1.11523,0,2.32715,0.25195,2.32715,1.70313v3.19043
		c0,0.47949,0,0.69531,0.32324,0.69531c0.08398,0,0.18066-0.01172,0.3125-0.05957V381.34473z M142.06396,378.16699
		c-0.39551,0.28809-1.16309,0.2998-1.84668,0.41992c-0.67188,0.12012-1.24805,0.35938-1.24805,1.11523
		c0,0.67188,0.57617,0.91113,1.2002,0.91113c1.34277,0,1.89453-0.83887,1.89453-1.40332V378.16699z"/>
	<path d="M150.21045,381.36914h-1.01953v-0.83984h-0.02441c-0.33496,0.68359-1.12695,0.9834-1.97852,0.9834
		c-1.90723,0-2.85449-1.51074-2.85449-3.26172s0.93555-3.22656,2.83105-3.22656c0.63477,0,1.54688,0.24023,2.00195,0.97168h0.02441
		v-3.19043h1.01953V381.36914z M147.33154,380.61328c1.36816,0,1.89551-1.1748,1.89551-2.33887
		c0-1.22266-0.55176-2.35059-1.95508-2.35059c-1.3916,0-1.85938,1.1875-1.85938,2.39941
		C145.4126,379.48633,146.01221,380.61328,147.33154,380.61328z"/>
	<path d="M160.24268,375.3125c-0.13184-1.22363-0.94727-1.75098-2.12305-1.75098c-0.95898,0-1.91895,0.34766-1.91895,1.46289
		c0,1.05566,1.36719,1.21191,2.74707,1.52344c1.36719,0.31152,2.73438,0.79199,2.73438,2.4707
		c0,1.82324-1.78711,2.55469-3.34668,2.55469c-1.91895,0-3.53809-0.93555-3.53809-3.02246h1.08008
		c0,1.43945,1.19922,2.0625,2.49414,2.0625c1.03125,0,2.1709-0.32324,2.1709-1.55859c0-1.17578-1.36719-1.37988-2.73438-1.67969
		s-2.74609-0.69531-2.74609-2.2666c0-1.73926,1.54688-2.50684,3.10547-2.50684c1.75098,0,3.08301,0.82813,3.1543,2.71094H160.24268z
		"/>
	<path d="M165.57178,375.02441c1.9668,0,3.00977,1.42773,3.00977,3.25c0,1.81152-1.04297,3.23828-3.00977,3.23828
		s-3.01074-1.42676-3.01074-3.23828C162.56104,376.45215,163.60498,375.02441,165.57178,375.02441z M165.57178,380.61328
		c1.06738,0,1.93066-0.83887,1.93066-2.33887c0-1.51074-0.86328-2.35059-1.93066-2.35059s-1.93164,0.83984-1.93164,2.35059
		C163.64014,379.77441,164.50439,380.61328,165.57178,380.61328z"/>
	<path d="M174.91846,381.36914h-0.95898v-0.9834h-0.02441c-0.43164,0.76758-1.12695,1.12695-2.01465,1.12695
		c-1.63086,0-2.13477-0.93555-2.13477-2.2666v-4.07715h1.01953v4.19727c0,0.75586,0.47949,1.24707,1.25879,1.24707
		c1.23535,0,1.83496-0.82715,1.83496-1.94238v-3.50195h1.01953V381.36914z"/>
	<path d="M176.42139,375.16895h0.95996v1.30664h0.02344c0.49219-0.99512,1.17578-1.4873,2.2793-1.45117v1.08008
		c-1.64355,0-2.24316,0.93457-2.24316,2.50586v2.75879h-1.01953V375.16895z"/>
	<path d="M184.44678,377.15918c-0.15625-0.7793-0.69629-1.23535-1.53516-1.23535c-1.47559,0-1.93164,1.16406-1.93164,2.42285
		c0,1.13965,0.5166,2.2666,1.81152,2.2666c0.9834,0,1.57129-0.5752,1.70313-1.51074h1.04297
		c-0.22754,1.51074-1.1748,2.41016-2.73438,2.41016c-1.89453,0-2.90234-1.31934-2.90234-3.16602
		c0-1.8584,0.95996-3.32227,2.92676-3.32227c1.40332,0,2.53027,0.66016,2.67383,2.13477H184.44678z"/>
	<path d="M191.97021,379.40234c-0.27539,1.36719-1.25879,2.11035-2.65039,2.11035c-1.97949,0-2.91406-1.36719-2.97461-3.26172
		c0-1.85938,1.22363-3.22656,2.91406-3.22656c2.19531,0,2.86719,2.05078,2.80664,3.5498h-4.6416
		c-0.03516,1.08008,0.57617,2.03906,1.93164,2.03906c0.83887,0,1.42676-0.40723,1.60645-1.21094H191.97021z M190.98682,377.6748
		c-0.04785-0.9707-0.7793-1.75098-1.78711-1.75098c-1.06738,0-1.70313,0.80371-1.77539,1.75098H190.98682z"/>
	<path d="M194.68408,376.5h-1.33203v-1.33105h1.33203V376.5z M193.35205,380.03809h1.33203v1.33105h-1.33203V380.03809z"/>
	<path d="M200.21729,376.06836h-1.04395v-0.89941h1.04395v-0.92383c0-1.00781,0.59961-1.53516,1.71484-1.53516
		c0.19238,0,0.46777,0.03613,0.66016,0.0957v0.8877c-0.18066-0.05957-0.39648-0.08398-0.57617-0.08398
		c-0.49219,0-0.7793,0.15625-0.7793,0.69531v0.86426h1.19922v0.89941h-1.19922v5.30078h-1.01953V376.06836z"/>
	<path d="M208.84229,381.34473c-0.17969,0.1084-0.4082,0.16797-0.73145,0.16797c-0.52832,0-0.86426-0.28711-0.86426-0.95898
		c-0.56348,0.65918-1.31934,0.95898-2.18262,0.95898c-1.12695,0-2.05078-0.50293-2.05078-1.73828
		c0-1.40332,1.04395-1.70313,2.09863-1.90723c1.12793-0.21582,2.08691-0.14453,2.08691-0.91211
		c0-0.88672-0.73145-1.03125-1.37891-1.03125c-0.86328,0-1.49902,0.26367-1.54688,1.17578h-1.01953
		c0.05957-1.53516,1.24707-2.0752,2.62598-2.0752c1.11523,0,2.32715,0.25195,2.32715,1.70313v3.19043
		c0,0.47949,0,0.69531,0.32324,0.69531c0.08398,0,0.18066-0.01172,0.3125-0.05957V381.34473z M207.18701,378.16699
		c-0.39551,0.28809-1.16309,0.2998-1.84668,0.41992c-0.67188,0.12012-1.24805,0.35938-1.24805,1.11523
		c0,0.67188,0.57617,0.91113,1.2002,0.91113c1.34277,0,1.89453-0.83887,1.89453-1.40332V378.16699z"/>
	<path d="M214.00244,377.15918c-0.15625-0.7793-0.69629-1.23535-1.53516-1.23535c-1.47559,0-1.93164,1.16406-1.93164,2.42285
		c0,1.13965,0.5166,2.2666,1.81152,2.2666c0.9834,0,1.57129-0.5752,1.70313-1.51074h1.04297
		c-0.22754,1.51074-1.1748,2.41016-2.73438,2.41016c-1.89453,0-2.90234-1.31934-2.90234-3.16602
		c0-1.8584,0.95996-3.32227,2.92676-3.32227c1.40332,0,2.53027,0.66016,2.67383,2.13477H214.00244z"/>
	<path d="M221.52539,379.40234c-0.27539,1.36719-1.25977,2.11035-2.65039,2.11035c-1.97852,0-2.91357-1.36719-2.97412-3.26172
		c0-1.85938,1.22412-3.22656,2.91357-3.22656c2.19531,0,2.86719,2.05078,2.80664,3.5498h-4.64063
		c-0.03516,1.08008,0.57617,2.03906,1.93164,2.03906c0.83789,0,1.42578-0.40723,1.60547-1.21094H221.52539z M220.54297,377.6748
		c-0.04883-0.9707-0.7793-1.75098-1.78711-1.75098c-1.06836,0-1.70313,0.80371-1.77539,1.75098H220.54297z"/>
	<path d="M222.7168,372.80566h1.01953v3.20215h0.02344c0.33594-0.68359,1.12695-0.9834,1.97852-0.9834
		c1.90625,0,2.85547,1.51172,2.85547,3.2627s-0.93555,3.22559-2.83203,3.22559c-0.63477,0-1.54688-0.23926-2.00195-0.9707h-0.02344
		v0.82715h-1.01953V372.80566z M225.59375,375.92383c-1.36719,0-1.89453,1.17578-1.89453,2.33887
		c0,1.22363,0.55273,2.35059,1.95508,2.35059c1.39063,0,1.85938-1.1875,1.85938-2.39844
		C227.51367,377.05176,226.91406,375.92383,225.59375,375.92383z"/>
	<path d="M232.4707,375.02441c1.9668,0,3.00977,1.42773,3.00977,3.25c0,1.81152-1.04297,3.23828-3.00977,3.23828
		s-3.00977-1.42676-3.00977-3.23828C229.46094,376.45215,230.50391,375.02441,232.4707,375.02441z M232.4707,380.61328
		c1.06836,0,1.93164-0.83887,1.93164-2.33887c0-1.51074-0.86328-2.35059-1.93164-2.35059
		c-1.06641,0-1.93164,0.83984-1.93164,2.35059C230.53906,379.77441,231.4043,380.61328,232.4707,380.61328z"/>
	<path d="M239.35938,375.02441c1.9668,0,3.00977,1.42773,3.00977,3.25c0,1.81152-1.04297,3.23828-3.00977,3.23828
		s-3.01172-1.42676-3.01172-3.23828C236.34766,376.45215,237.39258,375.02441,239.35938,375.02441z M239.35938,380.61328
		c1.06641,0,1.92969-0.83887,1.92969-2.33887c0-1.51074-0.86328-2.35059-1.92969-2.35059
		c-1.06836,0-1.93164,0.83984-1.93164,2.35059C237.42773,379.77441,238.29102,380.61328,239.35938,380.61328z"/>
	<path d="M243.63086,372.80566h1.01953v5.07324l2.83203-2.70996h1.36719l-2.45898,2.25391l2.63867,3.94629h-1.29492
		l-2.12305-3.23828l-0.96094,0.8877v2.35059h-1.01953V372.80566z"/>
	<path d="M125.27783,387.20508h1.13965v7.60352h4.5332v0.95996h-5.67285V387.20508z"/>
	<path d="M137.0708,393.80176c-0.27539,1.36719-1.25977,2.11035-2.65039,2.11035c-1.97949,0-2.91406-1.36719-2.97461-3.26172
		c0-1.85938,1.22363-3.22656,2.91406-3.22656c2.19531,0,2.86719,2.05078,2.80664,3.5498h-4.6416
		c-0.03516,1.08008,0.57617,2.03906,1.93164,2.03906c0.83887,0,1.42676-0.40723,1.60645-1.21094H137.0708z M136.0874,392.07422
		c-0.04785-0.9707-0.7793-1.75098-1.78711-1.75098c-1.06738,0-1.70313,0.80371-1.77539,1.75098H136.0874z"/>
	<path d="M143.71924,395.74414c-0.17969,0.1084-0.4082,0.16797-0.73145,0.16797c-0.52832,0-0.86426-0.28711-0.86426-0.95898
		c-0.56348,0.65918-1.31934,0.95898-2.18262,0.95898c-1.12695,0-2.05078-0.50293-2.05078-1.73828
		c0-1.40332,1.04395-1.70313,2.09863-1.90723c1.12793-0.21582,2.08691-0.14355,2.08691-0.91113
		c0-0.8877-0.73145-1.03223-1.37891-1.03223c-0.86328,0-1.49902,0.26465-1.54688,1.17578h-1.01953
		c0.05957-1.53516,1.24707-2.0752,2.62598-2.0752c1.11523,0,2.32715,0.25195,2.32715,1.70313v3.19043
		c0,0.47949,0,0.69531,0.32324,0.69531c0.08398,0,0.18066-0.01172,0.3125-0.05957V395.74414z M142.06396,392.56641
		c-0.39551,0.28809-1.16309,0.2998-1.84668,0.41992c-0.67188,0.12012-1.24805,0.35938-1.24805,1.11523
		c0,0.67188,0.57617,0.91113,1.2002,0.91113c1.34277,0,1.89453-0.83887,1.89453-1.40332V392.56641z"/>
	<path d="M150.21045,395.76855h-1.01953v-0.83984h-0.02441c-0.33496,0.68359-1.12695,0.9834-1.97852,0.9834
		c-1.90723,0-2.85449-1.51074-2.85449-3.26172s0.93555-3.22656,2.83105-3.22656c0.63477,0,1.54688,0.24023,2.00195,0.97168h0.02441
		v-3.19043h1.01953V395.76855z M147.33154,395.0127c1.36816,0,1.89551-1.1748,1.89551-2.33887
		c0-1.22266-0.55176-2.35059-1.95508-2.35059c-1.3916,0-1.85938,1.1875-1.85938,2.39941
		C145.4126,393.88574,146.01221,395.0127,147.33154,395.0127z"/>
	<path d="M155.28955,387.20508h3.75391c1.70313,0,2.62695,0.94727,2.62695,2.53125c0,1.58301-0.92383,2.54199-2.62695,2.53027
		h-2.61426v3.50195h-1.13965V387.20508z M156.4292,391.30664h2.23047c1.2832,0.0127,1.87109-0.55176,1.87109-1.57031
		c0-1.01953-0.58789-1.57129-1.87109-1.57129h-2.23047V391.30664z"/>
	<path d="M162.89697,387.20508h1.01953v3.27441h0.02344c0.33594-0.74316,1.21191-1.05566,1.95508-1.05566
		c1.63184,0,2.13477,0.93555,2.13477,2.2666v4.07813h-1.01953v-4.19727c0-0.75586-0.47949-1.24805-1.25879-1.24805
		c-1.23535,0-1.83496,0.82813-1.83496,1.94336v3.50195h-1.01953V387.20508z"/>
	<path d="M172.24365,389.42383c1.9668,0,3.00977,1.42773,3.00977,3.25c0,1.81152-1.04297,3.23828-3.00977,3.23828
		s-3.01074-1.42676-3.01074-3.23828C169.23291,390.85156,170.27686,389.42383,172.24365,389.42383z M172.24365,395.0127
		c1.06738,0,1.93066-0.83887,1.93066-2.33887c0-1.51074-0.86328-2.35059-1.93066-2.35059s-1.93164,0.83984-1.93164,2.35059
		C170.31201,394.17383,171.17627,395.0127,172.24365,395.0127z"/>
	<path d="M176.45752,389.56836h0.95898v0.9834h0.02441c0.43164-0.76758,1.12793-1.12793,2.01465-1.12793
		c1.63184,0,2.13477,0.93555,2.13477,2.2666v4.07813h-1.01953v-4.19727c0-0.75586-0.47949-1.24805-1.25879-1.24805
		c-1.23535,0-1.83496,0.82813-1.83496,1.94336v3.50195h-1.01953V389.56836z"/>
	<path d="M188.41846,393.80176c-0.27539,1.36719-1.25977,2.11035-2.65039,2.11035c-1.97949,0-2.91406-1.36719-2.97461-3.26172
		c0-1.85938,1.22363-3.22656,2.91406-3.22656c2.19531,0,2.86719,2.05078,2.80664,3.5498h-4.6416
		c-0.03516,1.08008,0.57617,2.03906,1.93164,2.03906c0.83887,0,1.42676-0.40723,1.60645-1.21094H188.41846z M187.43506,392.07422
		c-0.04785-0.9707-0.7793-1.75098-1.78711-1.75098c-1.06738,0-1.70313,0.80371-1.77539,1.75098H187.43506z"/>
	<path d="M191.13232,390.89941h-1.33203v-1.33105h1.33203V390.89941z M189.80029,394.4375h1.33203v1.33105h-1.33203V394.4375z"/>
	<path d="M197.08447,393.71777c0.07129,0.82715,0.74316,1.29492,1.55859,1.29492c1.24805,0,1.85938-1.09082,1.91895-3.28613
		l-0.02344-0.02344c-0.38379,0.71973-1.13965,1.1748-1.9668,1.1748c-1.72754,0-2.68652-1.16309-2.68652-2.8418
		c0-1.64355,1.15137-2.77051,2.79395-2.77051c1.58301,0,2.91406,0.85156,2.91406,4.06543c0,2.93848-0.88672,4.58105-2.9502,4.58105
		c-1.42676,0-2.44629-0.73145-2.57813-2.19434H197.08447z M198.63135,388.16504c-1.21094,0-1.66699,0.9707-1.66699,2.01465
		c0,0.93555,0.69531,1.79883,1.67871,1.79883c1.06738,0,1.73926-0.86328,1.73926-1.87109
		C200.38232,389.06445,199.771,388.16504,198.63135,388.16504z"/>
	<path d="M205.48389,387.26563c2.66309,0,2.83105,2.44629,2.83105,4.3291c0,1.87109-0.16797,4.31738-2.83105,4.31738
		c-2.66211,0-2.83008-2.44629-2.83008-4.31738C202.65381,389.71191,202.82178,387.26563,205.48389,387.26563z M205.48389,395.0127
		c1.73926,0,1.75098-2.1582,1.75098-3.42969c0-1.25977-0.01172-3.41797-1.75098-3.41797s-1.75098,2.1582-1.75098,3.41797
		C203.73291,392.85449,203.74463,395.0127,205.48389,395.0127z"/>
	<path d="M214.4585,388.30859h-3.42969l-0.45605,2.44629l0.02441,0.02441c0.37109-0.41992,1.00684-0.61133,1.58301-0.61133
		c1.51074,0,2.74609,0.9707,2.74609,2.91406c0,1.43945-0.99512,2.83008-2.97461,2.83008c-1.47461,0-2.67383-0.89941-2.70996-2.43457
		h1.01953c0.05957,0.87598,0.76758,1.53516,1.78711,1.53516c0.9707,0,1.79883-0.65918,1.79883-2.01465
		c0-1.12695-0.7793-1.93066-1.91895-1.93066c-0.64746,0-1.1875,0.32324-1.58301,0.80371l-0.87598-0.04883l0.79199-4.41309h4.19727
		V388.30859z"/>
	<path d="M216.02148,390.27539c-0.08447-1.72656,0.93555-3.00977,2.73438-3.00977c1.48633,0,2.66211,0.86328,2.66211,2.44629
		c0,1.49902-1.00781,2.25488-2.0625,2.91406c-1.06641,0.64746-2.18359,1.1875-2.38672,2.24316h4.36523v0.89941h-5.55225
		c0.16797-2.01465,1.18701-2.73438,2.38623-3.47852c1.43945-0.88672,2.17188-1.41504,2.17188-2.58984
		c0-0.92383-0.74414-1.53516-1.64453-1.53516c-1.1875,0-1.69141,1.09082-1.6543,2.11035H216.02148z"/>
	<path d="M226.43555,395.76855h-1.01953v-6.09277h-2.20703v-0.81543c1.16406,0,2.21875-0.31152,2.44727-1.59473h0.7793V395.76855z"
		/>
	<path d="M231.45117,390.91113c0.15625,0.01172,0.30078,0.01172,0.44531,0.01172c0.86328,0,1.61914-0.46777,1.61914-1.39063
		c0-0.8877-0.64844-1.36719-1.51172-1.36719c-1.11523,0-1.5957,0.85156-1.60742,1.84668h-1.01953
		c0.06055-1.61914,0.92383-2.74609,2.62695-2.74609c1.47461,0,2.58984,0.70703,2.58984,2.27832
		c0,0.74316-0.52734,1.3916-1.17578,1.69141v0.02344c1.0332,0.22852,1.53516,1.04395,1.53516,2.06348
		c0,1.70313-1.33008,2.58984-2.92578,2.58984c-1.72656,0-2.86523-1.01953-2.83008-2.77051h1.01953
		c0.03516,1.10352,0.64844,1.87109,1.81055,1.87109c0.99609,0,1.84766-0.61133,1.84766-1.64258
		c0-1.06738-0.80469-1.63184-1.81055-1.63184c-0.20508,0-0.41992,0.0127-0.61328,0.03613V390.91113z"/>
	<path d="M240.53516,392.87793h1.15039v0.89941h-1.15039v1.99121h-0.96094v-1.99121h-3.72852v-0.9834l3.87305-5.52832h0.81641
		V392.87793z M239.57422,392.87793v-4.16113h-0.02344l-2.83008,4.16113H239.57422z"/>
	<path d="M245.51563,387.26563c2.66211,0,2.83008,2.44629,2.83008,4.3291c0,1.87109-0.16797,4.31738-2.83008,4.31738
		s-2.83008-2.44629-2.83008-4.31738C242.68555,389.71191,242.85352,387.26563,245.51563,387.26563z M245.51563,395.0127
		c1.73828,0,1.75-2.1582,1.75-3.42969c0-1.25977-0.01172-3.41797-1.75-3.41797c-1.74023,0-1.75195,2.1582-1.75195,3.41797
		C243.76367,392.85449,243.77539,395.0127,245.51563,395.0127z"/>
	<path d="M249.38086,390.27539c-0.08398-1.72656,0.93555-3.00977,2.73438-3.00977c1.48633,0,2.66211,0.86328,2.66211,2.44629
		c0,1.49902-1.00781,2.25488-2.0625,2.91406c-1.06641,0.64746-2.18359,1.1875-2.38672,2.24316h4.36523v0.89941h-5.55273
		c0.16797-2.01465,1.1875-2.73438,2.38672-3.47852c1.43945-0.88672,2.17188-1.41504,2.17188-2.58984
		c0-0.92383-0.74414-1.53516-1.64453-1.53516c-1.1875,0-1.69141,1.09082-1.6543,2.11035H249.38086z"/>
	<path d="M258.14063,390.91113c0.15625,0.01172,0.29883,0.01172,0.44336,0.01172c0.86328,0,1.61914-0.46777,1.61914-1.39063
		c0-0.8877-0.64844-1.36719-1.51172-1.36719c-1.11523,0-1.59375,0.85156-1.60547,1.84668h-1.01953
		c0.05859-1.61914,0.92188-2.74609,2.625-2.74609c1.47656,0,2.5918,0.70703,2.5918,2.27832
		c0,0.74316-0.52734,1.3916-1.17578,1.69141v0.02344c1.03125,0.22852,1.53516,1.04395,1.53516,2.06348
		c0,1.70313-1.33203,2.58984-2.92578,2.58984c-1.72852,0-2.86719-1.01953-2.83203-2.77051h1.01953
		c0.03711,1.10352,0.64844,1.87109,1.8125,1.87109c0.99414,0,1.8457-0.61133,1.8457-1.64258
		c0-1.06738-0.80273-1.63184-1.81055-1.63184c-0.20313,0-0.41992,0.0127-0.61133,0.03613V390.91113z"/>
	<path d="M125.27783,401.60547h1.13965v7.60352h4.5332v0.95996h-5.67285V401.60547z"/>
	<path d="M137.0708,408.20215c-0.27539,1.36719-1.25977,2.11035-2.65039,2.11035c-1.97949,0-2.91406-1.36719-2.97461-3.26172
		c0-1.85938,1.22363-3.22656,2.91406-3.22656c2.19531,0,2.86719,2.05078,2.80664,3.5498h-4.6416
		c-0.03516,1.08008,0.57617,2.03906,1.93164,2.03906c0.83887,0,1.42676-0.40723,1.60645-1.21094H137.0708z M136.0874,406.47461
		c-0.04785-0.9707-0.7793-1.75098-1.78711-1.75098c-1.06738,0-1.70313,0.80371-1.77539,1.75098H136.0874z"/>
	<path d="M143.71924,410.14453c-0.17969,0.1084-0.4082,0.16797-0.73145,0.16797c-0.52832,0-0.86426-0.28711-0.86426-0.95898
		c-0.56348,0.65918-1.31934,0.95898-2.18262,0.95898c-1.12695,0-2.05078-0.50293-2.05078-1.73828
		c0-1.40332,1.04395-1.70313,2.09863-1.90723c1.12793-0.21582,2.08691-0.14355,2.08691-0.91113
		c0-0.8877-0.73145-1.03223-1.37891-1.03223c-0.86328,0-1.49902,0.26465-1.54688,1.17578h-1.01953
		c0.05957-1.53516,1.24707-2.0752,2.62598-2.0752c1.11523,0,2.32715,0.25195,2.32715,1.70313v3.19043
		c0,0.47949,0,0.69531,0.32324,0.69531c0.08398,0,0.18066-0.01172,0.3125-0.05957V410.14453z M142.06396,406.9668
		c-0.39551,0.28809-1.16309,0.2998-1.84668,0.41992c-0.67188,0.12012-1.24805,0.35938-1.24805,1.11523
		c0,0.67188,0.57617,0.91113,1.2002,0.91113c1.34277,0,1.89453-0.83887,1.89453-1.40332V406.9668z"/>
	<path d="M150.21045,410.16895h-1.01953v-0.83984h-0.02441c-0.33496,0.68359-1.12695,0.9834-1.97852,0.9834
		c-1.90723,0-2.85449-1.51074-2.85449-3.26172s0.93555-3.22656,2.83105-3.22656c0.63477,0,1.54688,0.24023,2.00195,0.97168h0.02441
		v-3.19043h1.01953V410.16895z M147.33154,409.41309c1.36816,0,1.89551-1.1748,1.89551-2.33887
		c0-1.22266-0.55176-2.35059-1.95508-2.35059c-1.3916,0-1.85938,1.1875-1.85938,2.39941
		C145.4126,408.28613,146.01221,409.41309,147.33154,409.41309z"/>
	<path d="M155.28955,401.60547h5.91309v0.95996h-4.77344v2.72266h4.44922v0.95898h-4.44922v2.96191h4.80859v0.95996h-5.94824
		V401.60547z"/>
	<path d="M162.45361,403.96875h0.95898v0.91113h0.02441c0.45605-0.69531,1.15137-1.05566,2.00293-1.05566
		c0.75586,0,1.45117,0.2998,1.70313,1.05566c0.41992-0.65918,1.15137-1.05566,1.94336-1.05566
		c1.23438,0,2.0625,0.51563,2.0625,1.79883v4.5459h-1.01953v-4.06543c0-0.76758-0.2041-1.37988-1.19922-1.37988
		c-0.9834,0-1.61914,0.62402-1.61914,1.58301v3.8623h-1.01953v-4.06543c0-0.80371-0.25195-1.37988-1.16309-1.37988
		c-1.21191,0-1.65527,1.11523-1.65527,1.58301v3.8623h-1.01953V403.96875z"/>
	<path d="M178.18213,410.14453c-0.17969,0.1084-0.4082,0.16797-0.73145,0.16797c-0.52832,0-0.86426-0.28711-0.86426-0.95898
		c-0.56348,0.65918-1.31934,0.95898-2.18262,0.95898c-1.12695,0-2.05078-0.50293-2.05078-1.73828
		c0-1.40332,1.04395-1.70313,2.09863-1.90723c1.12793-0.21582,2.08691-0.14355,2.08691-0.91113
		c0-0.8877-0.73145-1.03223-1.37891-1.03223c-0.86328,0-1.49902,0.26465-1.54688,1.17578h-1.01953
		c0.05957-1.53516,1.24707-2.0752,2.62598-2.0752c1.11523,0,2.32715,0.25195,2.32715,1.70313v3.19043
		c0,0.47949,0,0.69531,0.32324,0.69531c0.08398,0,0.18066-0.01172,0.3125-0.05957V410.14453z M176.52686,406.9668
		c-0.39551,0.28809-1.16309,0.2998-1.84668,0.41992c-0.67188,0.12012-1.24805,0.35938-1.24805,1.11523
		c0,0.67188,0.57617,0.91113,1.2002,0.91113c1.34277,0,1.89453-0.83887,1.89453-1.40332V406.9668z"/>
	<path d="M180.2124,402.85254h-1.01953v-1.24707h1.01953V402.85254z M179.19287,403.96875h1.01953v6.2002h-1.01953V403.96875z"/>
	<path d="M181.85693,401.60547h1.01953v8.56348h-1.01953V401.60547z"/>
	<path d="M186.02002,405.2998h-1.33203v-1.33105h1.33203V405.2998z M184.68799,408.83789h1.33203v1.33105h-1.33203V408.83789z"/>
	<path class="st9" d="M191.16846,401.60547h1.01953v3.20215h0.02344c0.33594-0.68359,1.12793-0.9834,1.97949-0.9834
		c1.90625,0,2.85449,1.51172,2.85449,3.2627s-0.93555,3.22559-2.83105,3.22559c-0.63574,0-1.54688-0.23926-2.00293-0.9707h-0.02344
		v0.82715h-1.01953V401.60547z M194.04639,404.72363c-1.36719,0-1.89453,1.17578-1.89453,2.33887
		c0,1.22363,0.55176,2.35059,1.95508,2.35059c1.39063,0,1.8584-1.1875,1.8584-2.39844
		C195.96533,405.85156,195.36572,404.72363,194.04639,404.72363z"/>
	<path class="st9" d="M198.47607,408.83789h1.33203v1.33105h-1.33203V408.83789z"/>
	<path class="st9" d="M205.79443,405.95898c-0.15625-0.7793-0.69629-1.23535-1.53516-1.23535
		c-1.47559,0-1.93164,1.16406-1.93164,2.42285c0,1.13965,0.5166,2.2666,1.81152,2.2666c0.9834,0,1.57129-0.5752,1.70313-1.51074
		h1.04297c-0.22754,1.51074-1.1748,2.41016-2.73438,2.41016c-1.89453,0-2.90234-1.31934-2.90234-3.16602
		c0-1.8584,0.95996-3.32227,2.92676-3.32227c1.40332,0,2.53027,0.66016,2.67383,2.13477H205.79443z"/>
	<path class="st9" d="M213.52197,410.14453c-0.17969,0.1084-0.4082,0.16797-0.73145,0.16797
		c-0.52832,0-0.86426-0.28711-0.86426-0.95898c-0.56348,0.65918-1.31934,0.95898-2.18262,0.95898
		c-1.12695,0-2.05078-0.50293-2.05078-1.73828c0-1.40332,1.04395-1.70313,2.09863-1.90723
		c1.12793-0.21582,2.08691-0.14355,2.08691-0.91113c0-0.8877-0.73145-1.03223-1.37891-1.03223
		c-0.86328,0-1.49902,0.26465-1.54688,1.17578h-1.01953c0.05957-1.53516,1.24707-2.0752,2.62598-2.0752
		c1.11523,0,2.32715,0.25195,2.32715,1.70313v3.19043c0,0.47949,0,0.69531,0.32324,0.69531
		c0.08398,0,0.18066-0.01172,0.3125-0.05957V410.14453z M211.8667,406.9668c-0.39551,0.28809-1.16309,0.2998-1.84668,0.41992
		c-0.67188,0.12012-1.24805,0.35938-1.24805,1.11523c0,0.67188,0.57617,0.91113,1.2002,0.91113
		c1.34277,0,1.89453-0.83887,1.89453-1.40332V406.9668z"/>
	<path class="st9" d="M214.47217,403.96875h0.95996v0.91113h0.02344c0.45605-0.69531,1.15186-1.05566,2.00342-1.05566
		c0.75586,0,1.45117,0.2998,1.70313,1.05566c0.41992-0.65918,1.15039-1.05566,1.94336-1.05566
		c1.23438,0,2.0625,0.51563,2.0625,1.79883v4.5459h-1.01953v-4.06543c0-0.76758-0.20508-1.37988-1.19922-1.37988
		c-0.98438,0-1.61914,0.62402-1.61914,1.58301v3.8623h-1.01953v-4.06543c0-0.80371-0.25195-1.37988-1.16406-1.37988
		c-1.21143,0-1.65479,1.11523-1.65479,1.58301v3.8623h-1.01953V403.96875z"/>
	<path class="st9" d="M224.74414,403.96875h1.01953v0.83887h0.02344c0.33594-0.68359,1.12891-0.9834,1.98047-0.9834
		c1.90625,0,2.85352,1.51172,2.85352,3.2627s-0.93555,3.22559-2.83008,3.22559c-0.63672,0-1.54688-0.23926-2.00391-0.9707h-0.02344
		v3.20215h-1.01953V403.96875z M227.62305,404.72363c-1.36719,0-1.89453,1.17578-1.89453,2.33887
		c0,1.22363,0.55078,2.35059,1.95508,2.35059c1.39063,0,1.85742-1.1875,1.85742-2.39844
		C229.54102,405.85156,228.94141,404.72363,227.62305,404.72363z"/>
	<path class="st9" d="M231.85938,401.60547h1.01953v3.20215h0.02344c0.33594-0.68359,1.12891-0.9834,1.98047-0.9834
		c1.90625,0,2.85352,1.51172,2.85352,3.2627s-0.93555,3.22559-2.83008,3.22559c-0.63672,0-1.54688-0.23926-2.00391-0.9707h-0.02344
		v0.82715h-1.01953V401.60547z M234.73828,404.72363c-1.36719,0-1.89453,1.17578-1.89453,2.33887
		c0,1.22363,0.55078,2.35059,1.95508,2.35059c1.39063,0,1.85742-1.1875,1.85742-2.39844
		C236.65625,405.85156,236.05664,404.72363,234.73828,404.72363z"/>
	<path class="st9" d="M244.22852,408.20215c-0.27539,1.36719-1.25977,2.11035-2.65039,2.11035
		c-1.97852,0-2.91406-1.36719-2.97461-3.26172c0-1.85938,1.22461-3.22656,2.91406-3.22656c2.19531,0,2.86719,2.05078,2.80664,3.5498
		h-4.64063c-0.03516,1.08008,0.57617,2.03906,1.93164,2.03906c0.83789,0,1.42578-0.40723,1.60547-1.21094H244.22852z
		 M243.24609,406.47461c-0.04883-0.9707-0.7793-1.75098-1.78711-1.75098c-1.06836,0-1.70313,0.80371-1.77539,1.75098H243.24609z"/>
	<path class="st9" d="M245.44336,401.60547h1.01953v8.56348h-1.01953V401.60547z"/>
	<path class="st9" d="M248.10742,401.60547h1.01953v8.56348h-1.01953V401.60547z"/>
	<path class="st9" d="M256.34766,406.93066c-0.05859,0.2041-0.13086,0.43164-0.13086,0.61133
		c0,0.21582,0.08398,0.37207,0.28711,0.37207c0.73242,0,1.65625-1.47461,1.65625-2.75879c0-1.89453-1.57227-3.09375-3.25195-3.09375
		c-2.05078,0-3.64453,1.75098-3.64453,3.84961c0,2.13477,1.69141,3.80176,3.70508,3.80176c1.14063,0,2.30273-0.5752,2.97461-1.45117
		h0.75586c-0.76758,1.31934-2.21875,2.11133-3.75391,2.11133c-2.53125,0-4.49805-1.99121-4.49805-4.52148
		c0-2.4707,2.01563-4.4502,4.44922-4.4502c2.21875,0,4.07813,1.53516,4.07813,3.69434c0,2.08691-1.67969,3.47852-2.80664,3.47852
		c-0.4082,0-0.74219-0.25195-0.76758-0.78027h-0.03516c-0.35938,0.41992-0.90039,0.80371-1.48828,0.80371
		c-1.01953,0-1.71484-0.83984-1.71484-1.89453c0-1.66699,1.12695-3.40625,2.81836-3.40625c0.55273,0,1.06836,0.26367,1.34375,0.9834
		l0.27539-0.75586h0.75586L256.34766,406.93066z M253.0625,406.61914c0,0.67188,0.43164,1.16309,1.03125,1.16309
		c1.04297,0,1.85938-1.57129,1.85938-2.55469c0-0.5752-0.46875-1.11523-0.97266-1.11523
		C253.85352,404.1123,253.0625,405.5752,253.0625,406.61914z"/>
	<path class="st9" d="M265.66016,409.6416c0,2.01465-0.92383,3.0459-2.87891,3.0459c-1.16211,0-2.50586-0.46777-2.56641-1.82324
		h1.01953c0.04883,0.74414,0.93555,1.00781,1.60742,1.00781c1.33203,0,1.85938-0.95996,1.85938-2.35059v-0.4082h-0.02539
		c-0.33594,0.75586-1.15039,1.12793-1.92969,1.12793c-1.84766,0-2.77148-1.45117-2.77148-3.14258
		c0-1.46289,0.7207-3.27441,2.86719-3.27441c0.7793,0,1.47461,0.34766,1.84766,1.03125h0.01172v-0.88672h0.95898V409.6416z
		 M264.65234,406.94238c0-1.09082-0.47852-2.21875-1.76367-2.21875c-1.30664,0-1.83398,1.06738-1.83398,2.25488
		c0,1.11523,0.4082,2.36328,1.75,2.36328C264.14844,409.3418,264.65234,408.10645,264.65234,406.94238z"/>
	<path class="st9" d="M267.19922,403.96875h0.95898v0.91113h0.02344c0.45703-0.69531,1.15234-1.05566,2.00391-1.05566
		c0.75586,0,1.45117,0.2998,1.70313,1.05566c0.41992-0.65918,1.15039-1.05566,1.94336-1.05566
		c1.23438,0,2.0625,0.51563,2.0625,1.79883v4.5459H274.875v-4.06543c0-0.76758-0.20508-1.37988-1.19922-1.37988
		c-0.98438,0-1.61914,0.62402-1.61914,1.58301v3.8623h-1.01953v-4.06543c0-0.80371-0.25195-1.37988-1.16406-1.37988
		c-1.21094,0-1.6543,1.11523-1.6543,1.58301v3.8623h-1.01953V403.96875z"/>
	<path class="st9" d="M282.92773,410.14453c-0.17969,0.1084-0.4082,0.16797-0.73047,0.16797
		c-0.5293,0-0.86523-0.28711-0.86523-0.95898c-0.5625,0.65918-1.31836,0.95898-2.18164,0.95898
		c-1.12695,0-2.05078-0.50293-2.05078-1.73828c0-1.40332,1.04297-1.70313,2.09766-1.90723
		c1.12891-0.21582,2.08789-0.14355,2.08789-0.91113c0-0.8877-0.73242-1.03223-1.37891-1.03223
		c-0.86328,0-1.5,0.26465-1.54688,1.17578h-1.01953c0.05859-1.53516,1.24609-2.0752,2.625-2.0752
		c1.11523,0,2.32813,0.25195,2.32813,1.70313v3.19043c0,0.47949,0,0.69531,0.32227,0.69531
		c0.08398,0,0.18164-0.01172,0.3125-0.05957V410.14453z M281.27344,406.9668c-0.39648,0.28809-1.16406,0.2998-1.84766,0.41992
		c-0.67188,0.12012-1.24805,0.35938-1.24805,1.11523c0,0.67188,0.57617,0.91113,1.20117,0.91113
		c1.3418,0,1.89453-0.83887,1.89453-1.40332V406.9668z"/>
	<path class="st9" d="M284.95898,402.85254h-1.01953v-1.24707h1.01953V402.85254z M283.93945,403.96875h1.01953v6.2002h-1.01953
		V403.96875z"/>
	<path class="st9" d="M286.60156,401.60547h1.01953v8.56348h-1.01953V401.60547z"/>
	<path class="st9" d="M289.43359,408.83789h1.33203v1.33105h-1.33203V408.83789z"/>
	<path class="st9" d="M296.75195,405.95898c-0.15625-0.7793-0.69531-1.23535-1.53516-1.23535
		c-1.47461,0-1.93164,1.16406-1.93164,2.42285c0,1.13965,0.51758,2.2666,1.8125,2.2666c0.98242,0,1.57031-0.5752,1.70313-1.51074
		h1.04297c-0.22852,1.51074-1.17578,2.41016-2.73438,2.41016c-1.89453,0-2.90234-1.31934-2.90234-3.16602
		c0-1.8584,0.95898-3.32227,2.92578-3.32227c1.4043,0,2.53125,0.66016,2.67383,2.13477H296.75195z"/>
	<path class="st9" d="M301.66211,403.82422c1.9668,0,3.00977,1.42773,3.00977,3.25c0,1.81152-1.04297,3.23828-3.00977,3.23828
		s-3.01172-1.42676-3.01172-3.23828C298.65039,405.25195,299.69531,403.82422,301.66211,403.82422z M301.66211,409.41309
		c1.06641,0,1.92969-0.83887,1.92969-2.33887c0-1.51074-0.86328-2.35059-1.92969-2.35059
		c-1.06836,0-1.93164,0.83984-1.93164,2.35059C299.73047,408.57422,300.59375,409.41309,301.66211,409.41309z"/>
	<path class="st9" d="M305.875,403.96875h0.95898v0.91113h0.02344c0.45703-0.69531,1.15234-1.05566,2.00391-1.05566
		c0.75586,0,1.45117,0.2998,1.70313,1.05566c0.41992-0.65918,1.15039-1.05566,1.94336-1.05566
		c1.23438,0,2.0625,0.51563,2.0625,1.79883v4.5459h-1.01953v-4.06543c0-0.76758-0.20508-1.37988-1.19922-1.37988
		c-0.98438,0-1.61914,0.62402-1.61914,1.58301v3.8623h-1.01953v-4.06543c0-0.80371-0.25195-1.37988-1.16406-1.37988
		c-1.21094,0-1.6543,1.11523-1.6543,1.58301v3.8623H305.875V403.96875z"/>
</g>
<g>
	<path class="st10" d="M192.58203,344.60156h2.07031c0.50391,0,1.16797,0,1.51172,0.20801
		c0.375,0.22363,0.6709,0.63184,0.6709,1.19141c0,0.60742-0.31934,1.06348-0.84766,1.2793v0.01563
		c0.7041,0.14453,1.08789,0.67188,1.08789,1.37598c0,0.83887-0.59961,1.63867-1.73535,1.63867h-2.75781V344.60156z
		 M193.34082,347.05664h1.51953c0.86328,0,1.21582-0.3125,1.21582-0.91211c0-0.79102-0.56055-0.90332-1.21582-0.90332h-1.51953
		V347.05664z M193.34082,349.6709h1.90332c0.65527,0,1.07129-0.39941,1.07129-1.02344c0-0.74316-0.59961-0.95117-1.23926-0.95117
		h-1.73535V349.6709z"/>
	<path class="st10" d="M200.47656,344.46582c1.81543,0,2.73438,1.43945,2.73438,2.99023s-0.91895,2.99023-2.73438,2.99023
		c-1.81445,0-2.73438-1.43945-2.73438-2.99023S198.66211,344.46582,200.47656,344.46582z M200.47656,349.80664
		c1.3916,0,1.97559-1.19922,1.97559-2.35059s-0.58398-2.35059-1.97559-2.35059c-1.39063,0-1.97461,1.19922-1.97461,2.35059
		S199.08594,349.80664,200.47656,349.80664z"/>
	<path class="st10" d="M205.43652,345.24121h-1.90332v-0.63965h4.56543v0.63965h-1.90234v5.06934h-0.75977V345.24121z"/>
</g>
<g>
	<path class="st10" d="M217.13574,350.31055h-0.67969v-4.06152h-1.47168v-0.54395c0.77539,0,1.47949-0.20801,1.63184-1.06348
		h0.51953V350.31055z"/>
	<path class="st10" d="M221.58398,350.31055h-0.67969v-4.06152h-1.47168v-0.54395c0.77637,0,1.47949-0.20801,1.63184-1.06348
		h0.51953V350.31055z"/>
	<path class="st10" d="M224.73633,347.06445h-0.88672v-0.8877h0.88672V347.06445z M223.84961,349.42285h0.88672v0.8877h-0.88672
		V349.42285z"/>
	<path class="st10" d="M228.25586,350.31055h-0.67969v-4.06152h-1.47168v-0.54395c0.77637,0,1.47949-0.20801,1.63184-1.06348
		h0.51953V350.31055z"/>
	<path class="st10" d="M232.7041,350.31055h-0.67969v-4.06152h-1.47168v-0.54395c0.77539,0,1.47949-0.20801,1.63184-1.06348h0.51953
		V350.31055z"/>
	<path class="st10" d="M238.7041,344.60156h0.83984l2.23047,5.70898h-0.83984l-0.62305-1.71875h-2.41504l-0.63965,1.71875h-0.7832
		L238.7041,344.60156z M238.13672,347.95215h1.93457l-0.95117-2.66309h-0.0166L238.13672,347.95215z"/>
	<path class="st10" d="M242.35254,344.60156h1.03906l1.7998,4.79785l1.80664-4.79785h1.03906v5.70898h-0.71973v-4.74902h-0.01563
		l-1.7832,4.74902h-0.64746l-1.7832-4.74902h-0.01563v4.74902h-0.71973V344.60156z"/>
</g>
<g>
	<polygon class="st0" points="103.58527,357.7222 106.21042,357.7222 106.21042,356.85391 104.48026,356.85391 104.48026,350.92194 
		103.58527,350.92194 103.58527,350.93106 95.53607,350.93106 96.50941,351.79886 103.58527,351.79886 	"/>
	<polyline class="st0" points="105.25068,351.78949 112.79393,351.78949 113.76702,350.92194 105.25068,350.92194 	"/>
	<polygon class="st0" points="105.25068,353.27963 111.54673,353.27963 112.51982,352.41208 105.25068,352.41208 	"/>
	<polygon class="st0" points="105.25068,354.76041 110.29929,354.76041 111.27262,353.89285 105.25068,353.89285 	"/>
	<polygon class="st0" points="106.21042,357.7222 107.80464,357.7222 108.77798,356.85464 106.21042,356.85464 	"/>
	<polygon class="st0" points="105.25068,356.24142 109.05209,356.24142 110.02493,355.37363 105.25068,355.37363 	"/>
	<polygon class="st0" points="94.20409,349.45029 95.17693,350.31808 114.0179,350.31808 114.99123,349.45029 	"/>
	<polygon class="st0" points="103.12357,359.20297 106.62318,359.20297 107.59653,358.33542 102.15047,358.33542 	"/>
	<polygon class="st0" points="102.9079,352.41208 96.78352,352.41208 97.75661,353.27963 102.9079,353.27963 	"/>
	<polygon class="st0" points="102.9079,353.89285 98.03072,353.89285 99.00405,354.76041 102.9079,354.76041 	"/>
	<polygon class="st0" points="102.9079,356.85464 100.52536,356.85464 101.49845,357.7222 102.9079,357.7222 	"/>
	<polygon class="st0" points="102.9079,355.37363 99.2784,355.37363 100.25125,356.24142 102.9079,356.24142 	"/>
</g>
<g>
	<path class="st11" d="M113.45895,238.64124H95.73638c-2.4161,0-4.37473-1.95863-4.37473-4.37473v-17.72256
		c0-2.41611,1.95863-4.37474,4.37473-4.37474h17.72256c2.4161,0,4.37473,1.95863,4.37473,4.37474v17.72256
		C117.83368,236.6826,115.87505,238.64124,113.45895,238.64124z"/>
</g>
<g>
	<polygon class="st0" points="103.58527,228.8008 106.21042,228.8008 106.21042,227.9325 104.48026,227.9325 104.48026,222.00052 
		103.58527,222.00052 103.58527,222.00966 95.53607,222.00966 96.50941,222.87746 103.58527,222.87746 	"/>
	<polyline class="st0" points="105.25068,222.86807 112.79393,222.86807 113.76702,222.00052 105.25068,222.00052 	"/>
	<polygon class="st0" points="105.25068,224.35823 111.54673,224.35823 112.51982,223.49068 105.25068,223.49068 	"/>
	<polygon class="st0" points="105.25068,225.839 110.29929,225.839 111.27262,224.97145 105.25068,224.97145 	"/>
	<polygon class="st0" points="106.21042,228.8008 107.80464,228.8008 108.77798,227.93324 106.21042,227.93324 	"/>
	<polygon class="st0" points="105.25068,227.32002 109.05209,227.32002 110.02493,226.45222 105.25068,226.45222 	"/>
	<polygon class="st0" points="94.20409,220.52888 95.17693,221.39668 114.0179,221.39668 114.99123,220.52888 	"/>
	<polygon class="st0" points="103.12357,230.28156 106.62318,230.28156 107.59653,229.414 102.15047,229.414 	"/>
	<polygon class="st0" points="102.9079,223.49068 96.78352,223.49068 97.75661,224.35823 102.9079,224.35823 	"/>
	<polygon class="st0" points="102.9079,224.97145 98.03072,224.97145 99.00405,225.839 102.9079,225.839 	"/>
	<polygon class="st0" points="102.9079,227.93324 100.52536,227.93324 101.49845,228.8008 102.9079,228.8008 	"/>
	<polygon class="st0" points="102.9079,226.45222 99.2784,226.45222 100.25125,227.32002 102.9079,227.32002 	"/>
</g>
</svg>
