<?xml version="1.0" encoding="utf-8"?>
<!-- Generator: Adobe Illustrator 19.2.1, SVG Export Plug-In . SVG Version: 6.00 Build 0)  -->
<svg version="1.1" id="Layer_1" xmlns="http://www.w3.org/2000/svg" xmlns:xlink="http://www.w3.org/1999/xlink" x="0px" y="0px"
	 viewBox="0 0 1170 549" style="enable-background:new 0 0 1170 549;" xml:space="preserve">
<style type="text/css">
	.st0{fill:#B0DDFF;}
	.st1{fill:#2C3441;}
	.st2{fill:#FF5535;}
	.st3{fill:#80858D;}
	.st4{fill:#DADADA;}
	.st5{opacity:0.2;fill:#FFFFFF;}
	.st6{fill:none;}
</style>
<g>
	<path class="st0" d="M1011.50684,533.14648h-9.30176c-0.85645,0-1.55078-0.69434-1.55078-1.55078s0.69434-1.55078,1.55078-1.55078
		h9.30176c0.85645,0,1.5498,0.69434,1.5498,1.55078S1012.36328,533.14648,1011.50684,533.14648z M992.90332,533.14648h-9.30176
		c-0.85645,0-1.5498-0.69434-1.5498-1.55078s0.69336-1.55078,1.5498-1.55078h9.30176c0.85645,0,1.55078,0.69434,1.55078,1.55078
		S993.75977,533.14648,992.90332,533.14648z M974.2998,533.14648h-9.30176c-0.85645,0-1.5498-0.69434-1.5498-1.55078
		s0.69336-1.55078,1.5498-1.55078h9.30176c0.85645,0,1.55078,0.69434,1.55078,1.55078S975.15625,533.14648,974.2998,533.14648z
		 M955.69629,533.14648h-9.30176c-0.85645,0-1.5498-0.69434-1.5498-1.55078s0.69336-1.55078,1.5498-1.55078h9.30176
		c0.85645,0,1.55078,0.69434,1.55078,1.55078S956.55273,533.14648,955.69629,533.14648z M937.09375,533.14648h-9.30176
		c-0.85645,0-1.5498-0.69434-1.5498-1.55078s0.69336-1.55078,1.5498-1.55078h9.30176c0.85645,0,1.5498,0.69434,1.5498,1.55078
		S937.9502,533.14648,937.09375,533.14648z M918.49023,533.14648h-9.30176c-0.85645,0-1.55078-0.69434-1.55078-1.55078
		s0.69434-1.55078,1.55078-1.55078h9.30176c0.85645,0,1.5498,0.69434,1.5498,1.55078S919.34668,533.14648,918.49023,533.14648z
		 M899.88672,533.14648h-9.30176c-0.85645,0-1.55078-0.69434-1.55078-1.55078s0.69434-1.55078,1.55078-1.55078h9.30176
		c0.85645,0,1.5498,0.69434,1.5498,1.55078S900.74316,533.14648,899.88672,533.14648z M881.2832,533.14648h-9.30176
		c-0.85645,0-1.55078-0.69434-1.55078-1.55078s0.69434-1.55078,1.55078-1.55078h9.30176c0.85645,0,1.5498,0.69434,1.5498,1.55078
		S882.13965,533.14648,881.2832,533.14648z M862.67969,533.14648h-9.30078c-0.85645,0-1.5498-0.69434-1.5498-1.55078
		s0.69336-1.55078,1.5498-1.55078h9.30078c0.85645,0,1.5498,0.69434,1.5498,1.55078S863.53613,533.14648,862.67969,533.14648z
		 M844.07715,533.14648h-9.30176c-0.85645,0-1.5498-0.69434-1.5498-1.55078s0.69336-1.55078,1.5498-1.55078h9.30176
		c0.85645,0,1.55078,0.69434,1.55078,1.55078S844.93359,533.14648,844.07715,533.14648z M825.47363,533.14648h-9.30176
		c-0.85645,0-1.5498-0.69434-1.5498-1.55078s0.69336-1.55078,1.5498-1.55078h9.30176c0.85645,0,1.55078,0.69434,1.55078,1.55078
		S826.33008,533.14648,825.47363,533.14648z M806.87012,533.14648h-9.30176c-0.85645,0-1.5498-0.69434-1.5498-1.55078
		s0.69336-1.55078,1.5498-1.55078h9.30176c0.85645,0,1.55078,0.69434,1.55078,1.55078S807.72656,533.14648,806.87012,533.14648z
		 M788.2666,533.14648h-9.30176c-0.85645,0-1.5498-0.69434-1.5498-1.55078s0.69336-1.55078,1.5498-1.55078h9.30176
		c0.85645,0,1.55078,0.69434,1.55078,1.55078S789.12305,533.14648,788.2666,533.14648z M769.66406,533.14648h-9.30176
		c-0.85645,0-1.55078-0.69434-1.55078-1.55078s0.69434-1.55078,1.55078-1.55078h9.30176c0.85645,0,1.5498,0.69434,1.5498,1.55078
		S770.52051,533.14648,769.66406,533.14648z M751.06055,533.14648h-9.30176c-0.85645,0-1.55078-0.69434-1.55078-1.55078
		s0.69434-1.55078,1.55078-1.55078h9.30176c0.85645,0,1.5498,0.69434,1.5498,1.55078S751.91699,533.14648,751.06055,533.14648z
		 M732.45703,533.14648h-9.30176c-0.85645,0-1.55078-0.69434-1.55078-1.55078s0.69434-1.55078,1.55078-1.55078h9.30176
		c0.85645,0,1.5498,0.69434,1.5498,1.55078S733.31348,533.14648,732.45703,533.14648z M713.85352,533.14648h-9.30176
		c-0.85645,0-1.55078-0.69434-1.55078-1.55078s0.69434-1.55078,1.55078-1.55078h9.30176c0.85645,0,1.5498,0.69434,1.5498,1.55078
		S714.70996,533.14648,713.85352,533.14648z M695.25,533.14648h-9.30176c-0.85645,0-1.5498-0.69434-1.5498-1.55078
		s0.69336-1.55078,1.5498-1.55078H695.25c0.85645,0,1.5498,0.69434,1.5498,1.55078S696.10645,533.14648,695.25,533.14648z
		 M676.64746,533.14648h-9.30176c-0.85645,0-1.5498-0.69434-1.5498-1.55078s0.69336-1.55078,1.5498-1.55078h9.30176
		c0.85645,0,1.55078,0.69434,1.55078,1.55078S677.50391,533.14648,676.64746,533.14648z M658.04395,533.14648h-9.30176
		c-0.85645,0-1.5498-0.69434-1.5498-1.55078s0.69336-1.55078,1.5498-1.55078h9.30176c0.85645,0,1.55078,0.69434,1.55078,1.55078
		S658.90039,533.14648,658.04395,533.14648z M639.44043,533.14648h-9.30176c-0.85645,0-1.5498-0.69434-1.5498-1.55078
		s0.69336-1.55078,1.5498-1.55078h9.30176c0.85645,0,1.55078,0.69434,1.55078,1.55078S640.29688,533.14648,639.44043,533.14648z
		 M620.83691,533.14648h-9.30176c-0.85645,0-1.5498-0.69434-1.5498-1.55078s0.69336-1.55078,1.5498-1.55078h9.30176
		c0.85645,0,1.5498,0.69434,1.5498,1.55078S621.69336,533.14648,620.83691,533.14648z M602.2334,533.14648h-9.30176
		c-0.85645,0-1.55078-0.69434-1.55078-1.55078s0.69434-1.55078,1.55078-1.55078h9.30176c0.85645,0,1.5498,0.69434,1.5498,1.55078
		S603.08984,533.14648,602.2334,533.14648z M583.63037,533.14648h-9.30176c-0.85596,0-1.55029-0.69434-1.55029-1.55078
		s0.69434-1.55078,1.55029-1.55078h9.30176c0.85645,0,1.55029,0.69434,1.55029,1.55078S584.48682,533.14648,583.63037,533.14648z
		 M565.02734,533.14648h-9.30176c-0.85596,0-1.55029-0.69434-1.55029-1.55078s0.69434-1.55078,1.55029-1.55078h9.30176
		c0.85645,0,1.55029,0.69434,1.55029,1.55078S565.88379,533.14648,565.02734,533.14648z M546.42383,533.14648h-9.30176
		c-0.85596,0-1.55029-0.69434-1.55029-1.55078s0.69434-1.55078,1.55029-1.55078h9.30176c0.85596,0,1.55029,0.69434,1.55029,1.55078
		S547.27979,533.14648,546.42383,533.14648z M527.82031,533.14648h-9.30127c-0.85645,0-1.55029-0.69434-1.55029-1.55078
		s0.69385-1.55078,1.55029-1.55078h9.30127c0.85596,0,1.55029,0.69434,1.55029,1.55078S528.67627,533.14648,527.82031,533.14648z
		 M509.21729,533.14648h-9.30176c-0.85645,0-1.55029-0.69434-1.55029-1.55078s0.69385-1.55078,1.55029-1.55078h9.30176
		c0.85596,0,1.55029,0.69434,1.55029,1.55078S510.07324,533.14648,509.21729,533.14648z M490.61377,533.14648h-9.30127
		c-0.85645,0-1.55029-0.69434-1.55029-1.55078s0.69385-1.55078,1.55029-1.55078h9.30127c0.85596,0,1.55029,0.69434,1.55029,1.55078
		S491.46973,533.14648,490.61377,533.14648z M472.01074,533.14648h-9.30176c-0.85596,0-1.55029-0.69434-1.55029-1.55078
		s0.69434-1.55078,1.55029-1.55078h9.30176c0.85645,0,1.55029,0.69434,1.55029,1.55078S472.86719,533.14648,472.01074,533.14648z
		 M453.40723,533.14648h-9.30176c-0.85596,0-1.55029-0.69434-1.55029-1.55078s0.69434-1.55078,1.55029-1.55078h9.30176
		c0.85645,0,1.55029,0.69434,1.55029,1.55078S454.26367,533.14648,453.40723,533.14648z M434.8042,533.14648h-9.30176
		c-0.85596,0-1.55029-0.69434-1.55029-1.55078s0.69434-1.55078,1.55029-1.55078h9.30176c0.85645,0,1.55029,0.69434,1.55029,1.55078
		S435.66064,533.14648,434.8042,533.14648z M416.20068,533.14648h-9.30176c-0.85596,0-1.55029-0.69434-1.55029-1.55078
		s0.69434-1.55078,1.55029-1.55078h9.30176c0.85645,0,1.55029,0.69434,1.55029,1.55078S417.05713,533.14648,416.20068,533.14648z
		 M397.59717,533.14648h-9.30127c-0.85596,0-1.55029-0.69434-1.55029-1.55078s0.69434-1.55078,1.55029-1.55078h9.30127
		c0.85596,0,1.55029,0.69434,1.55029,1.55078S398.45313,533.14648,397.59717,533.14648z M378.99414,533.14648h-9.30176
		c-0.85645,0-1.55029-0.69434-1.55029-1.55078s0.69385-1.55078,1.55029-1.55078h9.30176c0.85596,0,1.55029,0.69434,1.55029,1.55078
		S379.8501,533.14648,378.99414,533.14648z M360.39063,533.14648h-9.30176c-0.85645,0-1.55029-0.69434-1.55029-1.55078
		s0.69385-1.55078,1.55029-1.55078h9.30176c0.85596,0,1.55029,0.69434,1.55029,1.55078S361.24658,533.14648,360.39063,533.14648z
		 M341.78711,533.14648h-9.30127c-0.85645,0-1.55029-0.69434-1.55029-1.55078s0.69385-1.55078,1.55029-1.55078h9.30127
		c0.85596,0,1.55029,0.69434,1.55029,1.55078S342.64307,533.14648,341.78711,533.14648z M323.18408,533.14648h-9.30176
		c-0.85645,0-1.55029-0.69434-1.55029-1.55078s0.69385-1.55078,1.55029-1.55078h9.30176c0.85645,0,1.55029,0.69434,1.55029,1.55078
		S324.04053,533.14648,323.18408,533.14648z M304.58057,533.14648h-9.30176c-0.85596,0-1.55029-0.69434-1.55029-1.55078
		s0.69434-1.55078,1.55029-1.55078h9.30176c0.85645,0,1.55029,0.69434,1.55029,1.55078S305.43701,533.14648,304.58057,533.14648z
		 M285.97754,533.14648h-9.30176c-0.85596,0-1.55029-0.69434-1.55029-1.55078s0.69434-1.55078,1.55029-1.55078h9.30176
		c0.85645,0,1.55029,0.69434,1.55029,1.55078S286.83398,533.14648,285.97754,533.14648z M267.37402,533.14648h-9.30176
		c-0.85596,0-1.55029-0.69434-1.55029-1.55078s0.69434-1.55078,1.55029-1.55078h9.30176c0.85645,0,1.55029,0.69434,1.55029,1.55078
		S268.23047,533.14648,267.37402,533.14648z M248.77051,533.14648h-9.30127c-0.85596,0-1.55029-0.69434-1.55029-1.55078
		s0.69434-1.55078,1.55029-1.55078h9.30127c0.85645,0,1.55029,0.69434,1.55029,1.55078S249.62695,533.14648,248.77051,533.14648z
		 M230.16748,533.14648h-9.30176c-0.85645,0-1.55029-0.69434-1.55029-1.55078s0.69385-1.55078,1.55029-1.55078h9.30176
		c0.85596,0,1.55029,0.69434,1.55029,1.55078S231.02344,533.14648,230.16748,533.14648z M211.56396,533.14648l-9.31885-0.00488
		c-0.85645-0.00879-1.54248-0.71094-1.5332-1.56738c0.00977-0.84961,0.70215-1.5332,1.5498-1.5332
		c0.00586,0,0.01172,0,0.01758,0.00098l9.28467,0.00293c0.85596,0,1.55029,0.69434,1.55029,1.55078
		S212.41992,533.14648,211.56396,533.14648z M193.00195,532.43945c-0.07275,0-0.14648-0.00488-0.2207-0.01563
		c-3.13135-0.44629-6.25781-1.10352-9.29297-1.9541c-0.82471-0.23145-1.30518-1.08691-1.07422-1.91211
		c0.23145-0.82324,1.08643-1.30176,1.91113-1.07422c2.9043,0.81445,5.89648,1.44336,8.89307,1.87012
		c0.84766,0.12109,1.43701,0.90625,1.31641,1.75391C194.4248,531.88086,193.76123,532.43945,193.00195,532.43945z
		 M175.14355,527.43262c-0.2041,0-0.41162-0.04102-0.61084-0.12598c-2.89844-1.24512-5.74316-2.69629-8.45459-4.3125
		c-0.73535-0.43848-0.97607-1.39063-0.5376-2.12598c0.43848-0.73438,1.38965-0.97363,2.12549-0.53809
		c2.59473,1.54688,5.31689,2.93555,8.09033,4.12695c0.78662,0.33789,1.15039,1.25,0.8125,2.03711
		C176.31689,527.08105,175.74463,527.43262,175.14355,527.43262z M159.21973,517.94336c-0.33643,0-0.67529-0.10938-0.95996-0.33398
		c-2.47754-1.95703-4.84961-4.09668-7.05029-6.3584c-0.59668-0.61328-0.5835-1.59473,0.03027-2.19238
		c0.61377-0.5957,1.59521-0.58301,2.19238,0.03027c2.10645,2.16504,4.37744,4.21387,6.74951,6.08691
		c0.67188,0.53125,0.78613,1.50586,0.25537,2.17773C160.13135,517.74121,159.67773,517.94336,159.21973,517.94336z
		 M146.29004,504.65039c-0.47266,0-0.93896-0.21582-1.24365-0.62402c-1.89063-2.53418-3.62939-5.21582-5.16846-7.96973
		c-0.41748-0.74707-0.1499-1.69141,0.59717-2.10938c0.74805-0.41895,1.69189-0.15039,2.10986,0.59766
		c1.47266,2.63574,3.13721,5.20215,4.94678,7.62793c0.51172,0.68555,0.37061,1.65723-0.31592,2.16895
		C146.9375,504.5498,146.61279,504.65039,146.29004,504.65039z M137.24072,488.45508c-0.6167,0-1.2002-0.37109-1.44141-0.97949
		c-1.16553-2.9375-2.14502-5.98145-2.91113-9.04688c-0.20752-0.83105,0.29736-1.67188,1.12793-1.87988
		c0.82715-0.20703,1.67236,0.29785,1.87988,1.12793c0.7334,2.93262,1.67041,5.8457,2.78516,8.65625
		c0.31592,0.7959-0.07324,1.69629-0.86914,2.0127C137.62451,488.41992,137.43066,488.45508,137.24072,488.45508z
		 M132.73584,470.45898c-0.77783,0-1.44824-0.58398-1.53857-1.37598c-0.30908-2.7207-0.46631-5.49805-0.46631-8.25586
		c-0.00049-0.4082,0.00293-0.81738,0.00977-1.22559c0.01465-0.85645,0.76514-1.51563,1.57666-1.52344
		c0.85645,0.01465,1.53857,0.7207,1.52393,1.57617c-0.00684,0.38965-0.01025,0.78027-0.00977,1.1709
		c0,2.64258,0.15039,5.30273,0.44678,7.90723c0.09668,0.85156-0.51465,1.61914-1.36523,1.71582
		C132.85352,470.45508,132.79443,470.45898,132.73584,470.45898z M133.04834,451.91797c-0.07568,0-0.15186-0.00586-0.22852-0.01758
		c-0.84717-0.125-1.43213-0.91309-1.30713-1.75977c0.4624-3.12793,1.13672-6.25098,2.00537-9.2832
		c0.23584-0.82324,1.09814-1.29883,1.91699-1.06348c0.82324,0.23535,1.29932,1.09375,1.06348,1.91699
		c-0.83057,2.90137-1.47607,5.88965-1.91846,8.88281C134.46631,451.36426,133.8042,451.91797,133.04834,451.91797z
		 M946.42383,450.84375c-0.01758,0-0.03516-0.00098-0.05273-0.00098c-1.61523-0.05469-3.26758-0.14844-4.91113-0.2793
		l-4.44043-0.35547c-0.85352-0.06836-1.48926-0.81543-1.4209-1.66895c0.06738-0.85449,0.82129-1.50098,1.66895-1.4209
		l4.43945,0.35547c1.59473,0.12695,3.19922,0.21777,4.76758,0.26953c0.85547,0.0293,1.52637,0.74609,1.49805,1.60156
		C947.94434,450.18262,947.25586,450.84375,946.42383,450.84375z M955.71875,450.73828c-0.81641,0-1.5-0.6377-1.54688-1.46289
		c-0.04883-0.85547,0.60547-1.58691,1.45996-1.63574c3.03613-0.17188,6.09961-0.48633,9.10547-0.93359
		c0.84082-0.12793,1.63574,0.45703,1.76172,1.30469c0.12598,0.84668-0.45801,1.63574-1.30469,1.76172
		c-3.09863,0.46191-6.25684,0.78516-9.38672,0.96289C955.77734,450.7373,955.74805,450.73828,955.71875,450.73828z
		 M927.87305,449.4707c-0.04199,0-0.08398-0.00195-0.12598-0.00586l-9.27148-0.74316
		c-0.85352-0.06836-1.48926-0.81543-1.4209-1.66895c0.06738-0.85449,0.8252-1.50293,1.66895-1.4209l9.27148,0.74316
		c0.85352,0.06836,1.48926,0.81543,1.4209,1.66895C929.35156,448.85547,928.67285,449.4707,927.87305,449.4707z
		 M974.08691,448.00098c-0.69824,0-1.33203-0.47461-1.50488-1.18262c-0.20313-0.83203,0.30664-1.6709,1.1377-1.87402
		c2.95508-0.72168,5.91016-1.58887,8.78418-2.57617c0.81152-0.2793,1.69141,0.15234,1.96973,0.96191
		s-0.15234,1.69141-0.96191,1.96973c-2.96289,1.01855-6.00977,1.91211-9.05566,2.65625
		C974.33203,447.98633,974.20801,448.00098,974.08691,448.00098z M909.3291,447.98438c-0.04199,0-0.08398-0.00195-0.12598-0.00586
		l-9.27148-0.74316c-0.85352-0.06836-1.48926-0.81543-1.4209-1.66895c0.06738-0.85449,0.82031-1.50488,1.66895-1.4209
		l9.27148,0.74316c0.85352,0.06836,1.49023,0.81543,1.4209,1.66895C910.80762,447.36914,910.12891,447.98438,909.3291,447.98438z
		 M890.78613,446.49805c-0.04199,0-0.08398-0.00195-0.12598-0.00586l-9.27246-0.74316
		c-0.85352-0.06836-1.48926-0.81543-1.4209-1.66895c0.06738-0.85449,0.8252-1.50586,1.66895-1.4209l9.27246,0.74316
		c0.85352,0.06836,1.49023,0.81543,1.4209,1.66895C892.26465,445.88281,891.58594,446.49805,890.78613,446.49805z
		 M872.24219,445.01172c-0.04199,0-0.08398-0.00195-0.12598-0.00586l-9.27246-0.74316
		c-0.85352-0.06836-1.48926-0.81543-1.4209-1.66895c0.06738-0.85449,0.82031-1.49805,1.66895-1.4209l9.27246,0.74316
		c0.85352,0.06836,1.48926,0.81543,1.4209,1.66895C873.7207,444.39648,873.04199,445.01172,872.24219,445.01172z
		 M853.69824,443.52637c-0.04199,0-0.08398-0.00195-0.12598-0.00586l-9.27246-0.74316
		c-0.85352-0.06836-1.48926-0.81543-1.4209-1.66895c0.06738-0.85449,0.8252-1.5,1.66895-1.4209l9.27246,0.74316
		c0.85352,0.06836,1.48926,0.81543,1.4209,1.66895C855.17676,442.91113,854.49805,443.52637,853.69824,443.52637z
		 M835.1543,442.04004c-0.04199,0-0.08398-0.00195-0.12598-0.00586l-9.27246-0.74316
		c-0.85352-0.06836-1.48926-0.81543-1.4209-1.66895c0.06738-0.85449,0.82031-1.50195,1.66895-1.4209l9.27246,0.74316
		c0.85352,0.06836,1.49023,0.81543,1.4209,1.66895C836.63281,441.4248,835.9541,442.04004,835.1543,442.04004z M991.65137,441.96484
		c-0.5918,0-1.15625-0.34082-1.41504-0.91504c-0.35059-0.78027-0.00293-1.69824,0.77832-2.0498
		c2.76855-1.24414,5.5166-2.63379,8.16895-4.12988c0.74805-0.42188,1.69141-0.15625,2.1123,0.58887
		c0.41992,0.74609,0.15625,1.69141-0.58887,2.1123c-2.73438,1.54102-5.56738,2.97363-8.4209,4.25684
		C992.08008,441.9209,991.86426,441.96484,991.65137,441.96484z M816.61035,440.55371c-0.04199,0-0.08398-0.00195-0.12598-0.00586
		l-9.27246-0.74316c-0.85352-0.06836-1.48926-0.81543-1.4209-1.66895c0.06738-0.85449,0.8252-1.50293,1.66895-1.4209
		l9.27246,0.74316c0.85352,0.06836,1.48926,0.81543,1.4209,1.66895C818.08887,439.93848,817.41016,440.55371,816.61035,440.55371z
		 M798.06641,439.06738c-0.04199,0-0.08398-0.00195-0.12598-0.00586l-9.27246-0.74316
		c-0.85352-0.06836-1.48926-0.81543-1.4209-1.66895c0.06738-0.85449,0.82031-1.50488,1.66895-1.4209l9.27246,0.74316
		c0.85352,0.06836,1.48926,0.81543,1.4209,1.66895C799.54492,438.45215,798.86621,439.06738,798.06641,439.06738z
		 M779.52246,437.58105c-0.04199,0-0.08398-0.00195-0.12598-0.00586l-9.27148-0.74316
		c-0.85352-0.06836-1.48926-0.81543-1.4209-1.66895c0.06738-0.85449,0.82422-1.50586,1.66895-1.4209l9.27148,0.74316
		c0.85352,0.06836,1.49023,0.81543,1.4209,1.66895C781.00098,436.96582,780.32227,437.58105,779.52246,437.58105z
		 M760.97852,436.09375c-0.04199,0-0.08398-0.00098-0.12598-0.00488l-9.27148-0.74219
		c-0.85352-0.06836-1.48926-0.81543-1.4209-1.66895c0.06738-0.85449,0.81934-1.49902,1.66895-1.4209l9.27148,0.74219
		c0.85352,0.06738,1.48926,0.81543,1.4209,1.66895C762.45703,435.47852,761.77832,436.09375,760.97852,436.09375z
		 M742.43457,434.60938c-0.04199,0-0.08398-0.00195-0.12598-0.00586l-9.27148-0.74316
		c-0.85352-0.06836-1.48926-0.81543-1.4209-1.66895c0.06738-0.85449,0.82422-1.5,1.66895-1.4209l9.27148,0.74316
		c0.85352,0.06836,1.48926,0.81543,1.4209,1.66895C743.91309,433.99414,743.23438,434.60938,742.43457,434.60938z
		 M138.15137,434.0918c-0.20703,0-0.41748-0.04199-0.61914-0.12988c-0.78467-0.34277-1.14307-1.25684-0.80078-2.04102
		c1.26172-2.88965,2.729-5.72559,4.36182-8.42871c0.44336-0.7334,1.39551-0.96777,2.12891-0.52539
		c0.73291,0.44336,0.96777,1.39551,0.5249,2.12891c-1.5625,2.58594-2.9668,5.2998-4.17383,8.06543
		C139.31885,433.74414,138.74902,434.0918,138.15137,434.0918z M723.89063,433.12305c-0.04199,0-0.08398-0.00195-0.12598-0.00586
		l-9.27148-0.74316c-0.85352-0.06836-1.48926-0.81543-1.4209-1.66895c0.06738-0.85449,0.8291-1.50195,1.66895-1.4209
		l9.27148,0.74316c0.85352,0.06836,1.49023,0.81543,1.4209,1.66895C725.36914,432.50781,724.69043,433.12305,723.89063,433.12305z
		 M1007.82715,432.84375c-0.49219,0-0.97656-0.23438-1.27734-0.66992c-0.48633-0.70508-0.30859-1.6709,0.39551-2.15723
		c2.49902-1.72363,4.95313-3.58594,7.29395-5.53516c0.6582-0.54785,1.63574-0.45898,2.18359,0.19922
		s0.45898,1.63574-0.19922,2.18359c-2.41309,2.00879-4.94238,3.92871-7.51758,5.70508
		C1008.4375,432.75488,1008.13086,432.84375,1007.82715,432.84375z M705.34668,431.63672
		c-0.04199,0-0.08398-0.00195-0.12598-0.00586l-9.27148-0.74316c-0.85352-0.06836-1.49023-0.81543-1.4209-1.66895
		c0.06738-0.85449,0.82422-1.50293,1.66895-1.4209l9.27148,0.74316c0.85352,0.06836,1.48926,0.81543,1.4209,1.66895
		C706.8252,431.02148,706.14648,431.63672,705.34668,431.63672z M686.80273,430.15039c-0.04199,0-0.08398-0.00195-0.12598-0.00586
		l-9.27148-0.74316c-0.85352-0.06836-1.48926-0.81543-1.4209-1.66895c0.06738-0.85449,0.8291-1.50488,1.66895-1.4209
		l9.27148,0.74316c0.85352,0.06836,1.48926,0.81543,1.4209,1.66895C688.28125,429.53516,687.60254,430.15039,686.80273,430.15039z
		 M668.25879,428.66309c-0.04199,0-0.08398-0.00098-0.12598-0.00488l-9.27148-0.74219
		c-0.85352-0.06836-1.48926-0.81543-1.4209-1.66895c0.06738-0.85449,0.82422-1.49707,1.66895-1.4209l9.27148,0.74219
		c0.85352,0.06738,1.48926,0.81543,1.4209,1.66895C669.7373,428.04785,669.05859,428.66309,668.25879,428.66309z
		 M649.71484,427.17871c-0.04199,0-0.08398-0.00195-0.12598-0.00586l-9.27148-0.74316
		c-0.85352-0.06836-1.49023-0.81543-1.4209-1.66895c0.06738-0.85449,0.8291-1.49902,1.66895-1.4209l9.27148,0.74316
		c0.85352,0.06836,1.48926,0.81543,1.4209,1.66895C651.19336,426.56348,650.51465,427.17871,649.71484,427.17871z
		 M631.17188,425.69238c-0.04199,0-0.08398-0.00195-0.12598-0.00586l-9.27246-0.74316
		c-0.85352-0.06836-1.48926-0.81543-1.4209-1.66895c0.06738-0.85449,0.82324-1.50098,1.66895-1.4209l9.27246,0.74316
		c0.85352,0.06836,1.48926,0.81543,1.4209,1.66895C632.65039,425.07715,631.97168,425.69238,631.17188,425.69238z
		 M612.62793,424.20605c-0.04199,0-0.08398-0.00195-0.12598-0.00586l-9.27246-0.74316
		c-0.85352-0.06836-1.48926-0.81543-1.4209-1.66895c0.06738-0.85449,0.82813-1.50195,1.66895-1.4209l9.27246,0.74316
		c0.85352,0.06836,1.49023,0.81543,1.4209,1.66895C614.10645,423.59082,613.42773,424.20605,612.62793,424.20605z
		 M594.08398,422.71973c-0.04199,0-0.08398-0.00195-0.12598-0.00586l-9.27246-0.74316
		c-0.85303-0.06836-1.48975-0.81543-1.42139-1.66895c0.06885-0.85352,0.80762-1.49512,1.66943-1.4209l9.27246,0.74316
		c0.85352,0.06836,1.48926,0.81543,1.4209,1.66895C595.5625,422.10449,594.88379,422.71973,594.08398,422.71973z
		 M575.54004,421.2334c-0.0415,0-0.0835-0.00195-0.12598-0.00586l-9.27197-0.74316
		c-0.85352-0.06836-1.48975-0.81543-1.42139-1.66895c0.06836-0.85254,0.81201-1.49805,1.66943-1.4209l9.27197,0.74316
		c0.85352,0.06836,1.48975,0.81543,1.42139,1.66895C577.01855,420.61816,576.33984,421.2334,575.54004,421.2334z
		 M1022.10254,420.95801c-0.39746,0-0.79395-0.15137-1.09766-0.45508c-0.60449-0.60547-0.60352-1.58691,0.00195-2.19141
		c2.1543-2.15039,4.23438-4.42383,6.18359-6.75586c0.54785-0.65723,1.52637-0.74414,2.18359-0.19531
		s0.74414,1.52637,0.19531,2.18359c-2.00781,2.40332-4.15137,4.74512-6.37109,6.96191
		C1022.89551,420.80762,1022.49902,420.95801,1022.10254,420.95801z M556.99609,419.74805c-0.0415,0-0.0835-0.00195-0.12598-0.00586
		l-9.27197-0.74316c-0.85352-0.06836-1.48975-0.81543-1.42139-1.66895s0.80664-1.49414,1.66943-1.4209l9.27197,0.74316
		c0.85352,0.06836,1.48975,0.81543,1.42139,1.66895C558.47461,419.13281,557.7959,419.74805,556.99609,419.74805z
		 M538.45215,418.26172c-0.04199,0-0.0835-0.00195-0.12598-0.00586l-9.27197-0.74316
		c-0.85303-0.06836-1.48975-0.81543-1.42139-1.66895s0.81104-1.49316,1.66943-1.4209l9.27197,0.74316
		c0.85303,0.06836,1.48975,0.81543,1.42139,1.66895C539.93066,417.64648,539.25195,418.26172,538.45215,418.26172z
		 M147.73486,418.22461c-0.33984,0-0.68164-0.11035-0.96729-0.33887c-0.66895-0.53516-0.77734-1.51074-0.24219-2.17969
		c1.96924-2.46191,4.12256-4.82031,6.40088-7.00977c0.61621-0.59277,1.59814-0.57422,2.19189,0.04297
		c0.59326,0.61719,0.57373,1.59863-0.04346,2.19141c-2.18115,2.09668-4.24268,4.35547-6.12842,6.71289
		C148.64014,418.02637,148.18945,418.22461,147.73486,418.22461z M519.9082,416.77539c-0.0415,0-0.0835-0.00195-0.12598-0.00586
		l-9.27197-0.74316c-0.85352-0.06836-1.48975-0.81543-1.42139-1.66895s0.81592-1.49219,1.66943-1.4209l9.27197,0.74316
		c0.85352,0.06836,1.48975,0.81543,1.42139,1.66895C521.38672,416.16016,520.70801,416.77539,519.9082,416.77539z
		 M501.36426,415.28906c-0.0415,0-0.0835-0.00195-0.12598-0.00586l-9.27197-0.74316
		c-0.85352-0.06836-1.48975-0.81543-1.42139-1.66895c0.06836-0.85254,0.81396-1.50195,1.66943-1.4209l9.27197,0.74316
		c0.85352,0.06836,1.48975,0.81543,1.42139,1.66895C502.84277,414.67383,502.16406,415.28906,501.36426,415.28906z
		 M482.82031,413.80273c-0.04199,0-0.0835-0.00195-0.12598-0.00586l-9.27197-0.74316
		c-0.85303-0.06836-1.48975-0.81543-1.42139-1.66895c0.06836-0.85254,0.80957-1.50098,1.66943-1.4209l9.27197,0.74316
		c0.85303,0.06836,1.48975,0.81543,1.42139,1.66895C484.29883,413.1875,483.62012,413.80273,482.82031,413.80273z
		 M464.27637,412.31738c-0.0415,0-0.0835-0.00195-0.12598-0.00586l-9.27148-0.74316
		c-0.85352-0.06836-1.48975-0.81543-1.42139-1.66895c0.06885-0.85352,0.80908-1.50098,1.66943-1.4209l9.27148,0.74316
		c0.85352,0.06836,1.48975,0.81543,1.42139,1.66895C465.75488,411.70215,465.07617,412.31738,464.27637,412.31738z
		 M445.73291,410.83105c-0.0415,0-0.0835-0.00195-0.12598-0.00586l-9.27197-0.74316
		c-0.85352-0.06836-1.48975-0.81543-1.42139-1.66895s0.81396-1.5,1.66943-1.4209l9.27197,0.74316
		c0.85352,0.06836,1.48975,0.81543,1.42139,1.66895C447.21143,410.21582,446.53271,410.83105,445.73291,410.83105z
		 M427.18896,409.34473c-0.0415,0-0.0835-0.00195-0.12598-0.00586l-9.27197-0.74316
		c-0.85303-0.06836-1.48975-0.81543-1.42139-1.66895s0.81787-1.49902,1.66943-1.4209l9.27197,0.74316
		c0.85303,0.06836,1.48975,0.81543,1.42139,1.66895C428.66748,408.72949,427.98877,409.34473,427.18896,409.34473z
		 M408.64502,407.8584c-0.0415,0-0.0835-0.00195-0.12598-0.00586l-9.27197-0.74316
		c-0.85352-0.06836-1.48975-0.81543-1.42139-1.66895c0.06836-0.85254,0.81104-1.49512,1.66943-1.4209l9.27197,0.74316
		c0.85352,0.06836,1.48975,0.81543,1.42139,1.66895C410.12354,407.24316,409.44482,407.8584,408.64502,407.8584z
		 M1034.01074,406.70313c-0.30469,0-0.6123-0.08984-0.88086-0.27539c-0.7041-0.4873-0.87988-1.45313-0.39355-2.15723
		c1.73535-2.50781,3.37207-5.11914,4.86523-7.75879c0.42285-0.74609,1.36816-1.00586,2.1123-0.58691
		c0.74609,0.42188,1.00781,1.36719,0.58691,2.1123c-1.53906,2.72168-3.22656,5.41211-5.01465,7.99707
		C1034.98535,406.46973,1034.50195,406.70313,1034.01074,406.70313z M390.10107,406.37207c-0.0415,0-0.0835-0.00195-0.12598-0.00586
		l-9.27197-0.74316c-0.85352-0.06836-1.48975-0.81543-1.42139-1.66895c0.06787-0.85352,0.80664-1.50293,1.66943-1.4209
		l9.27197,0.74316c0.85352,0.06836,1.48975,0.81543,1.42139,1.66895C391.57959,405.75684,390.90088,406.37207,390.10107,406.37207z
		 M161.10742,405.37305c-0.47559,0-0.94482-0.21875-1.24902-0.63086c-0.50781-0.68945-0.36084-1.66016,0.32861-2.16797
		c2.54395-1.875,5.23486-3.59863,7.99707-5.12207c0.75098-0.41406,1.69287-0.14063,2.10645,0.6084
		c0.41357,0.75,0.14111,1.69336-0.6084,2.10645c-2.64453,1.45898-5.22021,3.1084-7.65625,4.90332
		C161.74951,405.27441,161.42725,405.37305,161.10742,405.37305z M371.55664,404.88574c-0.0415,0-0.08301-0.00195-0.125-0.00488
		l-9.27197-0.74316c-0.85352-0.06836-1.49023-0.81543-1.42188-1.66895s0.82227-1.49805,1.66895-1.4209l9.27197,0.74219
		c0.85352,0.06738,1.49023,0.81543,1.42188,1.66895C373.03564,404.26953,372.35693,404.88574,371.55664,404.88574z
		 M353.01318,403.40039c-0.0415,0-0.0835-0.00195-0.12598-0.00586l-9.27197-0.74316
		c-0.85352-0.06836-1.48975-0.81543-1.42139-1.66895c0.06885-0.85352,0.80713-1.49707,1.66943-1.4209l9.27197,0.74316
		c0.85352,0.06836,1.48975,0.81543,1.42139,1.66895C354.4917,402.78516,353.81299,403.40039,353.01318,403.40039z
		 M334.46924,401.91406c-0.0415,0-0.0835-0.00195-0.12598-0.00586l-9.27197-0.74316
		c-0.85352-0.06836-1.48975-0.81543-1.42139-1.66895c0.06836-0.85254,0.81299-1.49902,1.66943-1.4209l9.27197,0.74316
		c0.85352,0.06836,1.48975,0.81543,1.42139,1.66895C335.94727,401.29883,335.26904,401.91406,334.46924,401.91406z
		 M315.92578,400.42773c-0.0415,0-0.0835-0.00195-0.12598-0.00586l-9.27197-0.74316
		c-0.85303-0.06836-1.48975-0.81543-1.42139-1.66895c0.06787-0.85352,0.81689-1.5,1.66943-1.4209l9.27197,0.74316
		c0.85303,0.06836,1.48975,0.81543,1.42139,1.66895C317.4043,399.8125,316.72559,400.42773,315.92578,400.42773z
		 M297.38184,398.94141c-0.04199,0-0.0835-0.00195-0.12598-0.00586l-9.27197-0.74316
		c-0.85303-0.06836-1.48975-0.81543-1.42139-1.66895s0.81396-1.49609,1.66943-1.4209l9.27197,0.74316
		c0.85303,0.06836,1.48975,0.81543,1.42139,1.66895C298.86035,398.32617,298.18164,398.94141,297.38184,398.94141z
		 M278.8374,397.45508c-0.0415,0-0.08301-0.00195-0.125-0.00488l-9.27197-0.74316c-0.85352-0.06738-1.49023-0.81543-1.42188-1.66895
		s0.81934-1.49512,1.66895-1.4209l9.27197,0.74219c0.85352,0.06738,1.49023,0.81543,1.42188,1.66895
		C280.31641,396.83984,279.6377,397.45508,278.8374,397.45508z M177.35107,396.41602c-0.62012,0-1.20508-0.37402-1.44434-0.98633
		c-0.31201-0.79785,0.08203-1.69727,0.87939-2.00879c2.94434-1.15039,5.99316-2.11328,9.06201-2.86328
		c0.83008-0.2002,1.67139,0.30566,1.87402,1.1377c0.20313,0.83203-0.30615,1.6709-1.1377,1.87402
		c-2.93604,0.71777-5.85303,1.63965-8.66992,2.74023C177.72949,396.38184,177.53857,396.41602,177.35107,396.41602z
		 M260.29395,395.96973c-0.0415,0-0.0835-0.00195-0.12598-0.00586l-9.27197-0.74316
		c-0.85303-0.06836-1.48975-0.81543-1.42139-1.66895s0.81152-1.50488,1.66943-1.4209l9.27197,0.74316
		c0.85303,0.06836,1.48975,0.81543,1.42139,1.66895C261.77246,395.35449,261.09375,395.96973,260.29395,395.96973z M241.75,394.4834
		c-0.04199,0-0.0835-0.00195-0.12598-0.00586l-9.27197-0.74316c-0.85303-0.06836-1.48975-0.81543-1.42139-1.66895
		c0.06836-0.85254,0.81055-1.50195,1.66943-1.4209l9.27197,0.74316c0.85303,0.06836,1.48975,0.81543,1.42139,1.66895
		C243.22852,393.86816,242.5498,394.4834,241.75,394.4834z M223.20605,392.99707c-0.0415,0-0.0835-0.00195-0.12598-0.00586
		l-9.27197-0.74316c-0.85352-0.06836-1.48975-0.81543-1.42139-1.66895s0.80566-1.5,1.66943-1.4209l9.27197,0.74316
		c0.85352,0.06836,1.48975,0.81543,1.42139,1.66895C224.68457,392.38184,224.00586,392.99707,223.20605,392.99707z
		 M195.36719,392.01074c-0.78174,0-1.45361-0.58984-1.53955-1.38477c-0.09131-0.85156,0.52441-1.61621,1.37549-1.70703
		c2.59375-0.28027,5.25586-0.41211,7.85791-0.41602c0.54053,0,1.08447,0.00781,1.62939,0.02051
		c0.85596,0.02051,1.5332,0.73145,1.5127,1.58691c-0.02051,0.85645-0.71826,1.52734-1.58691,1.5127
		c-0.55518-0.01367-1.09521-0.02832-1.66113-0.01855c-2.47607,0-4.97168,0.13281-7.41992,0.39648
		C195.47852,392.00781,195.42285,392.01074,195.36719,392.01074z M1043.15234,390.53027c-0.21289,0-0.42969-0.04395-0.63574-0.1377
		c-0.78125-0.35156-1.12891-1.26953-0.77637-2.0498c1.24805-2.76953,2.38379-5.63379,3.375-8.5127
		c0.2793-0.80957,1.16016-1.24121,1.9707-0.96094c0.80957,0.27832,1.23926,1.16113,0.96094,1.9707
		c-1.02246,2.96875-2.19336,5.9209-3.48047,8.77637C1044.30762,390.19043,1043.74316,390.53027,1043.15234,390.53027z
		 M1049.20215,372.9668c-0.12207,0-0.24512-0.01465-0.36914-0.04492c-0.83203-0.20313-1.34082-1.04297-1.1377-1.87402
		c0.7207-2.94727,1.31543-5.96875,1.76563-8.98145c0.12695-0.8457,0.91211-1.43262,1.7627-1.30371
		c0.84668,0.12695,1.43066,0.91602,1.30371,1.7627c-0.46484,3.10547-1.07715,6.2207-1.82031,9.25879
		C1050.53418,372.49219,1049.90039,372.9668,1049.20215,372.9668z M1051.95508,354.60156c-0.03027,0-0.06055,0-0.0918-0.00195
		c-0.85449-0.0498-1.50781-0.78223-1.45801-1.6377c0.11523-1.98633,0.17383-4,0.17383-5.98438
		c0.00098-1.06348-0.01563-2.12012-0.04883-3.17285c-0.02637-0.85547,0.64551-1.57129,1.50195-1.59766
		c0.83203-0.00586,1.57129,0.64551,1.59766,1.50195c0.0332,1.08594,0.0498,2.1748,0.04883,3.26953
		c0,2.04297-0.05957,4.11719-0.17773,6.16309C1053.45313,353.96582,1052.76953,354.60156,1051.95508,354.60156z M1051.375,336.04004
		c-0.77246,0-1.44141-0.57813-1.53711-1.36426c-0.36621-3.02148-0.875-6.05859-1.51367-9.02637
		c-0.17969-0.83691,0.35254-1.66211,1.18945-1.8418c0.84863-0.17773,1.66211,0.35449,1.8418,1.18945
		c0.6582,3.06055,1.18262,6.19141,1.56055,9.30566c0.10254,0.84961-0.50293,1.62207-1.35254,1.72559
		C1051.5,336.03613,1051.4375,336.04004,1051.375,336.04004z M1047.47168,317.88574c-0.65918,0-1.27051-0.4248-1.47852-1.08789
		c-0.9082-2.90234-1.96191-5.7959-3.13184-8.60059c-0.33008-0.79004,0.04395-1.69824,0.83398-2.02734
		c0.79297-0.3291,1.69824,0.04395,2.02734,0.83398c1.20605,2.8916,2.29297,5.875,3.22949,8.86816
		c0.25586,0.81641-0.19922,1.68652-1.0166,1.94238C1047.78125,317.8623,1047.62598,317.88574,1047.47168,317.88574z
		 M162.14746,304.11035c-0.46387-0.00195-0.92432-0.00488-1.38379-0.01074c-0.85596-0.01074-1.54102-0.71387-1.53027-1.56934
		c0.01123-0.85645,0.73389-1.52539,1.57031-1.53027c2.96289,0.03906,5.97266-0.05273,8.94531-0.27441l0.21533-0.01563
		c0.86572-0.07031,1.59668,0.5791,1.65967,1.43262c0.0625,0.85352-0.5791,1.59668-1.43311,1.65918l-0.21338,0.01563
		C167.38135,304.01172,164.74609,304.11035,162.14746,304.11035z M151.50684,303.55762c-0.05371,0-0.10791-0.00293-0.16309-0.00879
		c-3.12109-0.32617-6.26025-0.79883-9.33057-1.40723c-0.83984-0.16602-1.38623-0.98145-1.22021-1.82129
		c0.1665-0.83984,0.98633-1.38965,1.82178-1.21973c2.97803,0.58887,6.02344,1.04785,9.05127,1.36426
		c0.85156,0.08887,1.46973,0.85156,1.38086,1.70313C152.96338,302.96484,152.29053,303.55762,151.50684,303.55762z
		 M179.35205,303.11719c-0.8042,0-1.48389-0.62109-1.54443-1.43555c-0.06348-0.85449,0.57715-1.59766,1.43115-1.66113
		l9.27588-0.68945c0.84131-0.05762,1.59717,0.57715,1.66064,1.43066c0.06348,0.85449-0.57715,1.59766-1.43115,1.66113
		l-9.27588,0.68945C179.4292,303.11523,179.39063,303.11719,179.35205,303.11719z M197.9043,301.73926
		c-0.8042,0-1.48389-0.62109-1.54443-1.43555c-0.06348-0.85449,0.57715-1.59766,1.43115-1.66113l9.27588-0.68945
		c0.85498-0.06055,1.59717,0.57715,1.66064,1.43066c0.06348,0.85449-0.57715,1.59766-1.43115,1.66113l-9.27588,0.68945
		C197.98145,301.7373,197.94287,301.73926,197.9043,301.73926z M1040.32617,300.74609c-0.55566,0-1.09375-0.2998-1.37109-0.82617
		c-1.41992-2.68359-2.98145-5.33789-4.64355-7.88916c-0.46777-0.71729-0.26465-1.67773,0.45215-2.14502
		c0.71973-0.46826,1.67871-0.26416,2.14551,0.45264c1.71289,2.62939,3.32324,5.36572,4.78613,8.13232
		c0.40039,0.75684,0.11133,1.69531-0.64551,2.09473C1040.81836,300.6875,1040.57129,300.74609,1040.32617,300.74609z
		 M216.45654,300.36035c-0.8042,0-1.48389-0.62109-1.54443-1.43555c-0.06348-0.85449,0.57715-1.59766,1.43115-1.66113
		l9.27588-0.68945c0.85059-0.06348,1.59717,0.57715,1.66064,1.43066c0.06348,0.85449-0.57715,1.59766-1.43115,1.66113
		l-9.27588,0.68945C216.53369,300.3584,216.49512,300.36035,216.45654,300.36035z M133.28857,299.95117
		c-0.14551,0-0.29346-0.02051-0.43994-0.06348c-3-0.88574-6.00049-1.92285-8.9165-3.08301
		c-0.7959-0.31641-1.18408-1.21777-0.86768-2.01367c0.31689-0.79492,1.2168-1.18359,2.01318-0.86719
		c2.8291,1.125,5.73877,2.13086,8.64893,2.98926c0.82129,0.24316,1.29004,1.10449,1.04785,1.92578
		C134.5752,299.51367,133.95801,299.95117,133.28857,299.95117z M235.00879,298.98242c-0.8042,0-1.48389-0.62109-1.54443-1.43555
		c-0.06348-0.85449,0.57715-1.59766,1.43115-1.66113l9.27588-0.68945c0.85352-0.06445,1.59717,0.57715,1.66064,1.43066
		c0.06348,0.85449-0.57715,1.59766-1.43115,1.66113l-9.27588,0.68945C235.08594,298.98047,235.04736,298.98242,235.00879,298.98242z
		 M253.56055,297.60352c-0.80371,0-1.48389-0.62109-1.54395-1.43555c-0.06348-0.85449,0.57715-1.59766,1.43115-1.66113
		l9.27588-0.68848c0.86035-0.06055,1.59717,0.57715,1.66064,1.43164c0.06348,0.85352-0.57715,1.59668-1.43115,1.66016
		l-9.27588,0.68848C253.63818,297.60156,253.59912,297.60352,253.56055,297.60352z M272.11279,296.22559
		c-0.8042,0-1.48389-0.62109-1.54443-1.43555c-0.06348-0.854,0.57715-1.59766,1.43115-1.66113l9.27637-0.68945
		c0.85254-0.05859,1.59717,0.57715,1.66064,1.43115s-0.57715,1.59717-1.43115,1.66064l-9.27637,0.68945
		C272.18994,296.22363,272.15137,296.22559,272.11279,296.22559z M290.66504,294.84668c-0.8042,0-1.48389-0.62012-1.54443-1.43555
		c-0.06348-0.85352,0.57715-1.59717,1.43115-1.66064l9.27637-0.68945c0.84814-0.05518,1.59766,0.57764,1.66064,1.43115
		c0.06348,0.85352-0.57715,1.59766-1.43115,1.66113l-9.27637,0.68945C290.74219,294.8457,290.70361,294.84668,290.66504,294.84668z
		 M309.21729,293.46826c-0.8042,0-1.48389-0.62061-1.54443-1.43555c-0.06348-0.854,0.57715-1.59717,1.43115-1.66064l9.27637-0.68896
		c0.85107-0.06396,1.59717,0.57715,1.66064,1.43115s-0.57715,1.59717-1.43115,1.66064l-9.27637,0.68896
		C309.29443,293.4668,309.25586,293.46826,309.21729,293.46826z M116.0332,293.08838c-0.23633,0-0.47607-0.0542-0.70068-0.16846
		c-2.79395-1.41846-5.55664-2.98291-8.21143-4.64941c-0.7251-0.45508-0.94385-1.41211-0.48877-2.13721
		c0.45508-0.72607,1.4126-0.94287,2.13721-0.48877c2.57568,1.61719,5.25586,3.13477,7.96631,4.51074
		c0.76367,0.3877,1.06836,1.3208,0.68066,2.08398C117.14307,292.77783,116.59814,293.08838,116.0332,293.08838z
		 M327.76904,292.08984c-0.80371,0-1.4834-0.62061-1.54395-1.43555c-0.06348-0.85352,0.57715-1.59766,1.43115-1.66064
		l9.27637-0.68896c0.85791-0.06201,1.59766,0.57715,1.66064,1.43115c0.06348,0.85352-0.57715,1.59717-1.43115,1.66064
		l-9.27637,0.68896C327.84668,292.08838,327.80762,292.08984,327.76904,292.08984z M346.32178,290.71143
		c-0.8042,0-1.48389-0.62061-1.54443-1.43555c-0.06348-0.854,0.57715-1.59717,1.43115-1.66064l9.27637-0.68896
		c0.84961-0.05762,1.59717,0.57715,1.66064,1.43115s-0.57715,1.59717-1.43115,1.66064l-9.27637,0.68896
		C346.39893,290.70996,346.36035,290.71143,346.32178,290.71143z M364.87354,289.33301c-0.80371,0-1.4834-0.62061-1.54395-1.43555
		c-0.06348-0.85352,0.57715-1.59766,1.43115-1.66064l9.27588-0.68896c0.85742-0.05762,1.59766,0.57715,1.66064,1.43115
		c0.06348,0.85352-0.57715,1.59717-1.43115,1.66064l-9.27588,0.68896C364.95117,289.33154,364.91211,289.33301,364.87354,289.33301z
		 M383.42627,287.95459c-0.8042,0-1.48389-0.62061-1.54443-1.43555c-0.06348-0.854,0.57715-1.59717,1.43115-1.66064l9.27588-0.68896
		c0.84912-0.0625,1.59717,0.57715,1.66064,1.43115s-0.57715,1.59717-1.43115,1.66064l-9.27588,0.68896
		C383.50342,287.95313,383.46484,287.95459,383.42627,287.95459z M401.97852,286.57666c-0.8042,0-1.48389-0.62061-1.54443-1.43555
		c-0.06348-0.85352,0.57715-1.59717,1.43115-1.66064l9.27588-0.68945c0.85596-0.06396,1.59766,0.57715,1.66064,1.43115
		c0.06348,0.85352-0.57715,1.59717-1.43115,1.66064l-9.27588,0.68945C402.05566,286.5752,402.01709,286.57666,401.97852,286.57666z
		 M420.53076,285.19824c-0.8042,0-1.48389-0.62061-1.54443-1.43555c-0.06348-0.85352,0.57715-1.59717,1.43115-1.66064
		l9.27588-0.68945c0.85547-0.06152,1.59766,0.57715,1.66064,1.43115c0.06348,0.85352-0.57715,1.59717-1.43115,1.66064
		l-9.27588,0.68945C420.60791,285.19678,420.56934,285.19824,420.53076,285.19824z M1030.18848,285.18457
		c-0.45801,0-0.91211-0.20215-1.21777-0.58984c-1.88184-2.38574-3.89746-4.71533-5.99121-6.92432
		c-0.58887-0.62158-0.5625-1.60254,0.05859-2.19189c0.62109-0.58691,1.60254-0.5625,2.19141,0.05908
		c2.1582,2.27686,4.23535,4.67773,6.1748,7.13623c0.53027,0.67236,0.41602,1.64697-0.25684,2.17773
		C1030.86328,285.07568,1030.52441,285.18457,1030.18848,285.18457z M439.08301,283.81982
		c-0.8042,0-1.48389-0.62061-1.54443-1.43555c-0.06348-0.85352,0.57715-1.59717,1.43115-1.66064l9.27588-0.68945
		c0.85498-0.05908,1.59717,0.57715,1.66064,1.43115c0.06348,0.85352-0.57715,1.59717-1.43115,1.66064l-9.27588,0.68945
		C439.16016,283.81836,439.12158,283.81982,439.08301,283.81982z M100.30176,283.21582c-0.32813,0-0.6582-0.10352-0.93896-0.31738
		c-2.49414-1.90088-4.93018-3.93701-7.24072-6.05127c-0.63135-0.57813-0.6748-1.55859-0.09668-2.18994
		s1.55859-0.67529,2.19043-0.09717c2.2417,2.05176,4.60596,4.02734,7.02686,5.87256c0.68066,0.51904,0.81201,1.4917,0.29297,2.17236
		C101.23096,283.00537,100.76855,283.21582,100.30176,283.21582z M457.63525,282.44141c-0.8042,0-1.48389-0.62061-1.54443-1.43555
		c-0.06348-0.854,0.57715-1.59717,1.43115-1.66064l9.27588-0.68896c0.85693-0.06104,1.59766,0.57715,1.66064,1.43115
		c0.06348,0.854-0.57715,1.59717-1.43115,1.66064l-9.27588,0.68896C457.7124,282.43994,457.67383,282.44141,457.63525,282.44141z
		 M476.18652,281.06299c-0.80371,0-1.4834-0.62061-1.54395-1.43555c-0.06348-0.85352,0.57715-1.59717,1.43115-1.66064
		l9.27637-0.68896c0.854-0.06592,1.59717,0.57764,1.66064,1.43115s-0.57715,1.59717-1.43115,1.66064l-9.27637,0.68896
		C476.26416,281.06152,476.2251,281.06299,476.18652,281.06299z M494.73926,279.68457c-0.8042,0-1.48389-0.62061-1.54443-1.43555
		c-0.06348-0.854,0.57715-1.59717,1.43115-1.66064l9.27637-0.68896c0.85596-0.06592,1.59766,0.57715,1.66064,1.43115
		c0.06348,0.854-0.57715,1.59717-1.43115,1.66064l-9.27637,0.68896C494.81641,279.68311,494.77783,279.68457,494.73926,279.68457z
		 M513.29102,278.30615c-0.80371,0-1.4834-0.62061-1.54395-1.43555c-0.06348-0.85352,0.57715-1.59717,1.43115-1.66064
		l9.27637-0.68896c0.85303-0.06152,1.59717,0.57715,1.66064,1.43115c0.06348,0.85352-0.57715,1.59717-1.43115,1.66064
		l-9.27637,0.68896C513.36865,278.30469,513.32959,278.30615,513.29102,278.30615z M531.84375,276.92773
		c-0.8042,0-1.48389-0.62061-1.54443-1.43555c-0.06348-0.854,0.57715-1.59717,1.43115-1.66064l9.27637-0.68896
		c0.85205-0.05908,1.59717,0.57715,1.66064,1.43115s-0.57715,1.59717-1.43115,1.66064l-9.27637,0.68896
		C531.9209,276.92627,531.88232,276.92773,531.84375,276.92773z M550.39551,275.5498c-0.80371,0-1.4834-0.62061-1.54395-1.43555
		c-0.06348-0.85352,0.57715-1.59717,1.43115-1.66064l9.27637-0.68945c0.854-0.06738,1.59717,0.57715,1.66064,1.43115
		c0.06348,0.85352-0.57715,1.59717-1.43115,1.66064l-9.27637,0.68945C550.47314,275.54834,550.43408,275.5498,550.39551,275.5498z
		 M568.94775,274.17139c-0.80371,0-1.4834-0.62061-1.54395-1.43555c-0.06348-0.85352,0.57715-1.59717,1.43115-1.66064
		l9.27588-0.68945c0.85156-0.06543,1.59717,0.57764,1.66064,1.43115s-0.57715,1.59717-1.43115,1.66064l-9.27588,0.68945
		C569.02539,274.16992,568.98633,274.17139,568.94775,274.17139z M587.5,272.79297c-0.80371,0-1.4834-0.62061-1.54395-1.43555
		c-0.06348-0.85352,0.57715-1.59717,1.43066-1.66064l9.27637-0.68945c0.84082-0.05859,1.59766,0.57666,1.66113,1.43115
		c0.06348,0.85352-0.57715,1.59717-1.43066,1.66064l-9.27637,0.68945C587.57813,272.7915,587.53906,272.79297,587.5,272.79297z
		 M1017.41113,271.70068c-0.36328,0-0.72949-0.12744-1.02344-0.38721c-2.28223-2.01025-4.68359-3.94043-7.1377-5.73682
		c-0.69043-0.50586-0.84082-1.47607-0.33496-2.16699c0.50586-0.69043,1.47559-0.84033,2.16699-0.33496
		c2.52832,1.85156,5.00293,3.84082,7.35449,5.91211c0.64258,0.56641,0.70508,1.5459,0.13867,2.18848
		C1018.26855,271.52295,1017.84082,271.70068,1017.41113,271.70068z M606.05176,271.41455
		c-0.80371,0-1.4834-0.62061-1.54395-1.43555c-0.06348-0.854,0.57715-1.59717,1.43066-1.66064l9.27637-0.68896
		c0.84082-0.06104,1.59766,0.57617,1.66113,1.43115c0.06348,0.854-0.57715,1.59717-1.43066,1.66064l-9.27637,0.68896
		C606.12988,271.41309,606.09082,271.41455,606.05176,271.41455z M86.60205,270.67383c-0.4209,0-0.83984-0.17041-1.146-0.50537
		c-2.11182-2.31494-4.14355-4.75537-6.03857-7.25342c-0.51758-0.68213-0.38428-1.6543,0.29785-2.17188
		c0.68262-0.51807,1.65527-0.38428,2.17188,0.29785c1.83887,2.42383,3.81055,4.7915,5.85938,7.0376
		c0.57715,0.63281,0.53223,1.61328-0.1001,2.19043C87.34912,270.54004,86.9751,270.67383,86.60205,270.67383z M624.60449,270.03613
		c-0.80371,0-1.4834-0.62061-1.54395-1.43555c-0.06348-0.85352,0.57715-1.59717,1.43066-1.66064l9.27637-0.68896
		c0.83984-0.0625,1.59766,0.57666,1.66113,1.43115c0.06348,0.85352-0.57715,1.59766-1.43066,1.66064l-9.27637,0.68896
		C624.68262,270.03467,624.64355,270.03613,624.60449,270.03613z M643.15625,268.65771c-0.80371,0-1.4834-0.62061-1.54395-1.43555
		c-0.06348-0.854,0.57715-1.59717,1.43066-1.66064l9.27637-0.68896c0.83887-0.06396,1.59766,0.57666,1.66113,1.43115
		c0.06348,0.854-0.57715,1.59717-1.43066,1.66064l-9.27637,0.68896C643.2334,268.65625,643.19531,268.65771,643.15625,268.65771z
		 M661.70898,267.2793c-0.80371,0-1.4834-0.62061-1.54395-1.43555c-0.06348-0.85352,0.57715-1.59717,1.43066-1.66064
		l9.27637-0.68896c0.83789-0.06592,1.59766,0.57666,1.66113,1.43115c0.06348,0.85352-0.57715,1.59766-1.43066,1.66064
		l-9.27637,0.68896C661.78711,267.27783,661.74805,267.2793,661.70898,267.2793z M680.26074,265.90088
		c-0.80371,0-1.4834-0.62061-1.54395-1.43555c-0.06348-0.854,0.57715-1.59717,1.43164-1.66064l9.27539-0.68896
		c0.83789-0.06738,1.59766,0.57666,1.66113,1.43115c0.06348,0.854-0.57715,1.59717-1.43066,1.66064l-9.27637,0.68896
		C680.33789,265.89941,680.2998,265.90088,680.26074,265.90088z M698.81348,264.52295c-0.80371,0-1.4834-0.62061-1.54395-1.43555
		c-0.06348-0.85352,0.57715-1.59717,1.43066-1.66064l9.27539-0.68945c0.83789-0.05859,1.59766,0.57666,1.66113,1.43066
		s-0.57715,1.59766-1.43066,1.66113l-9.27539,0.68945C698.8916,264.52148,698.85254,264.52295,698.81348,264.52295z
		 M717.36523,263.14453c-0.80371,0-1.4834-0.62061-1.54395-1.43555c-0.06348-0.85352,0.57715-1.59717,1.43066-1.66064
		l9.27637-0.68945c0.8584-0.06836,1.59766,0.57715,1.66113,1.43115c0.06348,0.85352-0.57715,1.59717-1.43066,1.66064
		l-9.27637,0.68945C717.44336,263.14307,717.4043,263.14453,717.36523,263.14453z M735.91797,261.76611
		c-0.80371,0-1.4834-0.62061-1.54395-1.43555c-0.06348-0.85352,0.57715-1.59717,1.43066-1.66064l9.27539-0.68945
		c0.84668-0.06152,1.59766,0.57666,1.66113,1.43066s-0.57715,1.59766-1.43066,1.66113l-9.27539,0.68945
		C735.99609,261.76465,735.95703,261.76611,735.91797,261.76611z M1002.42188,260.729c-0.27246,0-0.54785-0.07178-0.79785-0.22217
		c-2.60645-1.56787-5.31641-3.03418-8.05273-4.3584c-0.77148-0.37305-1.09375-1.2998-0.7207-2.0708s1.30176-1.09326,2.07031-0.72021
		c2.82129,1.36475,5.61426,2.87646,8.30078,4.49219c0.73438,0.44141,0.9707,1.39404,0.5293,2.12793
		C1003.45996,260.46094,1002.94727,260.729,1002.42188,260.729z M754.46973,260.3877c-0.80371,0-1.4834-0.62061-1.54395-1.43555
		c-0.06348-0.85352,0.57715-1.59717,1.43066-1.66064l9.27637-0.68945c0.85742-0.06689,1.59766,0.57715,1.66113,1.43115
		c0.06348,0.85352-0.57715,1.59717-1.43066,1.66064l-9.27637,0.68945C754.54785,260.38623,754.50879,260.3877,754.46973,260.3877z
		 M773.02148,259.00928c-0.80371,0-1.4834-0.62061-1.54395-1.43555c-0.06348-0.85352,0.57715-1.59717,1.43066-1.66064
		l9.27637-0.68896c0.8457-0.06543,1.59766,0.57666,1.66113,1.43115c0.06348,0.854-0.57715,1.59717-1.43066,1.66064l-9.27637,0.68896
		C773.09961,259.00781,773.06055,259.00928,773.02148,259.00928z M791.57422,257.63086c-0.80371,0-1.4834-0.62061-1.54395-1.43555
		c-0.06348-0.854,0.57715-1.59717,1.43066-1.66064l9.27637-0.68896c0.84375-0.06689,1.59766,0.57666,1.66113,1.43115
		c0.06348,0.85352-0.57715,1.59717-1.43164,1.66064l-9.27539,0.68896C791.65234,257.62939,791.61328,257.63086,791.57422,257.63086z
		 M810.12598,256.25244c-0.80371,0-1.4834-0.62061-1.54395-1.43555c-0.06348-0.85352,0.57715-1.59717,1.43066-1.66064
		l9.27637-0.68896c0.84375-0.05811,1.59766,0.57666,1.66113,1.43115c0.06348,0.854-0.57715,1.59717-1.43066,1.66064
		l-9.27637,0.68896C810.2041,256.25098,810.16504,256.25244,810.12598,256.25244z M75.375,255.87402
		c-0.51709,0-1.02246-0.2583-1.31641-0.729c-1.66211-2.66064-3.22021-5.42822-4.63086-8.22559
		c-0.38525-0.76465-0.07813-1.69678,0.68604-2.08252c0.76465-0.38379,1.69629-0.0791,2.08252,0.68604
		c1.36816,2.71387,2.87988,5.39844,4.49219,7.97949c0.45361,0.72607,0.23242,1.68262-0.49365,2.13623
		C75.93945,255.79834,75.65527,255.87402,75.375,255.87402z M828.67871,254.87402c-0.80371,0-1.4834-0.62061-1.54395-1.43555
		c-0.06348-0.854,0.57715-1.59717,1.43066-1.66064l9.27637-0.68896c0.84277-0.05957,1.59766,0.57617,1.66113,1.43115
		c0.06348,0.85352-0.57715,1.59717-1.43066,1.66064l-9.27637,0.68896C828.75684,254.87256,828.71777,254.87402,828.67871,254.87402z
		 M847.23047,253.49609c-0.80371,0-1.4834-0.62061-1.54395-1.43555c-0.06348-0.85352,0.57715-1.59717,1.43066-1.66064
		l9.27637-0.68945c0.84277-0.06152,1.59766,0.57666,1.66113,1.43115c0.06348,0.85352-0.57715,1.59717-1.43066,1.66064
		l-9.27637,0.68945C847.30859,253.49463,847.26953,253.49609,847.23047,253.49609z M985.7002,252.64063
		c-0.18164,0-0.36523-0.03223-0.54492-0.09961c-2.85059-1.06982-5.78125-2.01953-8.71191-2.82324
		c-0.8252-0.22656-1.31152-1.07959-1.08496-1.90527c0.22656-0.82617,1.07715-1.31152,1.90527-1.08496
		c3.02148,0.82861,6.04297,1.80762,8.98145,2.91064c0.80176,0.30127,1.20703,1.19482,0.90625,1.99658
		C986.91797,252.25684,986.32715,252.64063,985.7002,252.64063z M865.7832,252.11768c-0.80371,0-1.4834-0.62061-1.54395-1.43506
		c-0.06348-0.854,0.57715-1.59766,1.43066-1.66113l9.27539-0.68945c0.84277-0.06299,1.59766,0.57666,1.66113,1.43115
		c0.06348,0.85352-0.57715,1.59717-1.43066,1.66064l-9.27539,0.68945C865.86133,252.11621,865.82227,252.11768,865.7832,252.11768z
		 M884.33496,250.73926c-0.80371,0-1.4834-0.62061-1.54395-1.43555c-0.06348-0.85352,0.57715-1.59717,1.43066-1.66064
		l9.27637-0.68945c0.84082-0.06445,1.59766,0.57666,1.66113,1.43115c0.06348,0.85352-0.57715,1.59717-1.43066,1.66064
		l-9.27637,0.68945C884.41309,250.73779,884.37402,250.73926,884.33496,250.73926z M902.8877,249.36084
		c-0.80371,0-1.4834-0.62061-1.54395-1.43506c-0.06348-0.854,0.57715-1.59766,1.43066-1.66113l9.27539-0.68945
		c0.84082-0.06641,1.59766,0.57666,1.66113,1.43115c0.06348,0.85352-0.57715,1.59717-1.43066,1.66064l-9.27539,0.68945
		C902.96582,249.35938,902.92676,249.36084,902.8877,249.36084z M921.44043,247.98242c-0.80469,0-1.48438-0.62061-1.54492-1.43555
		c-0.06348-0.854,0.57715-1.59717,1.43066-1.66064l9.27637-0.68896c0.83984-0.06836,1.59766,0.57666,1.66113,1.43115
		c0.06348,0.854-0.57715,1.59717-1.43066,1.66064l-9.27637,0.68896C921.51758,247.98096,921.47852,247.98242,921.44043,247.98242z
		 M967.78809,247.72852c-0.08984,0-0.18164-0.0083-0.27344-0.02441c-2.98828-0.53174-6.04199-0.93164-9.0752-1.18896
		c-0.85352-0.07178-1.48633-0.82227-1.41406-1.67529s0.81445-1.48389,1.67578-1.41357
		c3.12695,0.26465,6.27539,0.67676,9.35645,1.2251c0.84277,0.1499,1.40527,0.95508,1.25488,1.79785
		C969.17871,247.2002,968.52539,247.72852,967.78809,247.72852z M939.99219,246.604c-0.80371,0-1.4834-0.62061-1.54395-1.43555
		c-0.06348-0.85352,0.57715-1.59766,1.43066-1.66064l2.18262-0.16211c2.39355-0.17822,4.82031-0.27588,7.21289-0.29004
		c0.83887,0.0127,1.55273,0.68457,1.55859,1.54102c0.00586,0.85596-0.68457,1.5542-1.54102,1.55957
		c-2.32129,0.01416-4.67676,0.1084-7,0.28125l-2.18262,0.16211C940.07031,246.60254,940.03125,246.604,939.99219,246.604z
		 M67.00879,239.28711c-0.61816,0-1.20215-0.37256-1.44287-0.98242c-1.15039-2.91797-2.17871-5.92236-3.05615-8.9292
		c-0.23975-0.82178,0.23193-1.68262,1.0542-1.92236c0.82227-0.24072,1.68213,0.23193,1.92236,1.05371
		c0.85107,2.9165,1.84814,5.83057,2.96436,8.66064c0.31396,0.79688-0.07715,1.69727-0.87354,2.01123
		C67.39014,239.25195,67.19775,239.28711,67.00879,239.28711z M61.8042,221.45947c-0.72705,0-1.37598-0.51416-1.52002-1.25439
		c-0.59814-3.06982-1.06299-6.20996-1.38135-9.3335c-0.08643-0.85205,0.53369-1.61279,1.38525-1.69971
		c0.8501-0.08691,1.61328,0.5332,1.69971,1.38525c0.30859,3.03076,0.75928,6.07715,1.33936,9.05518
		c0.16406,0.84033-0.38477,1.6543-1.2251,1.81787C62.00195,221.44971,61.90234,221.45947,61.8042,221.45947z M59.91895,202.98486
		c-0.84766,0-1.53955-0.68213-1.5498-1.53223c-0.00488-0.42139-0.00732-0.84424-0.00732-1.26709v-1.11621
		c0.00049-2.3418,0.0791-4.70801,0.23389-7.03271c0.05713-0.85449,0.7998-1.50684,1.6499-1.44385
		c0.854,0.05713,1.50049,0.79541,1.44385,1.6499c-0.15039,2.25635-0.22656,4.55322-0.22705,6.82715v1.11572
		c0,0.41064,0.00244,0.82129,0.00732,1.23096c0.00977,0.85596-0.67578,1.55811-1.53223,1.56836
		C59.93164,202.98486,59.9248,202.98486,59.91895,202.98486z M61.18018,184.45361c-0.08057,0-0.16211-0.00586-0.24414-0.01904
		c-0.8457-0.13379-1.42285-0.92773-1.28906-1.77344c0.48926-3.09473,1.12842-6.20459,1.89844-9.24316
		c0.21094-0.83008,1.05225-1.33105,1.88379-1.12207c0.83008,0.21045,1.33203,1.0542,1.12207,1.88379
		c-0.74756,2.94727-1.36719,5.96387-1.8418,8.96582C62.58887,183.90918,61.92969,184.45361,61.18018,184.45361z M65.74365,166.45313
		c-0.17139,0-0.34619-0.02881-0.51709-0.08936c-0.80713-0.28516-1.22998-1.17139-0.94434-1.97852
		c1.04492-2.9541,2.23926-5.89453,3.55029-8.74072c0.35889-0.77734,1.28027-1.1167,2.05664-0.75977
		c0.77783,0.3584,1.11768,1.2793,0.75977,2.05664c-1.27148,2.76074-2.43018,5.61279-3.44385,8.47803
		C66.97998,166.05566,66.38184,166.45313,65.74365,166.45313z M1042.35742,159.43066c-0.00684,0-0.0127,0-0.01855,0
		c-1.23145,0-2.48438-0.03174-3.72266-0.09473c-0.85449-0.04346-1.5127-0.77197-1.46973-1.62695
		c0.04395-0.85449,0.7627-1.5127,1.62793-1.46973c1.18555,0.06006,2.38477,0.09082,3.56445,0.09082c0.00586,0,0.0127,0,0.01855,0
		c1.83301,0,3.68555-0.07373,5.50781-0.21924c0.84375-0.07275,1.59961,0.56738,1.66797,1.42188
		c0.06836,0.85352-0.56836,1.60059-1.42188,1.66895C1046.20801,159.35352,1044.27246,159.43066,1042.35742,159.43066z
		 M1029.41797,158.70166c-0.03711,0-0.07324-0.00098-0.11035-0.00391l-9.2793-0.64941
		c-0.85352-0.05957-1.49805-0.80029-1.43848-1.65479c0.06055-0.85352,0.79102-1.5083,1.65527-1.43799l9.2793,0.64941
		c0.85352,0.05957,1.49805,0.80078,1.43848,1.65479C1030.90527,158.07666,1030.22461,158.70166,1029.41797,158.70166z
		 M1057.18066,157.8584c-0.71484,0-1.35742-0.49756-1.51367-1.22461c-0.17969-0.83691,0.35254-1.66162,1.18945-1.8418
		c2.95313-0.63525,5.89258-1.47461,8.7373-2.49512c0.80566-0.28662,1.69434,0.13037,1.98242,0.93604
		c0.28906,0.80615-0.12988,1.69385-0.93555,1.98242c-2.97266,1.06641-6.0459,1.94385-9.13184,2.60791
		C1057.39844,157.84668,1057.28906,157.8584,1057.18066,157.8584z M1010.86035,157.40283
		c-0.03711,0-0.07324-0.00098-0.11035-0.00391l-9.2793-0.64941c-0.85352-0.05957-1.49805-0.80029-1.43848-1.65479
		c0.06055-0.85449,0.81836-1.48682,1.65527-1.43799l9.2793,0.64941c0.85352,0.05957,1.49805,0.80078,1.43848,1.65479
		C1012.34766,156.77783,1011.66699,157.40283,1010.86035,157.40283z M992.30273,156.10352
		c-0.03711,0-0.07324-0.00098-0.11035-0.00391l-9.2793-0.64941c-0.85352-0.05957-1.49805-0.80029-1.43848-1.65479
		c0.06055-0.85449,0.81348-1.48633,1.65527-1.43799l9.2793,0.64941c0.85352,0.05957,1.49805,0.80078,1.43848,1.6543
		C993.79004,155.47852,993.10938,156.10352,992.30273,156.10352z M973.74414,154.80469c-0.03711,0-0.07324-0.00146-0.11035-0.00391
		l-9.27832-0.64941c-0.85449-0.05957-1.49805-0.80029-1.43848-1.65479s0.80859-1.48633,1.65527-1.43799l9.27832,0.64941
		c0.85449,0.05957,1.49805,0.80029,1.43848,1.65479C975.23145,154.17969,974.55078,154.80469,973.74414,154.80469z
		 M955.18652,153.50586c-0.03711,0-0.07324-0.00146-0.11035-0.00391l-9.2793-0.6499
		c-0.85449-0.05957-1.49805-0.80078-1.43848-1.65479c0.06055-0.85498,0.81641-1.48633,1.65527-1.43799l9.2793,0.6499
		c0.85352,0.05957,1.49805,0.80029,1.43848,1.65479C956.67383,152.88135,955.99316,153.50586,955.18652,153.50586z
		 M936.62891,152.20654c-0.03711,0-0.07324-0.00146-0.11035-0.00391l-9.2793-0.64941
		c-0.85352-0.05957-1.49805-0.80029-1.43848-1.65479c0.06055-0.85449,0.81152-1.48633,1.65527-1.43799l9.2793,0.64941
		c0.85352,0.05957,1.49805,0.80029,1.43848,1.65479C938.11621,151.58154,937.43555,152.20654,936.62891,152.20654z
		 M1074.63379,151.60205c-0.56152,0-1.10352-0.30664-1.37891-0.84033c-0.39258-0.76074-0.09375-1.6958,0.66699-2.08838
		c2.68262-1.3833,5.30078-2.95996,7.78418-4.68604c0.70215-0.48828,1.66895-0.31543,2.15723,0.3877
		c0.48926,0.70313,0.31543,1.66943-0.3877,2.1582c-2.59375,1.80322-5.33008,3.45068-8.13184,4.896
		C1075.11621,151.54639,1074.87305,151.60205,1074.63379,151.60205z M918.07031,150.90771
		c-0.03711,0-0.07324-0.00146-0.11035-0.00391l-9.27832-0.6499c-0.85449-0.05957-1.49805-0.80029-1.43848-1.65479
		c0.06055-0.85498,0.81738-1.48584,1.65527-1.43799l9.27832,0.6499c0.85449,0.05957,1.49805,0.80078,1.43848,1.65479
		C919.55762,150.2832,918.87695,150.90771,918.07031,150.90771z M899.5127,149.6084c-0.03711,0-0.07324-0.00146-0.11035-0.00391
		l-9.2793-0.64941c-0.85352-0.05957-1.49805-0.80029-1.43848-1.65479c0.06055-0.85449,0.81348-1.48584,1.65527-1.43799
		l9.2793,0.64941c0.85352,0.05957,1.49805,0.80029,1.43848,1.65479C901,148.9834,900.31934,149.6084,899.5127,149.6084z
		 M73.5083,149.58838c-0.2627,0-0.52881-0.06641-0.77295-0.20752c-0.7417-0.42725-0.99609-1.37549-0.56836-2.11719
		c1.56592-2.71582,3.27441-5.3916,5.07861-7.95264c0.49365-0.7002,1.45996-0.86768,2.16016-0.375
		c0.7002,0.49316,0.86768,1.46045,0.375,2.16016c-1.75049,2.48535-3.40869,5.08154-4.92773,7.71631
		C74.56592,149.31006,74.04443,149.58838,73.5083,149.58838z M880.95508,148.30957c-0.03711,0-0.07324-0.00146-0.11035-0.00391
		l-9.2793-0.6499c-0.85352-0.05957-1.49805-0.80078-1.43848-1.65479c0.06055-0.85449,0.81934-1.49658,1.65527-1.43799l9.2793,0.6499
		c0.85449,0.05957,1.49805,0.80078,1.43848,1.65479C882.44238,147.68457,881.76172,148.30957,880.95508,148.30957z
		 M862.39648,147.01025c-0.03711,0-0.07324-0.00146-0.11035-0.00391l-9.27832-0.64941
		c-0.85449-0.05957-1.49805-0.80078-1.43848-1.65479c0.06055-0.85449,0.81445-1.49658,1.65527-1.43799l9.27832,0.64941
		c0.85449,0.05957,1.49805,0.80029,1.43848,1.65479C863.88379,146.38525,863.20313,147.01025,862.39648,147.01025z
		 M843.83887,145.71143c-0.03711,0-0.07324-0.00146-0.11035-0.00391l-9.2793-0.6499
		c-0.85352-0.05957-1.49805-0.80078-1.43848-1.65479c0.06055-0.85449,0.81055-1.49658,1.65527-1.43799l9.2793,0.6499
		c0.85352,0.05957,1.49805,0.80078,1.43848,1.65479C845.32617,145.08643,844.64551,145.71143,843.83887,145.71143z
		 M825.28027,144.41211c-0.03613,0-0.07227-0.00098-0.10938-0.00391l-9.2793-0.64941
		c-0.85352-0.05957-1.49805-0.80078-1.43848-1.65479c0.06055-0.854,0.78613-1.50537,1.65527-1.43799l9.2793,0.64941
		c0.85352,0.05957,1.49805,0.80029,1.43848,1.65479C826.76855,143.7876,826.08789,144.41211,825.28027,144.41211z
		 M806.72266,143.11328c-0.03711,0-0.07324-0.00098-0.11035-0.00391l-9.27832-0.6499
		c-0.85449-0.05957-1.49805-0.80078-1.43848-1.65479c0.06055-0.85449,0.8125-1.49609,1.65527-1.43799l9.27832,0.6499
		c0.85449,0.05957,1.49805,0.80078,1.43848,1.65479C808.20996,142.48828,807.5293,143.11328,806.72266,143.11328z
		 M788.16406,141.81396c-0.03613,0-0.07227-0.00098-0.10938-0.00391l-9.27832-0.64941
		c-0.85352-0.05957-1.49805-0.80078-1.43848-1.65479c0.06055-0.854,0.78809-1.50684,1.65527-1.43799l9.27832,0.64941
		c0.85352,0.05957,1.49805,0.80078,1.43848,1.65479C789.65234,141.18945,788.97168,141.81396,788.16406,141.81396z
		 M1089.8584,141.02051c-0.4209,0-0.84082-0.1709-1.14648-0.50732c-0.57617-0.6333-0.53027-1.61377,0.10352-2.18994
		c2.2373-2.03467,4.36133-4.23584,6.3125-6.54199c0.55371-0.65283,1.53223-0.73486,2.18457-0.18213
		c0.6543,0.55322,0.73535,1.53125,0.18262,2.18506c-2.03809,2.40869-4.25684,4.70752-6.59375,6.83301
		C1090.60449,140.88721,1090.23047,141.02051,1089.8584,141.02051z M769.60645,140.51514
		c-0.03613,0-0.07227-0.00098-0.10938-0.00391l-9.2793-0.64941c-0.85352-0.05957-1.49805-0.80029-1.43848-1.65479
		c0.06055-0.854,0.79492-1.50781,1.65527-1.43799l9.2793,0.64941c0.85352,0.05957,1.49805,0.80078,1.43848,1.65479
		C771.09473,139.89063,770.41406,140.51514,769.60645,140.51514z M751.0498,139.21582c-0.03711,0-0.07324-0.00098-0.11035-0.00391
		l-9.2793-0.64941c-0.85352-0.05957-1.49805-0.80029-1.43848-1.65479c0.06055-0.85352,0.79004-1.5083,1.65527-1.43799
		l9.2793,0.64941c0.85352,0.05957,1.49805,0.80078,1.43848,1.65479C752.53711,138.59082,751.85645,139.21582,751.0498,139.21582z
		 M732.49121,137.91699c-0.03711,0-0.07324-0.00098-0.11035-0.00391l-9.27832-0.64941
		c-0.85352-0.05957-1.49805-0.80029-1.43848-1.65479c0.06055-0.85352,0.78516-1.50928,1.65527-1.43799l9.27832,0.64941
		c0.85352,0.05957,1.49805,0.80078,1.43848,1.65479C733.97852,137.29199,733.29785,137.91699,732.49121,137.91699z
		 M713.93359,136.61768c-0.03711,0-0.07324-0.00098-0.11035-0.00391l-9.2793-0.64941
		c-0.85352-0.05957-1.49805-0.80029-1.43848-1.65479c0.06055-0.85449,0.8125-1.48438,1.65527-1.43799l9.2793,0.64941
		c0.85352,0.05957,1.49805,0.80078,1.43848,1.65479C715.4209,135.99268,714.74023,136.61768,713.93359,136.61768z
		 M695.37598,135.31885c-0.03711,0-0.07324-0.00098-0.11035-0.00391l-9.2793-0.64941
		c-0.85352-0.05957-1.49805-0.80029-1.43848-1.65479c0.06055-0.85449,0.81836-1.48486,1.65527-1.43799l9.2793,0.64941
		c0.85352,0.05957,1.49805,0.80078,1.43848,1.65479C696.86328,134.69385,696.18262,135.31885,695.37598,135.31885z
		 M84.20361,134.40381c-0.35449,0-0.71094-0.12109-1.00244-0.36865c-0.65283-0.55469-0.73242-1.53271-0.17822-2.18506
		c2.02881-2.38867,4.19189-4.71338,6.42871-6.90918c0.61035-0.6001,1.59229-0.59229,2.19189,0.02002
		c0.6001,0.61084,0.59082,1.59229-0.01953,2.19189c-2.17041,2.13135-4.26904,4.38672-6.23779,6.70459
		C85.07959,134.21826,84.64307,134.40381,84.20361,134.40381z M676.81738,134.01953c-0.03711,0-0.07324-0.00146-0.11035-0.00391
		l-9.27832-0.64941c-0.85352-0.05957-1.49805-0.80029-1.43848-1.65479c0.06055-0.85449,0.81348-1.49561,1.65527-1.43799
		l9.27832,0.64941c0.85352,0.05957,1.49805,0.80029,1.43848,1.65479C678.30469,133.39453,677.62402,134.01953,676.81738,134.01953z
		 M658.25977,132.7207c-0.03711,0-0.07324-0.00146-0.11035-0.00391l-9.2793-0.64941
		c-0.85352-0.05957-1.49805-0.80029-1.43848-1.65479c0.06055-0.85449,0.80957-1.49561,1.65527-1.43799l9.2793,0.64941
		c0.85352,0.05957,1.49805,0.80029,1.43848,1.65479C659.74707,132.0957,659.06641,132.7207,658.25977,132.7207z
		 M639.70215,131.42139c-0.03711,0-0.07324-0.00146-0.11035-0.00391l-9.2793-0.64941
		c-0.85352-0.05957-1.49805-0.80029-1.43848-1.65479c0.06055-0.85449,0.81543-1.49512,1.65527-1.43799l9.2793,0.64941
		c0.85352,0.05957,1.49805,0.80029,1.43848,1.65479C641.18945,130.79639,640.50879,131.42139,639.70215,131.42139z
		 M621.14453,130.12256c-0.03711,0-0.07324-0.00146-0.11035-0.00391l-9.2793-0.64941
		c-0.85352-0.05957-1.49805-0.80029-1.43848-1.65479c0.06055-0.85449,0.81055-1.49512,1.65527-1.43799l9.2793,0.64941
		c0.85352,0.05957,1.49805,0.80029,1.43848,1.65479C622.63184,129.49756,621.95117,130.12256,621.14453,130.12256z
		 M602.58594,128.82373c-0.03711,0-0.07324-0.00146-0.11035-0.00391l-9.27832-0.6499
		c-0.85352-0.05957-1.49805-0.80078-1.43848-1.65479c0.06055-0.85498,0.81738-1.50586,1.65527-1.43799l9.27832,0.6499
		c0.85449,0.05957,1.49805,0.80078,1.43848,1.65479C604.07324,128.19873,603.39258,128.82373,602.58594,128.82373z
		 M584.02783,127.52441c-0.03613,0-0.07275-0.00146-0.10986-0.00391l-9.2793-0.64941
		c-0.854-0.05957-1.49805-0.80078-1.43799-1.65479c0.05957-0.85303,0.79199-1.50586,1.65479-1.43799l9.2793,0.64941
		c0.854,0.05957,1.49805,0.80029,1.43799,1.65479C585.51563,126.89941,584.83496,127.52441,584.02783,127.52441z
		 M1101.83594,126.86084c-0.28613,0-0.57617-0.0791-0.83594-0.24609c-0.7207-0.46289-0.92969-1.42188-0.4668-2.14209
		c1.6377-2.54932,3.11914-5.22607,4.40234-7.95605c0.36523-0.7749,1.28809-1.10889,2.0625-0.74365
		c0.77539,0.36426,1.1084,1.2876,0.74414,2.0625c-1.3418,2.85303-2.88867,5.6499-4.59961,8.31299
		C1102.8457,126.60938,1102.34668,126.86084,1101.83594,126.86084z M565.46973,126.22559
		c-0.03613,0-0.07275-0.00146-0.10986-0.00391l-9.27881-0.6499c-0.854-0.05957-1.49805-0.80078-1.43799-1.65479
		c0.06006-0.85303,0.79785-1.50586,1.65479-1.43799l9.27881,0.6499c0.854,0.05957,1.49805,0.80078,1.43799,1.65479
		C566.95752,125.60059,566.27686,126.22559,565.46973,126.22559z M546.91162,124.92627c-0.03613,0-0.07275-0.00098-0.10986-0.00391
		l-9.27881-0.64941c-0.854-0.05957-1.49805-0.80078-1.43799-1.65479c0.06006-0.85303,0.79297-1.50586,1.65479-1.43799
		l9.27881,0.64941c0.854,0.05957,1.49805,0.80029,1.43799,1.65479C548.39941,124.30176,547.71826,124.92627,546.91162,124.92627z
		 M528.354,123.62744c-0.03662,0-0.07275-0.00098-0.10986-0.00391l-9.2793-0.6499c-0.854-0.05957-1.49805-0.80078-1.43799-1.65479
		c0.05957-0.85303,0.78809-1.50586,1.65479-1.43799l9.2793,0.6499c0.854,0.05957,1.49805,0.80078,1.43799,1.65479
		C529.8418,123.00293,529.16064,123.62744,528.354,123.62744z M509.7959,122.32813c-0.03662,0-0.07275-0.00098-0.10986-0.00391
		l-9.27881-0.64941c-0.854-0.05957-1.49805-0.80078-1.43799-1.65479c0.05957-0.854,0.79395-1.51123,1.65479-1.43799l9.27881,0.64941
		c0.854,0.05957,1.49805,0.80078,1.43799,1.65479C511.28369,121.70361,510.60254,122.32813,509.7959,122.32813z M97.45898,121.38867
		c-0.44873,0-0.89355-0.19385-1.2002-0.56787c-0.54248-0.6626-0.44531-1.63916,0.2168-2.18164
		c2.4248-1.98633,4.96973-3.88525,7.56445-5.64453c0.70898-0.48047,1.67236-0.29492,2.15332,0.41309
		c0.48047,0.70898,0.29541,1.67285-0.41309,2.15332c-2.51807,1.70703-4.9873,3.5498-7.33984,5.47656
		C98.15234,121.27393,97.80469,121.38867,97.45898,121.38867z M491.23779,121.0293c-0.03613,0-0.07275-0.00098-0.10986-0.00391
		l-9.27881-0.6499c-0.854-0.05957-1.49805-0.80078-1.43799-1.65479c0.05957-0.85303,0.78857-1.50586,1.65479-1.43799l9.27881,0.6499
		c0.854,0.05957,1.49805,0.80078,1.43799,1.65479C492.72559,120.4043,492.04492,121.0293,491.23779,121.0293z M472.68018,119.72998
		c-0.03662,0-0.07275-0.00098-0.10986-0.00391l-9.2793-0.64941c-0.854-0.05957-1.49805-0.80029-1.43799-1.65479
		c0.05957-0.85449,0.79395-1.50977,1.65479-1.43799l9.2793,0.64941c0.854,0.05957,1.49805,0.80078,1.43799,1.65479
		C474.16797,119.10547,473.4873,119.72998,472.68018,119.72998z M454.12207,118.43115c-0.03613,0-0.07275-0.00098-0.10986-0.00391
		l-9.27881-0.6499c-0.854-0.05957-1.49805-0.80078-1.43799-1.65479c0.05957-0.85303,0.78955-1.49463,1.65479-1.43799l9.27881,0.6499
		c0.854,0.05957,1.49805,0.80078,1.43799,1.65479C455.60986,117.80615,454.9292,118.43115,454.12207,118.43115z
		 M435.56396,117.13184c-0.03613,0-0.07275-0.00098-0.10986-0.00391l-9.27881-0.64941
		c-0.854-0.05957-1.49805-0.80029-1.43799-1.65479c0.06006-0.85303,0.7959-1.49463,1.65479-1.43799l9.27881,0.64941
		c0.854,0.05957,1.49805,0.80078,1.43799,1.65479C437.05176,116.50684,436.37109,117.13184,435.56396,117.13184z
		 M417.00635,115.83301c-0.03613,0-0.07275-0.00098-0.10986-0.00391l-9.2793-0.64941
		c-0.854-0.05957-1.49805-0.80029-1.43799-1.65479c0.05957-0.85303,0.79053-1.49512,1.65479-1.43799l9.2793,0.64941
		c0.854,0.05957,1.49805,0.80078,1.43799,1.65479C418.49414,115.20801,417.81348,115.83301,417.00635,115.83301z
		 M398.44873,114.53369c-0.03662,0-0.07324-0.00146-0.11035-0.00391l-9.27881-0.64941
		c-0.854-0.05957-1.49805-0.80029-1.43799-1.65479c0.06006-0.85303,0.79639-1.49463,1.65479-1.43799l9.27881,0.64941
		c0.854,0.05957,1.49805,0.80029,1.43799,1.65479C399.93604,113.90869,399.25537,114.53369,398.44873,114.53369z
		 M379.89014,113.23486c-0.03613,0-0.07275-0.00146-0.10986-0.00391l-9.27881-0.64941
		c-0.854-0.05957-1.49805-0.80029-1.43799-1.65479c0.05957-0.85303,0.7915-1.49512,1.65479-1.43799l9.27881,0.64941
		c0.854,0.05957,1.49805,0.80029,1.43799,1.65479C381.37793,112.60986,380.69727,113.23486,379.89014,113.23486z
		 M361.33203,111.93555c-0.03613,0-0.07275-0.00146-0.10986-0.00391l-9.27881-0.64941
		c-0.854-0.05957-1.49805-0.80029-1.43799-1.65479c0.06006-0.85303,0.78662-1.49463,1.65479-1.43799l9.27881,0.64941
		c0.854,0.05957,1.49805,0.80029,1.43799,1.65479C362.81982,111.31055,362.13916,111.93555,361.33203,111.93555z
		 M112.83496,110.96484c-0.5459,0-1.0752-0.28906-1.35791-0.80029c-0.41455-0.74951-0.14307-1.69287,0.60596-2.10693
		c2.74512-1.51855,5.59131-2.92773,8.45996-4.18848c0.78271-0.34277,1.69824,0.01172,2.04297,0.79541
		c0.34424,0.78418-0.01172,1.69873-0.79541,2.04346c-2.78271,1.22266-5.54395,2.58984-8.20654,4.0625
		C113.34619,110.90234,113.08887,110.96484,112.83496,110.96484z M342.7749,110.63672c-0.03662,0-0.07324-0.00146-0.11035-0.00391
		l-9.2793-0.64941c-0.854-0.05957-1.49805-0.80029-1.43799-1.65479c0.06006-0.85303,0.79297-1.49512,1.65479-1.43799l9.2793,0.64941
		c0.854,0.05957,1.49805,0.80029,1.43799,1.65479C344.26221,110.01172,343.58154,110.63672,342.7749,110.63672z
		 M1109.72949,110.06787c-0.1543,0-0.3125-0.02344-0.46777-0.07275c-0.81641-0.25879-1.26855-1.12988-1.00977-1.94629
		c0.91113-2.87598,1.63867-5.84521,2.16406-8.8252c0.14844-0.84277,0.95898-1.40674,1.79492-1.25781
		c0.84375,0.14844,1.40625,0.95264,1.25781,1.7959c-0.54785,3.11426-1.30859,6.21729-2.26172,9.22363
		C1110.99805,109.646,1110.3877,110.06787,1109.72949,110.06787z M324.21631,109.3374c-0.03613,0-0.07275-0.00146-0.10986-0.00391
		l-9.27881-0.64941c-0.854-0.05957-1.49805-0.80078-1.43799-1.65479c0.05957-0.85303,0.78711-1.49463,1.65479-1.43799
		l9.27881,0.64941c0.854,0.05957,1.49805,0.80029,1.43799,1.65479C325.7041,108.7124,325.02344,109.3374,324.21631,109.3374z
		 M305.6582,108.03857c-0.03613,0-0.07275-0.00146-0.10986-0.00391l-9.27881-0.64941
		c-0.854-0.05957-1.49805-0.80078-1.43799-1.65479c0.06006-0.85303,0.79346-1.50635,1.65479-1.43799l9.27881,0.64941
		c0.854,0.05957,1.49805,0.80029,1.43799,1.65479C307.146,107.41357,306.46533,108.03857,305.6582,108.03857z M287.10107,106.73926
		c-0.03662,0-0.07324-0.00146-0.11035-0.00391l-9.2793-0.64941c-0.854-0.05957-1.49805-0.80078-1.43799-1.65479
		c0.05957-0.85303,0.78857-1.50635,1.65479-1.43799l9.2793,0.64941c0.854,0.05957,1.49805,0.80029,1.43799,1.65479
		C288.58838,106.11426,287.90771,106.73926,287.10107,106.73926z M268.54248,105.44043c-0.03662,0-0.07275-0.00098-0.10986-0.00391
		l-9.27881-0.64941c-0.854-0.05957-1.49805-0.80078-1.43799-1.65479c0.06006-0.85303,0.79443-1.50635,1.65479-1.43799
		l9.27881,0.64941c0.854,0.05957,1.49805,0.80029,1.43799,1.65479C270.03027,104.81592,269.34961,105.44043,268.54248,105.44043z
		 M249.98438,104.14111c-0.03662,0-0.07275-0.00098-0.10986-0.00391l-9.27881-0.64941
		c-0.854-0.05957-1.49805-0.80078-1.43799-1.65479s0.79199-1.51221,1.65479-1.43799l9.27881,0.64941
		c0.854,0.05957,1.49805,0.80029,1.43799,1.65479C251.47217,103.5166,250.7915,104.14111,249.98438,104.14111z M129.84082,103.49121
		c-0.64844,0-1.25342-0.41016-1.47021-1.05908c-0.27148-0.81201,0.1665-1.69043,0.97852-1.96191
		c2.97266-0.99414,6.02734-1.8623,9.07861-2.58008c0.83594-0.19336,1.66846,0.3208,1.86426,1.1543s-0.3208,1.66797-1.1543,1.86426
		c-2.95947,0.6958-5.92188,1.5376-8.80518,2.50195C130.16943,103.46533,130.00342,103.49121,129.84082,103.49121z
		 M231.42627,102.84229c-0.03613,0-0.07275-0.00098-0.10986-0.00391l-9.27881-0.64941
		c-0.854-0.05957-1.49805-0.80078-1.43799-1.65479c0.05957-0.85449,0.79932-1.50781,1.65479-1.43799l9.27881,0.64941
		c0.854,0.05957,1.49805,0.80029,1.43799,1.65479C232.91406,102.21777,232.23291,102.84229,231.42627,102.84229z
		 M212.86865,101.54297c-0.03662,0-0.07275-0.00098-0.10986-0.00391l-9.2793-0.64941
		c-0.854-0.05957-1.49805-0.80029-1.43799-1.65479c0.05957-0.85352,0.79053-1.50635,1.65479-1.43799l9.2793,0.64941
		c0.854,0.05957,1.49805,0.80078,1.43799,1.65479C214.35645,100.91846,213.67578,101.54297,212.86865,101.54297z
		 M194.31055,100.24414c-0.03662,0-0.07275-0.00098-0.10986-0.00391l-9.27881-0.64941
		c-0.854-0.05957-1.49805-0.80029-1.43799-1.65479c0.05957-0.854,0.78564-1.51025,1.65479-1.43799l9.27881,0.64941
		c0.854,0.05957,1.49805,0.80078,1.43799,1.65479C195.79834,99.61963,195.11768,100.24414,194.31055,100.24414z M147.9165,99.23828
		c-0.76074,0-1.42432-0.56006-1.5332-1.33496c-0.11914-0.84766,0.47168-1.63135,1.31982-1.75049
		c3.1001-0.43555,6.26123-0.73291,9.39502-0.88428c0.87158-0.04785,1.58203,0.61865,1.62305,1.47363
		c0.0415,0.85498-0.61816,1.58203-1.47363,1.62305c-3.03955,0.14697-6.10596,0.43555-9.11377,0.85791
		C148.06104,99.2334,147.98828,99.23828,147.9165,99.23828z M175.75244,98.94531c-0.03613,0-0.07275-0.00098-0.10986-0.00391
		l-6.32324-0.44287c-0.97412-0.06836-1.94482-0.12256-2.91406-0.1626c-0.85547-0.03516-1.52002-0.75732-1.48486-1.61279
		s0.72754-1.52393,1.61279-1.48486c0.99854,0.04102,1.99902,0.09717,3.00293,0.16748l6.32324,0.44287
		c0.854,0.05957,1.49805,0.80078,1.43799,1.65479C177.24023,98.32031,176.55957,98.94531,175.75244,98.94531z M1112.95117,91.80664
		c-0.02246,0-0.0459-0.00049-0.06934-0.00146c-0.85547-0.0376-1.51758-0.76172-1.48047-1.61719
		c0.04492-1.02295,0.06836-2.05957,0.06836-3.08008v-0.77148c0-1.75293-0.06641-3.52197-0.19629-5.25732
		c-0.06445-0.85352,0.57617-1.59766,1.43066-1.66162c0.83887-0.06592,1.59766,0.57617,1.66113,1.43018
		c0.13574,1.81201,0.2041,3.65869,0.2041,5.48877v0.77148c0,1.06592-0.02344,2.14795-0.07031,3.2168
		C1114.46191,91.15674,1113.77637,91.80664,1112.95117,91.80664z M1111.5166,73.31348c-0.71777,0-1.3623-0.50195-1.51563-1.23242
		c-0.62109-2.96436-1.44434-5.90869-2.44629-8.75146c-0.28516-0.80762,0.13867-1.69287,0.94629-1.97754
		c0.81152-0.28418,1.69336,0.13965,1.97754,0.94629c1.04785,2.97168,1.9082,6.04883,2.55762,9.146
		c0.17578,0.83838-0.36133,1.65967-1.19922,1.83594C1111.72949,73.30273,1111.62207,73.31348,1111.5166,73.31348z
		 M1105.35742,55.82324c-0.56445,0-1.1084-0.30957-1.38281-0.84717c-1.36914-2.68945-2.93164-5.31641-4.64453-7.80762
		c-0.48535-0.70557-0.30664-1.6709,0.39941-2.15576c0.7041-0.48535,1.6709-0.30566,2.15527,0.39893
		c1.79004,2.60303,3.42285,5.34766,4.85352,8.15723c0.3877,0.76318,0.08496,1.69678-0.67871,2.08496
		C1105.83496,55.76855,1105.59473,55.82324,1105.35742,55.82324z M1094.85449,40.54541c-0.4248,0-0.84668-0.17285-1.15332-0.51318
		c-2.02051-2.24463-4.21094-4.37891-6.50977-6.34375c-0.65137-0.55615-0.72754-1.53467-0.17188-2.18555
		c0.55566-0.65137,1.53418-0.72803,2.18555-0.17139c2.40137,2.05225,4.68945,4.28174,6.80078,6.62646
		c0.57227,0.63623,0.52148,1.61621-0.11523,2.18896C1095.59473,40.41406,1095.22363,40.54541,1094.85449,40.54541z
		 M1080.75098,28.49756c-0.28906,0-0.58203-0.08057-0.84277-0.25c-2.53711-1.64844-5.20703-3.14307-7.93457-4.44189
		c-0.77246-0.36768-1.10059-1.29297-0.73242-2.06592c0.36816-0.77344,1.29492-1.10059,2.06543-0.7334
		c2.85059,1.35742,5.63965,2.91846,8.29102,4.64063c0.71777,0.4668,0.92188,1.42676,0.45508,2.14453
		C1081.75586,28.24902,1081.25879,28.49756,1080.75098,28.49756z M1064,20.52295c-0.15723,0-0.31738-0.02441-0.47559-0.0752
		c-2.87305-0.92676-5.83789-1.6709-8.81445-2.21191c-0.84277-0.15332-1.40137-0.96045-1.24805-1.80273
		c0.15332-0.8418,0.95996-1.40234,1.80273-1.24805c3.11035,0.56543,6.20898,1.34326,9.21094,2.31152
		c0.81543,0.26318,1.2627,1.13672,1,1.95166C1065.26367,20.10498,1064.65527,20.52295,1064,20.52295z M1045.75586,17.20313
		c-0.02539,0-0.05078-0.00049-0.07617-0.00195c-1.13672-0.05566-2.29004-0.0835-3.42871-0.0835h-5.79395
		c-0.85645,0-1.5498-0.69434-1.5498-1.55029s0.69336-1.55029,1.5498-1.55029h5.79395c1.18848,0,2.39355,0.0293,3.5791,0.0874
		c0.85547,0.0415,1.51465,0.76855,1.47363,1.62402C1047.2627,16.55762,1046.57715,17.20313,1045.75586,17.20313z
		 M1027.15527,17.11768h-9.30176c-0.85645,0-1.5498-0.69434-1.5498-1.55029s0.69336-1.55029,1.5498-1.55029h9.30176
		c0.85645,0,1.55078,0.69434,1.55078,1.55029S1028.01172,17.11768,1027.15527,17.11768z M1008.55273,17.11768h-9.30176
		c-0.85645,0-1.55078-0.69434-1.55078-1.55029s0.69434-1.55029,1.55078-1.55029h9.30176c0.85645,0,1.5498,0.69434,1.5498,1.55029
		S1009.40918,17.11768,1008.55273,17.11768z M989.94922,17.11768h-9.30176c-0.85645,0-1.55078-0.69434-1.55078-1.55029
		s0.69434-1.55029,1.55078-1.55029h9.30176c0.85645,0,1.5498,0.69434,1.5498,1.55029S990.80566,17.11768,989.94922,17.11768z
		 M971.3457,17.11768h-9.30176c-0.85645,0-1.55078-0.69434-1.55078-1.55029s0.69434-1.55029,1.55078-1.55029h9.30176
		c0.85645,0,1.5498,0.69434,1.5498,1.55029S972.20215,17.11768,971.3457,17.11768z M952.74219,17.11768h-9.30176
		c-0.85645,0-1.55078-0.69434-1.55078-1.55029s0.69434-1.55029,1.55078-1.55029h9.30176c0.85645,0,1.5498,0.69434,1.5498,1.55029
		S953.59863,17.11768,952.74219,17.11768z M934.13867,17.11768h-9.30078c-0.85645,0-1.5498-0.69434-1.5498-1.55029
		s0.69336-1.55029,1.5498-1.55029h9.30078c0.85645,0,1.5498,0.69434,1.5498,1.55029S934.99512,17.11768,934.13867,17.11768z
		 M915.53613,17.11768h-9.30176c-0.85645,0-1.5498-0.69434-1.5498-1.55029s0.69336-1.55029,1.5498-1.55029h9.30176
		c0.85645,0,1.55078,0.69434,1.55078,1.55029S916.39258,17.11768,915.53613,17.11768z M896.93262,17.11768h-9.30176
		c-0.85645,0-1.5498-0.69434-1.5498-1.55029s0.69336-1.55029,1.5498-1.55029h9.30176c0.85645,0,1.55078,0.69434,1.55078,1.55029
		S897.78906,17.11768,896.93262,17.11768z M878.3291,17.11768h-9.30176c-0.85645,0-1.5498-0.69434-1.5498-1.55029
		s0.69336-1.55029,1.5498-1.55029h9.30176c0.85645,0,1.55078,0.69434,1.55078,1.55029S879.18555,17.11768,878.3291,17.11768z
		 M859.72656,17.11768h-9.30176c-0.85645,0-1.55078-0.69434-1.55078-1.55029s0.69434-1.55029,1.55078-1.55029h9.30176
		c0.85645,0,1.5498,0.69434,1.5498,1.55029S860.58301,17.11768,859.72656,17.11768z M841.12305,17.11768h-9.30176
		c-0.85645,0-1.55078-0.69434-1.55078-1.55029s0.69434-1.55029,1.55078-1.55029h9.30176c0.85645,0,1.5498,0.69434,1.5498,1.55029
		S841.97949,17.11768,841.12305,17.11768z M822.51953,17.11768h-9.30176c-0.85645,0-1.55078-0.69434-1.55078-1.55029
		s0.69434-1.55029,1.55078-1.55029h9.30176c0.85645,0,1.5498,0.69434,1.5498,1.55029S823.37598,17.11768,822.51953,17.11768z
		 M803.91602,17.11768h-9.30176c-0.85645,0-1.55078-0.69434-1.55078-1.55029s0.69434-1.55029,1.55078-1.55029h9.30176
		c0.85645,0,1.5498,0.69434,1.5498,1.55029S804.77246,17.11768,803.91602,17.11768z M785.31348,17.11768h-9.30176
		c-0.85645,0-1.5498-0.69434-1.5498-1.55029s0.69336-1.55029,1.5498-1.55029h9.30176c0.85645,0,1.55078,0.69434,1.55078,1.55029
		S786.16992,17.11768,785.31348,17.11768z M766.70996,17.11768h-9.30176c-0.85645,0-1.5498-0.69434-1.5498-1.55029
		s0.69336-1.55029,1.5498-1.55029h9.30176c0.85645,0,1.55078,0.69434,1.55078,1.55029S767.56641,17.11768,766.70996,17.11768z
		 M748.10645,17.11768h-9.30176c-0.85645,0-1.5498-0.69434-1.5498-1.55029s0.69336-1.55029,1.5498-1.55029h9.30176
		c0.85645,0,1.55078,0.69434,1.55078,1.55029S748.96289,17.11768,748.10645,17.11768z M729.50293,17.11768h-9.30176
		c-0.85645,0-1.5498-0.69434-1.5498-1.55029s0.69336-1.55029,1.5498-1.55029h9.30176c0.85645,0,1.55078,0.69434,1.55078,1.55029
		S730.35938,17.11768,729.50293,17.11768z M710.90039,17.11768h-9.30176c-0.85645,0-1.55078-0.69434-1.55078-1.55029
		s0.69434-1.55029,1.55078-1.55029h9.30176c0.85645,0,1.5498,0.69434,1.5498,1.55029S711.75684,17.11768,710.90039,17.11768z
		 M692.29688,17.11768h-9.30176c-0.85645,0-1.55078-0.69434-1.55078-1.55029s0.69434-1.55029,1.55078-1.55029h9.30176
		c0.85645,0,1.5498,0.69434,1.5498,1.55029S693.15332,17.11768,692.29688,17.11768z M673.69336,17.11768h-9.30176
		c-0.85645,0-1.55078-0.69434-1.55078-1.55029s0.69434-1.55029,1.55078-1.55029h9.30176c0.85645,0,1.5498,0.69434,1.5498,1.55029
		S674.5498,17.11768,673.69336,17.11768z M655.08984,17.11768h-9.30078c-0.85645,0-1.5498-0.69434-1.5498-1.55029
		s0.69336-1.55029,1.5498-1.55029h9.30078c0.85645,0,1.5498,0.69434,1.5498,1.55029S655.94629,17.11768,655.08984,17.11768z
		 M636.4873,17.11768h-9.30176c-0.85645,0-1.5498-0.69434-1.5498-1.55029s0.69336-1.55029,1.5498-1.55029h9.30176
		c0.85645,0,1.55078,0.69434,1.55078,1.55029S637.34375,17.11768,636.4873,17.11768z M617.88379,17.11768h-9.30176
		c-0.85645,0-1.5498-0.69434-1.5498-1.55029s0.69336-1.55029,1.5498-1.55029h9.30176c0.85645,0,1.55078,0.69434,1.55078,1.55029
		S618.74023,17.11768,617.88379,17.11768z M599.28027,17.11768h-9.30176c-0.85645,0-1.5498-0.69434-1.5498-1.55029
		s0.69336-1.55029,1.5498-1.55029h9.30176c0.85645,0,1.55078,0.69434,1.55078,1.55029S600.13672,17.11768,599.28027,17.11768z
		 M580.67725,17.11768h-9.30176c-0.85645,0-1.55029-0.69434-1.55029-1.55029s0.69385-1.55029,1.55029-1.55029h9.30176
		c0.85645,0,1.55029,0.69434,1.55029,1.55029S581.53369,17.11768,580.67725,17.11768z M562.07422,17.11768h-9.30176
		c-0.85596,0-1.55029-0.69434-1.55029-1.55029s0.69434-1.55029,1.55029-1.55029h9.30176c0.85645,0,1.55029,0.69434,1.55029,1.55029
		S562.93066,17.11768,562.07422,17.11768z M543.4707,17.11768h-9.30176c-0.85596,0-1.55029-0.69434-1.55029-1.55029
		s0.69434-1.55029,1.55029-1.55029h9.30176c0.85645,0,1.55029,0.69434,1.55029,1.55029S544.32715,17.11768,543.4707,17.11768z
		 M524.86719,17.11768h-9.30127c-0.85596,0-1.55029-0.69434-1.55029-1.55029s0.69434-1.55029,1.55029-1.55029h9.30127
		c0.85645,0,1.55029,0.69434,1.55029,1.55029S525.72363,17.11768,524.86719,17.11768z M506.26416,17.11768h-9.30176
		c-0.85596,0-1.55029-0.69434-1.55029-1.55029s0.69434-1.55029,1.55029-1.55029h9.30176c0.85596,0,1.55029,0.69434,1.55029,1.55029
		S507.12012,17.11768,506.26416,17.11768z M487.66113,17.11768h-9.30176c-0.85645,0-1.55029-0.69434-1.55029-1.55029
		s0.69385-1.55029,1.55029-1.55029h9.30176c0.85596,0,1.55029,0.69434,1.55029,1.55029S488.51709,17.11768,487.66113,17.11768z
		 M469.05762,17.11768h-9.30176c-0.85645,0-1.55029-0.69434-1.55029-1.55029s0.69385-1.55029,1.55029-1.55029h9.30176
		c0.85596,0,1.55029,0.69434,1.55029,1.55029S469.91357,17.11768,469.05762,17.11768z M450.45459,17.11768h-9.30176
		c-0.85645,0-1.55029-0.69434-1.55029-1.55029s0.69385-1.55029,1.55029-1.55029h9.30176c0.85596,0,1.55029,0.69434,1.55029,1.55029
		S451.31055,17.11768,450.45459,17.11768z M431.85107,17.11768h-9.30176c-0.85596,0-1.55029-0.69434-1.55029-1.55029
		s0.69434-1.55029,1.55029-1.55029h9.30176c0.85645,0,1.55029,0.69434,1.55029,1.55029S432.70752,17.11768,431.85107,17.11768z
		 M413.24756,17.11768h-9.30127c-0.85596,0-1.55029-0.69434-1.55029-1.55029s0.69434-1.55029,1.55029-1.55029h9.30127
		c0.85645,0,1.55029,0.69434,1.55029,1.55029S414.104,17.11768,413.24756,17.11768z M394.64453,17.11768h-9.30176
		c-0.85596,0-1.55029-0.69434-1.55029-1.55029s0.69434-1.55029,1.55029-1.55029h9.30176c0.85645,0,1.55029,0.69434,1.55029,1.55029
		S395.50098,17.11768,394.64453,17.11768z M376.04102,17.11768h-9.30176c-0.85596,0-1.55029-0.69434-1.55029-1.55029
		s0.69434-1.55029,1.55029-1.55029h9.30176c0.85645,0,1.55029,0.69434,1.55029,1.55029S376.89746,17.11768,376.04102,17.11768z
		 M357.4375,17.11768h-9.30127c-0.85596,0-1.55029-0.69434-1.55029-1.55029s0.69434-1.55029,1.55029-1.55029h9.30127
		c0.85596,0,1.55029,0.69434,1.55029,1.55029S358.29346,17.11768,357.4375,17.11768z M338.83447,17.11768h-9.30176
		c-0.85645,0-1.55029-0.69434-1.55029-1.55029s0.69385-1.55029,1.55029-1.55029h9.30176c0.85596,0,1.55029,0.69434,1.55029,1.55029
		S339.69043,17.11768,338.83447,17.11768z M320.23096,17.11768h-9.30176c-0.85645,0-1.55029-0.69434-1.55029-1.55029
		s0.69385-1.55029,1.55029-1.55029h9.30176c0.85596,0,1.55029,0.69434,1.55029,1.55029S321.08691,17.11768,320.23096,17.11768z
		 M301.62793,17.11768h-9.30176c-0.85645,0-1.55029-0.69434-1.55029-1.55029s0.69385-1.55029,1.55029-1.55029h9.30176
		c0.85596,0,1.55029,0.69434,1.55029,1.55029S302.48389,17.11768,301.62793,17.11768z M283.02441,17.11768h-9.30176
		c-0.85645,0-1.55029-0.69434-1.55029-1.55029s0.69385-1.55029,1.55029-1.55029h9.30176c0.85645,0,1.55029,0.69434,1.55029,1.55029
		S283.88086,17.11768,283.02441,17.11768z M264.4209,17.11768h-9.30127c-0.85596,0-1.55029-0.69434-1.55029-1.55029
		s0.69434-1.55029,1.55029-1.55029h9.30127c0.85645,0,1.55029,0.69434,1.55029,1.55029S265.27734,17.11768,264.4209,17.11768z
		 M245.81787,17.11768h-9.30176c-0.85596,0-1.55029-0.69434-1.55029-1.55029s0.69434-1.55029,1.55029-1.55029h9.30176
		c0.85645,0,1.55029,0.69434,1.55029,1.55029S246.67432,17.11768,245.81787,17.11768z M227.21436,17.11768h-9.30176
		c-0.85596,0-1.55029-0.69434-1.55029-1.55029s0.69434-1.55029,1.55029-1.55029h9.30176c0.85645,0,1.55029,0.69434,1.55029,1.55029
		S228.0708,17.11768,227.21436,17.11768z M208.61133,17.11768h-9.30176c-0.85596,0-1.55029-0.69434-1.55029-1.55029
		s0.69434-1.55029,1.55029-1.55029h9.30176c0.85596,0,1.55029,0.69434,1.55029,1.55029S209.46729,17.11768,208.61133,17.11768z
		 M190.00781,17.11768h-9.30176c-0.85645,0-1.55029-0.69434-1.55029-1.55029s0.69385-1.55029,1.55029-1.55029h9.30176
		c0.85596,0,1.55029,0.69434,1.55029,1.55029S190.86377,17.11768,190.00781,17.11768z M171.4043,17.11768h-9.30176
		c-0.85645,0-1.55029-0.69434-1.55029-1.55029s0.69385-1.55029,1.55029-1.55029h9.30176c0.85596,0,1.55029,0.69434,1.55029,1.55029
		S172.26025,17.11768,171.4043,17.11768z M152.80127,17.11768h-9.30176c-0.85645,0-1.55029-0.69434-1.55029-1.55029
		s0.69385-1.55029,1.55029-1.55029h9.30176c0.85596,0,1.55029,0.69434,1.55029,1.55029S153.65723,17.11768,152.80127,17.11768z
		 M134.19775,17.11768H124.896c-0.85645,0-1.55029-0.69434-1.55029-1.55029s0.69385-1.55029,1.55029-1.55029h9.30176
		c0.85596,0,1.55029,0.69434,1.55029,1.55029S135.05371,17.11768,134.19775,17.11768z M115.59473,17.11768h-9.30176
		c-0.85596,0-1.55029-0.69434-1.55029-1.55029s0.69434-1.55029,1.55029-1.55029h9.30176c0.85645,0,1.55029,0.69434,1.55029,1.55029
		S116.45117,17.11768,115.59473,17.11768z M96.99121,17.11768h-9.30176c-0.85596,0-1.55029-0.69434-1.55029-1.55029
		s0.69434-1.55029,1.55029-1.55029h9.30176c0.85645,0,1.55029,0.69434,1.55029,1.55029S97.84766,17.11768,96.99121,17.11768z
		 M78.3877,17.11768h-9.30176c-0.85596,0-1.55029-0.69434-1.55029-1.55029s0.69434-1.55029,1.55029-1.55029h9.30176
		c0.85645,0,1.55029,0.69434,1.55029,1.55029S79.24414,17.11768,78.3877,17.11768z M59.78467,17.11768h-9.30176
		c-0.85596,0-1.55029-0.69434-1.55029-1.55029s0.69434-1.55029,1.55029-1.55029h9.30176c0.85596,0,1.55029,0.69434,1.55029,1.55029
		S60.64063,17.11768,59.78467,17.11768z M41.18115,17.11768h-9.30176c-0.85645,0-1.55029-0.69434-1.55029-1.55029
		s0.69385-1.55029,1.55029-1.55029h9.30176c0.85596,0,1.55029,0.69434,1.55029,1.55029S42.03711,17.11768,41.18115,17.11768z
		 M22.57764,17.11768h-9.30127c-0.85645,0-1.55029-0.69434-1.55029-1.55029s0.69385-1.55029,1.55029-1.55029h9.30127
		c0.85596,0,1.55029,0.69434,1.55029,1.55029S23.43359,17.11768,22.57764,17.11768z M3.97461,17.11768h-9.30176
		c-0.85645,0-1.55029-0.69434-1.55029-1.55029s0.69385-1.55029,1.55029-1.55029h9.30176c0.85596,0,1.55029,0.69434,1.55029,1.55029
		S4.83057,17.11768,3.97461,17.11768z"/>
</g>
<polyline class="st1" points="1019.76013,525.19196 1019.76013,515.67725 1023.49487,515.67725 1030.43091,522.61322 "/>
<polygon class="st2" points="1024.7301,508.11877 1029.55078,508.11877 1037.86609,513.09845 1024.7301,513.09845 "/>
<g>
	<polygon class="st1" points="1050.88782,520.89648 1043.9375,520.90369 1043.9375,516.73431 	"/>
	<polygon class="st3" points="1024.7301,513.09845 1037.86609,513.09845 1043.9375,516.73431 1043.9375,520.90369 
		1024.7301,520.92365 	"/>
</g>
<g>
	<path class="st4" d="M1020.2171,523.7002l2.26642-2.34735c0.76538-0.79279,1.82007-1.24048,2.922-1.24048h70.45081
		c2.20447,0,4.32458,0.84802,5.92102,2.36841l3.22876,3.07495c1.14685,1.09235,2.57361,1.84601,4.12219,2.17792l4.5188,0.96832
		v8.48932l-9.26331,1.64349c-3.15234,0.55933-6.34766,0.84058-9.54919,0.84058h-10.01477h-36.09021h-1.29248
		c-0.65149,0-1.29358-0.15674-1.8717-0.45691l-24.92743-12.94305C1019.67181,525.77368,1019.461,524.48328,1020.2171,523.7002z"/>
	<path class="st3" d="M1119.1377,529.8786c1.49402,0.32007,2.5614,1.64038,2.5614,3.16821c0,1.57117-1.1272,2.91595-2.67419,3.19037
		l-5.37781,0.9541v-8.48932L1119.1377,529.8786z"/>
</g>
<polyline class="st1" points="1019.76013,525.19196 1019.76013,532.12793 1023.49487,532.12793 1030.43091,525.19196 "/>
<path class="st1" d="M1101.77734,522.48077l3.22876,3.07495c1.14685,1.09235,2.57361,1.84601,4.12219,2.17792h-17.22595
	c-1.98499,0-3.88867-0.78851-5.29236-2.19214l-5.34814-5.42914h14.59448
	C1098.06079,520.11237,1100.18091,520.96039,1101.77734,522.48077z"/>
<path class="st2" d="M1043.36975,537.19135h36.38489c4.7428,0,9.18848-2.30939,11.91553-6.18976l0,0h-41.10254L1043.36975,537.19135
	z"/>
<g>
	<polygon class="st5" points="1104.24207,524.82806 1102.97192,527.73364 1099.64709,527.73364 1101.89465,522.59247 	"/>
	<path class="st5" d="M1091.90234,527.73364c-0.19446,0-0.38708-0.01373-0.57959-0.02869l3.31921-7.59265h1.21436
		c1.77563,0,3.49146,0.55841,4.92798,1.56696l-2.64673,6.05438H1091.90234z"/>
</g>
<g>
	<path class="st3" d="M1078.7334,537.19128c1.0979,0,2.17468,0.30084,3.11365,0.86963l2.97217,1.80072
		c0.33093,0.20044,0.33093,0.68042,0,0.88086l-2.849,1.72601c-1.01599,0.61566-2.19214,0.91626-3.37903,0.86371l-6.13635-0.27142
		v-5.86951H1078.7334z"/>
	<path class="st1" d="M1053.45508,537.19128h18.99976v5.86951l-19.13721-0.8465c-1.82349-0.08069-3.51172-0.98596-4.58789-2.46033
		l-0.09912-0.13586C1049.76428,538.09137,1051.55347,537.19128,1053.45508,537.19128z"/>
</g>
<g>
	<polygon class="st6" points="1019.80939,525.19196 1019.76013,525.19196 1019.80621,525.18079 	"/>
	<path class="st5" d="M1034.59619,533.88171c-0.41772-0.36499-0.85767-0.70276-1.30176-1.03473l1.42969,0.74231
		L1034.59619,533.88171z"/>
	<path class="st5" d="M1028.74109,530.48273l-0.71704,1.64026c-0.80371-0.71875-1.67175-1.3595-2.57239-1.95178l0.91919-0.91919
		L1028.74109,530.48273z"/>
	<polygon class="st5" points="1029.80261,508.26959 1036.65723,512.37445 1028.74109,530.48273 1026.37085,529.25201 
		1023.49487,532.12793 1019.76013,532.12793 	"/>
	<path class="st5" d="M1039.04785,513.80609l3.42737,2.05255l-7.7511,17.73065l-1.42969-0.74231
		c-0.63916-0.47778-1.85144-0.91339-2.54102-1.3194L1039.04785,513.80609z"/>
</g>
</svg>
