<?xml version="1.0" encoding="utf-8"?>
<!-- Generator: Adobe Illustrator 19.2.1, SVG Export Plug-In . SVG Version: 6.00 Build 0)  -->
<svg version="1.1" id="Layer_1" xmlns="http://www.w3.org/2000/svg" xmlns:xlink="http://www.w3.org/1999/xlink" x="0px" y="0px"
	 viewBox="0 0 315 350" style="enable-background:new 0 0 315 350;" xml:space="preserve">
<style type="text/css">
	.st0{fill:#F7C498;}
	.st1{fill:#565D67;}
	.st2{fill:#FF6649;}
	.st3{fill:#FF5535;}
	.st4{fill:#F7E8D1;}
	.st5{fill:#2C3441;}
	.st6{fill:#B92D21;}
	.st7{fill:#414854;}
	.st8{fill:#18202D;}
</style>
<rect x="29.49199" y="297.9718" class="st0" width="57.41042" height="52.02819"/>
<rect x="27.48208" y="266.8092" class="st1" width="61.60931" height="20.84667"/>
<path class="st1" d="M90.44595,303.57831H27.02463c-1.35745,0-2.45789-1.10043-2.45789-2.45792v-15.93088
	c0-1.35745,1.10044-2.45789,2.45789-2.45789h63.42131c1.35745,0,2.45789,1.10043,2.45789,2.45789v15.93088
	C92.90383,302.47787,91.8034,303.57831,90.44595,303.57831z"/>
<path class="st1" d="M105.92751,279.75241h-62.2365c-8.95194,0-16.20893-7.25699-16.20893-16.20892v-38.94073
	c0-18.53365,15.02449-33.55814,33.55814-33.55814h44.88729V279.75241z"/>
<rect x="114.85883" y="56.66865" class="st2" width="171.0025" height="94.18896"/>
<rect x="114.85883" y="56.66865" class="st3" width="171.0025" height="94.18896"/>
<rect x="66.966" y="30.43029" class="st4" width="9.07846" height="240.91733"/>
<rect x="76.04446" y="30.43029" class="st0" width="9.07846" height="240.91733"/>
<circle class="st5" cx="76.04851" cy="21.34778" r="9.08251"/>
<rect x="76.09543" y="30.43029" class="st2" width="171.0025" height="94.18896"/>
<polygon class="st6" points="114.85883,124.61926 114.85883,150.85762 247.71974,124.61926 "/>
<g>
	<polygon class="st6" points="156.11386,95.24139 170.3309,95.24139 170.3309,90.53897 160.96086,90.53897 160.96086,58.41307 
		156.11386,58.41307 156.11386,58.4626 112.5217,58.4626 117.79302,63.16235 156.11386,63.16235 	"/>
	<polyline class="st6" points="165.13321,63.11148 205.98529,63.11148 211.25528,58.41307 165.13321,58.41307 	"/>
	<polygon class="st6" points="165.13321,71.18178 199.23082,71.18178 204.50081,66.48336 165.13321,66.48336 	"/>
	<polygon class="st6" points="165.13321,79.2012 192.47502,79.2012 197.74634,74.50279 165.13321,74.50279 	"/>
	<polygon class="st6" points="170.3309,95.24139 178.96474,95.24139 184.23607,90.54298 170.3309,90.54298 	"/>
	<polygon class="st6" points="165.13321,87.22197 185.72055,87.22197 190.9892,82.52222 165.13321,82.52222 	"/>
	<polygon class="st6" points="105.3081,50.44317 110.57674,55.14292 212.61394,55.14292 217.88527,50.44317 	"/>
	<polygon class="st6" points="153.6134,103.26083 172.56633,103.26083 177.83766,98.56241 148.34341,98.56241 	"/>
	<polygon class="st6" points="152.44542,66.48336 119.27751,66.48336 124.54749,71.18178 152.44542,71.18178 	"/>
	<polygon class="st6" points="152.44542,74.50279 126.03197,74.50279 131.3033,79.2012 152.44542,79.2012 	"/>
	<polygon class="st6" points="152.44542,90.54298 139.54225,90.54298 144.81224,95.24139 152.44542,95.24139 	"/>
	<polygon class="st6" points="152.44542,82.52222 132.78912,82.52222 138.05777,87.22197 152.44542,87.22197 	"/>
</g>
<path class="st5" d="M90.44595,303.57831H27.02463c-1.35745,0-2.45789-1.10043-2.45789-2.45792v-15.93088
	c0-1.35745,1.10044-2.45789,2.45789-2.45789h63.42131c1.35745,0,2.45789,1.10043,2.45789,2.45789v15.93088
	C92.90383,302.47787,91.8034,303.57831,90.44595,303.57831z"/>
<path class="st7" d="M122.50608,202.16975v-0.00006c0-6.14423-4.9809-11.12506-11.12512-11.12506H76.07682
	c-6.14423,0-11.12512,4.98083-11.12512,11.12506v0.00006c0,6.14423,4.9809,11.12506,11.12512,11.12506
	c-6.14423,0-11.12512,4.9809-11.12512,11.12512s4.9809,11.12512,11.12512,11.12512h-0.82111
	c-6.14423,0-11.12512,4.9809-11.12512,11.12512s4.9809,11.12511,11.12512,11.12511h0.82111
	c-6.14423,0-11.12512,4.9809-11.12512,11.12512s4.9809,11.12512,11.12512,11.12512h35.30414
	c6.14423,0,11.12512-4.9809,11.12512-11.12512s-4.9809-11.12512-11.12512-11.12512c6.14423,0,11.12512-4.98088,11.12512-11.12511
	s-4.9809-11.12512-11.12512-11.12512c6.14423,0,11.12512-4.9809,11.12512-11.12512s-4.9809-11.12512-11.12512-11.12512
	C117.52518,213.29482,122.50608,208.31398,122.50608,202.16975z"/>
<path class="st5" d="M112.97256,210.28636H96.04098c-1.57915,0-2.85931-1.28015-2.85931-2.8593v-11.3251
	c0-1.57915,1.28016-2.85931,2.85931-2.85931h16.93159c1.57915,0,2.85931,1.28017,2.85931,2.85931v11.3251
	C115.83187,209.00621,114.55171,210.28636,112.97256,210.28636z"/>
<g>
	<g>
		<rect x="97.41698" y="196.83067" class="st1" width="1.73845" height="10.31637"/>
	</g>
	<g>
		<rect x="103.49892" y="196.83067" class="st1" width="1.73845" height="10.31637"/>
	</g>
	<g>
		<rect x="109.58021" y="196.83067" class="st1" width="1.73845" height="10.31637"/>
	</g>
</g>
<path class="st5" d="M112.97256,232.93657H96.04098c-1.57915,0-2.85931-1.28015-2.85931-2.85931v-11.32509
	c0-1.57916,1.28016-2.85931,2.85931-2.85931h16.93159c1.57915,0,2.85931,1.28015,2.85931,2.85931v11.32509
	C115.83187,231.65642,114.55171,232.93657,112.97256,232.93657z"/>
<g>
	<g>
		<rect x="97.41698" y="219.48109" class="st1" width="1.73845" height="10.31572"/>
	</g>
	<g>
		<rect x="103.49892" y="219.48109" class="st1" width="1.73845" height="10.31572"/>
	</g>
	<g>
		<rect x="109.58021" y="219.48109" class="st1" width="1.73845" height="10.31572"/>
	</g>
</g>
<path class="st5" d="M112.97256,254.99207H96.04098c-1.57915,0-2.85931-1.28015-2.85931-2.85931v-11.32509
	c0-1.57916,1.28016-2.85931,2.85931-2.85931h16.93159c1.57915,0,2.85931,1.28015,2.85931,2.85931v11.32509
	C115.83187,253.71191,114.55171,254.99207,112.97256,254.99207z"/>
<g>
	<g>
		<rect x="97.41698" y="241.53627" class="st1" width="1.73845" height="10.31637"/>
	</g>
	<g>
		<rect x="103.49892" y="241.53627" class="st1" width="1.73845" height="10.31637"/>
	</g>
	<g>
		<rect x="109.58021" y="241.53627" class="st1" width="1.73845" height="10.31637"/>
	</g>
</g>
<path class="st5" d="M112.97256,277.64227H96.04098c-1.57915,0-2.85931-1.28015-2.85931-2.85931v-11.3251
	c0-1.57916,1.28016-2.85931,2.85931-2.85931h16.93159c1.57915,0,2.85931,1.28015,2.85931,2.85931v11.3251
	C115.83187,276.36212,114.55171,277.64227,112.97256,277.64227z"/>
<g>
	<rect x="97.41698" y="264.18668" class="st1" width="1.73845" height="10.31572"/>
</g>
<g>
	<rect x="103.49892" y="264.18668" class="st1" width="1.73845" height="10.31572"/>
</g>
<g>
	<rect x="109.58021" y="264.18668" class="st1" width="1.73845" height="10.31572"/>
</g>
<path class="st5" d="M71.41026,191.04463H41.82291c-7.92023,0-14.34082,6.42059-14.34082,14.34082v37.12543v3.79773v20.5006
	h14.20246c15.3606,0,27.81281-12.45219,27.81281-27.81279c0-10.56787-5.89417-19.75867-14.57416-24.46545
	c0.17877-0.02136,0.35413-0.05432,0.53864-0.05432h15.94843c6.47058,0,11.71606-5.24542,11.71606-11.716
	S77.88084,191.04463,71.41026,191.04463z"/>
<path class="st8" d="M41.83469,212.80928v16.93159c0,1.57915-1.28016,2.8593-2.85931,2.8593h-11.4933v-22.65019h11.4933
	C40.55453,209.94998,41.83469,211.23013,41.83469,212.80928z"/>
<g>
	<g>
		<rect x="27.4822" y="226.62674" class="st1" width="10.31572" height="1.73845"/>
	</g>
	<g>
		<rect x="27.4822" y="220.54478" class="st1" width="10.31572" height="1.73845"/>
	</g>
	<g>
		<rect x="27.4822" y="214.46284" class="st1" width="10.31572" height="1.73845"/>
	</g>
</g>
<circle class="st8" cx="36.00394" cy="292.81384" r="5.15797"/>
</svg>
