<?xml version="1.0" encoding="utf-8"?>
<!-- Generator: Adobe Illustrator 19.2.1, SVG Export Plug-In . SVG Version: 6.00 Build 0)  -->
<svg version="1.1" id="Layer_1" xmlns="http://www.w3.org/2000/svg" xmlns:xlink="http://www.w3.org/1999/xlink" x="0px" y="0px"
	 viewBox="0 0 110 110" style="enable-background:new 0 0 110 110;" xml:space="preserve">
<style type="text/css">
	.st0{fill:#565D67;}
	.st1{fill:#2C3441;}
	.st2{fill:#F6E6CC;}
	.st3{fill:#FF5535;}
	.st4{fill:#B0DDFF;}
	.st5{opacity:0.33;}
	.st6{fill:#FFFFFF;}
</style>
<path class="st0" d="M33.61981,84.79207v8.8742c0,2.83044,2.29443,5.125,5.125,5.125h33.91675c2.83032,0,5.125-2.29456,5.125-5.125
	v-8.8742H33.61981z"/>
<path class="st1" d="M77.78656,34.41627c0-2.83044-2.29468-5.125-5.125-5.125H38.74481c-2.83057,0-5.125,2.29456-5.125,5.125
	v50.3758h44.16675V34.41627z"/>
<path class="st2" d="M70.36221,67.87342H41.04415c-1.05197,0-1.90476-0.85279-1.90476-1.90476V36.6506
	c0-1.05197,0.85279-1.90476,1.90476-1.90476h29.31806c1.05197,0,1.90476,0.85279,1.90476,1.90476v29.31806
	C72.26698,67.02063,71.41418,67.87342,70.36221,67.87342z"/>
<path class="st3" d="M60.96598,22.66627L60.96598,22.66627c-1.82945,0-3.3125,1.48306-3.3125,3.3125v3.3125h6.625v-3.3125
	C64.27848,24.14932,62.79543,22.66627,60.96598,22.66627z"/>
<path class="st4" d="M70.13371,22.66627L70.13371,22.66627c-1.82945,0-3.31251,1.48306-3.31251,3.3125v3.3125h6.625v-3.3125
	C73.44621,24.14932,71.96315,22.66627,70.13371,22.66627z"/>
<rect x="32.21344" y="37.29127" class="st0" width="1.48473" height="6.54649"/>
<rect x="32.21344" y="45.82811" class="st0" width="1.48473" height="6.54649"/>
<g>
	<g>
		<rect x="52.15234" y="71.04102" class="st0" width="1" height="9.25195"/>
	</g>
</g>
<g>
	<g>
		<rect x="49.35645" y="72.54102" class="st0" width="1" height="6.25195"/>
	</g>
</g>
<g>
	<g>
		<rect x="46.35645" y="74.54297" class="st0" width="1" height="2.24805"/>
	</g>
</g>
<g>
	<g>
		<rect x="55.35645" y="69.79199" class="st0" width="1" height="11.75098"/>
	</g>
</g>
<g>
	<g>
		<rect x="58.25391" y="71.04102" class="st0" width="1" height="9.25195"/>
	</g>
</g>
<g>
	<g>
		<rect x="61.0498" y="72.54102" class="st0" width="1" height="6.25195"/>
	</g>
</g>
<g>
	<g>
		<rect x="64.0498" y="74.54297" class="st0" width="1" height="2.24805"/>
	</g>
</g>
<path class="st3" d="M72.2666,50.30957h-2.78821l-1.03595-4.62732c-0.13177-0.58838-0.9715-0.58496-1.09845,0.00446L66.4671,49.758
	c-0.09735,0.45209-0.66833,0.59991-0.97284,0.25189l-0.31696-0.36218c-0.2749-0.31415-0.78418-0.22986-0.94312,0.15619
	l-0.02588,0.06281c-0.18103,0.43976-0.7923,0.47015-1.01605,0.05054l-0.02502-0.04694
	c-0.17773-0.33319-0.62677-0.40002-0.8938-0.133c-0.29553,0.29553-0.79871,0.17682-0.93097-0.21967l-0.64642-1.93756
	c-0.14801-0.44366-0.74146-0.52319-1.0011-0.13422l-0.56287,0.84326c-0.26807,0.40167-0.88434,0.30084-1.01044-0.16528
	l-1.85895-6.86987c-0.14899-0.55078-0.92883-0.55505-1.08386-0.00598l-1.74988,6.19751
	c-0.15326,0.5426-0.92065,0.54724-1.08044,0.00653l-0.44977-1.52228c-0.15814-0.53534-0.91547-0.53796-1.07733-0.00372
	l-1.23682,4.08154c-0.04095,0.13519-0.11981,0.2356-0.21722,0.302h-0.63586c-0.10522-0.06995-0.19055-0.1756-0.22906-0.32275
	l-0.58313-2.22845c-0.14789-0.56506-0.95245-0.55798-1.09039,0.00958l-0.51208,2.10742
	c-0.1358,0.55902-0.92401,0.57751-1.08594,0.02551l-1.47736-5.03638c-0.15704-0.53528-0.91357-0.53992-1.07715-0.00659
	l-1.67188,5.45166h-1.86536v2h1.86536l1.67188,5.45172c0.16357,0.53333,0.9201,0.52869,1.07715-0.00659l1.47736-5.03638
	c0.16193-0.552,0.95013-0.53351,1.08594,0.02551l0.51208,2.10748c0.13794,0.5675,0.9425,0.57458,1.09039,0.00958l0.58313-2.22852
	c0.03857-0.14728,0.12402-0.25293,0.22931-0.32281h0.6355c0.09747,0.06641,0.17633,0.16687,0.21735,0.30212l1.23682,4.08148
	c0.16187,0.53424,0.91919,0.53162,1.07733-0.00372l0.44977-1.52228c0.15979-0.54071,0.92719-0.53607,1.08044,0.00653
	l1.74988,6.19751c0.15503,0.54913,0.93488,0.54486,1.08386-0.00592l1.85895-6.86993c0.1261-0.46613,0.74237-0.56689,1.01044-0.16528
	l0.56287,0.84326c0.25964,0.38904,0.85309,0.30945,1.0011-0.13422l0.64642-1.93756c0.13226-0.39642,0.63544-0.5152,0.93097-0.21967
	c0.26703,0.26703,0.71606,0.2002,0.8938-0.133l0.02502-0.04694c0.22375-0.41956,0.83502-0.38922,1.01605,0.05054l0.02588,0.06287
	c0.15894,0.38599,0.66821,0.47034,0.94312,0.15619l0.31696-0.36224c0.3045-0.34796,0.87549-0.20013,0.97284,0.25189l0.87689,4.07135
	c0.12695,0.58942,0.96667,0.59277,1.09845,0.00446l1.03595-4.62744h2.78821V50.30957z"/>
<rect x="41.98682" y="12.3754" class="st0" width="3.83333" height="16.91587"/>
<path class="st1" d="M46.57015,16.45873h-5.25v-2.625c0-1.44975,1.17525-2.625,2.625-2.625h0.00001
	c1.44975,0,2.625,1.17525,2.625,2.625V16.45873z"/>
<rect x="41.32031" y="17.70801" class="st1" width="5.25" height="1"/>
<rect x="41.32031" y="19.6084" class="st1" width="5.25" height="1"/>
<rect x="41.32031" y="21.50879" class="st1" width="5.25" height="1"/>
<rect x="41.32031" y="23.40869" class="st1" width="5.25" height="1"/>
<rect x="41.32031" y="25.30908" class="st1" width="5.25" height="1"/>
<rect x="41.32031" y="27.20947" class="st1" width="5.25" height="1"/>
<circle class="st1" cx="55.85643" cy="91.79166" r="3.8837"/>
<circle class="st0" cx="55.85643" cy="91.79166" r="2.89779"/>
<g class="st5">
	<path class="st6" d="M72.26697,36.65057c0-1.05194-0.85278-1.90479-1.90472-1.90479h-5.71539L39.53296,67.11633
		c0.3479,0.45721,0.89227,0.75708,1.51117,0.75708h7.06317l24.15967-31.14063V36.65057z"/>
</g>
<g class="st5">
	<path class="st6" d="M72.26697,65.96863V44.23938L53.93109,67.87341h16.43115
		C71.41418,67.87341,72.26697,67.02063,72.26697,65.96863z"/>
</g>
</svg>
