<?xml version="1.0" encoding="utf-8"?>
<!-- Generator: Adobe Illustrator 19.2.1, SVG Export Plug-In . SVG Version: 6.00 Build 0)  -->
<svg version="1.1" id="Layer_1" xmlns="http://www.w3.org/2000/svg" xmlns:xlink="http://www.w3.org/1999/xlink" x="0px" y="0px"
	 viewBox="0 0 270 270" style="enable-background:new 0 0 270 270;" xml:space="preserve">
<style type="text/css">
	.st0{fill:#2C3441;}
	.st1{fill:#FF5535;}
	.st2{fill:#F6E6CC;}
	.st3{fill:#F6BD8D;}
	.st4{fill:#414854;}
	.st5{fill:#FF775D;}
	.st6{fill:#1E2633;}
	.st7{opacity:0.2;}
	.st8{fill:#FFFFFF;}
	.st9{fill:#0A121F;}
</style>
<path class="st0" d="M129.78413,15.66406C63.87673,15.66406,10.4482,69.09265,10.4482,135s53.42853,119.33594,119.33594,119.33594
	S249.12007,200.90735,249.12007,135S195.69154,15.66406,129.78413,15.66406z M129.78413,236.24316
	c-55.9151,0-101.24316-45.32813-101.24316-101.24316c0-55.91516,45.32806-101.24329,101.24316-101.24329
	c55.91504,0,101.24316,45.32813,101.24316,101.24329C231.0273,190.91504,185.69917,236.24316,129.78413,236.24316z"/>
<path class="st1" d="M129.78413,236.24316c-55.9151,0-101.24316-45.32813-101.24316-101.24316
	c0-55.91516,45.32806-101.24329,101.24316-101.24329c55.91504,0,101.24316,45.32813,101.24316,101.24329
	C231.0273,190.91504,185.69917,236.24316,129.78413,236.24316z"/>
<g>
	<path d="M68.42383,200.66406v-8.40234h0.75586v7.68164h3.2168v0.7207H68.42383z"/>
	<path d="M74.79785,200.66406v-8.40234h4.72852v0.7207h-3.97266v3.12305h3.2168v0.7207h-3.2168v3.11719h3.97266v0.7207H74.79785z"/>
	<path d="M85.31982,198.70703h-2.66016l-0.55078,1.95703h-0.78516l2.46094-8.40234h0.39844l2.47266,8.40234h-0.7793
		L85.31982,198.70703z M82.86475,197.98633h2.25586l-1.10742-3.87305l-0.02344-0.31055l-0.02344,0.31055L82.86475,197.98633z"/>
	<path d="M93.50146,199.4043c-0.10742,0.25-0.25488,0.46875-0.44238,0.65625s-0.40723,0.33496-0.65918,0.44238
		s-0.52051,0.16113-0.80566,0.16113h-2.66016v-8.40234h2.66016c0.28516,0,0.55371,0.05371,0.80566,0.16113
		s0.47168,0.25488,0.65918,0.44238s0.33496,0.40723,0.44238,0.65918s0.16113,0.52051,0.16113,0.80566v4.27148
		C93.6626,198.88672,93.60889,199.1543,93.50146,199.4043z M92.90674,194.33008c0-0.1875-0.03516-0.3623-0.10547-0.52441
		s-0.16699-0.30469-0.29004-0.42773s-0.26563-0.21973-0.42773-0.29004s-0.33691-0.10547-0.52441-0.10547h-1.86914v6.96094h1.86914
		c0.1875,0,0.3623-0.03516,0.52441-0.10547s0.30469-0.16602,0.42773-0.28711s0.21973-0.2627,0.29004-0.4248
		s0.10547-0.33691,0.10547-0.52441V194.33008z"/>
	<path d="M101.2666,198.71875c0,0.28516-0.05762,0.55273-0.17285,0.80273s-0.26953,0.46875-0.46289,0.65625
		s-0.41797,0.33496-0.67383,0.44238s-0.52637,0.16113-0.81152,0.16113h-0.60352c-0.28516,0-0.55566-0.05371-0.81152-0.16113
		s-0.48047-0.25488-0.67383-0.44238s-0.34766-0.40625-0.46289-0.65625s-0.17285-0.51758-0.17285-0.80273v-0.33398l0.75586-0.12305
		v0.45703c0,0.1875,0.03809,0.3623,0.11426,0.52441s0.17871,0.30469,0.30762,0.42773s0.27832,0.21973,0.44824,0.29004
		s0.34863,0.10547,0.53613,0.10547h0.52734c0.1875,0,0.36523-0.03516,0.5332-0.10547s0.31641-0.16699,0.44531-0.29004
		s0.23145-0.26563,0.30762-0.42773s0.11426-0.33691,0.11426-0.52441v-0.25195c0-0.28906-0.05664-0.5293-0.16992-0.7207
		s-0.26367-0.35449-0.45117-0.48926s-0.39941-0.24902-0.63574-0.34277s-0.47949-0.1875-0.72949-0.28125
		s-0.49316-0.19727-0.72949-0.31055s-0.44824-0.25488-0.63574-0.4248s-0.33789-0.37793-0.45117-0.62402
		s-0.16992-0.54883-0.16992-0.9082v-0.1582c0-0.28516,0.05371-0.55273,0.16113-0.80273s0.25488-0.46875,0.44238-0.65625
		s0.40723-0.33496,0.65918-0.44238s0.52051-0.16113,0.80566-0.16113h0.53906c0.28516,0,0.55273,0.05371,0.80273,0.16113
		s0.46875,0.25488,0.65625,0.44238s0.33496,0.40625,0.44238,0.65625s0.16113,0.51758,0.16113,0.80273v0.2168l-0.75586,0.12305
		v-0.33984c0-0.1875-0.03516-0.3623-0.10547-0.52441s-0.16602-0.30371-0.28711-0.4248s-0.2627-0.2168-0.4248-0.28711
		s-0.33691-0.10547-0.52441-0.10547H98.6416c-0.1875,0-0.3623,0.03516-0.52441,0.10547s-0.30469,0.16602-0.42773,0.28711
		s-0.21973,0.2627-0.29004,0.4248s-0.10547,0.33691-0.10547,0.52441v0.1582c0,0.26953,0.05664,0.49609,0.16992,0.67969
		s0.26367,0.34082,0.45117,0.47168s0.39941,0.24414,0.63574,0.33984s0.47949,0.19336,0.72949,0.29297
		s0.49316,0.20898,0.72949,0.32813s0.44824,0.26563,0.63574,0.43945s0.33789,0.38574,0.45117,0.63574
		s0.16992,0.55469,0.16992,0.91406V198.71875z"/>
	<path d="M112.65527,198.71875c0,0.28516-0.05762,0.55273-0.17285,0.80273s-0.26953,0.46875-0.46289,0.65625
		s-0.41797,0.33496-0.67383,0.44238s-0.52637,0.16113-0.81152,0.16113h-0.60352c-0.28516,0-0.55566-0.05371-0.81152-0.16113
		s-0.48047-0.25488-0.67383-0.44238s-0.34766-0.40625-0.46289-0.65625s-0.17285-0.51758-0.17285-0.80273v-0.33398l0.75586-0.12305
		v0.45703c0,0.1875,0.03809,0.3623,0.11426,0.52441s0.17871,0.30469,0.30762,0.42773s0.27832,0.21973,0.44824,0.29004
		s0.34863,0.10547,0.53613,0.10547h0.52734c0.1875,0,0.36523-0.03516,0.5332-0.10547s0.31641-0.16699,0.44531-0.29004
		s0.23145-0.26563,0.30762-0.42773s0.11426-0.33691,0.11426-0.52441v-0.25195c0-0.28906-0.05664-0.5293-0.16992-0.7207
		s-0.26367-0.35449-0.45117-0.48926s-0.39941-0.24902-0.63574-0.34277s-0.47949-0.1875-0.72949-0.28125
		s-0.49316-0.19727-0.72949-0.31055s-0.44824-0.25488-0.63574-0.4248s-0.33789-0.37793-0.45117-0.62402
		s-0.16992-0.54883-0.16992-0.9082v-0.1582c0-0.28516,0.05371-0.55273,0.16113-0.80273s0.25488-0.46875,0.44238-0.65625
		s0.40723-0.33496,0.65918-0.44238s0.52051-0.16113,0.80566-0.16113h0.53906c0.28516,0,0.55273,0.05371,0.80273,0.16113
		s0.46875,0.25488,0.65625,0.44238s0.33496,0.40625,0.44238,0.65625s0.16113,0.51758,0.16113,0.80273v0.2168l-0.75586,0.12305
		v-0.33984c0-0.1875-0.03516-0.3623-0.10547-0.52441s-0.16602-0.30371-0.28711-0.4248s-0.2627-0.2168-0.4248-0.28711
		s-0.33691-0.10547-0.52441-0.10547h-0.46875c-0.1875,0-0.3623,0.03516-0.52441,0.10547s-0.30469,0.16602-0.42773,0.28711
		s-0.21973,0.2627-0.29004,0.4248s-0.10547,0.33691-0.10547,0.52441v0.1582c0,0.26953,0.05664,0.49609,0.16992,0.67969
		s0.26367,0.34082,0.45117,0.47168s0.39941,0.24414,0.63574,0.33984s0.47949,0.19336,0.72949,0.29297
		s0.49316,0.20898,0.72949,0.32813s0.44824,0.26563,0.63574,0.43945s0.33789,0.38574,0.45117,0.63574
		s0.16992,0.55469,0.16992,0.91406V198.71875z"/>
	<path d="M119.92236,199.52148c-0.10742,0.25-0.25488,0.46875-0.44238,0.65625s-0.40625,0.33496-0.65625,0.44238
		s-0.51758,0.16113-0.80273,0.16113h-0.59766c-0.28516,0-0.55371-0.05371-0.80566-0.16113s-0.47168-0.25488-0.65918-0.44238
		s-0.33496-0.40625-0.44238-0.65625s-0.16113-0.51758-0.16113-0.80273v-6.45703h0.75586v6.45703
		c0,0.1875,0.03516,0.3623,0.10547,0.52441s0.16699,0.30469,0.29004,0.42773s0.26563,0.21973,0.42773,0.29004
		s0.33691,0.10547,0.52441,0.10547h0.52734c0.1875,0,0.3623-0.03516,0.52441-0.10547s0.30371-0.16699,0.4248-0.29004
		s0.2168-0.26563,0.28711-0.42773s0.10547-0.33691,0.10547-0.52441v-6.45703h0.75586v6.45703
		C120.0835,199.00391,120.02979,199.27148,119.92236,199.52148z"/>
	<path d="M127.53271,199.52148c-0.10742,0.25-0.25488,0.46875-0.44238,0.65625s-0.40625,0.33496-0.65625,0.44238
		s-0.51758,0.16113-0.80273,0.16113h-0.59766c-0.28516,0-0.55371-0.05371-0.80566-0.16113s-0.47168-0.25488-0.65918-0.44238
		s-0.33496-0.40625-0.44238-0.65625s-0.16113-0.51758-0.16113-0.80273v-4.51172c0-0.28516,0.05371-0.55273,0.16113-0.80273
		s0.25488-0.46875,0.44238-0.65625s0.40723-0.33496,0.65918-0.44238s0.52051-0.16113,0.80566-0.16113h0.59766
		c0.28516,0,0.55273,0.05371,0.80273,0.16113s0.46875,0.25488,0.65625,0.44238s0.33496,0.40625,0.44238,0.65625
		s0.16113,0.51758,0.16113,0.80273v0.33984l-0.75586,0.11719v-0.45703c0-0.1875-0.03516-0.3623-0.10547-0.52441
		s-0.16602-0.30371-0.28711-0.4248s-0.2627-0.2168-0.4248-0.28711s-0.33691-0.10547-0.52441-0.10547h-0.52734
		c-0.1875,0-0.3623,0.03516-0.52441,0.10547s-0.30469,0.16602-0.42773,0.28711s-0.21973,0.2627-0.29004,0.4248
		s-0.10547,0.33691-0.10547,0.52441v4.51172c0,0.1875,0.03516,0.3623,0.10547,0.52441s0.16699,0.30469,0.29004,0.42773
		s0.26563,0.21973,0.42773,0.29004s0.33691,0.10547,0.52441,0.10547h0.52734c0.1875,0,0.3623-0.03516,0.52441-0.10547
		s0.30371-0.16699,0.4248-0.29004s0.2168-0.26563,0.28711-0.42773s0.10547-0.33691,0.10547-0.52441v-0.45703l0.75586,0.12305
		v0.33398C127.69385,199.00391,127.64014,199.27148,127.53271,199.52148z"/>
	<path d="M135.01953,199.52148c-0.10742,0.25-0.25488,0.46875-0.44238,0.65625s-0.40625,0.33496-0.65625,0.44238
		s-0.51758,0.16113-0.80273,0.16113h-0.59766c-0.28516,0-0.55371-0.05371-0.80566-0.16113s-0.47168-0.25488-0.65918-0.44238
		s-0.33496-0.40625-0.44238-0.65625s-0.16113-0.51758-0.16113-0.80273v-4.51172c0-0.28516,0.05371-0.55273,0.16113-0.80273
		s0.25488-0.46875,0.44238-0.65625s0.40723-0.33496,0.65918-0.44238s0.52051-0.16113,0.80566-0.16113h0.59766
		c0.28516,0,0.55273,0.05371,0.80273,0.16113s0.46875,0.25488,0.65625,0.44238s0.33496,0.40625,0.44238,0.65625
		s0.16113,0.51758,0.16113,0.80273v0.33984l-0.75586,0.11719v-0.45703c0-0.1875-0.03516-0.3623-0.10547-0.52441
		s-0.16602-0.30371-0.28711-0.4248s-0.2627-0.2168-0.4248-0.28711s-0.33691-0.10547-0.52441-0.10547h-0.52734
		c-0.1875,0-0.3623,0.03516-0.52441,0.10547s-0.30469,0.16602-0.42773,0.28711s-0.21973,0.2627-0.29004,0.4248
		s-0.10547,0.33691-0.10547,0.52441v4.51172c0,0.1875,0.03516,0.3623,0.10547,0.52441s0.16699,0.30469,0.29004,0.42773
		s0.26563,0.21973,0.42773,0.29004s0.33691,0.10547,0.52441,0.10547h0.52734c0.1875,0,0.3623-0.03516,0.52441-0.10547
		s0.30371-0.16699,0.4248-0.29004s0.2168-0.26563,0.28711-0.42773s0.10547-0.33691,0.10547-0.52441v-0.45703l0.75586,0.12305
		v0.33398C135.18066,199.00391,135.12695,199.27148,135.01953,199.52148z"/>
	<path d="M138.0625,200.66406v-8.40234h4.72852v0.7207h-3.97266v3.12305h3.2168v0.7207h-3.2168v3.11719h3.97266v0.7207H138.0625z"/>
	<path d="M150.03809,198.71875c0,0.28516-0.05762,0.55273-0.17285,0.80273s-0.26953,0.46875-0.46289,0.65625
		s-0.41797,0.33496-0.67383,0.44238s-0.52637,0.16113-0.81152,0.16113h-0.60352c-0.28516,0-0.55566-0.05371-0.81152-0.16113
		s-0.48047-0.25488-0.67383-0.44238s-0.34766-0.40625-0.46289-0.65625s-0.17285-0.51758-0.17285-0.80273v-0.33398l0.75586-0.12305
		v0.45703c0,0.1875,0.03809,0.3623,0.11426,0.52441s0.17871,0.30469,0.30762,0.42773s0.27832,0.21973,0.44824,0.29004
		s0.34863,0.10547,0.53613,0.10547h0.52734c0.1875,0,0.36523-0.03516,0.5332-0.10547s0.31641-0.16699,0.44531-0.29004
		s0.23145-0.26563,0.30762-0.42773s0.11426-0.33691,0.11426-0.52441v-0.25195c0-0.28906-0.05664-0.5293-0.16992-0.7207
		s-0.26367-0.35449-0.45117-0.48926s-0.39941-0.24902-0.63574-0.34277s-0.47949-0.1875-0.72949-0.28125
		s-0.49316-0.19727-0.72949-0.31055s-0.44824-0.25488-0.63574-0.4248s-0.33789-0.37793-0.45117-0.62402
		s-0.16992-0.54883-0.16992-0.9082v-0.1582c0-0.28516,0.05371-0.55273,0.16113-0.80273s0.25488-0.46875,0.44238-0.65625
		s0.40723-0.33496,0.65918-0.44238s0.52051-0.16113,0.80566-0.16113h0.53906c0.28516,0,0.55273,0.05371,0.80273,0.16113
		s0.46875,0.25488,0.65625,0.44238s0.33496,0.40625,0.44238,0.65625s0.16113,0.51758,0.16113,0.80273v0.2168l-0.75586,0.12305
		v-0.33984c0-0.1875-0.03516-0.3623-0.10547-0.52441s-0.16602-0.30371-0.28711-0.4248s-0.2627-0.2168-0.4248-0.28711
		s-0.33691-0.10547-0.52441-0.10547h-0.46875c-0.1875,0-0.3623,0.03516-0.52441,0.10547s-0.30469,0.16602-0.42773,0.28711
		s-0.21973,0.2627-0.29004,0.4248s-0.10547,0.33691-0.10547,0.52441v0.1582c0,0.26953,0.05664,0.49609,0.16992,0.67969
		s0.26367,0.34082,0.45117,0.47168s0.39941,0.24414,0.63574,0.33984s0.47949,0.19336,0.72949,0.29297
		s0.49316,0.20898,0.72949,0.32813s0.44824,0.26563,0.63574,0.43945s0.33789,0.38574,0.45117,0.63574
		s0.16992,0.55469,0.16992,0.91406V198.71875z"/>
	<path d="M157.46582,198.71875c0,0.28516-0.05762,0.55273-0.17285,0.80273s-0.26953,0.46875-0.46289,0.65625
		s-0.41797,0.33496-0.67383,0.44238s-0.52637,0.16113-0.81152,0.16113h-0.60352c-0.28516,0-0.55566-0.05371-0.81152-0.16113
		s-0.48047-0.25488-0.67383-0.44238s-0.34766-0.40625-0.46289-0.65625s-0.17285-0.51758-0.17285-0.80273v-0.33398l0.75586-0.12305
		v0.45703c0,0.1875,0.03809,0.3623,0.11426,0.52441s0.17871,0.30469,0.30762,0.42773s0.27832,0.21973,0.44824,0.29004
		s0.34863,0.10547,0.53613,0.10547h0.52734c0.1875,0,0.36523-0.03516,0.5332-0.10547s0.31641-0.16699,0.44531-0.29004
		s0.23145-0.26563,0.30762-0.42773s0.11426-0.33691,0.11426-0.52441v-0.25195c0-0.28906-0.05664-0.5293-0.16992-0.7207
		s-0.26367-0.35449-0.45117-0.48926s-0.39941-0.24902-0.63574-0.34277s-0.47949-0.1875-0.72949-0.28125
		s-0.49316-0.19727-0.72949-0.31055s-0.44824-0.25488-0.63574-0.4248s-0.33789-0.37793-0.45117-0.62402
		s-0.16992-0.54883-0.16992-0.9082v-0.1582c0-0.28516,0.05371-0.55273,0.16113-0.80273s0.25488-0.46875,0.44238-0.65625
		s0.40723-0.33496,0.65918-0.44238s0.52051-0.16113,0.80566-0.16113h0.53906c0.28516,0,0.55273,0.05371,0.80273,0.16113
		s0.46875,0.25488,0.65625,0.44238s0.33496,0.40625,0.44238,0.65625s0.16113,0.51758,0.16113,0.80273v0.2168l-0.75586,0.12305
		v-0.33984c0-0.1875-0.03516-0.3623-0.10547-0.52441s-0.16602-0.30371-0.28711-0.4248s-0.2627-0.2168-0.4248-0.28711
		s-0.33691-0.10547-0.52441-0.10547h-0.46875c-0.1875,0-0.3623,0.03516-0.52441,0.10547s-0.30469,0.16602-0.42773,0.28711
		s-0.21973,0.2627-0.29004,0.4248s-0.10547,0.33691-0.10547,0.52441v0.1582c0,0.26953,0.05664,0.49609,0.16992,0.67969
		s0.26367,0.34082,0.45117,0.47168s0.39941,0.24414,0.63574,0.33984s0.47949,0.19336,0.72949,0.29297
		s0.49316,0.20898,0.72949,0.32813s0.44824,0.26563,0.63574,0.43945s0.33789,0.38574,0.45117,0.63574
		s0.16992,0.55469,0.16992,0.91406V198.71875z"/>
	<path d="M161.04492,192.98242v3.12305h3.2168v0.7207h-3.2168v3.83789h-0.75586v-8.40234h4.72852v0.7207H161.04492z"/>
	<path d="M171.86328,199.52148c-0.10742,0.25-0.25488,0.46875-0.44238,0.65625s-0.40625,0.33496-0.65625,0.44238
		s-0.51758,0.16113-0.80273,0.16113h-0.59766c-0.28516,0-0.55371-0.05371-0.80566-0.16113s-0.47168-0.25488-0.65918-0.44238
		s-0.33496-0.40625-0.44238-0.65625s-0.16113-0.51758-0.16113-0.80273v-6.45703h0.75586v6.45703
		c0,0.1875,0.03516,0.3623,0.10547,0.52441s0.16699,0.30469,0.29004,0.42773s0.26563,0.21973,0.42773,0.29004
		s0.33691,0.10547,0.52441,0.10547h0.52734c0.1875,0,0.3623-0.03516,0.52441-0.10547s0.30371-0.16699,0.4248-0.29004
		s0.2168-0.26563,0.28711-0.42773s0.10547-0.33691,0.10547-0.52441v-6.45703h0.75586v6.45703
		C172.02441,199.00391,171.9707,199.27148,171.86328,199.52148z"/>
	<path d="M174.90625,200.66406v-8.40234h0.75586v7.68164h3.2168v0.7207H174.90625z"/>
	<path d="M181.15723,200.66406v-8.40234h0.75586v7.68164h3.2168v0.7207H181.15723z"/>
	<path d="M189.07715,196.64453v4.01953h-0.75586v-4.00781l-2.17383-4.39453h0.81445l1.72852,3.49219l1.72852-3.49219h0.81445
		L189.07715,196.64453z"/>
	<path d="M103.12109,215.52148c-0.10742,0.25-0.25488,0.46875-0.44238,0.65625s-0.40625,0.33496-0.65625,0.44238
		s-0.51758,0.16113-0.80273,0.16113h-0.59766c-0.28516,0-0.55371-0.05371-0.80566-0.16113s-0.47168-0.25488-0.65918-0.44238
		s-0.33496-0.40625-0.44238-0.65625s-0.16113-0.51758-0.16113-0.80273v-4.51172c0-0.28516,0.05371-0.55273,0.16113-0.80273
		s0.25488-0.46875,0.44238-0.65625s0.40723-0.33496,0.65918-0.44238s0.52051-0.16113,0.80566-0.16113h0.59766
		c0.28516,0,0.55273,0.05371,0.80273,0.16113s0.46875,0.25488,0.65625,0.44238s0.33496,0.40625,0.44238,0.65625
		s0.16113,0.51758,0.16113,0.80273v0.33984l-0.75586,0.11719v-0.45703c0-0.1875-0.03516-0.3623-0.10547-0.52441
		s-0.16602-0.30371-0.28711-0.4248s-0.2627-0.2168-0.4248-0.28711s-0.33691-0.10547-0.52441-0.10547h-0.52734
		c-0.1875,0-0.3623,0.03516-0.52441,0.10547s-0.30469,0.16602-0.42773,0.28711s-0.21973,0.2627-0.29004,0.4248
		s-0.10547,0.33691-0.10547,0.52441v4.51172c0,0.1875,0.03516,0.3623,0.10547,0.52441s0.16699,0.30469,0.29004,0.42773
		s0.26563,0.21973,0.42773,0.29004s0.33691,0.10547,0.52441,0.10547h0.52734c0.1875,0,0.3623-0.03516,0.52441-0.10547
		s0.30371-0.16699,0.4248-0.29004s0.2168-0.26563,0.28711-0.42773s0.10547-0.33691,0.10547-0.52441v-0.45703l0.75586,0.12305
		v0.33398C103.28223,215.00391,103.22852,215.27148,103.12109,215.52148z"/>
	<path d="M110.6084,215.52148c-0.10742,0.25-0.25488,0.46875-0.44238,0.65625s-0.40625,0.33496-0.65625,0.44238
		s-0.51758,0.16113-0.80273,0.16113h-0.59766c-0.28516,0-0.55371-0.05371-0.80566-0.16113s-0.47168-0.25488-0.65918-0.44238
		s-0.33496-0.40625-0.44238-0.65625s-0.16113-0.51758-0.16113-0.80273v-4.51172c0-0.28516,0.05371-0.55273,0.16113-0.80273
		s0.25488-0.46875,0.44238-0.65625s0.40723-0.33496,0.65918-0.44238s0.52051-0.16113,0.80566-0.16113h0.59766
		c0.28516,0,0.55273,0.05371,0.80273,0.16113s0.46875,0.25488,0.65625,0.44238s0.33496,0.40625,0.44238,0.65625
		s0.16113,0.51758,0.16113,0.80273v4.51172C110.76953,215.00391,110.71582,215.27148,110.6084,215.52148z M110.01367,210.20703
		c0-0.1875-0.03516-0.3623-0.10547-0.52441s-0.16602-0.30371-0.28711-0.4248s-0.2627-0.2168-0.4248-0.28711
		s-0.33691-0.10547-0.52441-0.10547h-0.52734c-0.1875,0-0.3623,0.03516-0.52441,0.10547s-0.30469,0.16602-0.42773,0.28711
		s-0.21973,0.2627-0.29004,0.4248s-0.10547,0.33691-0.10547,0.52441v4.51172c0,0.1875,0.03516,0.3623,0.10547,0.52441
		s0.16699,0.30469,0.29004,0.42773s0.26563,0.21973,0.42773,0.29004s0.33691,0.10547,0.52441,0.10547h0.52734
		c0.1875,0,0.3623-0.03516,0.52441-0.10547s0.30371-0.16699,0.4248-0.29004s0.2168-0.26563,0.28711-0.42773
		s0.10547-0.33691,0.10547-0.52441V210.20703z"/>
	<path d="M118.104,216.66406l-3.50391-6.11719l-0.07031-0.36328v6.48047h-0.75586v-8.40234h0.39258l3.50391,6.12305l0.07617,0.35742
		v-6.48047h0.75586v8.40234H118.104z"/>
	<path d="M123.66357,208.98242v7.68164h-0.75586v-7.68164h-2.00391v-0.7207h4.76367v0.7207H123.66357z"/>
	<path d="M130.86328,214.70703h-2.66016l-0.55078,1.95703h-0.78516l2.46094-8.40234h0.39844l2.47266,8.40234h-0.7793
		L130.86328,214.70703z M128.4082,213.98633h2.25586l-1.10742-3.87305l-0.02344-0.31055l-0.02344,0.31055L128.4082,213.98633z"/>
	<path d="M138.92188,215.52148c-0.10742,0.25-0.25488,0.46875-0.44238,0.65625s-0.40625,0.33496-0.65625,0.44238
		s-0.51758,0.16113-0.80273,0.16113h-0.59766c-0.28516,0-0.55371-0.05371-0.80566-0.16113s-0.47168-0.25488-0.65918-0.44238
		s-0.33496-0.40625-0.44238-0.65625s-0.16113-0.51758-0.16113-0.80273v-4.51172c0-0.28516,0.05371-0.55273,0.16113-0.80273
		s0.25488-0.46875,0.44238-0.65625s0.40723-0.33496,0.65918-0.44238s0.52051-0.16113,0.80566-0.16113h0.59766
		c0.28516,0,0.55273,0.05371,0.80273,0.16113s0.46875,0.25488,0.65625,0.44238s0.33496,0.40625,0.44238,0.65625
		s0.16113,0.51758,0.16113,0.80273v0.33984l-0.75586,0.11719v-0.45703c0-0.1875-0.03516-0.3623-0.10547-0.52441
		s-0.16602-0.30371-0.28711-0.4248s-0.2627-0.2168-0.4248-0.28711s-0.33691-0.10547-0.52441-0.10547h-0.52734
		c-0.1875,0-0.3623,0.03516-0.52441,0.10547s-0.30469,0.16602-0.42773,0.28711s-0.21973,0.2627-0.29004,0.4248
		s-0.10547,0.33691-0.10547,0.52441v4.51172c0,0.1875,0.03516,0.3623,0.10547,0.52441s0.16699,0.30469,0.29004,0.42773
		s0.26563,0.21973,0.42773,0.29004s0.33691,0.10547,0.52441,0.10547h0.52734c0.1875,0,0.3623-0.03516,0.52441-0.10547
		s0.30371-0.16699,0.4248-0.29004s0.2168-0.26563,0.28711-0.42773s0.10547-0.33691,0.10547-0.52441v-0.45703l0.75586,0.12305
		v0.33398C139.08301,215.00391,139.0293,215.27148,138.92188,215.52148z"/>
	<path d="M144.00391,208.98242v7.68164h-0.75586v-7.68164h-2.00391v-0.7207h4.76367v0.7207H144.00391z"/>
	<path d="M148.4082,216.66406v-8.40234h4.72852v0.7207h-3.97266v3.12305h3.2168v0.7207h-3.2168v3.11719h3.97266v0.7207H148.4082z"/>
	<path d="M160.3457,215.4043c-0.10742,0.25-0.25488,0.46875-0.44238,0.65625s-0.40723,0.33496-0.65918,0.44238
		s-0.52051,0.16113-0.80566,0.16113h-2.66016v-8.40234h2.66016c0.28516,0,0.55371,0.05371,0.80566,0.16113
		s0.47168,0.25488,0.65918,0.44238s0.33496,0.40723,0.44238,0.65918s0.16113,0.52051,0.16113,0.80566v4.27148
		C160.50684,214.88672,160.45313,215.1543,160.3457,215.4043z M159.75098,210.33008c0-0.1875-0.03516-0.3623-0.10547-0.52441
		s-0.16699-0.30469-0.29004-0.42773s-0.26563-0.21973-0.42773-0.29004s-0.33691-0.10547-0.52441-0.10547h-1.86914v6.96094h1.86914
		c0.1875,0,0.3623-0.03516,0.52441-0.10547s0.30469-0.16602,0.42773-0.28711s0.21973-0.2627,0.29004-0.4248
		s0.10547-0.33691,0.10547-0.52441V210.33008z"/>
</g>
<rect x="82.38721" y="152.6582" class="st0" width="17.19531" height="28.625"/>
<rect x="100.86133" y="152.6582" class="st0" width="17.19531" height="28.625"/>
<rect x="119.23291" y="152.6582" class="st0" width="17.1958" height="28.625"/>
<rect x="137.41406" y="152.6582" class="st0" width="17.19531" height="28.625"/>
<rect x="155.69922" y="152.6582" class="st0" width="17.19531" height="28.625"/>
<g>
	<path class="st2" d="M90.10901,175.70055v-14.5405l-2.44102,1.78381v-2.60532l2.44102-1.77208h2.46449v17.13408H90.10901z"/>
	<path class="st2" d="M104.18234,175.66534v-2.30019l6.68933-8.36754c0.25819-0.3286,0.4264-0.62982,0.50464-0.90366
		c0.07823-0.27383,0.11736-0.53984,0.11736-0.79802c0-0.5946-0.21124-1.14815-0.63373-1.6606
		c-0.42249-0.51247-0.99754-0.76869-1.72514-0.76869c-0.66502,0-1.2342,0.22102-1.70754,0.66307
		c-0.47334,0.44205-0.73739,1.04643-0.79216,1.81316h-2.45275c0.00782-1.38481,0.48116-2.55251,1.42001-3.5031
		c0.93886-0.95059,2.05374-1.42589,3.34467-1.42589c1.42393,0,2.61119,0.47922,3.56178,1.43762
		c0.95058,0.95842,1.42588,2.11438,1.42588,3.4679c0,1.15791-0.34033,2.15936-1.021,3.00433l-5.50403,6.90057h6.52503v2.44102
		H104.18234z"/>
	<path class="st2" d="M122.92911,175.66534v-2.30019l6.68933-8.36754c0.25818-0.3286,0.42639-0.62982,0.50464-0.90366
		c0.07823-0.27383,0.11736-0.53984,0.11736-0.79802c0-0.5946-0.21124-1.14815-0.63373-1.6606
		c-0.42249-0.51247-0.99753-0.76869-1.72514-0.76869c-0.66502,0-1.23421,0.22102-1.70754,0.66307s-0.73739,1.04643-0.79216,1.81316
		h-2.45275c0.00782-1.38481,0.48116-2.55251,1.42001-3.5031c0.93886-0.95059,2.05374-1.42589,3.34467-1.42589
		c1.42393,0,2.61119,0.47922,3.56178,1.43762c0.95059,0.95842,1.42589,2.11438,1.42589,3.4679
		c0,1.15791-0.34035,2.15936-1.02101,3.00433l-5.50403,6.90057h6.52504v2.44102H122.92911z"/>
	<path class="st2" d="M144.92633,175.70055v-14.5405l-2.44102,1.78381v-2.60532l2.44102-1.77208h2.46449v17.13408H144.92633z"/>
	<path class="st2" d="M159.14081,170.88892v-7.54604c0-1.57257,0.4929-2.78722,1.4787-3.64392s2.11243-1.28506,3.37987-1.28506
		c1.25963,0,2.38431,0.42836,3.37401,1.28506c0.98972,0.8567,1.48457,2.07135,1.48457,3.64392v7.54604
		c0,1.57259-0.49486,2.78528-1.48457,3.63806c-0.9897,0.8528-2.11438,1.27919-3.37401,1.27919
		c-1.26744,0-2.39407-0.42639-3.37987-1.27919C159.63371,173.67419,159.14081,172.4615,159.14081,170.88892z M166.4052,170.74809
		v-7.26437c0-0.8215-0.22102-1.46306-0.66307-1.92465c-0.44205-0.46161-1.02296-0.69241-1.74275-0.69241
		c-0.7276,0-1.31049,0.2308-1.74861,0.69241c-0.43813,0.46159-0.6572,1.10315-0.6572,1.92465v7.26437
		c0,0.82933,0.21907,1.47282,0.6572,1.93053c0.43813,0.45769,1.02101,0.68654,1.74861,0.68654
		c0.71979,0,1.3007-0.22885,1.74275-0.68654C166.18417,172.22092,166.4052,171.57742,166.4052,170.74809z"/>
</g>
<path class="st3" d="M197.94727,170.33594c2.85156,1.5293,6.21875,1.73438,9.23633,0.5625
	c2.97949-1.15723,5.29102-3.54004,6.34277-6.53809c3.30176-9.41699,4.97656-19.2959,4.97656-29.36035
	c0-23.93066-9.38477-46.36475-26.42578-63.17041c-17.03711-16.80225-39.59082-25.87207-63.55469-25.53906
	c-23.70898,0.3291-45.90674,9.99316-62.50439,27.2124c-16.61865,17.24121-25.47168,39.81592-24.92871,63.56641
	c0.2334,10.19629,2.18506,20.15918,5.80127,29.61328c1.15967,3.03223,3.57959,5.3916,6.63867,6.4707
	c3.0498,1.07617,6.40625,0.76172,9.20361-0.86621c4.69482-2.73145,6.67285-8.43359,4.71533-13.56445
	c-3.29053-8.62109-4.72998-17.71387-4.27832-27.02539c1.64844-33.98926,29.56494-61.8042,63.55566-63.32324
	c18.40527-0.8291,35.86621,5.71777,49.14648,18.41797C189.16016,99.49902,196.47852,116.61963,196.47852,135
	c0,7.5791-1.26563,15.01953-3.76074,22.11523C190.95996,162.11035,193.20898,167.79395,197.94727,170.33594z"/>
<path class="st4" d="M129.78413,143.35782c-4.61593,0-8.35788-3.74194-8.35788-8.35788s3.74195-8.35789,8.35788-8.35789
	c4.61594,0,8.35788,3.74195,8.35788,8.35789S134.40007,143.35782,129.78413,143.35782z"/>
<path class="st5" d="M57.1958,175.7832c-1.45898,0-2.92236-0.24609-4.33203-0.74414
	c-3.61377-1.27539-6.47168-4.06055-7.84131-7.6416c-3.69824-9.66797-5.69385-19.85742-5.93213-30.2832
	c-0.55615-24.28711,8.49609-47.37109,25.48779-64.99951c16.9707-17.60596,39.66992-27.4873,63.91699-27.82422l0,0
	c24.47266-0.31299,47.56543,8.93457,64.98633,26.11523c17.4248,17.18408,27.02148,40.12402,27.02148,64.59424
	c0,10.29102-1.71191,20.3916-5.08984,30.02246c-1.24512,3.5498-3.98047,6.37109-7.50488,7.74023
	c-3.56641,1.38379-7.54199,1.1416-10.90625-0.66504c-5.59961-3.00293-8.25195-9.72949-6.1709-15.64648
	c2.41992-6.88086,3.64746-14.09863,3.64746-21.45117c0-17.8291-7.09863-34.43604-19.98828-46.7627
	c-12.88184-12.31934-29.80664-18.66748-47.67578-17.86523C93.84473,71.8457,66.7666,98.8252,65.16797,131.79395
	c-0.43848,9.03418,0.95752,17.85449,4.14844,26.21582c2.30908,6.05078-0.03174,12.7793-5.56592,16
	C61.73047,175.18457,59.46924,175.78223,57.1958,175.7832z M128.52246,46.29053c-23.70898,0.3291-45.90674,9.99316-62.50439,27.2124
	c-16.61865,17.24121-25.47168,39.81592-24.92871,63.56641c0.2334,10.19629,2.18506,20.15918,5.80127,29.61328
	c1.15967,3.03223,3.57959,5.3916,6.63867,6.4707c3.0498,1.07617,6.40625,0.76172,9.20361-0.86621
	c4.69482-2.73145,6.67285-8.43359,4.71533-13.56445c-3.29053-8.62109-4.72998-17.71387-4.27832-27.02539
	c1.64844-33.98926,29.56494-61.8042,63.55566-63.32324c18.40527-0.8291,35.86621,5.71777,49.14648,18.41797
	C189.16016,99.49902,196.47852,116.61963,196.47852,135c0,7.5791-1.26563,15.01953-3.76074,22.11523
	c-1.75781,4.99512,0.49121,10.67871,5.22949,13.2207c2.85156,1.5293,6.21875,1.73438,9.23633,0.5625
	c2.97949-1.15723,5.29102-3.54004,6.34277-6.53809c3.30176-9.41699,4.97656-19.2959,4.97656-29.36035
	c0-23.93066-9.38477-46.36475-26.42578-63.17041C175.04004,55.02734,152.48633,45.95752,128.52246,46.29053L128.52246,46.29053z"/>
<g>
	<g>
		<g>
			<g>
				<path class="st1" d="M50.15723,164.76563l-0.71973-1.86523l14.78418-5.69824l0.71973,1.86523L50.15723,164.76563z
					 M63.15723,112.65527l-15.04785-4.98389l0.62891-1.89844l15.04785,4.98389L63.15723,112.65527z M91.24316,75.64551
					l-8.47021-13.3916l1.69043-1.06934l4.23535,6.69238l-0.82715,0.52344l0.82715-0.52295l4.23486,6.69971L91.24316,75.64551z
					 M131.04395,65.00684l-2-0.02344l0.18359-15.73486l2,0.02344L131.04395,65.00684z"/>
			</g>
		</g>
		<g>
			
				<rect x="51.52542" y="147.41779" transform="matrix(0.97834 -0.20699 0.20699 0.97834 -29.53899 14.51816)" class="st1" width="6.16694" height="2.00035"/>
		</g>
		<g>
			
				<rect x="49.92427" y="134.32649" transform="matrix(0.99935 -0.03614 0.03614 0.99935 -4.85549 2.00382)" class="st1" width="6.16512" height="1.99984"/>
		</g>
		<g>
			
				<rect x="52.64031" y="119.07036" transform="matrix(0.13277 -0.99115 0.99115 0.13277 -74.55408 159.1011)" class="st1" width="2.00014" height="6.16739"/>
		</g>
		<g>
			
				<rect x="60.5686" y="94.02041" transform="matrix(0.46168 -0.88705 0.88705 0.46168 -52.98772 106.88454)" class="st1" width="2.0005" height="6.15742"/>
		</g>
		<g>
			
				<rect x="67.64005" y="82.87733" transform="matrix(0.60663 -0.79498 0.79498 0.60663 -41.33576 88.38126)" class="st1" width="1.99968" height="6.16476"/>
		</g>
		<g>
			
				<rect x="76.49888" y="73.10696" transform="matrix(0.73308 -0.68015 0.68015 0.73308 -31.13605 73.04838)" class="st1" width="1.9998" height="6.17183"/>
		</g>
		<g>
			
				<rect x="96.07575" y="60.82448" transform="matrix(0.89921 -0.43751 0.43751 0.89921 -18.17434 48.91257)" class="st1" width="2.00035" height="6.15719"/>
		</g>
		<g>
			
				<rect x="108.39022" y="56.08469" transform="matrix(0.96078 -0.2773 0.2773 0.96078 -12.1172 32.6548)" class="st1" width="2.00032" height="6.16461"/>
		</g>
		<g>
			
				<rect x="121.32378" y="53.51213" transform="matrix(0.99396 -0.10973 0.10973 0.99396 -5.47177 13.76415)" class="st1" width="2.00039" height="6.17203"/>
		</g>
	</g>
	<g>
		<g>
			<g>
				<path class="st1" d="M209.41113,164.76563l-14.7832-5.69824l0.71875-1.86523l14.7832,5.69824L209.41113,164.76563z
					 M196.41113,112.65527l-0.62891-1.89844l15.04785-4.98389l0.62891,1.89844L196.41113,112.65527z M168.3252,75.64551
					l-1.69141-1.06836l4.23535-6.69971l0.8457,0.53418l-0.84473-0.53467l4.23535-6.69238l1.68945,1.06934L168.3252,75.64551z"/>
			</g>
		</g>
		<g>
			
				<rect x="203.95929" y="145.33498" transform="matrix(0.20716 -0.97831 0.97831 0.20716 17.30176 318.18506)" class="st1" width="2.00035" height="6.16598"/>
		</g>
		<g>
			
				<rect x="205.56111" y="132.24385" transform="matrix(0.03596 -0.99935 0.99935 0.03596 63.8948 336.88794)" class="st1" width="1.99984" height="6.16512"/>
		</g>
		<g>
			
				<rect x="202.8438" y="121.15398" transform="matrix(0.99114 -0.1328 0.1328 0.99114 -14.39844 28.42988)" class="st1" width="6.16788" height="2.00014"/>
		</g>
		<g>
			
				<rect x="194.92081" y="96.09887" transform="matrix(0.88698 -0.4618 0.4618 0.88698 -22.46329 102.40953)" class="st1" width="6.15742" height="2.0005"/>
		</g>
		<g>
			
				<rect x="187.84564" y="84.95988" transform="matrix(0.79505 -0.60654 0.60654 0.79505 -13.00763 133.42366)" class="st1" width="6.16515" height="1.99968"/>
		</g>
		<g>
			
				<rect x="178.98358" y="75.19261" transform="matrix(0.68 -0.73321 0.73321 0.68 2.39647 157.87677)" class="st1" width="6.1715" height="2.00051"/>
		</g>
		<g>
			
				<rect x="159.4137" y="62.9029" transform="matrix(0.43742 -0.89926 0.89926 0.43742 33.94915 182.07245)" class="st1" width="6.15698" height="2.00035"/>
		</g>
		<g>
			
				<rect x="147.09549" y="58.16683" transform="matrix(0.2773 -0.96078 0.96078 0.2773 51.68687 187.04832)" class="st1" width="6.16448" height="2.00032"/>
		</g>
		<g>
			
				<rect x="134.15865" y="55.59795" transform="matrix(0.10984 -0.99395 0.99395 0.10984 65.91372 186.79546)" class="st1" width="6.17198" height="2.00039"/>
		</g>
	</g>
</g>
<g>
	<path class="st4" d="M118.56982,148.89844c-0.63965,0-1.27979-0.24414-1.76758-0.73242c-0.97656-0.97656-0.97656-2.55957,0-3.53516
		l9.79639-9.7959c0.97559-0.97656,2.55957-0.97656,3.53516,0c0.97656,0.97607,0.97656,2.55957,0,3.53516l-9.79639,9.7959
		C119.84961,148.6543,119.20947,148.89844,118.56982,148.89844z"/>
</g>
<g>
	<path class="st0" d="M131.55957,135.90869c-0.63965,0-1.27979-0.24414-1.76758-0.73242c-0.97656-0.97607-0.97656-2.55908,0-3.53516
		l48.78906-48.78906c0.97656-0.97656,2.55859-0.97656,3.53516,0c0.97656,0.97607,0.97656,2.55908,0,3.53516l-48.78906,48.78906
		C132.83936,135.66455,132.19922,135.90869,131.55957,135.90869z"/>
</g>
<path class="st6" d="M129.78413,139.77036c-2.63463,0-4.77042-2.13579-4.77042-4.77042s2.13579-4.77042,4.77042-4.77042
	s4.77042,2.13579,4.77042,4.77042S132.41876,139.77036,129.78413,139.77036z"/>
<g>
	<path class="st6" d="M131.55957,135.90869c-0.63965,0-1.27979-0.24414-1.76758-0.73242c-0.97656-0.97607-0.97656-2.55908,0-3.53516
		l48.78906-48.78906c0.97656-0.97656,2.55859-0.97656,3.53516,0c0.97656,0.97607,0.97656,2.55908,0,3.53516l-48.78906,48.78906
		C132.83936,135.66455,132.19922,135.90869,131.55957,135.90869z"/>
</g>
<g class="st7">
	<path class="st8" d="M129.57594,15.66406c32.87274,0,62.63934,13.29333,84.22217,34.79541l-168.7627,168.7627
		C23.53334,197.63928,10.24,167.87268,10.24,135C10.24,69.09265,63.66853,15.66406,129.57594,15.66406z"/>
</g>
<path class="st9" d="M140.42407,15.66406c-1.78339,0-3.55566,0.04663-5.31995,0.12408
	C198.54199,18.57214,249.12006,70.87604,249.12006,135s-50.57806,116.42786-114.01593,119.21185
	c1.76428,0.07745,3.53656,0.12408,5.31995,0.12408c65.90741,0,119.33594-53.42859,119.33594-119.33594
	S206.33148,15.66406,140.42407,15.66406z"/>
<path class="st9" d="M140.42407,15.66406c-1.78339,0-3.55566,0.04663-5.31995,0.12408
	C198.54199,18.57214,249.12006,70.87604,249.12006,135s-50.57806,116.42786-114.01593,119.21185
	c1.76428,0.07745,3.53656,0.12408,5.31995,0.12408c65.90741,0,119.33594-53.42859,119.33594-119.33594
	S206.33148,15.66406,140.42407,15.66406z"/>
</svg>
