<?xml version="1.0" encoding="utf-8"?>
<!-- Generator: Adobe Illustrator 19.2.1, SVG Export Plug-In . SVG Version: 6.00 Build 0)  -->
<svg version="1.1" id="Layer_1" xmlns="http://www.w3.org/2000/svg" xmlns:xlink="http://www.w3.org/1999/xlink" x="0px" y="0px"
	 viewBox="0 0 110 110" style="enable-background:new 0 0 110 110;" xml:space="preserve">
<style type="text/css">
	.st0{fill:#B0DDFF;}
	.st1{fill:#FF5535;}
	.st2{fill:#FFFFFF;}
	.st3{fill:none;}
	.st4{opacity:0.2;fill:#FFFFFF;}
</style>
<g>
	<circle class="st0" cx="55" cy="55" r="45.75"/>
</g>
<g>
	<path class="st0" d="M55,92.61071c-20.73867,0-37.61071-16.87205-37.61071-37.61071S34.26133,17.38929,55,17.38929
		S92.61071,34.26133,92.61071,55S75.73866,92.61071,55,92.61071z M55,19.19518c-19.74269,0-35.80482,16.06213-35.80482,35.80482
		c0,19.74313,16.06213,35.80482,35.80482,35.80482c19.74313,0,35.80482-16.06168,35.80482-35.80482
		C90.80482,35.25731,74.74313,19.19518,55,19.19518z"/>
</g>
<g>
	<path class="st0" d="M55,83.38902c-15.65386,0-28.38946-12.7356-28.38946-28.38902c0-15.65386,12.7356-28.38946,28.38946-28.38946
		c15.65342,0,28.38902,12.7356,28.38902,28.38946C83.38902,70.65342,70.65342,83.38902,55,83.38902z M55,28.41643
		c-14.65833,0-26.58357,11.92524-26.58357,26.58357c0,14.65789,11.92524,26.58313,26.58357,26.58313
		c14.65789,0,26.58313-11.92524,26.58313-26.58313C81.58313,40.34167,69.65789,28.41643,55,28.41643z"/>
</g>
<g>
	<path class="st0" d="M55,73.05892c-9.95754,0-18.05893-8.10094-18.05893-18.05892c0-9.95754,8.10139-18.05893,18.05893-18.05893
		c9.95798,0,18.05892,8.10139,18.05892,18.05893C73.05892,64.95798,64.95798,73.05892,55,73.05892z M55,38.74697
		c-8.96201,0-16.25303,7.29103-16.25303,16.25303c0,8.96157,7.29103,16.25304,16.25303,16.25304
		c8.96157,0,16.25304-7.29147,16.25304-16.25304C71.25304,46.03799,63.96157,38.74697,55,38.74697z"/>
</g>
<g>
	<path class="st0" d="M55,62.62037c-4.2017,0-7.62037-3.41867-7.62037-7.62037S50.7983,47.37963,55,47.37963
		S62.62037,50.7983,62.62037,55S59.2017,62.62037,55,62.62037z M55,49.18552c-3.20617,0-5.81448,2.60831-5.81448,5.81448
		S51.79383,60.81448,55,60.81448S60.81448,58.20617,60.81448,55S58.20617,49.18552,55,49.18552z"/>
</g>
<path class="st1" d="M40.39722,69.92859h-1.6554c-0.55829-3.02209-2.9433-5.4071-5.96539-5.96545v-1.65582h-2.70886v1.65582
	c-3.02209,0.55835-5.4071,2.94336-5.96545,5.96545h-1.65582v2.7088h1.65576c0.55829,3.02216,2.94336,5.4071,5.96552,5.96545v1.65497
	h2.70886v-1.65497c3.02216-0.55835,5.40717-2.9433,5.96545-5.96545h1.65533V69.92859z M32.77643,75.80243v-2.41901h-2.70886v2.41901
	c-1.51941-0.45709-2.70795-1.64575-3.16504-3.16504h2.42126v-2.7088h-2.42126c0.45709-1.51929,1.64563-2.70795,3.16504-3.16504
	v2.41815h2.70886v-2.41815c1.51935,0.45709,2.70795,1.64575,3.16504,3.16504h-2.42084v2.7088h2.42084
	C35.48438,74.15668,34.29584,75.34534,32.77643,75.80243z"/>
<polygon class="st2" points="81.6369,34.89313 79.72168,32.97791 76.77081,35.92859 73.81989,32.97791 71.90466,34.89313 
	74.85547,37.84381 71.90466,40.79443 73.81989,42.70972 76.77081,39.75897 79.72168,42.70972 81.6369,40.79443 78.6861,37.84381 "/>
<g>
	<path class="st3" d="M92.73242,80.86646l-3.19751,4.12146C90.67499,83.67609,91.74573,82.30304,92.73242,80.86646z"/>
	<path class="st4" d="M93.17676,29.79523L40.07153,98.24524c2.22327,0.76746,4.52344,1.36639,6.88708,1.78577l49.66443-64.01501
		C95.63196,33.84662,94.48102,31.76672,93.17676,29.79523z"/>
	<path class="st4" d="M89.53491,84.98792l3.19751-4.12146C97.78656,73.508,100.75,64.60156,100.75,55
		c0-4.11322-0.55145-8.09607-1.56934-11.888L54.474,100.73669C54.6499,100.73871,54.82361,100.75,55,100.75
		C68.79095,100.75,81.14697,94.63934,89.53491,84.98792z"/>
</g>
</svg>
