<?xml version="1.0" encoding="utf-8"?>
<!-- Generator: Adobe Illustrator 19.2.1, SVG Export Plug-In . SVG Version: 6.00 Build 0)  -->
<svg version="1.1" id="Layer_1" xmlns="http://www.w3.org/2000/svg" xmlns:xlink="http://www.w3.org/1999/xlink" x="0px" y="0px"
	 viewBox="0 0 110 110" style="enable-background:new 0 0 110 110;" xml:space="preserve">
<style type="text/css">
	.st0{fill:#B0DDFF;}
	.st1{fill:#F6E6CC;}
	.st2{fill:none;}
	.st3{fill:#FF5535;}
	.st4{fill:#4C4F70;}
	.st5{fill:#F8CAA4;}
</style>
<circle class="st0" cx="54.99944" cy="60.01976" r="25.6899"/>
<path class="st0" d="M69.00064,55.64558c0.12598,0.15942,0.24805,0.31799,0.37573,0.47766
	c-0.18677,0.23401-0.36548,0.46558-0.54907,0.69873c-0.13037,1.04846-0.20532,2.11401-0.20532,3.19775
	c0,0.1123,0.00708,0.22302,0.00854,0.33508c0.65796-0.87463,1.33374-1.75427,2.0354-2.64001L69.00064,55.64558z"/>
<g>
	<path class="st1" d="M73.60504,74.88153c-0.40466-1.76324-2.17847-2.87488-3.94177-2.47021l-9.26001,2.31378
		c-1.763,0.40417-3.5365-0.70734-3.9411-2.4704c-0.30328-1.32135,0.24512-2.6485,1.28107-3.40112l14.74512-3.30688
		c1.76324-0.40472,2.87488-2.17847,2.47021-3.94177c-0.4046-1.76331-2.17841-2.87494-3.94171-2.47028L44.27039,65.1958
		c-1.76324,0.40466-2.87482,2.17847-2.47021,3.94177c0.40466,1.76331,2.17847,2.87488,3.94177,2.47021l2.37646-0.54535
		c1.26038,0.22559,2.33252,1.18085,2.63574,2.5022c0.40472,1.76331-0.70685,3.53705-2.47009,3.94177l-9.74249,2.23584
		c2.49902,2.08765,5.40088,3.70697,8.57184,4.729l24.02142-5.64795C72.89813,78.41864,74.0097,76.6449,73.60504,74.88153z"/>
	<path class="st1" d="M30.96442,63.73303l30.20721-6.70258c1.90509-0.43719,3.0495-2.47266,2.34271-4.36627
		c-0.58386-1.56445-2.30701-2.3916-3.93451-2.01813l-11.91821,2.73517c-1.60706,0.36884-3.30859-0.43506-3.90851-1.97089
		c-0.04102-0.10498-0.07629-0.21045-0.10602-0.3161c-0.47681-1.6947,0.6701-3.42743,2.38599-3.82123l1.13403-0.26025
		c1.59424-0.36584,2.76038-1.81598,2.64441-3.44751c-0.14624-2.05627-2.08868-3.42975-4.01862-2.98682l-9.89954,2.27185
		c-2.05573,2.28607-3.70264,4.94452-4.83704,7.8598l4.20679-0.96545c1.26044,0.22559,2.33258,1.18085,2.63586,2.50226
		c0.4046,1.76312-0.70679,3.53662-2.46967,3.94159l-5.9364,1.13257c-0.0152,0.00348-0.02832,0.01099-0.04346,0.01471
		c-0.09161,0.88232-0.13989,1.77747-0.13989,2.68402c0,1.26508,0.0954,2.50751,0.27203,3.72357
		C30.02661,63.83435,30.49481,63.84082,30.96442,63.73303z"/>
</g>
<g>
	<path class="st2" d="M89.7814,37.58052c4.55176-8.98047,5.47168-15.82129,2.52246-18.77051
		c-4.83423-4.83594-19.68604,1.00439-35.70996,13.66602c0.87109,0.71545,1.74609,1.45166,2.62402,2.20605
		c-1.14648-0.18994-2.31885-0.30249-3.51172-0.33484c-0.23535-0.19409-0.47168-0.40125-0.70679-0.59265
		c-0.24048,0.19604-0.48291,0.4082-0.72388,0.60693c-1.18799,0.0332-2.35791,0.13647-3.50049,0.32568
		c0.87988-0.7561,1.75708-1.49402,2.63013-2.21118c-16.02515-12.66126-30.87769-18.5-35.71069-13.66602
		c-6.35938,6.35938,5.35156,28.81543,25.57227,49.03711c3.87158,3.8717,7.82495,7.42798,11.73193,10.60876
		c3.90723-3.18054,7.8606-6.73694,11.73291-10.60876C76.81265,57.76704,84.9982,47.01802,89.7814,37.58052z"/>
	<path class="st3" d="M80.68716,60.35847c11.42407,15.18567,16.19482,28.48193,11.6167,33.06091
		c-4.97314,4.97534-19.7937-1.10571-35.69043-13.66602c3.81689-3.14038,7.69116-6.65088,11.53223-10.49219
		C72.39404,65.2257,79.3732,56.7257,79.93082,56.11714c4.83105-6.05554,8.8125-12.06323,11.63477-17.63232
		c5.04102-9.94629,5.80566-17.43555,2.15234-21.08887c-5.7666-5.76831-21.30859-0.09985-38.71826,13.78955
		C37.58975,17.2956,22.04849,11.62519,16.28043,17.39594c-5.70264,5.70264-0.2644,20.62793,12.5376,37.1438l-0.00024-0.00037
		c0,0,0.01196,0.01526,0.01685,0.02148c0.271,0.34973,0.55005,0.70117,0.82788,1.05237
		c0.0105,0.01306,0.01904,0.02393,0.02954,0.03735l1.5769,1.95935c0.04224,0.05151,0.08447,0.10327,0.1272,0.1554
		c3.13257,3.80542,6.6272,7.66674,10.45654,11.49585c3.84106,3.84106,7.71509,7.35132,11.53174,10.49146
		C37.48721,92.3122,22.66763,98.39167,17.69449,93.41938c-4.5769-4.57788,0.19531-17.87012,11.61353-33.05102
		c0.00024-0.10754,0.00073-0.21436,0.0022-0.32007c0-0.00952-0.00073-0.01904-0.00073-0.02856
		c0-0.03308,0.00317-0.06543,0.00317-0.09839c0.00635-0.33044,0.01733-0.6488,0.03174-0.94885
		c0.01611-0.36694,0.03833-0.73206,0.06958-1.09485c0.05103-0.64307,0.10083-1.05566,0.10083-1.05566
		C15.76309,74.27924,10.55899,89.11115,16.28043,94.83344c1.53027,1.53027,3.72363,2.25879,6.43262,2.25879
		c7.71191-0.00073,19.60596-5.90356,32.28613-16.03052c12.68042,10.1272,24.57397,16.03052,32.28516,16.03052
		c2.70996,0,4.9043-0.72852,6.43359-2.25879c5.72217-5.72217,0.52466-20.55176-13.22607-38.00866 M54.99869,78.45588
		c-3.90698-3.18079-7.86035-6.73706-11.73193-10.60876c-20.2207-20.22168-31.93164-42.67773-25.57227-49.03711
		c4.83301-4.83398,19.68555,1.00476,35.71069,13.66602c-0.87305,0.71716-1.75024,1.45508-2.63013,2.21118
		c1.14258-0.18921,2.3125-0.29248,3.50049-0.32568c0.24097-0.19873,0.4834-0.41089,0.72388-0.60693
		c0.23511,0.19141,0.47144,0.39856,0.70679,0.59265c1.19287,0.03235,2.36523,0.1449,3.51172,0.33484
		c-0.87793-0.75439-1.75293-1.4906-2.62402-2.20605C72.61783,19.8144,87.46964,13.97407,92.30386,18.81001
		c2.94922,2.94922,2.0293,9.79004-2.52246,18.77051c-4.7832,9.4375-12.96875,20.18652-23.0498,30.2666
		C62.85928,71.71894,58.90591,75.27534,54.99869,78.45588z"/>
</g>
<g>
	<g>
		<path class="st4" d="M79.14629,64.23936c0.00829,0.00694,0.01282,0.0163,0.02158,0.02258
			c0.01643,0.01124,0.03568,0.01428,0.05288,0.02302c0.0161,0.00743,0.03104,0.01505,0.04767,0.02032
			c0.16986,0.05977,0.36345,0.01006,0.47295-0.1431l0.00386-0.0054l0.47549-0.69138c0.02446-0.03706,0.04135-0.07851,0.0527-0.12291
			c0.00376-0.01311,0.00647-0.02545,0.00874-0.03861c0.00174-0.01099,0.00608-0.02063,0.00715-0.0321l0.38154-4.73973
			l0.27197-0.53866l1.94522,2.28558c0.1485,0.17449,0.41031,0.19549,0.58456,0.04733l1.30219-1.1082
			c0.02653-0.02284,0.04935-0.04833,0.06864-0.07532c0.03522-0.04925,0.05409-0.1056,0.06506-0.16301
			c0.02447-0.05847,0.04021-0.12113,0.03494-0.18863l-0.49417-6.2708l3.03219-6.34133l2.54741-4.27293
			c0.00608-0.00993,0.00623-0.02155,0.01105-0.03186c0.01554-0.03171,0.02799-0.0641,0.03476-0.09852
			c0.00381-0.01817,0.00609-0.0349,0.00726-0.05293c0.00233-0.03249-0.00021-0.06388-0.00526-0.09604
			c-0.00288-0.01736-0.00452-0.03432-0.00971-0.0513c-0.00953-0.0323-0.02547-0.06206-0.04315-0.09152
			c-0.00862-0.01432-0.01377-0.02922-0.02394-0.0421c-0.00231-0.00319-0.00323-0.0069-0.00554-0.01008
			c-0.01604-0.01963-0.03768-0.03001-0.05605-0.04568c-0.01812-0.01601-0.03151-0.03579-0.0533-0.04882
			c-0.00294-0.00159-0.0065-0.00159-0.00978-0.00343c-0.02656-0.01491-0.05548-0.02081-0.08397-0.02945
			c-0.02381-0.00734-0.04646-0.01844-0.07042-0.02129c-0.02122-0.00242-0.04209,0.00254-0.06364,0.00344
			c-0.03225,0.0009-0.06421-0.00003-0.09521,0.00839c-0.01534,0.00433-0.02879,0.01459-0.04408,0.021
			c-0.0351,0.01416-0.06987,0.02856-0.10011,0.05231c-0.00237,0.00188-0.00501,0.00203-0.00704,0.00414l-3.43998,2.80323
			c-0.24557-0.11644-0.63342-0.13018-1.23586,0.22113c-0.4653,0.27143-0.97948,0.7139-1.44664,1.24605
			c-0.4676,0.53133-0.84048,1.09776-1.04961,1.59417c-0.14011,0.33215-0.18835,0.59284-0.18459,0.80149l-1.36364,1.27685
			l-7.32003,1.80261c-0.01996,0.0051-0.0351,0.01772-0.05376,0.02528c-0.02671,0.01098-0.05314,0.02013-0.07749,0.03636
			c-0.02565,0.01734-0.04514,0.0396-0.06612,0.06182c-0.01288,0.01373-0.02961,0.02216-0.04095,0.03802l-0.72363,1.01205
			c-0.00772,0.0108-0.00883,0.02377-0.0153,0.03495c-0.00656,0.0106-0.01669,0.01764-0.02248,0.0293
			c-0.00656,0.01417-0.0058,0.0295-0.01053,0.04396c-0.00918,0.02709-0.01646,0.05297-0.01991,0.0806
			c-0.00362,0.02647-0.00388,0.05178-0.0022,0.07795c0.00177,0.02676,0.00533,0.05173,0.01173,0.07772
			c0.00698,0.02589,0.01622,0.04932,0.02763,0.07329c0.01108,0.02372,0.02394,0.04567,0.0397,0.06713
			c0.01677,0.02218,0.03546,0.04167,0.05671,0.06043c0.01152,0.01028,0.01797,0.02407,0.03079,0.03323
			c0.0108,0.00772,0.02319,0.00893,0.03437,0.0154c0.01118,0.00647,0.01821,0.01659,0.02988,0.02238l3.10621,1.46542
			l-3.69726,0.84001l-0.00362,0.0015c-0.04975,0.01183-0.09547,0.0337-0.13714,0.06203
			c-0.00294,0.00198-0.00699,0.00265-0.00993,0.00462c-0.05682,0.04095-0.09753,0.10004-0.12798,0.16544
			c-0.01525,0.03345-0.03185,0.06594-0.03799,0.10233c-0.00005,0.0015-0.00111,0.00226-0.00116,0.00376l-0.14507,0.91591
			c-0.00319,0.02015,0.00264,0.0391,0.00233,0.05877c-0.00035,0.0283-0.00181,0.05529,0.00353,0.08205
			c0.00476,0.02686,0.01492,0.05043,0.02503,0.07551c0.00968,0.02425,0.01868,0.04802,0.0328,0.07035
			c0.01445,0.02257,0.03295,0.0409,0.05165,0.06038c0.01802,0.019,0.03513,0.03786,0.05672,0.0533
			c0.02284,0.01583,0.04805,0.0262,0.07369,0.0374c0.01826,0.00796,0.03268,0.02132,0.05229,0.02668l1.23222,0.3437
			l-0.31255,1.01538c-0.00782,0.02449-0.0046,0.04922-0.00761,0.0741c-0.00261,0.02362-0.01173,0.04565-0.01001,0.07033
			c-0.00034,0.00333,0.00188,0.00593,0.00211,0.00916c0.00273,0.03254,0.01419,0.06215,0.02411,0.0932
			c0.00645,0.02092,0.00928,0.04334,0.01878,0.06287c0.01257,0.02377,0.03175,0.04258,0.04832,0.06361
			c0.01624,0.02079,0.02895,0.04364,0.0491,0.0611c0.01701,0.01471,0.03884,0.02268,0.05836,0.0346
			c0.02684,0.01664,0.05215,0.03473,0.08208,0.04492c0.00343,0.00092,0.00564,0.00352,0.00882,0.00478
			c0.04662,0.01395,0.09352,0.01894,0.13951,0.01665c0,0,0.00343,0.00092,0.00491,0.00097l2.1395-0.11593l-0.06485,0.40941
			c-0.00246,0.01557,0.00249,0.02931,0.00176,0.04459c-0.00127,0.02816-0.00066,0.0551,0.00353,0.08205
			c0.00418,0.02695,0.01063,0.05145,0.01924,0.07647c0.0092,0.02493,0.0195,0.04759,0.03304,0.07002
			c0.01373,0.02358,0.02929,0.04388,0.04692,0.06414c0.0172,0.01944,0.03551,0.03661,0.05629,0.05248
			c0.02245,0.01707,0.04583,0.03073,0.072,0.04333c0.01326,0.00642,0.02338,0.01722,0.03759,0.02229l2.32571,0.82935
			l-0.16257,0.22738c-0.01086,0.01518-0.01328,0.03283-0.02187,0.04912c-0.01312,0.02477-0.0261,0.04863-0.03378,0.07577
			c-0.00787,0.02598-0.01044,0.05167-0.01315,0.07829c-0.00247,0.02627-0.00455,0.05129-0.00197,0.07762
			c0.00274,0.02897,0.01073,0.05559,0.01949,0.08327c0.00544,0.01663,0.00418,0.03408,0.01193,0.05033l1.39662,3.03786
			c0.00794,0.01741,0.02231,0.0287,0.03237,0.04456c0.00655,0.0108,0.01488,0.01982,0.02226,0.03019
			C79.09391,64.19069,79.11742,64.2177,79.14629,64.23936"/>
	</g>
</g>
<circle class="st5" cx="32.01903" cy="18.32986" r="5.66667"/>
<circle class="st5" cx="78.35236" cy="93.32986" r="4.00694"/>
</svg>
