<?xml version="1.0" encoding="utf-8"?>
<!-- Generator: Adobe Illustrator 19.2.1, SVG Export Plug-In . SVG Version: 6.00 Build 0)  -->
<svg version="1.1" id="Layer_1" xmlns="http://www.w3.org/2000/svg" xmlns:xlink="http://www.w3.org/1999/xlink" x="0px" y="0px"
	 viewBox="0 0 1170 712" style="enable-background:new 0 0 1170 712;" xml:space="preserve">
<style type="text/css">
	.st0{fill:#B0DDFF;}
	.st1{fill:#DBECFF;}
	.st2{fill:#2C3441;}
	.st3{fill:#FF5535;}
	.st4{fill:#FF775D;}
	.st5{fill:#F6E6CC;}
	.st6{fill:#F6BD8D;}
	.st7{fill:#F9CCAA;}
	.st8{fill:#4C4F70;}
	.st9{fill:#1F234C;}
	.st10{opacity:0.5;}
	.st11{fill:#ECAD7A;}
	.st12{fill:#F6BC8D;}
</style>
<rect x="-109.51374" y="-0.16089" class="st0" width="1389.02747" height="712.32178"/>
<path class="st1" d="M242.61348,166.78151h-49.3649c-9.99435,0-18.09631-8.10197-18.09631-18.09631v-0.00012
	c0-9.99423,8.10196-18.09631,18.09631-18.09631h49.3649c7.24966-2.36024,12.49347-9.16451,12.49347-17.20167
	c0-9.99435-8.10197-18.09644-18.09633-18.09644H120.1424c-3.48561,0-6.31126,2.82576-6.31126,6.31137
	c0,2.87888,1.94117,5.27586,4.57647,6.03339h17.30403c6.33839,0,11.47667,5.13827,11.47667,11.47667
	c0,6.33839-5.13828,11.47667-11.47667,11.47667h-22.01141c-9.99423,0-18.09631,8.10208-18.09631,18.09631v0.00012
	c0,8.94923,6.50277,16.36198,15.03668,17.81833h44.55878c6.33839,0,11.47667,5.13828,11.47667,11.47667
	s-5.13828,11.47667-11.47667,11.47667h-99.2709c-3.48561,0-6.31126,2.82564-6.31126,6.31137
	c0,3.48561,2.82565,6.31137,6.31126,6.31137h181.08215c9.99435,0,18.09633-8.10208,18.09633-18.09644
	C255.10695,175.94601,249.86314,169.14175,242.61348,166.78151z"/>
<path class="st1" d="M1056.06421,385.55795h53.32849c10.79675,0,19.54932,8.75247,19.54932,19.54932v0.00012
	c0,10.79669-8.75256,19.54929-19.54932,19.54929h-38.32935c-7.83167,2.54977-13.49658,9.90036-13.49658,18.58282
	c0,10.79681,8.75256,19.54944,19.54932,19.54944h111.25256c3.7655,0,6.81799-3.05264,6.81799-6.81812
	c0-3.11005-2.09705-5.69946-4.94385-6.51782h-18.69348c-6.84729,0-12.39807-5.55084-12.39807-12.39816
	s5.55078-12.39816,12.39807-12.39816h23.77881c10.79663,0,19.54932-8.75259,19.54932-19.54929v-0.00012
	c0-9.66782-7.0249-17.67575-16.24402-19.24902h-48.13647c-6.84729,0-12.39819-5.55084-12.39819-12.39816
	s5.5509-12.39813,12.39819-12.39813h107.24158c3.76538,0,6.81799-3.05252,6.81799-6.81812c0-3.7655-3.05261-6.81815-6.81799-6.81815
	h-195.6217c-10.79675,0-19.54919,8.75262-19.54919,19.54944C1042.56763,375.65759,1048.23242,383.00821,1056.06421,385.55795z"/>
<path class="st1" d="M514.40179,629.80579v-0.00012c0-16.24426-10.79593-29.96069-25.60196-34.38373h63.26968
	c9.74774,0,17.6499,7.90222,17.6499,17.65002v0.00006c0,7.21521-4.33484,13.40961-10.53748,16.14624h76.73639
	c9.74792,0,17.65009,7.90228,17.65009,17.65009c0,9.74792-7.90216,17.65015-17.65009,17.65015H487.64136
	C503.04037,660.48035,514.40179,646.47144,514.40179,629.80579z"/>
<g>
	<g>
		<path class="st2" d="M947.45056,302.68887c-2.9671-1.42136-5.42279-3.91147-6.76526-7.18207l-36.45062-88.80914
			c-0.95978-2.3392-0.35449-5.06059,1.50702-6.77176l10.77362-9.905c0.40924-0.37672,1.04688-0.35249,1.42474,0.06004
			c0.37695,0.40993,0.35034,1.04802-0.06006,1.42477l-10.77356,9.905c-1.24231,1.14233-1.64642,2.95924-1.00549,4.52104
			l36.45062,88.80914c2.28986,5.58093,8.37823,8.4975,14.16321,6.78476l92.19269-27.29507
			c1.57397-0.46582,2.70386-1.82144,2.87878-3.45389l2.10913-19.74739c0.05908-0.55428,0.55591-0.95518,1.10974-0.89627
			c0.55627,0.06064,0.9552,0.55696,0.89563,1.10994l-2.1095,19.74783c-0.26184,2.44577-1.95422,4.4761-4.31189,5.17365
			l-92.19275,27.29507C953.89709,304.46332,950.41815,304.11047,947.45056,302.68887z"/>
	</g>
	<g>
		<path class="st2" d="M947.58673,302.40466c-1.89594-0.90823-3.13477-2.70132-3.31451-4.79623l-6.09033-71.17592
			c-0.38641-4.51404,0.44373-9.06009,2.40143-13.14682l3.10333-6.47827c0.24066-0.50229,0.84296-0.71445,1.34528-0.47383
			c0.50226,0.24062,0.71442,0.84296,0.47382,1.34526l-3.10333,6.47827c-1.80219,3.76207-2.56665,7.94756-2.21069,12.10353
			l6.09033,71.1759c0.11755,1.37552,0.93127,2.55267,2.17609,3.14902c1.2453,0.59656,2.67261,0.49289,3.81812-0.27756
			l59.28168-39.86002c3.461-2.32803,6.24323-5.54636,8.04547-9.30844l4.4104-9.20689
			c0.24072-0.50229,0.84253-0.71466,1.34534-0.47383c0.50269,0.24083,0.71448,0.84296,0.47375,1.34525l-4.41046,9.20691
			c-1.95746,4.08627-4.97974,7.58221-8.73975,10.11047l-59.28082,39.86044
			C951.6568,303.15475,949.48309,303.31308,947.58673,302.40466z"/>
	</g>
	<g>
		<path class="st3" d="M1018.96307,153.40691c-41.06531-19.67198-90.30237-2.32925-109.9743,38.73595
			c-0.34833,0.72723-4.83398,10.17879-5.15936,10.91103c15.30188-4.65453,30.04138,2.80537,34.78998,16.66585
			C938.61938,219.71973,956.39801,161.45667,1018.96307,153.40691z"/>
	</g>
	<g>
		<path class="st3" d="M1018.96307,153.40691c41.06525,19.67198,58.4079,68.90906,38.7359,109.97426
			c-0.34839,0.72723-4.90234,10.14603-5.26904,10.85849c-5.96265-14.84113-21.01318-21.65186-34.79004-16.66586
			C1017.63989,257.57379,1051.8999,207.20604,1018.96307,153.40691z"/>
	</g>
	<g>
		<path class="st4" d="M1018.96307,153.40691c-62.56506,8.04976-80.34369,66.31282-80.34369,66.31282
			c14.97437-4.87123,31.76721-4.23538,47.08978,3.10475s26.34222,20.02763,31.93073,34.74931
			C1017.63989,257.57379,1051.8999,207.20604,1018.96307,153.40691z"/>
	</g>
</g>
<g>
	
		<rect x="904.97089" y="283.8125" transform="matrix(0.90186 0.43203 -0.43203 0.90186 230.74086 -374.08206)" class="st5" width="67.57073" height="74.05267"/>
</g>
<path class="st6" d="M921.41656,269.94479l-6.84381,14.28638l67.86615,32.51068l6.84375-14.28638L921.41656,269.94479z
	 M925.08307,285.51578c-5.27594-2.5274-1.34589-10.70911,3.92139-8.18588C934.2804,279.8573,930.35028,288.039,925.08307,285.51578z
	 M976.62378,310.2059c-5.27594-2.5274-1.34583-10.70908,3.92139-8.18588
	C985.82117,304.54745,981.89099,312.72913,976.62378,310.2059z"/>
<path class="st6" d="M895.07355,324.93582l-6.84375,14.28638l67.86615,32.51068l6.84375-14.28638L895.07355,324.93582z
	 M898.74005,340.50687c-5.27594-2.5274-1.34583-10.70911,3.92139-8.18588
	C907.93738,334.84836,904.00726,343.03009,898.74005,340.50687z M950.28076,365.19699
	c-5.27594-2.5274-1.34576-10.70908,3.92139-8.18588C959.47815,359.53851,955.54797,367.72021,950.28076,365.19699z"/>
<g>
	
		<rect x="916.1051" y="304.05856" transform="matrix(0.43203 -0.90186 0.90186 0.43203 251.28676 1013.17657)" class="st7" width="27.85983" height="6.05111"/>
</g>
<g>
	
		<rect x="913.55798" y="327.4433" transform="matrix(0.43203 -0.90186 0.90186 0.43203 223.83441 1016.35559)" class="st6" width="10.54956" height="6.05111"/>
</g>
<g>
	
		<rect x="932.28973" y="330.96579" transform="matrix(0.43203 -0.90186 0.90186 0.43203 236.21263 1043.05542)" class="st7" width="27.85983" height="6.05111"/>
</g>
<g>
	
		<rect x="952.14752" y="307.58084" transform="matrix(0.43203 -0.90186 0.90186 0.43203 263.66522 1039.87646)" class="st6" width="10.54906" height="6.05111"/>
</g>
<g>
	<path class="st8" d="M946.38245,590.07642c-5.41382,1.4455-11.34875,0.94141-16.70685-1.80493l-76.85425-39.39447
		c-2.23096-1.14386-3.52905-3.58447-3.22937-6.07367l1.73309-14.40735l1.98529,0.23907l-1.73309,14.40741
		c-0.19971,1.66144,0.66699,3.29089,2.15656,4.05457l76.85425,39.39441c9.80005,5.02374,21.70856,1.84204,27.7005-7.39624
		l47.0683-72.58591c0.88568-1.36554,0.86322-3.11526-0.05725-4.45792l-11.13934-16.23849l1.64868-1.13159l11.13947,16.23898
		c1.37909,2.01166,1.41272,4.6322,0.08582,6.67752L959.966,580.18372C956.69049,585.23529,951.79681,588.63074,946.38245,590.07642z
		"/>
</g>
<g>
	<path class="st8" d="M945.82056,587.97192c-3.88446,1.03717-7.9137-0.02783-10.7785-2.84912l-43.92224-43.25751
		c-3.20074-3.1521-5.50549-7.11249-6.66461-11.45355l-1.8374-6.88147l1.93231-0.51593l1.8374,6.88147
		c1.06702,3.99622,3.18884,7.64258,6.13586,10.54449l43.92218,43.25757c2.35461,2.31873,5.6662,3.19421,8.85907,2.34174
		c3.1933-0.85266,5.62769-3.26239,6.51355-6.44635l16.51331-59.39435c1.10712-3.98492,1.12903-8.20319,0.06201-12.1994
		l-2.61133-9.77994l1.93231-0.51593l2.61133,9.77994c1.15894,4.34061,1.13513,8.92273-0.06824,13.25128l-16.51331,59.39429
		C952.66711,584.00299,949.70544,586.93463,945.82056,587.97192z"/>
</g>
<g>
	<path class="st9" d="M904.91565,434.77405c-43.62122,11.64725-69.54102,56.45099-57.89386,100.07208
		c0.2063,0.77252,2.9187,10.78522,3.14551,11.54669c8.5293-13.37012,24.44336-17.24994,36.95532-9.86737
		C887.12262,536.52545,862.96368,481.16672,904.91565,434.77405z"/>
</g>
<g>
	<path class="st9" d="M904.91565,434.77405c43.62128-11.64725,88.42493,14.27277,100.07214,57.89386
		c0.20624,0.77249,2.84601,10.80463,3.02893,11.57779c-14.05878-7.33893-29.78876-2.76953-36.95532,9.8674
		C971.0614,514.1131,964.40973,454.07977,904.91565,434.77405z"/>
</g>
<g>
	<path class="st8" d="M904.91565,434.77405c-41.95197,46.39267-17.79303,101.7514-17.79303,101.7514
		c8.14282-13.32233,21.20551-23.66736,37.48175-28.01328c16.27625-4.34589,32.75714-1.88919,46.45703,5.60092
		C971.0614,514.1131,964.40973,454.07977,904.91565,434.77405z"/>
</g>
<g>
	
		<rect x="907.29761" y="575.56653" transform="matrix(0.96615 -0.25797 0.25797 0.96615 -118.53305 263.42789)" class="st5" width="74.61568" height="15.70723"/>
</g>
<g>
	
		<rect x="922.89453" y="633.98022" transform="matrix(0.96615 -0.25797 0.25797 0.96615 -133.07417 269.42859)" class="st5" width="74.61568" height="15.70723"/>
</g>
<g>
	
		<rect x="918.90393" y="590.25055" transform="matrix(0.96615 -0.25797 0.25797 0.96615 -125.80361 266.42825)" class="st5" width="67" height="44.75288"/>
</g>
<g class="st10">
	
		<rect x="918.90393" y="575.76923" transform="matrix(0.96615 -0.25797 0.25797 0.96615 -125.80362 266.42825)" class="st6" width="67" height="73.71554"/>
</g>
<path class="st5" d="M906.53436,585.45673l4.052,15.17554l72.09009-19.24866l-4.052-15.1756L906.53436,585.45673z
	 M919.3335,594.82556c-5.60431,1.4964-7.91681-7.20142-2.32172-8.69537C922.61609,584.63379,924.92859,593.33167,919.3335,594.82556
	z M974.08209,580.20728c-5.60431,1.4964-7.91675-7.20148-2.32172-8.69537
	C977.36475,570.01544,979.67719,578.71332,974.08209,580.20728z"/>
<path class="st5" d="M922.13129,643.87036l4.052,15.1756l72.09015-19.24866l-4.052-15.1756L922.13129,643.87036z
	 M934.93048,653.23932c-5.60437,1.4964-7.91681-7.20148-2.32178-8.69537
	C938.21301,643.04755,940.52551,651.74536,934.93048,653.23932z M989.67908,638.62097
	c-5.60431,1.4964-7.91675-7.20148-2.32172-8.69537C992.96173,628.4292,995.27411,637.12708,989.67908,638.62097z"/>
<g>
	<g>
		
			<rect x="933.96686" y="594.07245" transform="matrix(0.96615 -0.25797 0.25797 0.96615 -125.10275 262.28543)" class="st11" width="6" height="27.62451"/>
	</g>
</g>
<g>
	<g>
		
			<rect x="940.59943" y="627.49469" transform="matrix(0.96615 -0.25797 0.25797 0.96615 -131.2863 264.83722)" class="st12" width="6" height="10.46045"/>
	</g>
</g>
<g>
	<g>
		
			<rect x="963.505" y="603.914" transform="matrix(0.96615 -0.25797 0.25797 0.96615 -126.64179 270.23853)" class="st11" width="6" height="27.62451"/>
	</g>
</g>
<g>
	<g>
		
			<rect x="956.87238" y="587.65582" transform="matrix(0.96615 -0.25797 0.25797 0.96615 -120.45818 267.68671)" class="st12" width="6" height="10.45996"/>
	</g>
</g>
</svg>
