<?xml version="1.0" encoding="utf-8"?>
<!-- Generator: Adobe Illustrator 19.2.1, SVG Export Plug-In . SVG Version: 6.00 Build 0)  -->
<svg version="1.1" id="Layer_1" xmlns="http://www.w3.org/2000/svg" xmlns:xlink="http://www.w3.org/1999/xlink" x="0px" y="0px"
	 viewBox="0 0 170 150" style="enable-background:new 0 0 170 150;" xml:space="preserve">
<style type="text/css">
	.st0{fill:#B0CC40;}
	.st1{fill:#CCE823;}
	.st2{fill:#B0DDFF;}
	.st3{fill:#F6BD8D;}
</style>
<g>
	<rect x="42.046" y="74.15387" class="st0" width="107.99215" height="31.69324"/>
</g>
<polygon class="st0" points="10.24419,105.84711 10.24419,136.88452 117.09837,136.88452 119.32719,105.84711 "/>
<g>
	<path class="st0" d="M150.6505,51.25301l-18.91321,8.00962c-8.55157,3.62154-18.15773,3.86842-26.88404,0.69092l-0.00003-0.00001
		c-8.35792-3.04335-17.53638-2.94961-25.8304,0.26382l-20.88448,8.09147V34.15096l20.88448-8.09148
		c8.29401-3.21343,17.47248-3.30717,25.8304-0.26382l0.00003,0.00001c8.72631,3.1775,18.33247,2.93062,26.88404-0.69092
		l13.90152-11.98931l5.01169,3.97969V51.25301z"/>
</g>
<g>
	<path class="st1" d="M150.6505,51.25301l-18.91321,8.00962c-8.55157,3.62154-18.15773,3.86842-26.88404,0.69092l-0.00003-0.00001
		c-8.35792-3.04335-17.53638-2.94961-25.8304,0.26382l-20.88448,8.09147V34.15096l20.88448-8.09148
		c8.29401-3.21343,17.47248-3.30717,25.8304-0.26382l0.00003,0.00001c8.72631,3.1775,18.33247,2.93062,26.88404-0.69092
		l13.90152-11.98931l5.01169,3.97969V51.25301z"/>
</g>
<path class="st0" d="M126.72559,21.12506c-8.55157,3.62152-18.15771,3.86841-26.88403,0.69092
	c-8.35791-3.0434-17.53638-2.94965-25.83038,0.26379l-20.88452,8.09149V64.3291l20.88452-8.09143
	c8.29401-3.21344,17.47247-3.30719,25.83038-0.26385c8.72632,3.17755,18.33246,2.93066,26.88403-0.69092l18.91321-8.00958v-34.1579
	L126.72559,21.12506z M100.0127,50.39478c-5.28552,0-9.57025-5.02686-9.57025-11.22784s4.28473-11.22784,9.57025-11.22784
	c5.28546,0,9.57019,5.02686,9.57019,11.22784S105.29816,50.39478,100.0127,50.39478z"/>
<g>
	<rect x="116.99602" y="105.19131" class="st0" width="10.24921" height="31.69324"/>
</g>
<g>
	<rect x="10.23254" y="114.89593" class="st1" width="24.92597" height="4.54884"/>
</g>
<g>
	<rect x="31.91927" y="124.57996" class="st1" width="32.89197" height="4.54884"/>
</g>
<g>
	<rect x="48.39363" y="105.19131" class="st2" width="31.69324" height="31.69324"/>
</g>
<g>
	<rect x="42.03448" y="83.8589" class="st1" width="24.92597" height="4.54884"/>
</g>
<g>
	<rect x="63.72122" y="93.54201" class="st1" width="32.89151" height="4.54884"/>
</g>
<g>
	<rect x="80.19545" y="74.15387" class="st2" width="31.69324" height="31.69324"/>
</g>
<g>
	<rect x="34.74108" y="66.35589" class="st3" width="32.21929" height="7.95938"/>
</g>
<g>
	<rect x="37.01701" y="50.54924" class="st3" width="32.21929" height="7.95938"/>
</g>
<g>
	<rect x="38.15497" y="34.7426" class="st3" width="32.21929" height="7.95938"/>
</g>
<g>
	<g>
		<rect x="40.31051" y="58.45257" class="st3" width="32.21929" height="7.95938"/>
	</g>
	<g>
		<rect x="40.31051" y="58.45257" class="st3" width="32.21929" height="7.95938"/>
	</g>
</g>
<g>
	<g>
		<rect x="40.31051" y="42.64592" class="st3" width="32.21929" height="7.95938"/>
	</g>
	<g>
		<rect x="40.31051" y="42.64592" class="st3" width="32.21929" height="7.95938"/>
	</g>
</g>
<polygon class="st1" points="116.99602,105.84711 116.99602,124.57996 93.20787,124.57996 93.20787,129.12878 116.99602,129.12878 
	116.99602,136.88452 127.24522,136.88452 127.24522,105.84711 "/>
<polygon class="st1" points="149.93581,74.15387 149.93581,93.54255 126.14766,93.54255 126.14766,98.09138 149.93581,98.09138 
	149.93581,105.84711 160.18501,105.84711 160.18501,74.15387 "/>
</svg>
