<?xml version="1.0" encoding="utf-8"?>
<!-- Generator: Adobe Illustrator 19.2.1, SVG Export Plug-In . SVG Version: 6.00 Build 0)  -->
<svg version="1.1" id="Layer_1" xmlns="http://www.w3.org/2000/svg" xmlns:xlink="http://www.w3.org/1999/xlink" x="0px" y="0px"
	 viewBox="0 0 170 150" style="enable-background:new 0 0 170 150;" xml:space="preserve">
<style type="text/css">
	.st0{fill:#B0DDFF;}
	.st1{fill:#C0E4FF;}
	.st2{fill:none;}
	.st3{fill:#3EBFFF;}
	.st4{fill:#83C5ED;}
	.st5{fill:#F2F2F2;}
	.st6{fill:#B2B2B2;}
	.st7{opacity:0.2;clip-path:url(#SVGID_2_);}
	.st8{fill:#FFFFFF;}
	.st9{fill:#FF5535;}
	.st10{fill:#FF775D;}
	.st11{fill:#565D67;}
	.st12{fill:#2C3441;}
	.st13{fill:#F6BD8D;}
	.st14{fill:#F6936A;}
	.st15{opacity:0.2;clip-path:url(#SVGID_4_);}
	.st16{fill:#FFCE00;}
</style>
<g>
	<rect x="70.34435" y="13.41332" class="st0" width="74.98898" height="26.49107"/>
</g>
<g>
	<polygon class="st1" points="107.83884,87.87047 70.34435,39.90439 145.33333,39.90439 	"/>
</g>
<g>
	<polygon class="st2" points="124.42633,39.90436 112.25629,39.90436 112.25629,66.77252 	"/>
	<polygon class="st2" points="103.422,39.90436 91.25128,39.90436 103.422,66.77283 	"/>
	<rect x="103.422" y="13.41333" class="st3" width="8.83429" height="26.49103"/>
	<rect x="82.41699" y="13.41333" class="st3" width="8.83429" height="26.49103"/>
	<polygon class="st4" points="112.25629,66.77252 112.25629,39.90436 103.422,39.90436 103.422,66.77283 91.25128,39.90436 
		82.41699,39.90436 96.87549,73.84521 103.422,82.22003 107.83887,87.87048 112.25629,82.21936 118.8031,73.84412 
		133.26068,39.90436 124.42633,39.90436 	"/>
	<rect x="124.42633" y="13.41333" class="st3" width="8.83435" height="26.49103"/>
</g>
<g>
	<rect x="82.41699" y="13.41321" class="st0" width="8.83429" height="0.00012"/>
	<rect x="124.42633" y="13.41321" class="st0" width="8.83435" height="0.00012"/>
	<rect x="103.422" y="13.41321" class="st0" width="8.83429" height="0.00012"/>
	<polygon class="st2" points="124.42633,38.97968 124.42633,13.41333 112.25629,13.41333 112.25629,66.77252 	"/>
	<polygon class="st2" points="82.41699,13.41333 70.34436,13.41333 70.34436,39.90442 96.87549,73.84521 82.41699,40.82904 	"/>
	<polygon class="st2" points="103.422,66.77283 103.422,13.41333 91.25128,13.41333 91.25128,38.97968 	"/>
	<polygon class="st2" points="118.8031,73.84412 145.33331,39.90442 145.33331,13.41333 133.26068,13.41333 133.26068,40.82904 	"/>
</g>
<g>
	<circle class="st5" cx="107.99659" cy="97.17761" r="31.0764"/>
</g>
<path class="st6" d="M107.99658,72.72662c-13.50391,0-24.45099,10.94708-24.45099,24.45099s10.94708,24.45093,24.45099,24.45093
	s24.45099-10.94702,24.45099-24.45093S121.50049,72.72662,107.99658,72.72662z M118.75812,112.73279l-10.91925-5.74066
	l-10.91931,5.74066l2.08539-12.15887l-8.83392-8.6109l12.20819-1.77393l5.45966-11.0625l5.45959,11.0625l12.20819,1.77393
	l-8.83392,8.6109L118.75812,112.73279z"/>
<g>
	<defs>
		<circle id="SVGID_1_" cx="107.99659" cy="97.17761" r="31.0764"/>
	</defs>
	<clipPath id="SVGID_2_">
		<use xlink:href="#SVGID_1_"  style="overflow:visible;"/>
	</clipPath>
	<g class="st7">
		<polygon class="st8" points="97.06356,149.40439 119.59333,155.90771 175.62675,78.05193 153.09698,71.54859 		"/>
	</g>
	<g class="st7">
		<polygon class="st8" points="40.58971,119.43223 63.11948,125.93556 119.1529,48.07977 96.62313,41.57644 		"/>
	</g>
	<g class="st7">
		<polygon class="st8" points="85.49718,145.88826 92.83907,148.18497 148.8725,70.32917 141.53061,68.03247 		"/>
	</g>
</g>
<g>
	<rect x="34.86378" y="21.74599" class="st9" width="74.98898" height="26.49107"/>
</g>
<g>
	<polygon class="st10" points="72.35828,96.20314 34.86378,48.23706 109.85277,48.23706 	"/>
</g>
<g>
	<polygon class="st11" points="55.771,22 46.93671,22 46.93671,22 55.771,22 	"/>
	<polygon class="st11" points="97.77972,22 88.94543,22 88.94543,22 97.77972,22 	"/>
	<polygon class="st11" points="76.77539,22 67.9411,22 67.9411,22 76.77539,22 	"/>
	<polygon class="st2" points="83.50552,82.17767 110,48.23706 110,22 98,22 98,49.16174 	"/>
	<polygon class="st2" points="89,47.31238 89,22 77,22 77,75.10522 	"/>
	<polygon class="st2" points="47,22 35,22 35,48.23706 61.49429,82.17743 47,49.16174 	"/>
	<polygon class="st2" points="68,75.10522 68,22 56,22 56,47.31238 	"/>
	<polygon class="st11" points="89,22 89,48.31238 77,75.10522 77,22 68,22 68,75.10522 56,48.31238 56,22 47,22 47,48.23707 
		61.45563,82.17743 68,90.55231 72.50006,96.20313 77,90.55237 83.54425,82.17767 98,48.23707 98,22 	"/>
</g>
<g>
	<rect x="46.9367" y="21.7459" class="st12" width="9.0633" height="26.49116"/>
</g>
<g>
	<rect x="89" y="21.7459" class="st12" width="9.0633" height="26.49116"/>
</g>
<g>
	<rect x="68.06164" y="21.74594" class="st12" width="8.83431" height="26.49116"/>
</g>
<g>
	<circle class="st13" cx="72.51602" cy="105.51028" r="31.0764"/>
</g>
<path class="st14" d="M72.51605,81.05933c-13.50391,0-24.45099,10.94702-24.45099,24.45093s10.94708,24.45099,24.45099,24.45099
	c13.50385,0,24.45093-10.94708,24.45093-24.45099S86.0199,81.05933,72.51605,81.05933z M83.27759,121.06543l-10.91931-5.7406
	l-10.91931,5.7406l2.08539-12.15881l-8.83386-8.6109l12.20813-1.77399l5.45966-11.06244l5.45966,11.06244l12.20813,1.77399
	l-8.83386,8.6109L83.27759,121.06543z"/>
<g>
	<defs>
		<circle id="SVGID_3_" cx="72.51602" cy="105.51028" r="31.0764"/>
	</defs>
	<clipPath id="SVGID_4_">
		<use xlink:href="#SVGID_3_"  style="overflow:visible;"/>
	</clipPath>
	<g class="st15">
		<polygon class="st8" points="61.58299,157.73705 84.11276,164.24039 140.14619,86.38459 117.61642,79.88126 		"/>
	</g>
	<g class="st15">
		<polygon class="st8" points="5.10914,127.76489 27.63891,134.26823 83.67233,56.41244 61.14256,49.9091 		"/>
	</g>
	<g class="st15">
		<polygon class="st8" points="50.01662,154.22093 57.35851,156.51762 113.39193,78.66184 106.05004,76.36514 		"/>
	</g>
</g>
<g>
	<g>
		
			<rect x="30.7153" y="64.05894" transform="matrix(0.70711 -0.70711 0.70711 0.70711 -38.90369 42.13315)" class="st16" width="1.38413" height="7.93707"/>
	</g>
	<g>
		
			<rect x="27.43884" y="67.33542" transform="matrix(0.70688 -0.70734 0.70734 0.70688 -38.91209 42.15599)" class="st16" width="7.93707" height="1.38413"/>
	</g>
</g>
<g>
	<g>
		<path d="M42.2746,75.46189"/>
	</g>
	<g>
		<g>
			<path class="st16" d="M42.2746,77.53744c2.67103,0,2.67545-4.15109,0-4.15109
				C39.60357,73.38634,39.59915,77.53744,42.2746,77.53744L42.2746,77.53744z"/>
		</g>
	</g>
</g>
<g>
	<path class="st16" d="M31.52489,77.87572c0,0-0.11731,7.202-6.85823,7.202c6.37571,0,6.85823,6.85823,6.85823,6.85823
		s-0.11731-6.6236,6.6236-6.6236C31.40758,85.31236,31.52489,77.87572,31.52489,77.87572z"/>
</g>
</svg>
