<?xml version="1.0" encoding="utf-8"?>
<!-- Generator: Adobe Illustrator 19.2.1, SVG Export Plug-In . SVG Version: 6.00 Build 0)  -->
<svg version="1.1" id="Layer_1" xmlns="http://www.w3.org/2000/svg" xmlns:xlink="http://www.w3.org/1999/xlink" x="0px" y="0px"
	 viewBox="0 0 490 325" style="enable-background:new 0 0 490 325;" xml:space="preserve">
<style type="text/css">
	.st0{fill:#F6BD8D;}
	.st1{fill:#B5B7BB;}
	.st2{fill:#FFFFFF;}
	.st3{fill:#F6E6CC;}
	.st4{fill:#2C3441;}
	.st5{fill:#FF5535;}
	.st6{fill:#FF9986;}
	.st7{fill:#919498;}
</style>
<path class="st0" d="M453.36307,319.5H36.63694c-8.91224,0-16.13703-7.22479-16.13703-16.13702V21.63703
	C20.49992,12.72479,27.72471,5.5,36.63694,5.5h416.72614c8.91223,0,16.13702,7.22479,16.13702,16.13703v281.72595
	C469.50009,312.27521,462.2753,319.5,453.36307,319.5z"/>
<polygon class="st1" points="37.77397,305.5 45.27397,288.5 45.27397,19.5 37.77397,34 "/>
<path class="st2" d="M262,288.5h182.72601v-269H263.11304c-7.93726,0-14.66534,5.1134-17.11304,12.21942v268.08124
	C248.34534,293.21954,254.61353,288.5,262,288.5z"/>
<polygon class="st1" points="452.22604,305.5 444.72604,288.5 444.72604,19.5 452.22604,34 "/>
<g>
	<rect x="244" y="24" class="st0" width="2" height="285.5"/>
</g>
<path class="st2" d="M244,299.80066V31.71942C241.55231,24.6134,234.82422,19.5,226.88696,19.5H45.27399v269H228
	C235.38647,288.5,241.65466,293.21954,244,299.80066z"/>
<rect x="65.18608" y="206.45662" class="st3" width="97" height="60"/>
<g>
	<rect x="65.18604" y="37.5" class="st4" width="69" height="10"/>
</g>
<g>
	<rect x="65.18604" y="64.625" class="st4" width="48.5" height="10"/>
</g>
<g>
	<rect x="65.18604" y="88.48438" class="st4" width="48.5" height="10"/>
</g>
<g>
	<rect x="65.18604" y="112.34375" class="st4" width="48.5" height="10"/>
</g>
<g>
	<rect x="65.18604" y="136.20264" class="st4" width="158.13232" height="10"/>
</g>
<g>
	<rect x="65.18604" y="183.9209" class="st4" width="158.13232" height="10"/>
</g>
<g>
	<rect x="265.79688" y="183.9209" class="st4" width="49.13477" height="10"/>
</g>
<g>
	<rect x="65.18604" y="160.0625" class="st4" width="158.13232" height="10"/>
</g>
<g>
	<rect x="267.53223" y="136.20264" class="st4" width="158.13281" height="10"/>
</g>
<g>
	<rect x="267.53223" y="160.0625" class="st4" width="158.13281" height="10"/>
</g>
<g>
	<rect x="267.53223" y="88.48438" class="st4" width="158.13281" height="10"/>
</g>
<g>
	<rect x="267.53223" y="64.625" class="st4" width="158.13281" height="10"/>
</g>
<g>
	<rect x="267.53223" y="112.34375" class="st4" width="158.13281" height="10"/>
</g>
<g>
	<rect x="174.81836" y="207.78027" class="st4" width="48.5" height="10"/>
</g>
<g>
	<rect x="174.81836" y="231.63965" class="st4" width="48.5" height="10"/>
</g>
<g>
	<rect x="174.81836" y="255.49902" class="st4" width="48.5" height="10"/>
</g>
<g>
	<rect x="266.43164" y="207.78027" class="st4" width="48.5" height="10"/>
</g>
<g>
	<rect x="266.43164" y="231.63965" class="st4" width="48.5" height="10"/>
</g>
<g>
	<rect x="266.43164" y="255.49902" class="st4" width="48.5" height="10"/>
</g>
<path class="st5" d="M128.58075,64.49597v60h97v-60H128.58075z M170.64984,101.61365V87.3783l12.86188,7.11768L170.64984,101.61365z
	"/>
<path class="st0" d="M347.99521,249.39648c7.3468,7.46826,17.56415,12.10352,28.8678,12.10352c22.36755,0,40.5-18.13257,40.5-40.5
	h-40.5L347.99521,249.39648z"/>
<path class="st6" d="M346.59842,194.09863c-6.36359,7.15381-10.23541,16.57349-10.23541,26.90137
	c0,11.06396,4.44116,21.08691,11.6322,28.39648L376.86301,221L346.59842,194.09863z"/>
<path class="st3" d="M376.86301,180.5c-12.03967,0-22.84631,5.25879-30.26459,13.59863L376.86301,221h40.5
	C417.36301,198.63232,399.23056,180.5,376.86301,180.5z"/>
<path class="st7" d="M246,305.5h206.22601l-7.5-17H262c-7.38647,0-13.65466,4.71954-16,11.30066V305.5z"/>
<path class="st7" d="M244,299.80066c-2.34534-6.58112-8.61353-11.30066-16-11.30066H45.27399l-7.5,17H244V299.80066z"/>
</svg>
