<?xml version="1.0" encoding="utf-8"?>
<!-- Generator: Adobe Illustrator 19.2.1, SVG Export Plug-In . SVG Version: 6.00 Build 0)  -->
<svg version="1.1" id="Layer_1" xmlns="http://www.w3.org/2000/svg" xmlns:xlink="http://www.w3.org/1999/xlink" x="0px" y="0px"
	 viewBox="0 0 170 150" style="enable-background:new 0 0 170 150;" xml:space="preserve">
<style type="text/css">
	.st0{fill:#565D67;}
	.st1{fill:#2C3441;}
	.st2{fill:#FF5535;}
	.st3{fill:#B0DDFF;}
</style>
<g>
	<path class="st0" d="M21.66667,124.9925c0,7.368,5.97279,13.34087,13.34078,13.34087h99.98511
		c7.368,0,13.34077-5.97287,13.34077-13.34087v-7.57931H21.66667V124.9925z"/>
</g>
<g>
	<rect x="21.66667" y="32.58685" class="st1" width="126.66666" height="84.82634"/>
</g>
<g>
	<path class="st0" d="M148.33333,25.00745c0-7.36795-5.97278-13.34083-13.34077-13.34083H35.00745
		c-7.36799,0-13.34078,5.97288-13.34078,13.34083v7.5794h126.66666V25.00745z"/>
</g>
<g>
	<circle class="st2" cx="85" cy="127.87329" r="6.28343"/>
</g>
<path class="st3" d="M148.33315,75.37661v-0.56889h0.00018h-0.00018V71.2661h-6.96718l-1.27101-2.54195
	c-0.52876-1.05748-1.9998-1.15585-2.66463-0.17818l-1.84972,2.72014h-2.96933c-0.01659-0.04732-0.04385-0.08595-0.05641-0.13629
	l-3.37221-13.48886c-0.37733-1.50935-2.49569-1.58136-2.9746-0.10106l-4.4408,13.72621h-16.7011l-2.61179-11.66594
	c-0.36261-1.61975-2.67436-1.61036-3.02388,0.01227L97.01643,70.8207c-0.03538,0.16424-0.09578,0.31155-0.17191,0.4454h-2.72336
	l-0.65551-0.74914c-0.75677-0.86486-2.15883-0.6327-2.59637,0.42996l-0.07124,0.17301
	c-0.02272,0.05518-0.05935,0.09569-0.08677,0.14616H88.006c-0.00148-0.00273-0.00378-0.00436-0.00522-0.0071l-0.06889-0.1292
	c-0.48921-0.91721-1.72541-1.1012-2.46046-0.36616c-0.81357,0.81358-2.1989,0.48677-2.563-0.60464l-1.77958-5.3341
	c-0.40749-1.22139-2.04114-1.44042-2.75596-0.36951l-1.54952,2.32158c-0.73801,1.10566-2.43457,0.82814-2.78179-0.45509
	l-5.11755-18.91265c-0.41026-1.5163-2.55715-1.528-2.98395-0.01635l-4.81742,17.06155
	c-0.42171,1.49373-2.53447,1.50648-2.97426,0.01798l-1.23816-4.19081c-0.43547-1.47378-2.52033-1.48102-2.96602-0.01031
	l-3.33175,10.9948h-3.10049l-1.55715-5.95045c-0.40705-1.55552-2.6221-1.53605-3.00173,0.02637l-1.40978,5.80179
	c-0.01126,0.0464-0.03802,0.07862-0.05244,0.12229h-2.9119c-0.00642-0.01936-0.01942-0.03212-0.02526-0.05206L34.48664,57.349
	c-0.43226-1.47359-2.51511-1.48634-2.96535-0.01812L27.24784,71.2661h-5.58117v7.46809h5.5247l4.32993,14.11931
	c0.45024,1.46817,2.53308,1.45547,2.96535-0.01813l4.06708-13.86504c0.02651-0.09036,0.0767-0.15685,0.11467-0.23615h2.74353
	c0.04722,0.09918,0.10316,0.19017,0.1314,0.30637l1.40978,5.80179c0.37963,1.56242,2.59468,1.58189,3.00173,0.02637l1.60533-6.13453
	h2.99651l3.38755,11.17884c0.44569,1.47076,2.53054,1.46352,2.96602-0.01031l1.23816-4.19081
	c0.43979-1.48849,2.55255-1.47569,2.97426,0.01798l4.81742,17.06155c0.4268,1.5117,2.57368,1.49995,2.98395-0.0163l5.11755-18.9127
	c0.34722-1.28318,2.04378-1.5607,2.78179-0.45504l1.54952,2.32153c0.71482,1.07095,2.34847,0.85192,2.75596-0.36946l1.77958-5.3341
	c0.3641-1.09142,1.74943-1.41827,2.563-0.6047c0.73505,0.73504,1.97124,0.5511,2.46046-0.36611l0.06889-0.12924
	c0.03921-0.07354,0.09362-0.12762,0.14089-0.19113h2.46036c0.07397,0.10062,0.14468,0.20556,0.19602,0.3302l0.07124,0.17306
	c0.43754,1.06261,1.8396,1.29483,2.59637,0.42996l0.81654-0.93322h2.42436c0.14089,0.17732,0.25647,0.38145,0.30988,0.62949
	l2.41405,11.20822c0.34952,1.62268,2.66127,1.63203,3.02388,0.01228l2.65298-11.84998h16.60038l4.50034,13.91029
	c0.47891,1.48026,2.59727,1.40829,2.9746-0.10106l3.37221-13.48886c0.02957-0.11832,0.08188-0.21889,0.13264-0.32037h2.76793
	l1.97488,2.90423c0.66483,0.97766,2.13586,0.87929,2.66463-0.17819l1.36305-2.72604h6.87514V75.37661h0.00018H148.33315z"/>
<polygon class="st2" points="56.0867,38.94118 56.0867,32.58681 52.75169,32.58681 45.28399,32.58681 41.94898,32.58681 
	41.94898,38.94118 45.28399,38.94118 45.28399,111.05872 41.94898,111.05872 41.94898,117.41348 45.28399,117.41348 
	52.75169,117.41348 56.0867,117.41348 56.0867,111.05872 52.75169,111.05872 52.75169,38.94118 "/>
</svg>
