<?xml version="1.0" encoding="utf-8"?>
<!-- Generator: Adobe Illustrator 19.2.1, SVG Export Plug-In . SVG Version: 6.00 Build 0)  -->
<svg version="1.1" id="Layer_1" xmlns="http://www.w3.org/2000/svg" xmlns:xlink="http://www.w3.org/1999/xlink" x="0px" y="0px"
	 viewBox="0 0 36 36" style="enable-background:new 0 0 36 36;" xml:space="preserve">
<style type="text/css">
	.st0{fill:#FF5535;}
</style>
<path class="st0" d="M31.4426,4.55667c-1.80078-1.80176-4.93262-1.88818-8.82031-0.24268
	c-1.50043,0.63501-3.06512,1.51453-4.63635,2.57416c-5.22546-3.51367-10.6181-5.14081-13.4281-2.33148
	c-2.80896,2.80865-1.1817,8.20197,2.33203,13.42786c-1.05969,1.57129-1.93921,3.13617-2.57422,4.6366
	c-1.64502,3.88672-1.55908,7.01855,0.24219,8.81934c0.99121,0.99121,2.30469,1.43164,3.81885,1.43164
	c2.77765,0,6.23163-1.48407,9.61469-3.75934c1.5694,1.05804,3.1322,1.93634,4.63092,2.57086
	c1.85156,0.78321,3.53027,1.17383,4.97656,1.17383c1.59082,0,2.90039-0.47363,3.84375-1.41699
	c2.81085-2.81085,1.17822-8.21118-2.34198-13.44159C32.62082,12.76847,34.25345,7.36789,31.4426,4.55667z M23.79221,7.07669
	c1.46777-0.62109,2.78906-0.9375,3.80859-0.9375c0.76465,0,1.36035,0.17822,1.7207,0.53857
	c1.1181,1.11877,0.55396,4.51422-2.09912,8.76556c-0.97681-1.22186-2.03204-2.41083-3.14404-3.52289
	c-1.10889-1.10889-2.29431-2.16119-3.51245-3.1358C21.66404,8.10025,22.74845,7.51834,23.79221,7.07669z M25.4451,17.99869
	c-0.9859,1.28326-2.14301,2.61243-3.48785,3.9574c-1.34503,1.34485-2.67426,2.50189-3.95752,3.48767
	c-1.2829-0.98584-2.61176-2.14288-3.95654-3.48767c-1.28583-1.28583-2.44897-2.61914-3.47461-3.95721
	c1.02563-1.33801,2.18878-2.67133,3.47461-3.95734c1.28864-1.28864,2.62488-2.45404,3.96588-3.48126
	c1.28033,0.98438,2.60657,2.13977,3.94818,3.48126C23.3021,15.38645,24.4592,16.71549,25.4451,17.99869z M7.07834,12.20706
	c-1.0874-2.56934-1.24023-4.68799-0.39941-5.5293C7.0383,6.31888,7.63108,6.13236,8.41184,6.13236
	c1.65021,0,4.14099,0.84125,7.02435,2.63922c-1.19336,0.95959-2.37421,2.00879-3.5141,3.14886
	c-1.1369,1.13678-2.18341,2.31427-3.14087,3.50433C8.09909,14.3295,7.51889,13.24802,7.07834,12.20706z M6.67893,29.31937
	c-0.84082-0.84082-0.68799-2.95996,0.39941-5.5293c0.44165-1.0434,1.0235-2.12756,1.70789-3.22552
	c0.97461,1.21826,2.02698,2.40375,3.13586,3.51263c1.13989,1.13989,2.32068,2.18909,3.51404,3.14856
	C11.18863,29.87387,7.79697,30.43607,6.67893,29.31937z M29.32151,29.31937c-1.11993,1.11926-4.51398,0.55585-8.7641-2.0965
	c1.22168-0.97668,2.40924-2.034,3.52094-3.14569c1.11206-1.11206,2.16742-2.30103,3.14429-3.52301
	C29.87595,24.80539,30.44028,28.20059,29.32151,29.31937z"/>
</svg>
