<?xml version="1.0" encoding="utf-8"?>
<!-- Generator: Adobe Illustrator 19.2.1, SVG Export Plug-In . SVG Version: 6.00 Build 0)  -->
<svg version="1.1" id="Layer_1" xmlns="http://www.w3.org/2000/svg" xmlns:xlink="http://www.w3.org/1999/xlink" x="0px" y="0px"
	 viewBox="0 0 170 150" style="enable-background:new 0 0 170 150;" xml:space="preserve">
<style type="text/css">
	.st0{fill:#F2F2F2;}
	.st1{fill:#B2B2B2;}
	.st2{fill:#2C3441;}
	.st3{fill:#B0DDFF;}
	.st4{fill:none;}
	.st5{opacity:0.2;fill:#FFFFFF;}
	.st6{fill:#7D7D7D;}
</style>
<polygon class="st0" points="28.34365,74.08885 1.66667,54.14699 166.15762,28.25847 "/>
<polygon class="st1" points="28.34365,74.08885 35.94777,122.40411 58.07897,94.16496 166.15762,28.25847 "/>
<path class="st2" d="M104.59461,72.9548V59.32143H94.57447c-0.58242-2.14333-1.43324-4.17461-2.51332-6.05919l7.0878-7.0878
	l-9.64024-9.64024l-7.0878,7.0878c-1.88445-1.08002-3.91586-1.93083-6.05918-2.51325V31.08854H62.72835v10.02021
	c-2.14333,0.58242-4.17467,1.43323-6.05919,2.51325l-7.0878-7.0878l-9.64023,9.64024l7.0878,7.0878
	c-1.08002,1.88458-1.93083,3.91586-2.51325,6.05919H34.49547V72.9548h10.02021c0.58242,2.14333,1.43324,4.17474,2.51325,6.05919
	l-7.0878,7.08779l9.64023,9.64024l7.0878-7.08779c1.88451,1.08009,3.91586,1.93089,6.05919,2.51332v10.02013h13.63338V91.16755
	c2.14333-0.58243,4.17474-1.43324,6.05918-2.51332l7.0878,7.08779l9.64024-9.64024l-7.0878-7.08779
	c1.08009-1.88445,1.9309-3.91586,2.51332-6.05919H104.59461z M69.54504,78.73303c-6.95591,0-12.59486-5.63887-12.59486-12.59492
	c0-6.95591,5.63894-12.59485,12.59486-12.59485c6.95598,0,12.59492,5.63894,12.59492,12.59485
	C82.13996,73.09416,76.50102,78.73303,69.54504,78.73303z"/>
<path class="st3" d="M138.40678,65.20634c0.05688-0.1581,0.11034-0.31345,0.14992-0.45938
	c0.02112-0.07819,0.19121-1.0388,0.3143-1.58008c0.01846-0.34627,0.03615-0.69244,0.03635-1.03928
	c0.04604-2.60195,1.00969-4.88855,2.56732-6.6372l-2.2321-1.40447c0.46899-1.53595,0.73059-3.10651,0.79527-4.67575l7.06671-1.60786
	l-2.187-9.61158l-7.06671,1.60805c-0.73724-1.38659-1.65276-2.68947-2.74008-3.87125l3.8586-6.13178l-8.34294-5.24985
	l-3.85841,6.13169c-1.53594-0.46889-3.10651-0.73049-4.67575-0.79527l-1.60786-7.06661l-9.61158,2.187l1.60805,7.06661
	c-1.38659,0.73734-2.68947,1.65276-3.87134,2.74008l-6.1316-3.8585l-5.24995,8.34276l6.13179,3.8586
	c-0.46899,1.53575-0.73059,3.10651-0.79546,4.67556l-7.06652,1.60805l2.187,9.61139l7.0667-1.60786
	c0.73724,1.38659,1.65257,2.68947,2.73989,3.87115l-3.85841,6.13179l8.34276,5.24994l3.8586-6.13178
	c1.53575,0.46899,3.10651,0.73058,4.67556,0.79527l1.60805,7.06671l9.6114-2.187l-1.60786-7.06671
	c1.3866-0.73724,2.68947-1.65276,3.87115-2.74007L138.40678,65.20634z M129.00847,53.46911
	c-2.67862,4.25661-8.3007,5.5359-12.55732,2.85728c-4.25661-2.67863-5.5359-8.30071-2.85728-12.55733
	c2.67844-4.25661,8.30071-5.5359,12.55733-2.85728C130.40781,43.59031,131.6871,49.21249,129.00847,53.46911z"/>
<path class="st4" d="M69.54504,78.73303c-6.95593,0-12.59485-5.63892-12.59485-12.59491
	c0-6.95593,5.63892-12.59485,12.59485-12.59485c4.95746,0,9.23352,2.87134,11.28857,7.03522l11.84735-20.87207l-3.17224-3.17224
	l-7.08783,7.08783c-1.8844-1.08002-3.91583-1.93085-6.05914-2.51324V31.0885H62.72833v10.02026
	c-2.14331,0.5824-4.17468,1.43323-6.05914,2.51324l-7.08783-7.08783l-9.6402,9.64026l7.08777,7.08777
	c-1.08002,1.88458-1.93085,3.91589-2.51324,6.0592h-10.0202v13.63336h10.0202c0.5824,2.14337,1.43323,4.17474,2.51324,6.0592
	l-7.08777,7.08777l9.6402,9.64026l7.08783-7.08777c1.88446,1.08008,3.91583,1.93085,6.05914,2.51331v1.30774l7.82941-13.79333
	C70.22272,78.70868,69.8869,78.73303,69.54504,78.73303z"/>
<polygon class="st4" points="98.49249,85.44531 96.76886,88.48181 99.14893,86.10175 "/>
<path class="st5" d="M94.37842,58.68243c-0.57196-1.90686-1.34595-3.72546-2.31726-5.42023l7.08777-7.08777l-6.46796-6.46802
	L80.83362,60.57849c0.82843,1.67859,1.30634,3.56116,1.30634,5.55963c0,6.61414-5.10107,12.02667-11.58221,12.54382
	l-7.82941,13.79333v8.36346h7.72137L94.37842,58.68243z"/>
<path class="st5" d="M92.06116,79.01398c1.08008-1.88446,1.93091-3.91583,2.51331-6.0592h10.02014V59.32141h-3.74243
	L83.55731,89.79059l5.95142,5.95142l7.26013-7.26019l1.72363-3.0365L92.06116,79.01398z"/>
<path class="st5" d="M116.45117,56.32635c-1.59363-1.00281-2.76959-2.4184-3.47711-4.02026l-8.78888,15.4837l7.79053,4.90247
	l3.85864-6.13177c0.43756,0.13361,0.87848,0.24579,1.32086,0.34601l5.25079-9.25055
	C120.39844,57.90259,118.29663,57.48767,116.45117,56.32635z"/>
<path class="st5" d="M126.15118,40.91174c1.59363,1.00281,2.76959,2.41846,3.47711,4.02032l8.78894-15.48376l-7.79083-4.9024
	l-3.8584,6.13165c-0.43756-0.13361-0.87848-0.24573-1.32086-0.34589l-5.25079,9.25055
	C122.20398,39.33557,124.30579,39.75049,126.15118,40.91174z"/>
<polygon class="st0" points="58.07897,94.16496 87.72461,137.79359 166.15762,28.25847 "/>
<polygon class="st6" points="58.07897,94.16496 35.94777,122.40411 65.67724,105.34711 "/>
</svg>
