<?xml version="1.0" encoding="utf-8"?>
<!-- Generator: Adobe Illustrator 19.2.1, SVG Export Plug-In . SVG Version: 6.00 Build 0)  -->
<svg version="1.1" id="Layer_1" xmlns="http://www.w3.org/2000/svg" xmlns:xlink="http://www.w3.org/1999/xlink" x="0px" y="0px"
	 viewBox="0 0 170 150" style="enable-background:new 0 0 170 150;" xml:space="preserve">
<style type="text/css">
	.st0{fill:#F6936A;}
	.st1{fill:#F6BD8D;}
	.st2{fill:#2C3441;}
	.st3{fill:#B0DDFF;}
	.st4{fill:#FF5535;}
	.st5{opacity:0.2;clip-path:url(#SVGID_2_);}
	.st6{fill:#FFFFFF;}
	.st7{opacity:0.2;clip-path:url(#SVGID_4_);}
</style>
<g>
	<path class="st0" d="M114.19578,141.18326h-34.5789c-9.48933,0-17.20957-7.72025-17.20957-17.20957
		c0-9.49004,7.72025-17.21028,17.20957-17.21028h65.17329c4.31308,0,7.82254-3.50945,7.82254-7.82253V82.15588
		c0-1.35782-1.10489-2.46236-2.46271-2.46236v-9.38704c6.53407,0,11.84975,5.31568,11.84975,11.8494v16.78499
		c0,9.48933-7.72025,17.20958-17.20958,17.20958H79.61688c-4.31342,0-7.82253,3.50945-7.82253,7.82323
		c0,4.31307,3.50911,7.82253,7.82253,7.82253h34.5789V141.18326z"/>
</g>
<g>
	
		<rect x="75.79217" y="68.20164" transform="matrix(-1 0.00054 -0.00054 -1 170.8461 149.92886)" class="st1" width="19.22145" height="13.57153"/>
</g>
<g>
	
		<rect x="75.79217" y="68.20164" transform="matrix(-1 0.00054 -0.00054 -1 170.8461 149.92886)" class="st1" width="19.22145" height="13.57153"/>
</g>
<path class="st1" d="M52.20813,47.72605c-11.10069,0.00547-20.64161,6.64867-24.88904,16.17111l-7.47463,0.00416l0.01086,22.17699
	l7.46197-0.0042c4.25059,9.53326,13.806,16.18005,24.91755,16.17461c15.05601-0.0074,27.25533-12.21868,27.24793-27.2747
	C79.47543,59.91802,67.26414,47.7187,52.20813,47.72605z"/>
<path class="st1" d="M150.3205,86.07346l-0.01085-22.17695l-6.04591,0.00337c-4.25076-9.53281-13.80592-16.17925-24.91717-16.17382
	c-15.05601,0.0074-27.25533,12.21868-27.24798,27.2747s12.21868,27.25533,27.2747,27.24798
	c11.10096-0.00548,20.64213-6.64907,24.8894-16.17185L150.3205,86.07346z"/>
<g>
	<circle class="st2" cx="119.35967" cy="74.9874" r="22.31822"/>
</g>
<g>
	<circle class="st2" cx="52.22123" cy="74.9874" r="21.48689"/>
</g>
<g>
	<g>
		<g>
			<path class="st3" d="M68.70132,74.9874c0,0-7.36976,11.96493-16.46083,11.96493S35.77966,74.9874,35.77966,74.9874
				s7.36977-11.96492,16.46083-11.96492S68.70132,74.9874,68.70132,74.9874z"/>
		</g>
		<g>
			<circle class="st2" cx="52.24049" cy="74.65308" r="9.05866"/>
		</g>
	</g>
	<g>
		<polygon class="st4" points="52.53057,69.02702 55.80384,69.02702 52.66853,74.15258 54.82082,74.15258 49.07158,80.97276 
			51.39446,75.7034 49.39524,75.7034 		"/>
	</g>
</g>
<g>
	<g>
		<g>
			<path class="st3" d="M135.82048,74.9874c0,0-7.36977,11.96493-16.46084,11.96493S102.8988,74.9874,102.8988,74.9874
				s7.36977-11.96492,16.46084-11.96492S135.82048,74.9874,135.82048,74.9874z"/>
		</g>
		<g>
			<circle class="st2" cx="119.35964" cy="74.65308" r="9.05866"/>
		</g>
	</g>
	<g>
		<polygon class="st4" points="119.64971,69.02702 122.923,69.02702 119.78767,74.15258 121.93996,74.15258 116.19073,80.97276 
			118.51361,75.7034 116.5144,75.7034 		"/>
	</g>
</g>
<g>
	<defs>
		<circle id="SVGID_1_" cx="119.35967" cy="74.9874" r="22.31822"/>
	</defs>
	<clipPath id="SVGID_2_">
		<use xlink:href="#SVGID_1_"  style="overflow:visible;"/>
	</clipPath>
	<g class="st5">
		<polygon class="st6" points="120.76688,39.52529 104.53561,39.53324 82.24803,102.07659 98.4793,102.06864 		"/>
	</g>
	<g class="st5">
		<polygon class="st6" points="135.27477,39.51818 123.81036,39.5238 101.52277,102.06715 112.98718,102.06153 		"/>
	</g>
</g>
<g>
	<defs>
		<circle id="SVGID_3_" cx="52.22123" cy="74.9874" r="21.48689"/>
	</defs>
	<clipPath id="SVGID_4_">
		<use xlink:href="#SVGID_3_"  style="overflow:visible;"/>
	</clipPath>
	<g class="st7">
		<polygon class="st6" points="73.69139,40.83637 58.06472,40.84402 36.60734,101.05769 52.234,101.05003 		"/>
	</g>
	<g class="st7">
		<polygon class="st6" points="87.65887,40.82953 76.6215,40.83493 55.16411,101.04859 66.20148,101.04319 		"/>
	</g>
</g>
<g>
	<path class="st0" d="M19.85,79.69352c-6.53407,0-11.84975-5.31603-11.84975-11.85011V51.05877
		c0-9.48933,7.72024-17.20957,17.20957-17.20957h65.17295c4.31307,0,7.82253-3.50945,7.82253-7.82288
		s-3.50946-7.82253-7.82253-7.82253H55.80387V8.81674h34.57889c9.48933,0,17.20957,7.72024,17.20957,17.20957
		c0,9.48968-7.72025,17.20992-17.20957,17.20992H25.20982c-4.31343,0-7.82253,3.50911-7.82253,7.82253v16.78464
		c0,1.35817,1.10489,2.46307,2.46272,2.46307V79.69352z"/>
</g>
</svg>
