<?xml version="1.0" encoding="utf-8"?>
<!-- Generator: Adobe Illustrator 19.2.1, SVG Export Plug-In . SVG Version: 6.00 Build 0)  -->
<svg version="1.1" id="Layer_1" xmlns="http://www.w3.org/2000/svg" xmlns:xlink="http://www.w3.org/1999/xlink" x="0px" y="0px"
	 viewBox="0 0 110 110" style="enable-background:new 0 0 110 110;" xml:space="preserve">
<style type="text/css">
	.st0{fill:#B0DDFF;}
	.st1{fill:#2C3441;}
	.st2{fill:#FF5535;}
	.st3{opacity:0.33;}
	.st4{fill:none;}
	.st5{opacity:0.25;}
	.st6{fill:#FFFFFF;}
</style>
<g>
	<path class="st0" d="M26.07666,76.01074c-0.48096,0-0.95215-0.23438-1.23584-0.66602
		c-0.44775-0.68164-0.2583-1.59766,0.42334-2.0459l7.1001-4.66602c0.68213-0.44629,1.59766-0.25781,2.04541,0.42285
		c0.44775,0.68164,0.2583,1.59766-0.42334,2.0459l-7.1001,4.66602C26.63623,75.93164,26.35498,76.01074,26.07666,76.01074z"/>
</g>
<g>
	<path class="st0" d="M70.61684,96.5713L57.00163,75.8522c-0.54655-0.83172-0.31538-1.94903,0.51634-2.49557l14.82648-9.74298
		c0.83172-0.54655,1.94902-0.31538,2.49557,0.51635l13.6152,20.71909c0.54655,0.83172,0.31538,1.94903-0.51634,2.49557
		l-14.82648,9.74297C72.28069,97.63419,71.16338,97.40302,70.61684,96.5713z"/>
</g>
<g>
	<path class="st0" d="M37.29933,45.87001l-13.61521-20.7191c-0.54655-0.83172-0.31537-1.94903,0.51634-2.49558l14.82648-9.74297
		c0.83172-0.54655,1.94903-0.31538,2.49558,0.51634l13.6152,20.71909c0.54655,0.83172,0.31538,1.94903-0.51634,2.49558
		l-14.82648,9.74297C38.96319,46.9329,37.84588,46.70173,37.29933,45.87001z"/>
</g>
<path class="st1" d="M84.59668,78.97363l-1.10156-1.66992l-8.07367,5.3241l-4.41382-6.71686l8.12225-5.35626l-1.10156-1.66992
	L69.909,74.23907l-6.82349-10.38385l10.63696-6.98993c1.93829-1.27368,2.47699-3.8775,1.20331-5.81573l-8.17853-12.4458
	c-1.27368-1.93823-3.8775-2.47699-5.8158-1.20331l-10.63684,6.98987l-7.09204-10.79248l8.07623-5.32587l-1.10059-1.66992
	l-8.07397,5.3244l-4.41418-6.71741l8.12195-5.35602l-1.10059-1.66992l-8.11969,5.35455l-4.14203-6.30328l-1.67188,1.09863
	l4.14386,6.30597l-8.0755,5.32538l1.10059,1.66992l8.07324-5.32391l4.41425,6.71741L32.2627,38.4165l1.10059,1.66992
	l8.16931-5.38727l7.09027,10.78967l-9.45941,6.21613c-1.93829,1.27368-2.47699,3.8775-1.20331,5.8158l2.00848,3.0564
	c-4.40149-3.58258-10.78339-4.08392-15.77832-0.80157l14.6828,22.34375c4.995-3.28241,7.06732-9.33923,5.52539-14.80096
	l1.74017,2.64813c1.27368,1.93829,3.8775,2.47699,5.81573,1.20331l9.45947-6.21613l6.82538,10.38654l-8.07617,5.32581
	l1.10156,1.66992l8.07324-5.32391l4.41382,6.71686l-8.17261,5.38928l1.10156,1.66992l8.16968-5.38739l4.83911,7.36395
	l1.67188-1.09766l-4.84125-7.36737L84.59668,78.97363z"/>
<g>
	
		<rect x="62.80445" y="37.16529" transform="matrix(0.8357 -0.54919 0.54919 0.8357 -16.16397 43.59286)" class="st2" width="3.93797" height="23.29101"/>
</g>
<g>
	
		<ellipse transform="matrix(0.97209 -0.23463 0.23463 0.97209 -16.90455 8.06995)" class="st2" cx="25.46248" cy="75.078" rx="2.77377" ry="2.77377"/>
</g>
<g class="st3">
	
		<ellipse transform="matrix(0.97209 -0.23463 0.23463 0.97209 -16.90455 8.06995)" class="st2" cx="25.46248" cy="75.078" rx="4.21301" ry="4.21301"/>
</g>
<g>
	<g>
		<path class="st4" d="M75.49524,54.3147l-0.65863,1.46313C75.15161,55.3327,75.37262,54.83643,75.49524,54.3147z"/>
	</g>
	<g class="st5">
		<path class="st6" d="M74.83661,55.77783l0.65863-1.46313c0.25452-1.08307,0.08972-2.26202-0.56946-3.26514l-0.68365-1.04034
			l-4.16455,9.25128l3.6449-2.3952C74.17438,56.56836,74.54211,56.19409,74.83661,55.77783z"/>
	</g>
	<g class="st5">
		<polygon class="st6" points="67.16663,39.24194 53.14661,70.38641 65.66034,62.16315 72.39618,47.20013 		"/>
	</g>
</g>
</svg>
