<?xml version="1.0" encoding="utf-8"?>
<!-- Generator: Adobe Illustrator 19.2.1, SVG Export Plug-In . SVG Version: 6.00 Build 0)  -->
<svg version="1.1" id="Layer_1" xmlns="http://www.w3.org/2000/svg" xmlns:xlink="http://www.w3.org/1999/xlink" x="0px" y="0px"
	 viewBox="0 0 450 450" style="enable-background:new 0 0 450 450;" xml:space="preserve">
<style type="text/css">
	.st0{fill:#F2F2F2;}
	.st1{fill:#2C3441;}
	.st2{fill:#F6E6CC;}
	.st3{fill:#F6BD8D;}
	.st4{fill:#80858D;}
	.st5{fill:#FF9986;}
	.st6{fill:#FF5535;}
	.st7{opacity:0.1;fill:#FFFFFF;}
	.st8{fill:#DBEDFF;}
	.st9{fill:#C73135;}
	.st10{opacity:0.2;fill:#FFFFFF;}
	.st11{fill:#B0DDFF;}
	.st12{fill:#FFFFFF;}
	.st13{fill:#DADADA;}
	.st14{fill:none;}
</style>
<g>
	<path class="st0" d="M227.5752,404.20898c-95.85205,0-173.83301-77.98145-173.83301-173.83301
		c0-95.85205,77.98096-173.8335,173.83301-173.8335c95.85156,0,173.83301,77.98145,173.83301,173.8335
		C401.4082,326.22754,323.42676,404.20898,227.5752,404.20898z M227.5752,59.54248
		c-94.19775,0-170.83301,76.63574-170.83301,170.8335c0,94.19727,76.63525,170.83301,170.83301,170.83301
		c94.19727,0,170.83301-76.63574,170.83301-170.83301C398.4082,136.17822,321.77246,59.54248,227.5752,59.54248z"/>
</g>
<path class="st1" d="M403.52917,176.63867l-0.0882,0.0882c1.52338,3.66602-8.17596,17.45398-22.51599,31.79401
	s-28.12805,24.03943-31.79407,22.51605l-0.0882,0.0882c11.65961,11.65961,31.50659,7.11218,46.55261-7.93384
	S414.38165,187.49109,403.52917,176.63867z"/>
<g>
	<path class="st1" d="M55.1333,259.34863H44.04785c-3.22754,0-5.85352-2.62598-5.85352-5.85352s2.62598-5.85352,5.85352-5.85352
		h105.69775c4.56885,0,8.28564-3.7168,8.28564-8.28516s-3.7168-8.28516-8.28564-8.28516h-41.67969v-1h41.67969
		c5.12012,0,9.28564,4.16504,9.28564,9.28516s-4.16553,9.28516-9.28564,9.28516H44.04785
		c-2.67627,0-4.85352,2.17773-4.85352,4.85352s2.17725,4.85352,4.85352,4.85352H55.1333V259.34863z"/>
</g>
<ellipse transform="matrix(0.70711 -0.70711 0.70711 0.70711 -26.43272 307.87503)" class="st2" cx="358.42166" cy="185.84462" rx="15.04409" ry="15.04409"/>
<ellipse transform="matrix(0.70711 -0.70711 0.70711 0.70711 -26.43272 307.87503)" class="st3" cx="358.42166" cy="185.84462" rx="8.28553" ry="8.28553"/>
<ellipse transform="matrix(0.70711 -0.70711 0.70711 0.70711 -33.79453 325.40338)" class="st4" cx="375.89938" cy="203.4953" rx="38.52774" ry="7.10728"/>
<g>
	<path class="st5" d="M383.03058,206.38242l-25.04047-20.96936l20.97147,25.04292c0.65298-0.63612,1.30728-1.27895,1.96338-1.9351
		C381.63971,207.80608,382.33966,207.09331,383.03058,206.38242z"/>
</g>
<ellipse transform="matrix(0.70711 -0.70711 0.70711 0.70711 -26.43272 307.87503)" class="st6" cx="358.42166" cy="185.84462" rx="3.85023" ry="3.85023"/>
<g>
	<path class="st7" d="M395.49506,223.28833l0.75757,1.73291h4.94244l-2.35236-5.38098
		c-1.01794,1.21088-2.09534,2.39893-3.24738,3.55096C395.56226,223.2243,395.5282,223.25531,395.49506,223.28833z"/>
	<path class="st7" d="M386.50336,202.72015l8.9917,20.56818c0.03314-0.03302,0.0672-0.06403,0.10028-0.09711
		c1.15204-1.15204,2.22943-2.34009,3.24738-3.55096l-9.01215-20.61487C388.7688,200.23779,387.65765,201.47156,386.50336,202.72015z
		"/>
	<path class="st7" d="M403.52917,176.63861l-0.08826,0.08826c1.00085,2.40814-2.8418,9.18445-9.66107,17.61572l8.84259,20.22711
		C411.51093,200.99548,412.41943,185.52893,403.52917,176.63861z"/>
</g>
<path class="st8" d="M321.01669,339.71106V339.711c0-10.8111-7.18506-19.93982-17.03894-22.88348h42.10803
	c6.48743,0,11.74658,5.25916,11.74658,11.74664v0.00006c0,4.80194-2.88501,8.9245-7.01306,10.74585h51.07056
	c6.48755,0,11.7467,5.25922,11.7467,11.7467c0,6.48755-5.25916,11.7467-11.7467,11.7467h-98.68311
	C313.45529,360.12598,321.01669,350.80261,321.01669,339.71106z"/>
<path class="st8" d="M170.38678,140.73904h-25.7533c-5.21411,0-9.4408-4.22675-9.4408-9.44073s4.22668-9.44073,9.4408-9.44073
	h15.7453c3.7821-1.23132,6.5177-4.78113,6.5177-8.974v-0.00006c0-5.21399-4.22668-9.44073-9.44067-9.44073h-19.69977h-23.12256
	H86.47832c-1.81836,0-3.29248,1.47412-3.29248,3.2926c0,1.50195,1.01282,2.75244,2.3877,3.14758h29.04322
	c3.30664,0,5.98718,2.6806,5.98718,5.9873s-2.68054,5.9873-5.98718,5.9873h-2.90637h-3.5729
	c-5.21387,0-9.44067,4.22675-9.44067,9.44073c0,4.66895,3.39258,8.53613,7.84497,9.29578h18.2416
	c3.30664,0,5.9873,2.6806,5.9873,5.9873s-2.68066,5.9873-5.9873,5.9873H105.6347H93.35577H52.97832
	c-1.81836,0-3.29248,1.47412-3.29248,3.29254c0,1.81848,1.47412,3.2926,3.29248,3.2926h61.65516h21.82324h31.00708
	c5.21399,0,9.44067-4.22675,9.44067-9.44073C176.90448,145.52017,174.16888,141.97037,170.38678,140.73904z"/>
<circle class="st6" cx="227.57529" cy="64.99295" r="33.99772"/>
<circle class="st6" cx="227.57529" cy="57.30444" r="33.99772"/>
<g>
	<path class="st9" d="M223.75778,43.14947v-0.85783h7.63501v0.85783l-2.01633,18.95926h-3.60304L223.75778,43.14947z
		 M224.10051,65.45456h6.94887v6.86268h-6.94887V65.45456z"/>
</g>
<g>
	<path class="st10" d="M261.573,57.30444c0-17.92297-13.87195-32.59595-31.46338-33.8938l24.06702,55.05243
		C258.802,72.6557,261.573,65.30573,261.573,57.30444z"/>
	<path class="st10" d="M225.71606,23.35931c-3.09167,0.16669-6.07007,0.75287-8.88794,1.69147l27.12549,62.04858
		c2.66388-1.46747,5.10614-3.28442,7.27338-5.3847L225.71606,23.35931z"/>
</g>
<path class="st1" d="M396.87268,222.40959l-26.36719,61.25795h26.18781h0.01282h26.53375L396.87268,222.40959z M410.35693,265.29205
	l5.80981,13.45508h-14.66235L410.35693,265.29205z M396.72852,276.96124l-9.94495-14.14703h20.11575L396.72852,276.96124z
	 M406.79291,257.8938h-19.84045l9.92023-22.97304L406.79291,257.8938z M383.36899,265.34467l8.60049,13.40247h-14.39087
	L383.36899,265.34467z"/>
<circle class="st4" cx="396.97925" cy="228.66209" r="9.56953"/>
<circle class="st1" cx="396.97925" cy="228.66209" r="5.73613"/>
<rect x="174.07983" y="359.98016" class="st1" width="107.90694" height="66.71313"/>
<circle class="st11" cx="207.02571" cy="393.33673" r="26.33333"/>
<g>
	<path class="st11" d="M207.02588,414.96582c-11.92627,0-21.62891-9.70313-21.62891-21.62891s9.70264-21.62891,21.62891-21.62891
		c11.92578,0,21.62842,9.70313,21.62842,21.62891S218.95166,414.96582,207.02588,414.96582z M207.02588,372.70801
		c-11.375,0-20.62891,9.25391-20.62891,20.62891s9.25391,20.62891,20.62891,20.62891c11.37451,0,20.62842-9.25391,20.62842-20.62891
		S218.40039,372.70801,207.02588,372.70801z"/>
</g>
<g>
	<path class="st11" d="M207.02588,409.65723c-8.99951,0-16.32129-7.32129-16.32129-16.32031c0-9,7.32178-16.32129,16.32129-16.32129
		s16.3208,7.32129,16.3208,16.32129C223.34668,402.33594,216.02539,409.65723,207.02588,409.65723z M207.02588,378.01563
		c-8.44824,0-15.32129,6.87305-15.32129,15.32129c0,8.44727,6.87305,15.32031,15.32129,15.32031
		c8.44775,0,15.3208-6.87305,15.3208-15.32031C222.34668,384.88867,215.47363,378.01563,207.02588,378.01563z"/>
</g>
<g>
	<path class="st11" d="M207.02588,403.71191c-5.7207,0-10.375-4.6543-10.375-10.375s4.6543-10.375,10.375-10.375
		s10.375,4.6543,10.375,10.375S212.74658,403.71191,207.02588,403.71191z M207.02588,383.96191
		c-5.16943,0-9.375,4.20605-9.375,9.375s4.20557,9.375,9.375,9.375s9.375-4.20605,9.375-9.375
		S212.19531,383.96191,207.02588,383.96191z"/>
</g>
<g>
	<path class="st11" d="M207.02588,397.70313c-2.40771,0-4.3667-1.95898-4.3667-4.36621s1.95898-4.36621,4.3667-4.36621
		s4.36621,1.95898,4.36621,4.36621S209.43359,397.70313,207.02588,397.70313z M207.02588,389.9707
		c-1.85645,0-3.3667,1.50977-3.3667,3.36621s1.51025,3.36621,3.3667,3.36621c1.85596,0,3.36621-1.50977,3.36621-3.36621
		S208.88184,389.9707,207.02588,389.9707z"/>
</g>
<g>
	<rect x="241.36621" y="369.31348" class="st6" width="30.00195" height="4"/>
</g>
<g>
	<rect x="241.36621" y="378.3125" class="st6" width="19.66113" height="2"/>
</g>
<g>
	<rect x="241.36621" y="384.31348" class="st6" width="30.00195" height="2"/>
</g>
<g>
	<rect x="241.36621" y="399.90039" class="st6" width="8.15234" height="2"/>
</g>
<g>
	<rect x="241.36621" y="405.90137" class="st6" width="30.00195" height="2"/>
</g>
<g>
	<rect x="241.36621" y="412.46582" class="st6" width="30.00195" height="4"/>
</g>
<g>
	<rect x="241.36621" y="391.33691" class="st6" width="16.30469" height="4"/>
</g>
<g>
	<rect x="253.60059" y="399.90039" class="st6" width="17.76758" height="2"/>
</g>
<g>
	<rect x="264.69434" y="378.3125" class="st6" width="6.67383" height="2"/>
</g>
<polygon class="st12" points="196.41064,401.16602 194.99658,399.75195 193.4541,401.29443 191.91162,399.75195 
	190.49756,401.16602 192.04004,402.7085 190.49756,404.25098 191.91162,405.66504 193.4541,404.12256 194.99658,405.66504 
	196.41064,404.25098 194.86816,402.7085 "/>
<polygon class="st12" points="223.55371,381.91895 222.13965,380.50488 220.59717,382.04736 219.05469,380.50488 
	217.64063,381.91895 219.18311,383.46143 217.64063,385.00391 219.05469,386.41797 220.59717,384.87549 222.13965,386.41797 
	223.55371,385.00391 222.01123,383.46143 "/>
<g>
	<polygon class="st10" points="235.23334,359.98016 264.39795,426.69324 274.28278,426.69324 245.11816,359.98016 	"/>
	<polygon class="st10" points="199.64337,359.98016 228.80798,426.69324 233.75043,426.69324 204.58582,359.98016 	"/>
	<polygon class="st10" points="210.58221,359.98016 239.74683,426.69324 259.51642,426.69324 230.35181,359.98016 	"/>
</g>
<g>
	<path class="st0" d="M81.58838,141.604l-2.56152-1.56152c9.03271-14.82227,20.20898-28.19092,33.21924-39.73584l1.99121,2.24414
		C101.45068,113.89697,90.46582,127.03662,81.58838,141.604z"/>
</g>
<polyline class="st1" points="128.69904,221.32932 128.69904,211.81456 124.96428,211.81456 118.0283,218.75055 "/>
<polygon class="st6" points="123.72906,204.25612 118.90839,204.25612 110.59306,209.23579 123.72906,209.23579 "/>
<g>
	<polygon class="st1" points="97.57141,217.03383 104.52172,217.04105 104.52172,212.87166 	"/>
	<polygon class="st4" points="123.72906,209.23579 110.59306,209.23579 104.52172,212.87166 104.52172,217.04105 
		123.72906,217.06102 	"/>
</g>
<g>
	<path class="st13" d="M128.24208,219.83751l-2.26641-2.34734c-0.7654-0.79276-1.82005-1.24049-2.92204-1.24049H52.60291
		c-2.20457,0-4.32466,0.84807-5.9211,2.36844l-3.22875,3.07497c-1.14688,1.09235-2.57355,1.84601-4.12224,2.1779l-4.51874,0.96835
		v8.48926l9.26326,1.64351c3.15233,0.55933,6.34774,0.84061,9.54922,0.84061h10.01476H99.7296h1.29243
		c0.65155,0,1.29356-0.15675,1.87173-0.45695l24.92741-12.94305C128.78734,221.91104,128.99818,220.62062,128.24208,219.83751z"/>
	<path class="st4" d="M29.32144,226.01591c-1.49397,0.32008-2.56131,1.64038-2.56131,3.16823
		c0,1.57117,1.12717,2.91595,2.67411,3.19037l5.37784,0.95409v-8.48926L29.32144,226.01591z"/>
</g>
<polyline class="st1" points="128.69904,221.32932 128.69904,228.26529 124.96428,228.26529 118.0283,221.32932 "/>
<path class="st1" d="M46.68181,218.61812l-3.22875,3.07497c-1.14688,1.09235-2.57355,1.84601-4.12224,2.1779h17.22603
	c1.98496,0,3.88864-0.78848,5.2923-2.19215l5.34814-5.42915H52.60291C50.39833,216.24968,48.27825,217.09775,46.68181,218.61812z"/>
<path class="st6" d="M105.08942,233.32869H68.70448c-4.74276,0-9.18846-2.3094-11.91549-6.18974h0h41.10257L105.08942,233.32869z"/>
<g>
	<polygon class="st10" points="44.2171,220.96539 45.4873,223.87097 48.81213,223.87097 46.56458,218.7298 	"/>
	<path class="st10" d="M56.55682,223.87097c0.19446,0,0.38715-0.01373,0.57965-0.02869l-3.31921-7.59265h-1.21436
		c-1.7757,0-3.49146,0.55841-4.92804,1.56696l2.64679,6.05438H56.55682z"/>
</g>
<g>
	<path class="st4" d="M69.72576,233.32864c-1.09792,0-2.17464,0.30081-3.11366,0.86961l-2.97215,1.80069
		c-0.33088,0.20045-0.33088,0.68044,0,0.88089l2.84899,1.72603c1.01607,0.61566,2.19215,0.91621,3.37908,0.86371l6.13636-0.27147
		v-5.86946H69.72576z"/>
	<path class="st1" d="M95.00408,233.32864H76.00439v5.86946l19.13715-0.8465c1.82355-0.08069,3.51174-0.98593,4.58797-2.46028
		l0.09912-0.13586C98.69494,234.22871,96.90566,233.32864,95.00408,233.32864z"/>
</g>
<polygon class="st9" points="83.70818,250.61929 60.22707,255.41707 83.70818,255.41707 "/>
<g>
	<path class="st6" d="M139.74701,255.41705H60.22705v23.89642h79.51996l-8.70154-11.7229L139.74701,255.41705z M76.35303,265.34961
		c0,0.82227-0.0625,1.62988-0.88477,2.04883v0.07715c0.72949,0.32617,0.88477,0.99316,0.88477,1.78516l-0.01563,1.24121
		c0,1.70703-0.97754,2.62207-2.48242,2.62207c-1.75391,0-2.4834-1.00879-2.38965-2.76172l1.66016-0.20215
		c-0.1084,1.02441,0.24805,1.39648,0.75977,1.39648c0.37305,0,0.76074-0.2168,0.76074-0.91504v-1.45898
		c0-0.72949-0.3418-1.00879-0.94629-1.00879h-0.46582v-1.42773h0.54297c0.58984,0,0.91602-0.26367,0.91602-0.94629v-1.19531
		c0-0.41895-0.13965-0.86816-0.68262-0.86816c-0.5127,0-0.83887,0.3877-0.83887,1.38086l-1.64453-0.21777
		c0.03125-1.66016,1.02441-2.76172,2.56055-2.76172c1.70703,0,2.26563,1.17871,2.26563,2.3584V265.34961z M85.74268,270.84277
		c0,1.45898-1.05566,2.28125-2.34277,2.28125c-1.31934,0-2.35938-0.82227-2.35938-2.28125v-6.39355
		c0-1.45801,1.05566-2.31152,2.35938-2.31152c1.38086,0,2.34277,0.85352,2.34277,2.31152V270.84277z M99.63428,266.73047
		c1.9082,0.76074,2.1416,1.61426,2.1416,3.22852c0,1.92383-0.63672,3.16504-2.68555,3.16504
		c-1.87695,0-2.65332-1.16309-2.65332-2.62207l1.66016-0.32617c0.03125,0.80664,0.24902,1.36621,1.02441,1.36621
		c0.93164,0,0.99316-0.74512,0.99316-1.56738c0-1.05566-0.20117-1.30371-1.22559-1.73828
		c-2.0791-0.88477-2.37402-1.78516-2.37402-3.13477c0-1.72266,0.80664-2.96387,2.66895-2.96387
		c2.01758,0,2.5918,1.41211,2.5918,2.54492l-1.66113,0.3877c0-0.79102-0.2168-1.33398-0.99316-1.33398
		c-0.80664,0-0.94629,0.74414-0.94629,1.34961C98.17529,265.81543,98.25244,266.17188,99.63428,266.73047z M110.979,263.81348
		h-3.12012v2.93262h2.71582v1.59863h-2.71582v3.10352h3.12012v1.58301h-4.7959v-10.80078h4.7959V263.81348z M117.65283,271.55664
		c0.60547,0,0.93066-0.41895,0.94629-1.33398c0.55859,0.09277,1.11719,0.1709,1.67578,0.24805
		c-0.03027,1.62988-0.89941,2.65332-2.5752,2.65332c-1.76953,0-2.60742-0.93066-2.60742-2.65332v-5.38477
		c0-1.61426,0.66699-2.94824,2.62207-2.94824c1.78516,0,2.56055,1.03906,2.56055,2.49805l-1.62891,0.41895
		c0-0.79102-0.29492-1.33398-0.94629-1.33398c-0.77637,0-0.94727,0.74414-0.94727,1.28809v5.47754
		C116.75244,270.90527,116.89209,271.55664,117.65283,271.55664z"/>
	<path class="st6" d="M83.3999,263.7207c-0.4043,0-0.71387,0.26367-0.71387,0.66699v6.51758
		c0,0.40332,0.30957,0.66699,0.71387,0.66699c0.3877,0,0.68262-0.26367,0.68262-0.66699v-6.51758
		C84.08252,263.98438,83.7876,263.7207,83.3999,263.7207z"/>
</g>
<g>
	<polygon class="st9" points="60.22705,255.41705 83.70819,255.41705 83.70819,250.61926 55.13354,250.61926 55.13354,267.2644 
		60.22705,267.2644 	"/>
</g>
<g>
	<polygon class="st14" points="128.64978,221.32928 128.69904,221.32928 128.65295,221.31812 	"/>
	<path class="st10" d="M113.86298,230.01904c0.41779-0.36499,0.85773-0.70276,1.30176-1.03473l-1.42963,0.74231L113.86298,230.01904
		z"/>
	<path class="st10" d="M119.71814,226.62006l0.71704,1.64026c0.80365-0.71875,1.67175-1.3595,2.57239-1.95178l-0.91919-0.91919
		L119.71814,226.62006z"/>
	<polygon class="st10" points="118.65656,204.40692 111.802,208.51178 119.71814,226.62006 122.08838,225.38934 
		124.96428,228.26529 128.69904,228.26529 	"/>
	<path class="st10" d="M109.41138,209.94342l-3.42743,2.05255l7.75116,17.73065l1.42963-0.74231
		c0.63922-0.47778,1.85151-0.91341,2.54108-1.31941L109.41138,209.94342z"/>
</g>
<path class="st9" d="M227.57532,91.30212c-17.47595,0-31.86505-13.18793-33.77545-30.15344
	c-0.14215,1.26251-0.22229,2.54376-0.22229,3.84424c0,18.77643,15.22131,33.99774,33.99774,33.99774
	c18.77637,0,33.99768-15.22131,33.99768-33.99774c0-1.30048-0.08014-2.58173-0.22229-3.84424
	C259.44031,78.1142,245.05121,91.30212,227.57532,91.30212z"/>
</svg>
